<svg width="24" height="24" viewBox="0 0 24 24" fill="none" xmlns="http://www.w3.org/2000/svg">
<rect width="24" height="24" rx="2" fill="#0066B2" fill-opacity="0.08"/>
<path d="M6.6 6H17.4C18.0641 5.99996 18.7031 6.25404 19.1858 6.71014C19.6685 7.16623 19.9584 7.78976 19.996 8.4528L20 8.6V16.2C20 16.8641 19.746 17.5031 19.2899 17.9858C18.8338 18.4685 18.2102 18.7584 17.5472 18.796L17.4 18.8H6.6C5.93589 18.8 5.29694 18.546 4.81422 18.0899C4.33149 17.6338 4.0416 17.0102 4.004 16.3472L4 16.2V8.6C3.99996 7.93589 4.25404 7.29694 4.71014 6.81422C5.16623 6.33149 5.78976 6.0416 6.4528 6.004L6.6 6ZM18.8 10.2984L12.28 13.7304C12.2064 13.7693 12.1255 13.7924 12.0424 13.7984C11.9594 13.8043 11.876 13.7929 11.7976 13.7648L11.7208 13.7312L5.2 10.2992V16.2C5.20001 16.5514 5.33214 16.8899 5.57014 17.1483C5.80815 17.4068 6.13464 17.5663 6.4848 17.5952L6.6 17.6H17.4C17.7515 17.6 18.0901 17.4677 18.3486 17.2296C18.607 16.9914 18.7665 16.6647 18.7952 16.3144L18.8 16.2V10.2984ZM17.4 7.2H6.6C6.24865 7.20001 5.91015 7.33214 5.65169 7.57014C5.39323 7.80815 5.23371 8.13464 5.2048 8.4848L5.2 8.6V8.9432L12 12.5224L18.8 8.9424V8.6C18.8 8.24852 18.6677 7.90991 18.4296 7.65143C18.1914 7.39296 17.8647 7.23352 17.5144 7.2048L17.4 7.2Z" fill="#0066B2"/>
</svg>
