<svg width="24" height="24" viewBox="0 0 24 24" fill="none" xmlns="http://www.w3.org/2000/svg">
<rect width="24" height="24" rx="2" fill="#0066B2" fill-opacity="0.08"/>
<path d="M4.294 4.002C3.68273 4.0135 3.10029 4.26399 2.67149 4.69977C2.24268 5.13555 2.00164 5.72196 2 6.33333C2 6.42174 2.03512 6.50652 2.09763 6.56904C2.16014 6.63155 2.24493 6.66667 2.33333 6.66667H6V17.6667C6 18.9513 7.04867 20 8.33333 20H19.6667C20.9513 20 22 18.9513 22 17.6667C22 17.5783 21.9649 17.4935 21.9024 17.431C21.8399 17.3685 21.7551 17.3333 21.6667 17.3333H18V6.33333C18 5.04867 16.9513 4 15.6667 4L4.33333 4.002H4.294ZM4.33333 4.66667C5.12667 4.66667 5.69133 5.26 5.862 6H2.80467C2.97533 5.26 3.53933 4.66667 4.33333 4.66667ZM5.96 4.66667H15.6667C16.5913 4.66667 17.3333 5.40867 17.3333 6.33333V17.3333H10.3333C10.2449 17.3333 10.1601 17.3685 10.0976 17.431C10.0351 17.4935 10 17.5783 10 17.6667C10 18.5913 9.258 19.3333 8.33333 19.3333C8.11427 19.334 7.89722 19.2914 7.6947 19.2079C7.49217 19.1244 7.30816 19.0017 7.15325 18.8467C6.99835 18.6918 6.87561 18.5078 6.7921 18.3053C6.70859 18.1028 6.66596 17.8857 6.66667 17.6667V6.33333C6.66667 5.68067 6.394 5.09067 5.96 4.66667ZM9.14467 5.33333V5.95067C8.98799 5.96827 8.83478 6.00893 8.69 6.07133C8.55467 6.13133 8.43867 6.20867 8.34267 6.302C8.24933 6.39533 8.176 6.50533 8.124 6.63267C8.07467 6.76 8.04933 6.90133 8.04933 7.05467C8.04933 7.22133 8.07867 7.368 8.136 7.49467C8.19467 7.622 8.278 7.73467 8.38667 7.832C8.49733 7.92933 8.63133 8.014 8.78667 8.08733C8.944 8.15867 9.122 8.22067 9.31933 8.27467C9.46667 8.32333 9.592 8.37467 9.69533 8.42733C9.80133 8.47933 9.88667 8.536 9.95067 8.59733C10.0173 8.65933 10.0653 8.726 10.0953 8.79733C10.1253 8.8712 10.1403 8.95029 10.1393 9.03C10.1393 9.13133 10.1213 9.22333 10.0847 9.306C10.0473 9.3866 9.99156 9.45737 9.922 9.51267C9.85267 9.56933 9.766 9.61267 9.66267 9.64467C9.45741 9.702 9.24076 9.70499 9.034 9.65333C8.94067 9.62933 8.85533 9.58667 8.77867 9.52467C8.69811 9.4572 8.6348 9.3715 8.594 9.27467C8.54311 9.14903 8.51904 9.01415 8.52333 8.87867H7.87333C7.87333 9.09067 7.90667 9.272 7.97333 9.42333C8.04 9.57267 8.128 9.698 8.23867 9.79667C8.352 9.89667 8.48267 9.97133 8.628 10.0233C8.774 10.076 8.92333 10.1107 9.07867 10.1273V10.6667H9.59333V10.1273C9.778 10.1087 9.944 10.072 10.092 10.0153C10.24 9.95933 10.3653 9.884 10.4693 9.79067C10.5727 9.69733 10.6533 9.58667 10.71 9.45933C10.7673 9.33067 10.7947 9.186 10.7947 9.02467C10.7974 8.87569 10.7695 8.72774 10.7127 8.59C10.658 8.46326 10.5763 8.34996 10.4733 8.258C10.3561 8.15528 10.2239 8.07099 10.0813 8.008C9.90792 7.92836 9.72847 7.8626 9.54467 7.81133C9.40798 7.76945 9.27433 7.71822 9.14467 7.658C9.05143 7.61198 8.9645 7.55417 8.886 7.486C8.82405 7.43205 8.77506 7.36483 8.74267 7.28933C8.716 7.216 8.70133 7.136 8.70133 7.04533C8.70133 6.948 8.716 6.85867 8.74267 6.77867C8.77062 6.69905 8.81656 6.62695 8.87692 6.56799C8.93728 6.50902 9.01042 6.46476 9.09067 6.43867C9.17733 6.40733 9.278 6.392 9.39667 6.392C9.51 6.392 9.61133 6.41267 9.7 6.456C9.7873 6.49772 9.86358 6.55938 9.92267 6.636C9.982 6.712 10.026 6.80267 10.0553 6.90733C10.0873 7.01267 10.1033 7.12867 10.1033 7.254H10.7507C10.7507 6.874 10.6553 6.574 10.4653 6.35533C10.2787 6.13467 10.012 6 9.66733 5.95333V5.33333H9.14467ZM12.3047 7.33333C11.86 7.356 11.894 8.02267 12.338 8H15.6613C16.112 8.00667 16.112 7.32667 15.6613 7.33333H12.3387C12.3273 7.33276 12.316 7.33276 12.3047 7.33333ZM12.3047 9.33333C11.86 9.356 11.894 10.0227 12.338 10H15.6613C16.112 10.0067 16.112 9.32667 15.6613 9.33333H12.3387C12.3273 9.33276 12.316 9.33276 12.3047 9.33333ZM8.30467 11.3333C7.86 11.356 7.894 12.0227 8.338 12H15.6613C16.112 12.0067 16.112 11.3267 15.6613 11.3333H8.33867C8.32734 11.3328 8.31599 11.3328 8.30467 11.3333ZM8.30467 13.3333C7.86 13.356 7.894 14.0227 8.338 14H15.6613C16.112 14.0067 16.112 13.3267 15.6613 13.3333H8.33867C8.32734 13.3328 8.31599 13.3328 8.30467 13.3333ZM8.30467 15.3333C7.86 15.356 7.894 16.0227 8.338 16H15.6613C16.112 16.0067 16.112 15.3267 15.6613 15.3333H8.33867C8.32734 15.3328 8.31599 15.3328 8.30467 15.3333ZM10.5987 18H21.1953C21.0247 18.74 20.4607 19.3333 19.6667 19.3333H9.95467C10.312 18.9853 10.5213 18.5153 10.5987 18Z" fill="#0066B2"/>
</svg>
