<svg width="16" height="16" viewBox="0 0 16 16" fill="none" xmlns="http://www.w3.org/2000/svg">
<g clip-path="url(#clip0_3850_4512)">
<path d="M6.74968 0.109384C4.01968 0.499384 1.43968 2.66938 0.449676 5.40938C0.0796758 6.43938 -0.0603242 7.77938 0.0796758 8.93938C0.309676 10.7694 1.03968 12.2494 2.39968 13.5994C3.74968 14.9594 5.22968 15.6894 7.05968 15.9194C9.50968 16.2194 11.7997 15.4094 13.5997 13.5994C15.4097 11.7994 16.2197 9.50938 15.9197 7.05938C15.6897 5.22938 14.9597 3.74938 13.5997 2.39938C11.7297 0.519383 9.37968 -0.270617 6.74968 0.109384ZM9.61968 1.04938C11.0497 1.34938 12.6397 2.32938 13.5597 3.47938C14.1397 4.19938 14.7697 5.49938 14.9497 6.37938C15.1397 7.23938 15.1397 8.75938 14.9497 9.61938C14.8097 10.2894 14.1697 11.7694 13.8497 12.1494C13.6897 12.3394 13.6797 12.3394 13.5697 12.1594C12.8297 10.9694 11.6697 9.92938 10.5597 9.43938L9.91968 9.15938L10.2697 8.87938C11.8397 7.62938 12.1497 5.35938 10.9597 3.81938C9.37967 1.79938 6.61968 1.79938 5.03968 3.81938C3.84968 5.35938 4.15968 7.62938 5.72968 8.87938L6.07968 9.15938L5.43968 9.43938C4.32968 9.92938 3.16968 10.9694 2.42968 12.1594C2.31968 12.3394 2.30968 12.3394 2.14968 12.1494C1.82968 11.7694 1.18968 10.2894 1.04968 9.61938C0.859676 8.75938 0.859676 7.23938 1.04968 6.37938C1.34968 4.94938 2.32968 3.35938 3.47968 2.43938C4.17968 1.86938 5.49968 1.22938 6.32968 1.04938C7.14968 0.869384 8.78968 0.869384 9.61968 1.04938ZM8.83968 3.26938C9.70968 3.50938 10.4897 4.28938 10.7297 5.15938C10.9397 5.90938 10.9397 6.08938 10.7297 6.83938C10.5897 7.33938 10.4597 7.54938 10.0097 8.00938C9.54968 8.45938 9.33968 8.58938 8.83968 8.72938C8.08968 8.93938 7.90968 8.93938 7.15968 8.72938C6.28968 8.48938 5.50968 7.70938 5.26968 6.83938C5.05968 6.08938 5.05968 5.90938 5.26968 5.15938C5.49968 4.32938 6.28968 3.50938 7.09968 3.27938C7.81968 3.06938 8.10968 3.06938 8.83968 3.26938ZM8.99968 9.80938C9.95968 9.95938 10.9997 10.4994 11.7397 11.2294C12.3197 11.7994 12.9997 12.7894 12.9997 13.0694C12.9997 13.2694 11.8397 14.0894 11.0397 14.4594C10.0697 14.9094 9.18968 15.0994 7.99968 15.0994C6.80968 15.0994 5.92968 14.9094 4.95968 14.4594C4.15968 14.0894 2.99968 13.2694 2.99968 13.0694C2.99968 12.7894 3.67968 11.7994 4.25968 11.2294C5.50968 9.99938 7.14968 9.50938 8.99968 9.80938Z" fill="#273240"/>
</g>
<defs>
<clipPath id="clip0_3850_4512">
<rect width="16" height="16" fill="white"/>
</clipPath>
</defs>
</svg>
