<svg width="24" height="25" viewBox="0 0 24 25" fill="none" xmlns="http://www.w3.org/2000/svg">
<path d="M5.91944 3.47277L0 6.43249V12.4961V18.5597L5.9364 21.5279C9.20141 23.1562 11.9322 24.4961 12 24.4961C12.0678 24.4961 14.7986 23.1562 18.0636 21.5279L24 18.5597V12.4961V6.43249L18.0636 3.46429C14.7986 1.83603 12.0594 0.496096 11.983 0.504576C11.8982 0.504576 9.16749 1.83603 5.91944 3.47277ZM15.5194 5.02472L18.4452 6.50034L15.494 7.96747L12.5512 9.44309L9.60848 7.96747L6.65724 6.50034L9.58304 5.02472C11.1943 4.21906 12.5258 3.55758 12.5512 3.55758C12.5767 3.55758 13.9081 4.21906 15.5194 5.02472ZM6.78445 9.95193L10.4311 11.7752V16.1851C10.4311 18.6106 10.4141 20.595 10.3887 20.595C10.3633 20.595 8.70106 19.7724 6.69965 18.7717L3.053 16.9484V12.5385C3.053 10.1131 3.06996 8.1286 3.09541 8.1286C3.12085 8.1286 4.78304 8.95122 6.78445 9.95193ZM20.947 12.5385V16.9484L17.3004 18.7717C15.2989 19.7724 13.6367 20.595 13.6113 20.595C13.5859 20.595 13.5689 18.6106 13.5689 16.1851V11.7752L17.1986 9.96041C19.1915 8.9597 20.8452 8.13708 20.8876 8.13708C20.9216 8.1286 20.947 10.1131 20.947 12.5385Z" fill="#0066B2"/>
</svg>
