<svg width="10" height="11" viewBox="0 0 10 11" fill="none" xmlns="http://www.w3.org/2000/svg">
<path d="M9.28571 6.21429H5.71429V9.78571C5.71429 9.97515 5.63903 10.1568 5.50508 10.2908C5.37112 10.4247 5.18944 10.5 5 10.5C4.81056 10.5 4.62888 10.4247 4.49492 10.2908C4.36097 10.1568 4.28571 9.97515 4.28571 9.78571V6.21429H0.714286C0.524845 6.21429 0.343164 6.13903 0.20921 6.00508C0.075255 5.87112 0 5.68944 0 5.5C0 5.31056 0.075255 5.12888 0.20921 4.99492C0.343164 4.86097 0.524845 4.78571 0.714286 4.78571H4.28571V1.21429C4.28571 1.02485 4.36097 0.843164 4.49492 0.709209C4.62888 0.575255 4.81056 0.5 5 0.5C5.18944 0.5 5.37112 0.575255 5.50508 0.709209C5.63903 0.843164 5.71429 1.02485 5.71429 1.21429V4.78571H9.28571C9.47515 4.78571 9.65684 4.86097 9.79079 4.99492C9.92475 5.12888 10 5.31056 10 5.5C10 5.68944 9.92475 5.87112 9.79079 6.00508C9.65684 6.13903 9.47515 6.21429 9.28571 6.21429Z" fill="#fff"/>
</svg>
