<svg width="36" height="36" viewBox="0 0 36 36" fill="none" xmlns="http://www.w3.org/2000/svg">
<path d="M9.46582 3.57405C9.10421 3.7428 8.77274 4.0562 8.58591 4.41178C8.44729 4.6649 8.44729 4.68901 8.42921 7.53968L8.41113 10.4205H9.32118H10.2252V9.18499V7.9495H20.9227H31.6203V15.5131V23.0767H30.0533H28.4864V23.9807V24.8848H30.2341C31.8252 24.8848 32.006 24.8727 32.3013 24.7642C32.6991 24.6136 33.0968 24.2399 33.2837 23.8361L33.4283 23.5287V14.1571V4.78544L33.2837 4.4841C33.0788 4.04414 32.8678 3.82115 32.452 3.61624L32.0843 3.42941H20.9288H9.77319L9.46582 3.57405ZM11.9609 4.93611C12.7022 5.38811 12.4129 6.50307 11.5511 6.50307C11.075 6.50307 10.7073 6.12941 10.7073 5.64727C10.7073 5.23142 11.1292 4.81557 11.5511 4.81557C11.6656 4.81557 11.8524 4.86981 11.9609 4.93611ZM14.5886 4.89995C14.8417 5.0024 15.0527 5.29771 15.0888 5.587C15.1431 6.05106 14.7212 6.50307 14.233 6.50307C13.7388 6.50307 13.323 6.05106 13.3832 5.57495C13.4495 5.0024 14.0402 4.67093 14.5886 4.89995ZM17.379 4.93611C17.6261 5.08677 17.7587 5.29169 17.8009 5.587C17.8611 6.05106 17.4634 6.50307 16.9993 6.50307C16.475 6.50307 16.1314 6.1716 16.1314 5.66535C16.1314 5.00843 16.8306 4.59861 17.379 4.93611ZM31.6203 5.65932V6.0812H25.3826H19.1448V5.65932V5.23745H25.3826H31.6203V5.65932Z" fill="url(#paint0_linear_4296_5377)"/>
<path d="M3.68624 11.505C3.30053 11.6557 2.90276 12.0354 2.71593 12.4331L2.57129 12.7405V22.1122V31.4838L2.71593 31.7852C2.92084 32.2251 3.13178 32.4481 3.54763 32.653L3.91526 32.8398H15.0708H26.2264L26.5338 32.6952C26.8954 32.5265 27.2269 32.2131 27.4137 31.8575L27.5523 31.6044L27.5704 22.2206C27.5825 12.9515 27.5825 12.8369 27.4619 12.5175C27.3173 12.1318 26.9617 11.7461 26.5639 11.5532L26.2867 11.4146L15.1371 11.4026C4.22263 11.3905 3.98156 11.3905 3.68624 11.505ZM6.18133 12.9334C6.72374 13.3311 6.62129 14.1749 6.00053 14.422C5.24718 14.7233 4.54807 13.8615 5.00008 13.1865C5.27129 12.7767 5.8137 12.6622 6.18133 12.9334ZM8.83312 12.9334C9.10432 13.1383 9.21883 13.3492 9.21883 13.6445C9.21883 14.2894 8.50767 14.6932 7.95321 14.3677C7.73022 14.2352 7.51325 13.8735 7.51325 13.6325C7.51325 13.1805 7.9954 12.7405 8.44138 12.7948C8.57397 12.8068 8.74874 12.8731 8.83312 12.9334ZM11.5994 12.9454C11.8043 13.0901 11.9731 13.4095 11.9731 13.6445C11.9731 14.1146 11.4307 14.5666 10.9726 14.4823C10.6773 14.428 10.3458 14.1206 10.2916 13.8555C10.1289 13.078 10.9666 12.4934 11.5994 12.9454ZM25.7744 13.6747V14.0965H19.5367H13.299V13.6747V13.2528H19.5367H25.7744V13.6747ZM25.7744 23.4682V31.0318H15.0769H4.37932V23.4682V15.9046H15.0769H25.7744V23.4682Z" fill="url(#paint1_linear_4296_5377)"/>
<defs>
<linearGradient id="paint0_linear_4296_5377" x1="8.41113" y1="23.9269" x2="35.5956" y2="20.4953" gradientUnits="userSpaceOnUse">
<stop stop-color="#0066B2"/>
<stop offset="1" stop-color="#00AEEF"/>
</linearGradient>
<linearGradient id="paint1_linear_4296_5377" x1="2.57129" y1="31.8826" x2="29.7416" y2="28.4524" gradientUnits="userSpaceOnUse">
<stop stop-color="#0066B2"/>
<stop offset="1" stop-color="#00AEEF"/>
</linearGradient>
</defs>
</svg>
