<svg width="24" height="24" viewBox="0 0 24 24" fill="none" xmlns="http://www.w3.org/2000/svg">
<rect width="24" height="24" rx="2" fill="#0066B2" fill-opacity="0.08"/>
<path d="M11.2941 15.7158L6.29409 10.7158C6.20085 10.6226 6.12689 10.5119 6.07643 10.39C6.02597 10.2682 6 10.1377 6 10.0058C6 9.7395 6.10579 9.4841 6.29409 9.2958C6.38733 9.20256 6.49802 9.1286 6.61984 9.07814C6.74166 9.02768 6.87223 9.00171 7.00409 9.00171C7.27039 9.00171 7.52579 9.10749 7.71409 9.2958L12.0041 13.5958L16.2941 9.2958C16.3871 9.20207 16.4977 9.12768 16.6195 9.07691C16.7414 9.02614 16.8721 9 17.0041 9C17.1361 9 17.2668 9.02614 17.3887 9.07691C17.5105 9.12768 17.6211 9.20207 17.7141 9.2958C17.8078 9.38876 17.8822 9.49936 17.933 9.62122C17.9838 9.74308 18.0099 9.87379 18.0099 10.0058C18.0099 10.1378 17.9838 10.2685 17.933 10.3904C17.8822 10.5122 17.8078 10.6228 17.7141 10.7158L12.7141 15.7158C12.6211 15.8095 12.5105 15.8839 12.3887 15.9347C12.2668 15.9855 12.1361 16.0116 12.0041 16.0116C11.8721 16.0116 11.7414 15.9855 11.6195 15.9347C11.4977 15.8839 11.3871 15.8095 11.2941 15.7158Z" fill="#0066B2"/>
</svg>
