<svg width="28" height="28" viewBox="0 0 28 28" fill="none" xmlns="http://www.w3.org/2000/svg">
<path d="M8.1875 14L12.5469 18.3594L19.8125 9.64062M2.375 20.975V7.025C2.375 5.3975 2.375 4.58375 2.69178 3.96181C2.97078 3.41398 3.41398 2.97078 3.96181 2.69178C4.58375 2.375 5.3975 2.375 7.025 2.375H20.975C22.6025 2.375 23.4163 2.375 24.0367 2.69178C24.5846 2.97078 25.0292 3.41398 25.3082 3.96181C25.625 4.5823 25.625 5.39605 25.625 7.02064V20.9808C25.625 22.6054 25.625 23.4177 25.3082 24.0382C25.029 24.5851 24.584 25.0297 24.0367 25.3082C23.4163 25.625 22.604 25.625 20.9794 25.625H7.02064C5.39605 25.625 4.5823 25.625 3.96181 25.3082C3.41499 25.0296 2.97041 24.585 2.69178 24.0382C2.375 23.4163 2.375 22.6025 2.375 20.975Z" stroke="#0066B2" stroke-width="2.90625" stroke-linecap="round" stroke-linejoin="round"/>
</svg>
