<svg width="554" height="329" viewBox="0 0 554 329" fill="none" xmlns="http://www.w3.org/2000/svg">
<path d="M156.691 0H107.15V67.7919H156.691V0Z" fill="#F5F5F5"/>
<path d="M144.138 8.5332H94.5977V76.3251H144.138V8.5332Z" fill="#E0E0E0"/>
<path d="M377.621 101.236C377.621 101.236 377.516 101.244 377.302 101.248C377.075 101.251 376.757 101.255 376.343 101.26C375.482 101.266 374.231 101.274 372.611 101.285C369.335 101.296 364.581 101.314 358.616 101.334C346.633 101.353 329.793 101.378 310.31 101.409H310.18L310.143 101.283C309.143 97.8696 309.754 93.8696 311.989 90.811C314.217 87.7606 318.044 85.8172 321.986 85.9181L321.808 86.1485C321.518 85.1505 321.383 84.0263 321.434 82.9054C321.583 79.1719 323.706 75.5647 326.964 73.8952C330.181 72.197 334.152 72.2593 337.2 73.9502L336.95 74.0387C338.686 69.8026 342.35 66.7317 346.325 65.3082C350.311 63.8592 354.732 64.0495 358.208 65.8682C361.701 67.6583 364.188 70.7071 365.565 73.9059C366.979 77.1227 367.173 80.5766 366.47 83.5425L366.336 83.3892C368.333 83.1678 370.267 83.5114 371.928 84.1903C373.591 84.8726 375.003 85.873 376.076 87.0333C376.61 87.6114 377.071 88.2378 377.382 88.9061C377.691 89.5728 377.922 90.2411 378.078 90.8963C378.399 92.205 378.514 93.4317 378.553 94.5305C378.624 96.733 378.357 98.4304 378.118 99.5538C377.987 100.116 377.876 100.538 377.771 100.82C377.673 101.103 377.621 101.236 377.621 101.236Z" fill="#EBEBEB"/>
<path d="M506.426 69.0186C499.701 70.1363 495.155 76.4945 496.272 83.2202C497.39 89.9458 503.748 94.4919 510.474 93.3734C516.226 92.4173 520.381 87.6269 520.764 82.0525L520.769 82.0517L524.153 81.4892L525.959 77.6835L528.602 80.7495L532.841 80.0452L534.647 76.2395L537.289 79.3055L540.934 78.6995L542.034 76.3806L543.644 78.2494L545.766 77.8968L548.097 74.8103L544.1 70.4175L518.89 74.6069C516.32 70.5348 511.477 68.1789 506.426 69.0186ZM499.551 82.6749C499.23 80.7454 500.534 78.9218 502.463 78.6011C504.393 78.2805 506.216 79.5843 506.537 81.5138C506.858 83.4432 505.554 85.2669 503.624 85.5875C501.696 85.9082 499.871 84.6044 499.551 82.6749Z" fill="#EBEBEB"/>
<path d="M493.907 163.353L495.427 191.311C495.482 192.306 496.301 193.088 497.299 193.096L547.607 193.465C548.649 193.472 549.501 192.633 549.509 191.591L549.668 169.829C549.675 168.782 548.829 167.928 547.782 167.927L516.842 167.9C516.342 167.9 515.863 167.701 515.509 167.348L510.171 162.012C509.821 161.661 509.346 161.463 508.851 161.459L495.808 161.363C494.717 161.354 493.848 162.266 493.907 163.353Z" fill="#EBEBEB"/>
<path d="M549.728 164.628L494.759 164.227L494.519 197.073L549.489 197.475L549.728 164.628Z" fill="#F5F5F5"/>
<path d="M490.342 167.15L494.288 201.434C494.358 202.043 494.872 202.504 495.485 202.509L549.055 202.901C549.688 202.906 550.218 202.423 550.273 201.792L553.221 167.559C553.282 166.854 552.728 166.247 552.021 166.242L491.557 165.799C490.828 165.792 490.259 166.426 490.342 167.15Z" fill="#EBEBEB"/>
<path d="M487.391 328.745C487.929 322.856 489.221 315.902 491.423 308.405C493.611 300.903 496.692 292.878 500.201 284.596C501.086 282.528 501.961 280.486 502.823 278.473C503.688 276.465 504.546 274.474 505.505 272.579C507.408 268.779 509.527 265.27 511.642 262.002C513.757 258.733 515.882 255.707 517.891 252.893C519.906 250.081 521.833 247.496 523.691 245.215C527.393 240.637 530.81 237.305 533.248 235.114C534.465 234.013 535.438 233.191 536.104 232.642C536.425 232.381 536.677 232.177 536.866 232.023C537.039 231.886 537.13 231.819 537.135 231.825C537.141 231.831 537.06 231.91 536.896 232.059C536.714 232.221 536.471 232.438 536.163 232.713C535.516 233.284 534.563 234.127 533.366 235.246C530.967 237.475 527.598 240.831 523.939 245.42C522.102 247.708 520.194 250.298 518.196 253.114C516.202 255.937 514.091 258.965 511.991 262.233C509.891 265.499 507.788 268.998 505.902 272.78C504.951 274.666 504.103 276.641 503.237 278.654C502.376 280.666 501.503 282.708 500.619 284.774C497.112 293.051 494.028 301.051 491.824 308.524C489.607 315.991 488.288 322.911 487.71 328.775" fill="#E0E0E0"/>
<path d="M505.618 272.562C505.588 272.567 505.503 272.192 505.377 271.509C505.247 270.827 505.092 269.835 504.919 268.606C504.57 266.148 504.204 262.738 503.815 258.978C503.425 255.215 503.012 251.82 502.627 249.375C502.437 248.152 502.274 247.163 502.153 246.482C502.035 245.799 501.984 245.418 502.015 245.41C502.045 245.404 502.154 245.771 502.325 246.444C502.499 247.116 502.712 248.099 502.941 249.319C503.41 251.759 503.875 255.162 504.265 258.929C504.64 262.641 504.978 266 505.237 268.565C505.361 269.724 505.467 270.7 505.551 271.484C505.624 272.173 505.65 272.557 505.618 272.562Z" fill="#E0E0E0"/>
<path d="M537.369 266.632C537.37 266.663 536.919 266.716 536.103 266.784C535.289 266.857 534.111 266.954 532.659 267.123C529.752 267.436 525.753 268.01 521.368 268.837C516.983 269.672 513.047 270.595 510.22 271.346C508.803 271.711 507.664 272.037 506.876 272.259C506.088 272.483 505.649 272.593 505.638 272.563C505.628 272.533 506.05 272.365 506.824 272.088C507.598 271.815 508.725 271.441 510.136 271.033C512.949 270.2 516.887 269.223 521.285 268.385C525.683 267.557 529.705 267.031 532.628 266.8C534.089 266.673 535.275 266.623 536.094 266.606C536.915 266.593 537.368 266.6 537.369 266.632Z" fill="#E0E0E0"/>
<path d="M491.811 307.823C491.796 307.83 491.722 307.697 491.594 307.436C491.447 307.126 491.268 306.747 491.051 306.288C490.584 305.29 489.946 303.826 489.182 302.009C487.651 298.374 485.695 293.286 483.612 287.643C481.527 281.998 479.621 276.899 478.168 273.237C477.456 271.457 476.87 269.994 476.434 268.905C476.248 268.433 476.095 268.044 475.969 267.724C475.868 267.452 475.821 267.306 475.836 267.299C475.85 267.293 475.924 267.426 476.054 267.687C476.201 267.997 476.379 268.375 476.597 268.834C477.063 269.833 477.701 271.296 478.465 273.114C479.996 276.749 481.953 281.836 484.037 287.482C486.12 293.126 488.027 298.224 489.48 301.886C490.192 303.665 490.778 305.13 491.213 306.217C491.399 306.689 491.553 307.08 491.678 307.399C491.779 307.671 491.826 307.817 491.811 307.823Z" fill="#E0E0E0"/>
<path d="M533.947 294.233C533.951 294.248 533.807 294.306 533.529 294.405C533.199 294.516 532.794 294.651 532.304 294.816C531.174 295.182 529.647 295.677 527.789 296.279C523.977 297.515 518.732 299.283 512.938 301.244C507.142 303.208 501.875 304.929 498.036 306.087C496.116 306.666 494.559 307.119 493.477 307.41C492.976 307.541 492.563 307.649 492.228 307.738C491.941 307.808 491.787 307.837 491.783 307.822C491.779 307.806 491.923 307.748 492.201 307.649C492.53 307.539 492.935 307.403 493.426 307.239C494.557 306.873 496.083 306.378 497.94 305.777C501.752 304.541 506.998 302.772 512.794 300.81C518.588 298.848 523.854 297.126 527.694 295.969C529.613 295.389 531.17 294.936 532.254 294.645C532.755 294.514 533.167 294.405 533.503 294.317C533.789 294.246 533.942 294.217 533.947 294.233Z" fill="#E0E0E0"/>
<path d="M539.454 328.78C539.454 328.898 421.561 328.993 276.165 328.993C130.719 328.993 12.8516 328.897 12.8516 328.78C12.8516 328.662 130.72 328.566 276.165 328.566C421.561 328.566 539.454 328.662 539.454 328.78Z" fill="#273240"/>
<path d="M478.702 300.151C480.134 301.992 482.7 301.228 483.845 300.002C484.991 298.776 485.415 297.062 485.797 295.428C486.67 291.696 487.542 287.782 486.565 284.075C486.274 282.967 485.798 281.871 484.969 281.08C484.14 280.289 482.904 279.856 481.813 280.203C480.52 280.616 479.771 281.939 479.244 283.19C477.696 286.864 476.981 290.886 477.169 294.869C477.258 296.729 477.575 298.668 478.702 300.151Z" fill="url(#paint0_linear_1511_8795)"/>
<g opacity="0.2">
<path d="M478.702 300.151C480.134 301.992 482.7 301.228 483.845 300.002C484.991 298.776 485.415 297.062 485.797 295.428C486.67 291.696 487.542 287.782 486.565 284.075C486.274 282.967 485.798 281.871 484.969 281.08C484.14 280.289 482.904 279.856 481.813 280.203C480.52 280.616 479.771 281.939 479.244 283.19C477.696 286.864 476.981 290.886 477.169 294.869C477.258 296.729 477.575 298.668 478.702 300.151Z" fill="#273240"/>
</g>
<path d="M484.192 309.564C486.321 308.326 488.887 308.049 491.334 308.327C492.648 308.477 494.027 308.798 494.963 309.733C495.899 310.667 496.155 312.381 495.179 313.274C494.598 313.806 493.756 313.925 492.97 313.955C491.069 314.029 488.944 313.801 487.485 315.02C486.652 315.716 486.13 316.829 485.112 317.202C484.114 317.567 482.942 317.028 482.359 316.14C481.776 315.253 481.7 314.112 481.898 313.069C481.898 313.069 482.048 310.811 484.192 309.564Z" fill="url(#paint1_linear_1511_8795)"/>
<path d="M475.168 303.074C476.532 301.278 476.68 298.752 475.926 296.628C475.171 294.503 473.619 292.741 471.863 291.328C469.803 289.671 467.417 288.421 464.882 287.671C463.884 287.376 462.837 287.156 461.807 287.307C460.778 287.458 459.763 288.039 459.326 288.984C458.682 290.38 459.449 291.996 460.257 293.305C461.681 295.612 463.285 297.805 465.052 299.86C466.474 301.513 468.088 303.133 470.161 303.808C472.234 304.482 474.342 304.284 475.349 302.819" fill="url(#paint2_linear_1511_8795)"/>
<path d="M480.065 328.948C480.091 328.948 480.115 328.637 480.143 328.075C480.172 327.441 480.209 326.644 480.253 325.696C480.313 324.694 480.398 323.502 480.61 322.197C480.821 320.896 481.182 319.479 481.664 318.036C482.168 316.6 482.803 315.286 483.569 314.222C484.329 313.153 485.237 312.362 486.104 311.889C486.967 311.407 487.752 311.189 488.297 311.082C488.847 310.998 489.155 310.938 489.154 310.913C489.153 310.889 488.842 310.9 488.274 310.944C487.712 311.011 486.893 311.195 485.981 311.667C485.066 312.129 484.102 312.934 483.303 314.026C482.497 315.113 481.837 316.456 481.325 317.918C480.834 319.386 480.48 320.817 480.283 322.145C480.087 323.472 480.027 324.676 479.999 325.685C479.974 326.693 479.988 327.509 480.002 328.072C480.019 328.637 480.042 328.948 480.065 328.948Z" fill="#273240"/>
<path d="M480.132 327.119C480.144 327.117 480.145 326.979 480.134 326.715C480.118 326.413 480.098 326.032 480.073 325.565C480.02 324.566 479.947 323.121 479.911 321.334C479.819 317.759 479.877 312.816 480.197 307.371C480.521 301.923 481.067 297.009 481.613 293.477C481.739 292.592 481.871 291.794 481.998 291.096C482.118 290.395 482.219 289.793 482.322 289.303C482.408 288.843 482.479 288.468 482.535 288.171C482.58 287.911 482.597 287.773 482.585 287.77C482.572 287.767 482.531 287.899 482.464 288.154C482.391 288.449 482.298 288.818 482.185 289.273C482.061 289.759 481.939 290.36 481.801 291.058C481.655 291.755 481.505 292.551 481.362 293.436C480.75 296.968 480.163 301.89 479.838 307.349C479.518 312.807 479.5 317.762 479.657 321.341C479.727 323.131 479.838 324.578 479.934 325.575C479.986 326.041 480.028 326.42 480.062 326.721C480.096 326.984 480.12 327.121 480.132 327.119Z" fill="#273240"/>
<path d="M479.692 317.586C479.716 317.584 479.691 317.157 479.623 316.384C479.539 315.614 479.377 314.502 479.09 313.146C478.791 311.793 478.386 310.189 477.791 308.454C477.22 306.711 476.462 304.837 475.523 302.938C473.68 299.117 471.282 296.037 469.237 294.159C468.754 293.657 468.227 293.304 467.802 292.953C467.582 292.786 467.388 292.618 467.191 292.487C466.994 292.365 466.811 292.252 466.641 292.147C465.978 291.741 465.608 291.529 465.596 291.55C465.543 291.631 467.079 292.433 469.063 294.342C471.04 296.247 473.374 299.307 475.202 303.097C476.134 304.979 476.896 306.834 477.48 308.56C478.088 310.277 478.514 311.863 478.844 313.201C479.161 314.542 479.361 315.64 479.485 316.401C479.594 317.166 479.667 317.589 479.692 317.586Z" fill="#273240"/>
<path d="M92.9361 144.705H0.228516V206.797H92.9361V144.705Z" fill="#FAFAFA"/>
<path d="M67.7447 182.362H65.2741V167.501C65.2741 163.932 62.3705 161.028 58.801 161.028C55.2315 161.028 52.3279 163.932 52.3279 167.501V182.362H49.8564V167.501C49.8564 162.57 53.8687 158.557 58.801 158.557C63.7325 158.557 67.7456 162.569 67.7456 167.501L67.7447 182.362Z" fill="#273240"/>
<path d="M68.2501 191.443H49.3557C47.8198 191.443 46.5742 190.197 46.5742 188.661V178.533C46.5742 176.998 47.8198 175.752 49.3557 175.752H68.2501C69.786 175.752 71.0315 176.998 71.0315 178.533V188.661C71.0315 190.197 69.786 191.443 68.2501 191.443Z" fill="#273240"/>
<path d="M58.807 183.598C57.6778 183.598 56.7627 182.683 56.7627 181.554C56.7627 180.425 57.6778 179.51 58.807 179.51C59.9361 179.51 60.8512 180.425 60.8512 181.554C60.8512 182.683 59.9361 183.598 58.807 183.598Z" fill="#455A64"/>
<path d="M59.3545 182.363H58.2393V186.567H59.3545V182.363Z" fill="#455A64"/>
<path d="M45.9527 182.184C49.3868 180.743 51.8296 177.202 51.8501 173.028C51.8723 167.561 47.7354 163.109 42.6079 163.086C37.4829 163.062 33.3083 167.475 33.2861 172.942C33.2689 177.155 35.7289 180.739 39.2008 182.185C24.9172 184.336 25.565 199.861 25.565 199.861L59.3425 200.016C59.3425 200.016 60.1124 184.322 45.9527 182.184Z" fill="url(#paint3_linear_1511_8795)"/>
<path d="M92.9208 206.795C92.9208 206.795 92.9085 206.404 92.9027 205.662C92.8986 204.911 92.8921 203.814 92.8839 202.382C92.874 199.503 92.8593 195.288 92.8404 189.89C92.8191 179.102 92.7879 163.6 92.751 144.703L92.9216 144.874C67.372 144.885 35.1477 144.901 0.2214 144.917H0.214021L0.42722 144.703C0.42066 166.825 0.41492 187.86 0.40918 206.795L0.214021 206.6C27.4979 206.64 50.6481 206.673 66.9899 206.696C75.1669 206.718 81.6376 206.736 86.0762 206.749C88.2894 206.759 89.9934 206.767 91.1561 206.773C91.7277 206.777 92.1639 206.782 92.4689 206.784C92.765 206.788 92.9208 206.795 92.9208 206.795C92.9208 206.795 92.7797 206.803 92.4911 206.807C92.191 206.809 91.7621 206.814 91.2004 206.818C90.0467 206.824 88.3558 206.832 86.1599 206.842C81.731 206.855 75.2752 206.873 67.1178 206.895C50.7441 206.918 27.5495 206.952 0.214021 206.991H0.0180395V206.795C0.0122995 187.859 0.00656 166.825 0 144.703V144.49H0.214021H0.2214C35.1468 144.507 67.372 144.521 92.9216 144.533H93.093V144.703C93.0552 163.645 93.0249 179.182 93.0036 189.996C92.9847 195.377 92.97 199.58 92.9601 202.45C92.9519 203.868 92.9454 204.955 92.9413 205.698C92.9331 206.429 92.9208 206.795 92.9208 206.795Z" fill="#273240"/>
<path d="M92.8977 152.162C92.8977 152.281 72.1574 152.376 46.5783 152.376C20.991 152.376 0.254883 152.28 0.254883 152.162C0.254883 152.044 20.991 151.949 46.5783 151.949C72.1574 151.949 92.8977 152.044 92.8977 152.162Z" fill="#273240"/>
<path d="M6.31786 148.44C6.31786 148.969 5.889 149.398 5.3601 149.398C4.8312 149.398 4.40234 148.969 4.40234 148.44C4.40234 147.911 4.8312 147.482 5.3601 147.482C5.889 147.482 6.31786 147.911 6.31786 148.44Z" fill="#273240"/>
<path d="M9.45263 148.44C9.45263 148.969 9.02377 149.398 8.49487 149.398C7.96597 149.398 7.53711 148.969 7.53711 148.44C7.53711 147.911 7.96597 147.482 8.49487 147.482C9.02377 147.482 9.45263 147.911 9.45263 148.44Z" fill="#273240"/>
<path d="M12.8325 148.44C12.8325 148.969 12.4037 149.398 11.8748 149.398C11.3459 149.398 10.917 148.969 10.917 148.44C10.917 147.911 11.3459 147.482 11.8748 147.482C12.4037 147.482 12.8325 147.911 12.8325 148.44Z" fill="#273240"/>
<path d="M92.9208 206.795C92.9208 206.795 92.9085 206.404 92.9027 205.662C92.8986 204.911 92.8921 203.814 92.8839 202.382C92.874 199.503 92.8593 195.288 92.8404 189.89C92.8191 179.102 92.7879 163.6 92.751 144.703L92.9216 144.874C67.372 144.885 35.1477 144.901 0.2214 144.917H0.214021L0.42722 144.703C0.42066 166.825 0.41492 187.86 0.40918 206.795L0.214021 206.6C27.4979 206.64 50.6481 206.673 66.9899 206.696C75.1669 206.718 81.6376 206.736 86.0762 206.749C88.2894 206.759 89.9934 206.767 91.1561 206.773C91.7277 206.777 92.1639 206.782 92.4689 206.784C92.765 206.788 92.9208 206.795 92.9208 206.795C92.9208 206.795 92.7797 206.803 92.4911 206.807C92.191 206.809 91.7621 206.814 91.2004 206.818C90.0467 206.824 88.3558 206.832 86.1599 206.842C81.731 206.855 75.2752 206.873 67.1178 206.895C50.7441 206.918 27.5495 206.952 0.214021 206.991H0.0180395V206.795C0.0122995 187.859 0.00656 166.825 0 144.703V144.49H0.214021H0.2214C35.1468 144.507 67.372 144.521 92.9216 144.533H93.093V144.703C93.0552 163.645 93.0249 179.182 93.0036 189.996C92.9847 195.377 92.97 199.58 92.9601 202.45C92.9519 203.868 92.9454 204.955 92.9413 205.698C92.9331 206.429 92.9208 206.795 92.9208 206.795Z" fill="#273240"/>
<path d="M45.97 208.847C45.852 208.847 45.7568 208.388 45.7568 207.822C45.7568 207.255 45.8528 206.797 45.97 206.797C46.0881 206.797 46.1832 207.255 46.1832 207.822C46.1832 208.388 46.0873 208.847 45.97 208.847Z" fill="#273240"/>
<path d="M45.97 217.817C45.852 217.817 45.7568 216.813 45.7568 215.575C45.7568 214.336 45.8528 213.332 45.97 213.332C46.0881 213.332 46.1832 214.336 46.1832 215.575C46.1832 216.813 46.0873 217.817 45.97 217.817Z" fill="#273240"/>
<path d="M45.97 226.788C45.852 226.788 45.7568 225.784 45.7568 224.545C45.7568 223.306 45.8528 222.303 45.97 222.303C46.0881 222.303 46.1832 223.306 46.1832 224.545C46.1832 225.784 46.0873 226.788 45.97 226.788Z" fill="#273240"/>
<path d="M45.97 235.761C45.852 235.761 45.7568 234.756 45.7568 233.518C45.7568 232.279 45.8528 231.275 45.97 231.275C46.0881 231.275 46.1832 232.279 46.1832 233.518C46.1832 234.757 46.0873 235.761 45.97 235.761Z" fill="#273240"/>
<path d="M45.97 244.731C45.852 244.731 45.7568 243.727 45.7568 242.489C45.7568 241.25 45.8528 240.246 45.97 240.246C46.0881 240.246 46.1832 241.25 46.1832 242.489C46.1832 243.728 46.0873 244.731 45.97 244.731Z" fill="#273240"/>
<path d="M48.0266 251.268C48.0266 251.386 47.109 251.481 45.9766 251.481C45.5494 251.055 45.8585 251.362 45.7634 251.267V251.266V251.265V251.261V251.255V251.242V251.215V251.163L45.7642 251.059L45.7675 250.855C45.7716 250.733 45.7757 250.608 45.7798 250.471C45.7904 250.226 45.806 250.004 45.8257 249.819C45.8642 249.448 45.9175 249.219 45.9766 249.219C46.0356 249.219 46.0889 249.448 46.1275 249.819C46.1471 250.004 46.1627 250.226 46.1734 250.471C46.1775 250.608 46.1816 250.734 46.1857 250.855L46.189 251.059L46.1898 251.163V251.215V251.242V251.255V251.261V251.265V251.266V251.267C46.0947 251.172 46.403 251.481 45.9766 251.055C47.1082 251.054 48.0266 251.15 48.0266 251.268Z" fill="#273240"/>
<path d="M56.0773 251.268C56.0773 251.386 55.1753 251.481 54.0626 251.481C52.9499 251.481 52.0479 251.385 52.0479 251.268C52.0479 251.151 52.9499 251.055 54.0626 251.055C55.1753 251.054 56.0773 251.15 56.0773 251.268Z" fill="#273240"/>
<path d="M64.1486 251.268C64.1486 251.386 63.2466 251.481 62.1339 251.481C61.0211 251.481 60.1191 251.385 60.1191 251.268C60.1191 251.151 61.0211 251.055 62.1339 251.055C63.2466 251.054 64.1486 251.15 64.1486 251.268Z" fill="#273240"/>
<path d="M72.2072 251.268C72.2072 251.386 71.3052 251.481 70.1925 251.481C69.0797 251.481 68.1777 251.385 68.1777 251.268C68.1777 251.151 69.0797 251.055 70.1925 251.055C71.3052 251.054 72.2072 251.15 72.2072 251.268Z" fill="#273240"/>
<path d="M80.258 251.268C80.258 251.386 79.356 251.481 78.2432 251.481C77.1305 251.481 76.2285 251.385 76.2285 251.268C76.2285 251.151 77.1305 251.055 78.2432 251.055C79.356 251.054 80.258 251.15 80.258 251.268Z" fill="#273240"/>
<path d="M88.3107 251.268C88.3107 251.386 87.4087 251.481 86.296 251.481C85.1833 251.481 84.2812 251.385 84.2812 251.268C84.2812 251.151 85.1833 251.055 86.296 251.055C87.4087 251.054 88.3107 251.15 88.3107 251.268Z" fill="#273240"/>
<path d="M96.3801 251.268C96.3801 251.386 95.4781 251.481 94.3653 251.481C93.2526 251.481 92.3506 251.385 92.3506 251.268C92.3506 251.151 93.2526 251.055 94.3653 251.055C95.4781 251.054 96.3801 251.15 96.3801 251.268Z" fill="#273240"/>
<path d="M104.434 251.268C104.434 251.386 103.532 251.481 102.419 251.481C101.306 251.481 100.404 251.385 100.404 251.268C100.404 251.151 101.306 251.055 102.419 251.055C103.532 251.054 104.434 251.15 104.434 251.268Z" fill="#273240"/>
<path d="M112.492 251.268C112.492 251.386 111.59 251.481 110.478 251.481C109.365 251.481 108.463 251.385 108.463 251.268C108.463 251.151 109.365 251.055 110.478 251.055C111.59 251.054 112.492 251.15 112.492 251.268Z" fill="#273240"/>
<path d="M120.552 251.268C120.552 251.386 119.65 251.481 118.537 251.481C117.424 251.481 116.522 251.385 116.522 251.268C116.522 251.151 117.424 251.055 118.537 251.055C119.65 251.054 120.552 251.15 120.552 251.268Z" fill="#273240"/>
<path d="M128.606 251.268C128.606 251.386 127.704 251.481 126.591 251.481C125.478 251.481 124.576 251.385 124.576 251.268C124.576 251.151 125.478 251.055 126.591 251.055C127.704 251.054 128.606 251.15 128.606 251.268Z" fill="#273240"/>
<path d="M134.685 251.268C134.685 251.386 134.226 251.481 133.66 251.481C133.094 251.481 132.635 251.385 132.635 251.268C132.635 251.151 133.094 251.055 133.66 251.055C134.226 251.054 134.685 251.15 134.685 251.268Z" fill="#273240"/>
<path d="M135.652 18.9434H86.1113V86.7352H135.652V18.9434Z" fill="white"/>
<path d="M135.668 86.7169C135.668 86.7169 135.659 86.6004 135.655 86.3831C135.652 86.1511 135.647 85.8346 135.641 85.4237C135.635 84.5652 135.625 83.3262 135.612 81.7182C135.595 78.4734 135.572 73.7568 135.542 67.7929C135.506 55.8619 135.456 38.9445 135.396 18.9242L135.62 19.1481C120.701 19.1661 103.855 19.1858 86.0854 19.2071H86.0797L86.3265 18.9595C86.3273 44.2811 86.3289 67.724 86.3298 86.7513L86.128 86.5504C101.112 86.5832 113.471 86.6103 122.101 86.6292C126.413 86.648 129.792 86.6636 132.112 86.6734C133.257 86.6824 134.137 86.6898 134.75 86.6947C135.349 86.7029 135.668 86.7169 135.668 86.7169C135.668 86.7169 135.378 86.7316 134.793 86.7398C134.188 86.7456 133.321 86.7538 132.193 86.7644C129.883 86.7784 126.52 86.7981 122.228 86.8235C113.566 86.8546 101.164 86.8997 86.128 86.9547L85.9263 86.9555V86.753C85.9001 67.7257 85.8673 44.2827 85.832 18.9611V18.7135H86.0797H86.0854C103.854 18.7086 120.701 18.7045 135.62 18.7012H135.845L135.844 18.925C135.813 39.0052 135.786 55.9726 135.768 67.9397C135.747 73.8823 135.73 78.5817 135.718 81.8141C135.708 83.4025 135.7 84.6267 135.695 85.4746C135.689 85.8747 135.686 86.1831 135.682 86.4086C135.677 86.6177 135.673 86.7218 135.668 86.7169Z" fill="#273240"/>
<path d="M116.397 32.5649C116.397 32.7018 111.007 32.8158 104.36 32.8207C97.7105 32.8257 92.3223 32.7191 92.3223 32.5821C92.3223 32.446 97.7105 32.3312 104.36 32.3263C111.006 32.3222 116.396 32.4288 116.397 32.5649Z" fill="#273240"/>
<path d="M129.408 38.446C129.408 38.5829 121.104 38.6994 110.861 38.7067C100.615 38.7141 92.3125 38.6092 92.3125 38.473C92.3125 38.3369 100.615 38.2197 110.861 38.2123C121.103 38.2049 129.408 38.309 129.408 38.446Z" fill="#273240"/>
<path d="M129.421 44.5915C129.421 44.7284 121.117 44.8449 110.875 44.8523C100.629 44.8596 92.3262 44.7547 92.3262 44.6185C92.3262 44.4824 100.629 44.3652 110.875 44.3578C121.116 44.3504 129.421 44.4554 129.421 44.5915Z" fill="#273240"/>
<path d="M129.421 50.737C129.421 50.8739 121.117 50.9904 110.875 50.9978C100.629 51.0051 92.3262 50.9002 92.3262 50.7641C92.3262 50.6279 100.629 50.5107 110.875 50.5033C121.116 50.4959 129.421 50.6001 129.421 50.737Z" fill="#273240"/>
<path d="M129.44 56.8825C129.44 57.0194 121.136 57.1359 110.893 57.1433C100.647 57.1506 92.3447 57.0457 92.3447 56.9096C92.3447 56.7734 100.647 56.6562 110.893 56.6488C121.135 56.6414 129.44 56.7464 129.44 56.8825Z" fill="#273240"/>
<path d="M129.44 63.0291C129.44 63.166 121.136 63.2825 110.893 63.2898C100.647 63.2972 92.3447 63.1923 92.3447 63.0561C92.3447 62.92 100.647 62.8028 110.893 62.7954C121.135 62.7872 129.44 62.8921 129.44 63.0291Z" fill="#273240"/>
<path d="M129.445 69.1735C129.445 69.3105 121.141 69.4269 110.898 69.4343C100.653 69.4417 92.3496 69.3367 92.3496 69.2006C92.3496 69.0645 100.652 68.9472 110.898 68.9398C121.14 68.9324 129.445 69.0374 129.445 69.1735Z" fill="#273240"/>
<path d="M112.279 75.3312C112.279 75.4681 107.816 75.5813 102.31 75.5854C96.8031 75.5895 92.3407 75.4821 92.3398 75.3451C92.3398 75.209 96.8023 75.095 102.309 75.0909C107.815 75.0868 112.278 75.1943 112.279 75.3312Z" fill="#273240"/>
<path d="M131.341 91.6466C136.899 91.6466 141.404 87.1412 141.404 81.5835C141.404 76.0259 136.899 71.5205 131.341 71.5205C125.784 71.5205 121.278 76.0259 121.278 81.5835C121.278 87.1412 125.784 91.6466 131.341 91.6466Z" fill="url(#paint4_linear_1511_8795)"/>
<path d="M137.109 77.7035C137.54 78.1061 135.564 80.922 132.696 83.9929C132.234 84.4865 131.778 84.9572 131.343 85.3885L130.647 86.0798L129.955 85.4984C127.452 83.3959 125.814 81.5935 126.118 81.2032C126.422 80.8129 128.57 81.9584 131.223 83.8699L129.835 83.9797C130.236 83.5164 130.673 83.0294 131.135 82.5349C134.003 79.4648 136.677 77.3009 137.109 77.7035Z" fill="#E0E0E0"/>
<path d="M107.128 90.4301C107.01 90.4301 106.915 89.5125 106.915 88.3801C106.915 87.2477 107.011 86.3301 107.128 86.3301C107.246 86.3301 107.341 87.2477 107.341 88.3801C107.341 89.5125 107.246 90.4301 107.128 90.4301Z" fill="#273240"/>
<path d="M107.128 98.6303C107.01 98.6303 106.915 97.7127 106.915 96.5803C106.915 95.4479 107.011 94.5303 107.128 94.5303C107.246 94.5303 107.341 95.4479 107.341 96.5803C107.341 97.7127 107.246 98.6303 107.128 98.6303Z" fill="#273240"/>
<path d="M107.128 106.829C107.01 106.829 106.915 105.912 106.915 104.779C106.915 103.647 107.011 102.729 107.128 102.729C107.246 102.729 107.341 103.647 107.341 104.779C107.341 105.912 107.246 106.829 107.128 106.829Z" fill="#273240"/>
<path d="M107.128 115.03C107.01 115.03 106.915 114.112 106.915 112.98C106.915 111.847 107.011 110.93 107.128 110.93C107.246 110.93 107.341 111.847 107.341 112.98C107.341 114.112 107.246 115.03 107.128 115.03Z" fill="#273240"/>
<path d="M107.128 123.231C107.01 123.231 106.915 122.313 106.915 121.181C106.915 120.048 107.011 119.131 107.128 119.131C107.246 119.131 107.341 120.048 107.341 121.181C107.341 122.313 107.246 123.231 107.128 123.231Z" fill="#273240"/>
<path d="M107.128 131.43C107.01 131.43 106.915 130.512 106.915 129.38C106.915 128.248 107.011 127.33 107.128 127.33C107.246 127.33 107.341 128.248 107.341 129.38C107.341 130.512 107.246 131.43 107.128 131.43Z" fill="#273240"/>
<path d="M107.128 139.629C107.01 139.629 106.915 138.712 106.915 137.579C106.915 136.447 107.011 135.529 107.128 135.529C107.246 135.529 107.341 136.447 107.341 137.579C107.341 138.712 107.246 139.629 107.128 139.629Z" fill="#273240"/>
<path d="M107.128 147.83C107.01 147.83 106.915 146.913 106.915 145.78C106.915 144.648 107.011 143.73 107.128 143.73C107.246 143.73 107.341 144.648 107.341 145.78C107.341 146.913 107.246 147.83 107.128 147.83Z" fill="#273240"/>
<path d="M111.082 152.075C111.082 152.193 110.164 152.288 109.032 152.288C108.162 152.288 107.418 152.231 107.125 152.152L107.034 152.127L107.047 152.075C107.071 151.98 107.097 151.931 107.124 151.931C107.151 151.931 107.178 151.98 107.201 152.075L107.124 151.997C107.417 151.918 108.161 151.861 109.031 151.861C110.164 151.861 111.082 151.956 111.082 152.075Z" fill="#273240"/>
<path d="M119.287 152.075C119.287 152.193 118.369 152.288 117.237 152.288C116.104 152.288 115.187 152.192 115.187 152.075C115.187 151.956 116.104 151.861 117.237 151.861C118.369 151.861 119.287 151.956 119.287 152.075Z" fill="#273240"/>
<path d="M127.493 152.073C127.493 152.191 126.575 152.286 125.443 152.286C124.31 152.286 123.393 152.19 123.393 152.073C123.393 151.954 124.31 151.859 125.443 151.859C126.575 151.859 127.493 151.954 127.493 152.073Z" fill="#273240"/>
<path d="M135.695 152.075C135.695 152.193 134.777 152.288 133.645 152.288C132.512 152.288 131.595 152.192 131.595 152.075C131.595 151.956 132.512 151.861 133.645 151.861C134.777 151.861 135.695 151.956 135.695 152.075Z" fill="#273240"/>
<path d="M143.887 152.075C143.887 152.193 142.97 152.288 141.837 152.288C140.705 152.288 139.787 152.192 139.787 152.075C139.787 151.956 140.705 151.861 141.837 151.861C142.97 151.861 143.887 151.956 143.887 152.075Z" fill="#273240"/>
<path d="M280.473 77.8991C280.355 77.8991 280.26 76.9816 280.26 75.85C280.26 74.7184 280.356 73.8008 280.473 73.8008C280.59 73.8008 280.686 74.7184 280.686 75.85C280.686 76.9816 280.591 77.8991 280.473 77.8991Z" fill="#273240"/>
<path d="M280.473 86.0961C280.355 86.0961 280.26 85.1785 280.26 84.0461C280.26 82.9137 280.356 81.9961 280.473 81.9961C280.59 81.9961 280.686 82.9137 280.686 84.0461C280.686 85.1785 280.591 86.0961 280.473 86.0961Z" fill="#273240"/>
<path d="M280.473 94.2946C280.355 94.2946 280.26 93.3771 280.26 92.2455C280.26 91.1139 280.356 90.1963 280.473 90.1963C280.59 90.1963 280.686 91.1139 280.686 92.2455C280.686 93.3771 280.591 94.2946 280.473 94.2946Z" fill="#273240"/>
<path d="M280.473 102.491C280.355 102.491 280.26 101.573 280.26 100.442C280.26 99.3093 280.356 98.3926 280.473 98.3926C280.59 98.3926 280.686 99.3102 280.686 100.442C280.686 101.573 280.591 102.491 280.473 102.491Z" fill="#273240"/>
<path d="M280.473 110.693C280.355 110.693 280.26 109.775 280.26 108.643C280.26 107.509 280.356 106.592 280.473 106.592C280.59 106.592 280.686 107.51 280.686 108.643C280.686 109.775 280.591 110.693 280.473 110.693Z" fill="#273240"/>
<path d="M280.473 118.897C280.355 118.897 280.26 117.979 280.26 116.847C280.26 115.714 280.356 114.797 280.473 114.797C280.59 114.797 280.686 115.714 280.686 116.847C280.686 117.978 280.591 118.897 280.473 118.897Z" fill="#273240"/>
<path d="M280.473 127.098C280.355 127.098 280.26 126.18 280.26 125.048C280.26 123.916 280.356 122.998 280.473 122.998C280.59 122.998 280.686 123.916 280.686 125.048C280.686 126.18 280.591 127.098 280.473 127.098Z" fill="#273240"/>
<path d="M280.473 135.302C280.355 135.302 280.26 134.384 280.26 133.251C280.26 132.118 280.356 131.199 280.473 131.199C280.59 131.199 280.686 132.118 280.686 133.251C280.686 134.384 280.591 135.302 280.473 135.302Z" fill="#273240"/>
<path d="M336.16 83.1605C336.16 83.1605 336.001 83.1736 335.676 83.1793C335.333 83.1834 334.851 83.19 334.225 83.1982C332.922 83.2072 331.027 83.2195 328.575 83.2359C323.614 83.2531 316.416 83.2785 307.384 83.3105C289.241 83.3384 263.744 83.3786 234.247 83.4237H234.049L233.993 83.2334C232.479 78.065 233.404 72.0093 236.789 67.3779C240.162 62.7597 245.956 59.8167 251.925 59.97L251.654 60.3194C251.216 58.8089 251.011 57.1066 251.088 55.4092C251.314 49.7561 254.528 44.2949 259.463 41.7669C264.333 39.1953 270.345 39.2905 274.96 41.8505L274.581 41.9842C277.21 35.5709 282.757 30.9199 288.775 28.7649C294.811 26.5714 301.505 26.8601 306.767 29.6128C312.057 32.3229 315.822 36.9387 317.906 41.7816C320.046 46.6516 320.342 51.8807 319.276 56.3719L319.072 56.1398C322.097 55.8053 325.025 56.3243 327.539 57.3534C330.058 58.3858 332.196 59.9012 333.82 61.6576C334.628 62.5325 335.328 63.4813 335.798 64.4932C336.266 65.5018 336.614 66.5145 336.851 67.5058C337.338 69.487 337.512 71.3451 337.571 73.008C337.678 76.343 337.275 78.9129 336.912 80.6144C336.715 81.4647 336.546 82.1035 336.387 82.5315C336.241 82.9596 336.16 83.1605 336.16 83.1605Z" fill="url(#paint5_linear_1511_8795)"/>
<path d="M326.86 55.0768H323.702V36.0831C323.702 31.5215 319.991 27.8102 315.429 27.8102C310.867 27.8102 307.156 31.5215 307.156 36.0831V55.0768H303.998V36.0831C303.998 29.7798 309.126 24.6523 315.43 24.6523C321.733 24.6523 326.86 29.7806 326.86 36.0831V55.0768H326.86Z" fill="#E0E0E0"/>
<path d="M328.275 66.6799H302.581C301.045 66.6799 299.8 65.4343 299.8 63.8985V49.4074C299.8 47.8716 301.045 46.626 302.581 46.626H328.275C329.811 46.626 331.057 47.8716 331.057 49.4074V63.8985C331.057 65.4343 329.811 66.6799 328.275 66.6799Z" fill="#E0E0E0"/>
<path d="M315.429 56.6528C313.986 56.6528 312.816 55.4835 312.816 54.0403C312.816 52.5971 313.986 51.4277 315.429 51.4277C316.872 51.4277 318.041 52.5971 318.041 54.0403C318.041 55.4835 316.871 56.6528 315.429 56.6528Z" fill="#455A64"/>
<path d="M316.15 55.0762H314.725V60.4488H316.15V55.0762Z" fill="#455A64"/>
<g opacity="0.2">
<path d="M507.637 48.7733C514.542 42.3305 514.918 31.5098 508.475 24.6038C502.032 17.6986 491.212 17.323 484.305 23.7657C478.399 29.2761 477.275 37.9887 481.103 44.7151L477.624 47.9615L478.456 53.7367L473.056 52.223L468.703 56.2845L469.534 62.0597L464.134 60.546L460.393 64.0368L460.899 67.5562L457.609 66.6337L455.431 68.6657L455.104 74.0145L463.082 76.0227L488.967 51.8729C495.057 54.6043 502.45 53.6113 507.637 48.7733ZM505.109 27.7452C506.957 29.7263 506.849 32.83 504.869 34.6783C502.888 36.5266 499.784 36.4183 497.936 34.438C496.087 32.4569 496.196 29.3532 498.176 27.5049C500.156 25.6567 503.261 25.7641 505.109 27.7452Z" fill="#273240"/>
<path d="M505.1 27.7454C505.069 27.7774 504.779 27.4469 504.126 27.0443C503.483 26.6507 502.395 26.2144 501.039 26.3661C499.708 26.4916 498.125 27.346 497.324 28.9524C496.497 30.5112 496.656 32.7908 498.083 34.2923C499.481 35.8199 501.745 36.1364 503.358 35.4198C505.016 34.7318 505.977 33.2123 506.195 31.8929C506.44 30.5506 506.081 29.4346 505.732 28.7663C505.376 28.0857 505.066 27.7741 505.1 27.7454C505.111 27.7355 505.191 27.8077 505.335 27.9578C505.481 28.1037 505.675 28.3456 505.877 28.6859C506.283 29.3518 506.713 30.5088 506.492 31.9438C506.301 33.3525 505.302 35.0147 503.512 35.7822C502.637 36.1668 501.591 36.3119 500.564 36.1127C499.532 35.9331 498.534 35.3894 497.77 34.5834C497.02 33.7658 496.547 32.7326 496.439 31.6912C496.312 30.6531 496.529 29.6199 496.974 28.7737C497.864 27.0418 499.591 26.1595 501.009 26.066C502.456 25.9447 503.581 26.4547 504.216 26.9049C504.542 27.1304 504.769 27.3403 504.905 27.4969C505.044 27.6503 505.111 27.7347 505.1 27.7454Z" fill="#273240"/>
<path d="M507.634 48.7719C507.634 48.7719 507.555 48.8564 507.388 49.0081C507.208 49.1688 506.959 49.3902 506.635 49.6796C505.932 50.2192 504.879 51.0351 503.326 51.7829C501.779 52.5242 499.733 53.2097 497.249 53.4164C494.776 53.6017 491.848 53.286 488.912 51.9904L489.053 51.9666C482.381 58.2134 473.505 66.5241 463.211 76.1624L463.134 76.2337L463.033 76.2083C460.528 75.5802 457.822 74.902 455.053 74.2083L454.893 74.1681L454.902 74.0025C455.002 72.3346 455.113 70.506 455.225 68.6536L455.23 68.5724L455.289 68.5167C455.965 67.8853 456.713 67.1866 457.466 66.4831L457.55 66.4044L457.662 66.4355C458.687 66.7225 459.816 67.0382 460.952 67.3556L460.691 67.5852C460.533 66.4864 460.358 65.2801 460.182 64.0657L460.167 63.9575L460.247 63.8829C461.423 62.7849 462.7 61.5934 463.987 60.3905L464.074 60.3093L464.189 60.3413C465.894 60.8185 467.733 61.3335 469.589 61.8534L469.32 62.0887C469.056 60.2585 468.774 58.2929 468.489 56.3134L468.473 56.2027L468.555 56.1265C468.919 55.787 469.314 55.4188 469.709 55.0498C470.782 54.0494 471.849 53.0539 472.909 52.065L472.997 51.983L473.112 52.015C474.928 52.5242 476.728 53.0293 478.511 53.5295L478.244 53.7641C477.964 51.819 477.688 49.8928 477.415 47.9888L477.399 47.8797L477.479 47.8043C478.651 46.7121 479.812 45.6305 480.96 44.5596L480.921 44.8154C479.574 42.3939 478.798 39.7076 478.698 37.0295C478.642 35.6937 478.722 34.3604 478.981 33.073C479.203 31.7782 479.617 30.5359 480.12 29.3535C482.171 24.6032 486.31 21.183 490.75 19.8079C495.214 18.3909 499.896 18.9584 503.551 20.7747C507.262 22.5655 509.891 25.5757 511.423 28.6376C512.919 31.7479 513.357 34.9246 513.104 37.6125C512.882 40.3152 512.072 42.5399 511.186 44.1971C511.076 44.4062 510.971 44.6088 510.867 44.8056C510.747 44.9917 510.63 45.1729 510.516 45.3476C510.283 45.6936 510.089 46.0331 509.867 46.3176C509.405 46.8736 509.051 47.373 508.703 47.7207C508.362 48.0601 508.101 48.3217 507.912 48.5095C507.732 48.6891 507.634 48.7719 507.634 48.7719C507.634 48.7719 507.715 48.671 507.884 48.4865C508.066 48.293 508.318 48.0241 508.645 47.6739C508.983 47.3197 509.327 46.8154 509.775 46.2561C509.991 45.97 510.179 45.6288 510.405 45.2828C510.516 45.1073 510.629 44.9269 510.747 44.74C510.846 44.5432 510.949 44.3406 511.054 44.1323C511.913 42.4792 512.693 40.2701 512.892 37.5986C513.122 34.941 512.667 31.8127 511.179 28.7598C509.655 25.7553 507.057 22.8074 503.409 21.0657C499.815 19.297 495.224 18.7583 490.859 20.1572C486.518 21.5151 482.476 24.8705 480.481 29.5142C479.993 30.6696 479.59 31.884 479.375 33.1493C479.124 34.4071 479.048 35.7101 479.104 37.0139C479.205 39.6289 479.966 42.2496 481.282 44.6112L481.362 44.7555L481.242 44.8671C480.095 45.938 478.936 47.0212 477.765 48.1143L477.83 47.9306C478.104 49.8346 478.382 51.7608 478.663 53.7058L478.709 54.0289L478.395 53.9412C476.612 53.4418 474.812 52.9375 472.996 52.4291L473.198 52.3799C472.139 53.3688 471.072 54.3643 469.999 55.3647C469.604 55.7337 469.21 56.1011 468.846 56.4414L468.911 56.2552C469.196 58.2347 469.479 60.1994 469.742 62.0305L469.789 62.3544L469.474 62.2658C467.619 61.7451 465.779 61.2293 464.075 60.7513L464.276 60.7021C462.987 61.9034 461.709 63.0948 460.533 64.192L460.597 64.0091C460.772 65.2236 460.944 66.4298 461.102 67.5294L461.148 67.8459L460.84 67.7598C459.704 67.4408 458.575 67.1235 457.55 66.8357L457.746 66.7881C456.993 67.4909 456.243 68.1887 455.567 68.8185L455.631 68.6815C455.517 70.5339 455.404 72.3625 455.301 74.0295L455.15 73.8237C457.918 74.5232 460.623 75.2062 463.125 75.8393L462.947 75.8852C473.276 66.2838 482.181 58.0051 488.876 51.7821L488.939 51.7239L489.017 51.7592C491.901 53.0515 494.787 53.3836 497.233 53.2204C499.691 53.0367 501.723 52.3783 503.266 51.6624C504.816 50.94 505.875 50.1479 506.59 49.628C506.923 49.3516 507.179 49.1393 507.364 48.9851C507.539 48.8383 507.634 48.7719 507.634 48.7719Z" fill="#273240"/>
<path d="M507.057 46.8329C513.962 40.3901 514.338 29.5694 507.895 22.6634C501.452 15.7581 490.632 15.3826 483.726 21.8253C477.82 27.3357 476.696 36.0482 480.524 42.7755L480.519 42.7796L477.045 46.0211L477.877 51.7963L472.477 50.2826L468.123 54.3441L468.955 60.1193L463.555 58.6056L459.814 62.0963L460.32 65.6158L457.03 64.6933L454.852 66.7252L454.525 72.0741L462.503 74.0815L488.388 49.9316C494.477 52.6639 501.871 51.6717 507.057 46.8329ZM504.529 25.8048C506.377 27.7859 506.269 30.8896 504.289 32.7379C502.308 34.5862 499.204 34.4779 497.356 32.4976C495.507 30.5165 495.616 27.4128 497.596 25.5645C499.577 23.7162 502.681 23.8237 504.529 25.8048Z" fill="#E0E0E0"/>
<path d="M504.534 25.8048C504.502 25.8368 504.213 25.5063 503.559 25.1037C502.917 24.7101 501.828 24.2738 500.472 24.4255C499.141 24.551 497.559 25.4054 496.758 27.0118C495.931 28.5706 496.089 30.8494 497.516 32.3517C498.915 33.8793 501.178 34.1958 502.791 33.4792C504.449 32.7912 505.411 31.2717 505.628 29.9523C505.873 28.61 505.514 27.494 505.166 26.8257C504.809 26.1451 504.499 25.8335 504.534 25.8048C504.544 25.7949 504.625 25.8671 504.768 26.0163C504.915 26.1623 505.108 26.4042 505.311 26.7445C505.716 27.4103 506.147 28.5674 505.925 30.0024C505.734 31.4111 504.734 33.0733 502.944 33.8408C502.069 34.2254 501.024 34.3705 499.996 34.1712C498.965 33.9917 497.966 33.448 497.203 32.6419C496.452 31.8244 495.979 30.7912 495.872 29.7498C495.745 28.7117 495.962 27.6785 496.406 26.8322C497.295 25.1004 499.022 24.2181 500.441 24.1246C501.887 24.0032 503.012 24.5133 503.648 24.9635C503.973 25.189 504.201 25.3989 504.337 25.5555C504.478 25.7097 504.544 25.7949 504.534 25.8048Z" fill="#273240"/>
<path d="M507.057 46.8338C507.057 46.8338 506.978 46.9174 506.811 47.0699C506.631 47.2306 506.382 47.452 506.058 47.7415C505.355 48.281 504.302 49.097 502.749 49.8448C501.202 50.5861 499.156 51.2716 496.672 51.4782C494.199 51.6636 491.27 51.3479 488.335 50.0522L488.476 50.0293C481.804 56.2761 472.928 64.5868 462.634 74.225L462.558 74.2964L462.457 74.271C459.952 73.6428 457.246 72.9647 454.477 72.271L454.316 72.2308L454.326 72.0652C454.426 70.3973 454.537 68.5687 454.648 66.7163L454.653 66.6351L454.713 66.5794C455.389 65.948 456.137 65.2493 456.89 64.5466L456.974 64.4679L457.086 64.499C458.111 64.786 459.24 65.1017 460.376 65.4191L460.115 65.6487C459.956 64.5499 459.782 63.3436 459.606 62.1292L459.591 62.021L459.671 61.9464C460.847 60.8484 462.124 59.6569 463.412 58.454L463.499 58.3728L463.614 58.4048C465.318 58.882 467.158 59.397 469.013 59.9169L468.745 60.1522C468.481 58.322 468.198 56.3564 467.914 54.3769L467.898 54.2662L467.98 54.19C468.344 53.8505 468.739 53.4823 469.134 53.1133C470.206 52.1129 471.273 51.1174 472.333 50.1285L472.421 50.0465L472.537 50.0793C474.352 50.5885 476.152 51.0928 477.936 51.593L477.668 51.8276C477.389 49.8825 477.112 47.9563 476.839 46.0523L476.824 45.9432L476.904 45.8678C478.076 44.7756 479.236 43.694 480.385 42.6231L480.347 42.8789C478.999 40.4574 478.224 37.7711 478.123 35.093C478.068 33.7572 478.147 32.4239 478.406 31.1365C478.629 29.8417 479.043 28.5994 479.545 27.417C481.596 22.6667 485.736 19.2465 490.176 17.8713C494.64 16.4544 499.321 17.0218 502.977 18.8381C506.687 20.629 509.316 23.6392 510.848 26.7011C512.345 29.8114 512.782 32.9881 512.53 35.676C512.308 38.3787 511.497 40.6034 510.611 42.2606C510.502 42.4697 510.396 42.6722 510.293 42.869C510.172 43.0552 510.055 43.2364 509.941 43.4111C509.708 43.7571 509.515 44.0966 509.292 44.3811C508.831 44.9371 508.477 45.4365 508.128 45.7841C507.788 46.1236 507.526 46.3852 507.338 46.5738C507.155 46.7509 507.057 46.8338 507.057 46.8338C507.057 46.8338 507.138 46.7329 507.307 46.5484C507.488 46.3549 507.741 46.0859 508.068 45.7358C508.406 45.3815 508.75 44.8772 509.198 44.318C509.414 44.0318 509.602 43.6907 509.828 43.3447C509.938 43.1692 510.052 42.9888 510.169 42.8018C510.269 42.605 510.372 42.4025 510.477 42.1942C511.335 40.5411 512.115 38.332 512.314 35.6604C512.544 33.0028 512.09 29.8745 510.601 26.8216C509.077 23.8163 506.479 20.8693 502.831 19.1276C499.237 17.3589 494.646 16.8201 490.281 18.2182C485.939 19.5761 481.898 22.9316 479.904 27.5752C479.415 28.7306 479.012 29.945 478.797 31.2103C478.546 32.4682 478.47 33.7712 478.526 35.075C478.627 37.6899 479.388 40.3106 480.704 42.6723L480.784 42.8166L480.665 42.9281C479.517 43.999 478.358 45.0822 477.187 46.1753L477.252 45.9916C477.526 47.8957 477.804 49.8218 478.085 51.7669L478.132 52.09L477.818 52.0022C476.034 51.5028 474.234 50.9985 472.418 50.4901L472.62 50.4409C471.561 51.4299 470.494 52.4253 469.422 53.4257C469.026 53.7947 468.632 54.1629 468.268 54.5024L468.333 54.3163C468.618 56.2957 468.901 58.2605 469.164 60.0915L469.211 60.4154L468.896 60.3269C467.041 59.8062 465.201 59.2904 463.497 58.8123L463.698 58.7631C462.409 59.9644 461.131 61.1559 459.955 62.253L460.02 62.0702C460.194 63.2846 460.366 64.4908 460.525 65.5904L460.57 65.907L460.262 65.8209C459.126 65.5019 457.997 65.1845 456.972 64.8967L457.168 64.8492C456.415 65.5519 455.665 66.2489 454.989 66.8795L455.054 66.7425C454.94 68.5949 454.826 70.4235 454.723 72.0906L454.572 71.8848C457.34 72.5842 460.045 73.2673 462.548 73.9003L462.37 73.9462C472.698 64.3449 481.604 56.0661 488.298 49.8432L488.361 49.7849L488.439 49.8202C491.323 51.1125 494.209 51.4446 496.655 51.2814C499.113 51.0978 501.145 50.4393 502.688 49.7234C504.238 49.001 505.297 48.2089 506.012 47.689C506.345 47.4127 506.601 47.2003 506.786 47.047C506.962 46.9002 507.057 46.8338 507.057 46.8338Z" fill="#273240"/>
<path d="M505.482 45.4983C505.423 45.4474 506.482 44.602 507.778 42.6012C508.44 41.6131 509.065 40.2806 509.537 38.6644C509.999 37.0482 510.248 35.1105 510.025 33.0023C509.796 30.9064 509.13 28.6186 507.771 26.5292C506.412 24.4628 504.479 22.5047 501.964 21.2706C500.73 20.6195 499.356 20.1627 497.921 19.9053C497.206 19.747 496.467 19.715 495.725 19.6519C494.981 19.6642 494.227 19.6502 493.474 19.7634C490.452 20.0857 487.465 21.4633 485.092 23.6371C482.757 25.8544 481.174 28.7391 480.643 31.7329C480.477 32.4759 480.44 33.2286 480.376 33.9707C480.388 34.7153 480.368 35.4549 480.477 36.1798C480.634 37.6304 480.995 39.0318 481.559 40.3085C482.616 42.9038 484.436 44.9677 486.403 46.4667C488.393 47.9673 490.629 48.7914 492.704 49.1637C494.792 49.5327 496.742 49.4179 498.386 49.0686C500.03 48.7102 501.404 48.1789 502.435 47.5868C504.519 46.4347 505.435 45.4368 505.482 45.4983C505.487 45.504 505.428 45.5622 505.309 45.6721C505.171 45.7959 504.995 45.9534 504.774 46.151C504.542 46.3658 504.243 46.6192 503.856 46.8734C503.479 47.1407 503.05 47.4597 502.513 47.7344C501.483 48.3552 500.101 48.9169 498.435 49.3039C496.768 49.6811 494.785 49.8205 492.651 49.4638C490.531 49.103 488.237 48.2773 486.19 46.7537C484.167 45.2326 482.291 43.1244 481.194 40.4643C480.61 39.1556 480.235 37.7173 480.069 36.2274C479.956 35.4836 479.973 34.7235 479.96 33.9576C480.023 33.195 480.062 32.4209 480.23 31.6567C480.77 28.5784 482.396 25.6059 484.798 23.3263C487.238 21.0893 490.316 19.6748 493.424 19.3493C494.197 19.2345 494.972 19.2501 495.737 19.2402C496.499 19.3058 497.259 19.3419 497.993 19.5059C499.467 19.7749 500.876 20.2488 502.14 20.9221C504.717 22.2004 506.69 24.2168 508.068 26.3414C509.446 28.489 510.111 30.8342 510.324 32.9744C510.532 35.1269 510.256 37.0974 509.764 38.7333C509.263 40.3684 508.607 41.7082 507.917 42.6939C507.606 43.2105 507.258 43.6164 506.965 43.9747C506.685 44.3429 506.412 44.6233 506.18 44.8398C505.968 45.0465 505.799 45.2113 505.665 45.3408C505.55 45.4499 505.487 45.504 505.482 45.4983Z" fill="#273240"/>
<path d="M504.785 33.3632C504.75 33.3304 505.142 32.995 505.619 32.2283C506.085 31.4756 506.603 30.1964 506.427 28.5982C506.335 27.811 506.079 26.9549 505.566 26.1751C505.053 25.4035 504.326 24.6737 503.385 24.2161C502.459 23.743 501.337 23.5158 500.212 23.6602C499.083 23.7823 497.971 24.2973 497.084 25.1083C496.213 25.9365 495.621 27.0107 495.422 28.1283C495.2 29.2403 495.348 30.3768 495.757 31.3329C496.149 32.3038 496.826 33.0795 497.56 33.6453C498.303 34.2111 499.139 34.526 499.918 34.6719C501.5 34.9581 502.812 34.5301 503.595 34.1168C504.392 33.6937 504.754 33.3271 504.785 33.3632C504.795 33.3739 504.708 33.4657 504.531 33.633C504.358 33.8027 504.075 34.0274 503.675 34.2619C502.895 34.7318 501.542 35.2304 499.867 34.9696C499.043 34.8351 498.149 34.5194 497.35 33.9307C496.559 33.3427 495.825 32.5235 495.394 31.4879C494.946 30.4678 494.778 29.2485 495.01 28.0521C495.219 26.85 495.854 25.6872 496.792 24.7967C497.745 23.9226 498.949 23.3707 500.162 23.2452C501.373 23.0968 502.576 23.3494 503.563 23.866C504.567 24.3678 505.332 25.1567 505.865 25.9857C506.397 26.8245 506.65 27.738 506.727 28.5687C506.872 30.2571 506.28 31.5723 505.758 32.3185C505.496 32.7007 505.252 32.968 505.071 33.1287C504.892 33.2935 504.795 33.3739 504.785 33.3632Z" fill="#273240"/>
<path d="M460.413 73.1364C460.333 73.0503 466.161 67.4817 473.43 60.6994C480.702 53.9156 486.66 48.4872 486.741 48.5733C486.821 48.6594 480.993 54.2272 473.722 61.011C466.453 67.7941 460.494 73.2233 460.413 73.1364Z" fill="#273240"/>
</g>
<path d="M435.221 147.211C435.221 147.329 434.304 147.424 433.171 147.424C432.039 147.424 431.121 147.329 431.121 147.211C431.121 147.093 432.039 146.998 433.171 146.998C434.304 146.997 435.221 147.093 435.221 147.211Z" fill="#273240"/>
<path d="M443.437 147.211C443.437 147.329 442.519 147.424 441.387 147.424C440.254 147.424 439.337 147.329 439.337 147.211C439.337 147.093 440.254 146.998 441.387 146.998C442.519 146.997 443.437 147.093 443.437 147.211Z" fill="#273240"/>
<path d="M451.625 147.211C451.625 147.329 450.708 147.424 449.575 147.424C448.443 147.424 447.525 147.329 447.525 147.211C447.525 147.093 448.443 146.998 449.575 146.998C450.708 146.997 451.625 147.093 451.625 147.211Z" fill="#273240"/>
<path d="M459.815 147.211C459.815 147.329 458.897 147.424 457.765 147.424C456.632 147.424 455.715 147.329 455.715 147.211C455.715 147.093 456.632 146.998 457.765 146.998C458.897 146.997 459.815 147.093 459.815 147.211Z" fill="#273240"/>
<path d="M468.026 147.211C468.026 147.329 467.108 147.424 465.976 147.424C464.843 147.424 463.926 147.329 463.926 147.211C463.926 147.093 464.843 146.998 465.976 146.998C467.108 146.997 468.026 147.093 468.026 147.211Z" fill="#273240"/>
<path d="M476.232 147.211C476.232 147.329 475.314 147.424 474.182 147.424C473.049 147.424 472.132 147.329 472.132 147.211C472.132 147.093 473.049 146.998 474.182 146.998C475.314 146.997 476.232 147.093 476.232 147.211Z" fill="#273240"/>
<path d="M483.178 145.969C483.266 145.969 483.342 146.48 483.374 147.211L483.382 147.398L483.177 147.407C482.93 147.419 482.656 147.424 482.37 147.424C481.238 147.424 480.32 147.328 480.32 147.211C480.32 147.093 481.238 146.998 482.37 146.998C482.657 146.998 482.93 147.004 483.177 147.015L482.981 147.211C483.015 146.48 483.09 145.969 483.178 145.969Z" fill="#273240"/>
<path d="M483.173 137.768C483.291 137.768 483.386 138.685 483.386 139.818C483.386 140.95 483.29 141.868 483.173 141.868C483.056 141.868 482.96 140.95 482.96 139.818C482.96 138.686 483.056 137.768 483.173 137.768Z" fill="#273240"/>
<path d="M483.173 129.568C483.291 129.568 483.386 130.486 483.386 131.618C483.386 132.751 483.29 133.668 483.173 133.668C483.056 133.668 482.96 132.751 482.96 131.618C482.96 130.487 483.056 129.568 483.173 129.568Z" fill="#273240"/>
<path d="M483.173 121.369C483.291 121.369 483.386 122.287 483.386 123.419C483.386 124.552 483.29 125.469 483.173 125.469C483.056 125.469 482.96 124.552 482.96 123.419C482.96 122.288 483.056 121.369 483.173 121.369Z" fill="#273240"/>
<path d="M483.173 113.168C483.291 113.168 483.386 114.086 483.386 115.218C483.386 116.35 483.29 117.268 483.173 117.268C483.056 117.268 482.96 116.35 482.96 115.218C482.96 114.086 483.056 113.168 483.173 113.168Z" fill="#273240"/>
<path d="M483.173 104.969C483.291 104.969 483.386 105.886 483.386 107.019C483.386 108.151 483.29 109.069 483.173 109.069C483.056 109.069 482.96 108.151 482.96 107.019C482.96 105.887 483.056 104.969 483.173 104.969Z" fill="#273240"/>
<path d="M483.173 96.7686C483.291 96.7686 483.386 97.6861 483.386 98.8186C483.386 99.951 483.29 100.869 483.173 100.869C483.056 100.869 482.96 99.951 482.96 98.8186C482.96 97.687 483.056 96.7686 483.173 96.7686Z" fill="#273240"/>
<path d="M483.173 88.5684C483.291 88.5684 483.386 89.4859 483.386 90.6184C483.386 91.7508 483.29 92.6684 483.173 92.6684C483.056 92.6684 482.96 91.7508 482.96 90.6184C482.96 89.4868 483.056 88.5684 483.173 88.5684Z" fill="#273240"/>
<path d="M483.173 80.3682C483.291 80.3682 483.386 81.2857 483.386 82.4182C483.386 83.5506 483.29 84.4682 483.173 84.4682C483.056 84.4682 482.96 83.5506 482.96 82.4182C482.96 81.2866 483.056 80.3682 483.173 80.3682Z" fill="#273240"/>
<path d="M483.173 72.1689C483.291 72.1689 483.386 73.0865 483.386 74.2189C483.386 75.3514 483.29 76.2689 483.173 76.2689C483.056 76.2689 482.96 75.3514 482.96 74.2189C482.96 73.0873 483.056 72.1689 483.173 72.1689Z" fill="#273240"/>
<path d="M483.173 63.9688C483.291 63.9688 483.386 64.8863 483.386 66.0187C483.386 67.1512 483.29 68.0687 483.173 68.0687C483.056 68.0687 482.96 67.1512 482.96 66.0187C482.96 64.8871 483.056 63.9688 483.173 63.9688Z" fill="#273240"/>
<path d="M421.702 228.944C421.702 229.062 420.784 229.157 419.652 229.157C418.519 229.157 417.602 229.061 417.602 228.944C417.602 228.826 418.519 228.73 419.652 228.73C420.784 228.73 421.702 228.826 421.702 228.944Z" fill="#273240"/>
<path d="M429.899 228.944C429.899 229.062 428.981 229.157 427.849 229.157C426.716 229.157 425.799 229.061 425.799 228.944C425.799 228.826 426.716 228.73 427.849 228.73C428.981 228.73 429.899 228.826 429.899 228.944Z" fill="#273240"/>
<path d="M438.105 228.944C438.105 229.062 437.187 229.157 436.055 229.157C434.922 229.157 434.005 229.061 434.005 228.944C434.005 228.826 434.922 228.73 436.055 228.73C437.187 228.73 438.105 228.826 438.105 228.944Z" fill="#273240"/>
<path d="M446.295 228.944C446.295 229.062 445.378 229.157 444.245 229.157C443.113 229.157 442.195 229.061 442.195 228.944C442.195 228.826 443.113 228.73 444.245 228.73C445.378 228.73 446.295 228.826 446.295 228.944Z" fill="#273240"/>
<path d="M454.506 228.944C454.506 229.062 453.589 229.157 452.456 229.157C451.324 229.157 450.406 229.061 450.406 228.944C450.406 228.826 451.324 228.73 452.456 228.73C453.589 228.73 454.506 228.826 454.506 228.944Z" fill="#273240"/>
<path d="M462.699 228.944C462.699 229.062 461.781 229.157 460.649 229.157C459.516 229.157 458.599 229.061 458.599 228.944C458.599 228.826 459.516 228.73 460.649 228.73C461.781 228.73 462.699 228.826 462.699 228.944Z" fill="#273240"/>
<path d="M470.901 228.944C470.901 229.062 469.983 229.157 468.851 229.157C467.718 229.157 466.801 229.061 466.801 228.944C466.801 228.826 467.718 228.73 468.851 228.73C469.983 228.73 470.901 228.826 470.901 228.944Z" fill="#273240"/>
<path d="M479.099 228.944C479.099 229.062 478.181 229.157 477.049 229.157C475.917 229.157 474.999 229.061 474.999 228.944C474.999 228.826 475.917 228.73 477.049 228.73C478.181 228.73 479.099 228.826 479.099 228.944Z" fill="#273240"/>
<path d="M487.306 228.944C487.306 229.062 486.388 229.157 485.256 229.157C484.124 229.157 483.206 229.061 483.206 228.944C483.206 228.826 484.124 228.73 485.256 228.73C486.388 228.73 487.306 228.826 487.306 228.944Z" fill="#273240"/>
<path d="M495.494 228.944C495.494 229.062 494.576 229.157 493.444 229.157C492.311 229.157 491.394 229.061 491.394 228.944C491.394 228.826 492.311 228.73 493.444 228.73C494.576 228.73 495.494 228.826 495.494 228.944Z" fill="#273240"/>
<path d="M502.941 228.178C503.009 228.179 503.065 228.476 503.1 228.947L503.11 229.096L502.933 229.112C502.587 229.141 502.138 229.159 501.651 229.159C500.518 229.159 499.601 229.063 499.601 228.946C499.601 228.829 500.518 228.733 501.651 228.733C502.138 228.733 502.587 228.751 502.933 228.78L502.767 228.944C502.812 228.474 502.874 228.177 502.941 228.178Z" fill="#273240"/>
<path d="M503.03 219.977C503.148 219.977 503.234 220.897 503.223 222.028C503.212 223.161 503.107 224.077 502.989 224.076C502.871 224.075 502.785 223.156 502.796 222.023C502.807 220.893 502.912 219.976 503.03 219.977Z" fill="#273240"/>
<path d="M503.108 211.779C503.226 211.78 503.312 212.699 503.301 213.831C503.29 214.963 503.186 215.88 503.067 215.878C502.949 215.878 502.863 214.958 502.874 213.826C502.885 212.695 502.99 211.778 503.108 211.779Z" fill="#273240"/>
<path d="M503.182 203.578C503.3 203.579 503.386 204.498 503.375 205.63C503.364 206.762 503.26 207.679 503.142 207.677C503.024 207.676 502.937 206.757 502.948 205.625C502.96 204.494 503.064 203.577 503.182 203.578Z" fill="#273240"/>
<path d="M476.056 177.88L477.562 205.591C477.615 206.578 478.428 207.353 479.417 207.36L529.282 207.726C530.315 207.733 531.159 206.902 531.166 205.869L531.324 184.299C531.332 183.26 530.493 182.415 529.456 182.414L498.788 182.387C498.292 182.386 497.817 182.189 497.467 181.839L492.175 176.55C491.827 176.203 491.358 176.006 490.866 176.003L477.938 175.908C476.859 175.899 475.997 176.802 476.056 177.88Z" fill="url(#paint6_linear_1511_8795)"/>
<path d="M531.379 179.146L476.894 178.748L476.656 211.306L531.142 211.704L531.379 179.146Z" fill="#F5F5F5"/>
<path d="M472.521 181.643L476.432 215.625C476.502 216.229 477.011 216.686 477.619 216.69L530.717 217.079C531.345 217.084 531.871 216.605 531.925 215.979L534.847 182.048C534.906 181.349 534.359 180.746 533.657 180.741L473.725 180.303C473.002 180.297 472.438 180.925 472.521 181.643Z" fill="url(#paint7_linear_1511_8795)"/>
<path d="M428.045 326.108H153.591C146.995 326.108 141.646 320.76 141.646 314.163V140.761C141.646 134.164 146.995 128.816 153.591 128.816H428.045C434.641 128.816 439.99 134.164 439.99 140.761V314.163C439.99 320.76 434.641 326.108 428.045 326.108Z" fill="#273240"/>
<path d="M437.815 328.779H143.77C135.71 328.779 129.176 322.245 129.176 314.185V311.516H452.408V314.185C452.409 322.245 445.875 328.779 437.815 328.779Z" fill="#273240"/>
<path d="M431.146 136.654H149.653V303.264H431.146V136.654Z" fill="#455A64"/>
<path d="M261.397 311.518L265.409 317.898H321.849L325.574 311.518H261.397Z" fill="#455A64"/>
<path d="M423.235 302.729H158.126C156.644 302.729 155.442 301.527 155.442 300.045V144.977C155.442 143.495 156.644 142.293 158.126 142.293H423.235C424.716 142.293 425.919 143.494 425.919 144.977V300.046C425.918 301.528 424.716 302.729 423.235 302.729Z" fill="#EBEBEB"/>
<path d="M425.919 154.051H155.442V302.732H425.919V154.051Z" fill="#FAFAFA"/>
<path d="M177.635 148.488C177.635 149.681 176.668 150.648 175.475 150.648C174.282 150.648 173.315 149.681 173.315 148.488C173.315 147.295 174.282 146.328 175.475 146.328C176.668 146.328 177.635 147.295 177.635 148.488Z" fill="#273240"/>
<path d="M164.532 148.488C164.532 149.681 163.565 150.648 162.372 150.648C161.18 150.648 160.212 149.681 160.212 148.488C160.212 147.295 161.18 146.328 162.372 146.328C163.565 146.328 164.532 147.295 164.532 148.488Z" fill="#273240"/>
<path d="M170.827 148.488C170.827 149.681 169.86 150.648 168.667 150.648C167.474 150.648 166.507 149.681 166.507 148.488C166.507 147.295 167.474 146.328 168.667 146.328C169.86 146.328 170.827 147.295 170.827 148.488Z" fill="#273240"/>
<path d="M437.42 311.516C437.42 311.622 371.203 311.709 289.537 311.709C207.844 311.709 141.641 311.623 141.641 311.516C141.641 311.409 207.844 311.322 289.537 311.322C371.202 311.323 437.42 311.409 437.42 311.516Z" fill="#455A64"/>
<path d="M235.907 228.947H174.186V233.076H235.907V228.947Z" fill="#E0E0E0"/>
<path d="M315.628 171.623H253.906V175.752H315.628V171.623Z" fill="#E0E0E0"/>
<path d="M407.432 187.002C407.432 187.109 373.062 187.196 330.676 187.196C288.273 187.196 253.912 187.11 253.912 187.002C253.912 186.896 288.274 186.809 330.676 186.809C373.062 186.809 407.432 186.896 407.432 187.002Z" fill="#E0E0E0"/>
<path d="M407.432 196.016C407.432 196.122 373.062 196.209 330.676 196.209C288.273 196.209 253.912 196.123 253.912 196.016C253.912 195.909 288.274 195.822 330.676 195.822C373.062 195.822 407.432 195.908 407.432 196.016Z" fill="#E0E0E0"/>
<path d="M407.432 205.031C407.432 205.138 373.062 205.225 330.676 205.225C288.273 205.225 253.912 205.139 253.912 205.031C253.912 204.925 288.274 204.838 330.676 204.838C373.062 204.839 407.432 204.925 407.432 205.031Z" fill="#E0E0E0"/>
<path d="M407.432 214.049C407.432 214.156 373.062 214.243 330.676 214.243C288.273 214.243 253.912 214.156 253.912 214.049C253.912 213.942 288.274 213.855 330.676 213.855C373.062 213.856 407.432 213.942 407.432 214.049Z" fill="#E0E0E0"/>
<path d="M407.432 223.063C407.432 223.169 373.062 223.256 330.676 223.256C288.273 223.256 253.912 223.17 253.912 223.063C253.912 222.956 288.274 222.869 330.676 222.869C373.062 222.87 407.432 222.956 407.432 223.063Z" fill="#E0E0E0"/>
<path d="M313.839 232.078C313.839 232.185 300.423 232.272 283.877 232.272C267.325 232.272 253.912 232.186 253.912 232.078C253.912 231.972 267.326 231.885 283.877 231.885C300.423 231.885 313.839 231.972 313.839 232.078Z" fill="#E0E0E0"/>
<path d="M406.313 249.578C406.313 249.685 383.723 249.772 355.863 249.772C327.993 249.772 305.407 249.685 305.407 249.578C305.407 249.472 327.992 249.385 355.863 249.385C383.723 249.385 406.313 249.472 406.313 249.578Z" fill="#E0E0E0"/>
<path d="M406.313 259.149C406.313 259.255 383.723 259.342 355.863 259.342C327.993 259.342 305.407 259.256 305.407 259.149C305.407 259.042 327.992 258.955 355.863 258.955C383.723 258.955 406.313 259.042 406.313 259.149Z" fill="#E0E0E0"/>
<path d="M406.313 268.719C406.313 268.826 383.723 268.912 355.863 268.912C327.993 268.912 305.407 268.826 305.407 268.719C305.407 268.612 327.992 268.525 355.863 268.525C383.723 268.525 406.313 268.612 406.313 268.719Z" fill="#E0E0E0"/>
<path d="M406.313 278.289C406.313 278.396 383.723 278.483 355.863 278.483C327.993 278.483 305.407 278.397 305.407 278.289C305.407 278.183 327.992 278.096 355.863 278.096C383.723 278.097 406.313 278.183 406.313 278.289Z" fill="#E0E0E0"/>
<path d="M236.066 248.662C236.066 248.769 222.6 248.856 205.992 248.856C189.379 248.856 175.915 248.77 175.915 248.662C175.915 248.556 189.379 248.469 205.992 248.469C222.6 248.47 236.066 248.556 236.066 248.662Z" fill="#E0E0E0"/>
<path d="M236.066 256.178C236.066 256.284 222.6 256.371 205.992 256.371C189.379 256.371 175.915 256.285 175.915 256.178C175.915 256.071 189.379 255.984 205.992 255.984C222.6 255.984 236.066 256.071 236.066 256.178Z" fill="#E0E0E0"/>
<path d="M236.066 263.694C236.066 263.8 222.6 263.887 205.992 263.887C189.379 263.887 175.915 263.801 175.915 263.694C175.915 263.587 189.379 263.5 205.992 263.5C222.6 263.5 236.066 263.587 236.066 263.694Z" fill="#E0E0E0"/>
<path d="M236.066 271.209C236.066 271.316 222.6 271.403 205.992 271.403C189.379 271.403 175.915 271.317 175.915 271.209C175.915 271.103 189.379 271.016 205.992 271.016C222.6 271.016 236.066 271.102 236.066 271.209Z" fill="#E0E0E0"/>
<path d="M236.066 278.725C236.066 278.831 222.6 278.918 205.992 278.918C189.379 278.918 175.915 278.832 175.915 278.725C175.915 278.618 189.379 278.531 205.992 278.531C222.6 278.532 236.066 278.618 236.066 278.725Z" fill="#E0E0E0"/>
<path d="M297.661 245.012H253.87V287.379H297.661V245.012Z" fill="#F5F5F5"/>
<path d="M257.269 283.753L269.383 261.951L279.291 275.886L285.313 268.486L294.269 283.753H257.269Z" fill="#EBEBEB"/>
<path d="M283.505 257.712C283.505 259.453 282.093 260.863 280.353 260.863C278.613 260.863 277.202 259.453 277.202 257.712C277.202 255.971 278.613 254.561 280.353 254.561C282.094 254.561 283.505 255.971 283.505 257.712Z" fill="#EBEBEB"/>
<path d="M294.251 283.872C294.247 283.868 294.244 283.81 294.241 283.698C294.238 283.571 294.235 283.409 294.231 283.204C294.226 282.753 294.219 282.117 294.21 281.298C294.199 279.618 294.183 277.188 294.164 274.102C294.142 267.914 294.11 259.102 294.072 248.521L294.251 248.699C283.535 248.708 270.831 248.718 257.254 248.729C257.204 248.773 257.645 248.337 257.459 248.526V248.535V248.554V248.592V248.667V248.818V249.12V249.724V250.927C257.459 251.728 257.459 252.525 257.459 253.318C257.458 254.906 257.458 256.479 257.457 258.036C257.456 261.149 257.454 264.197 257.452 267.165C257.446 273.099 257.438 278.708 257.433 283.869L257.251 283.688C268.294 283.727 277.518 283.759 284.003 283.781C287.236 283.801 289.786 283.817 291.549 283.828C292.41 283.837 293.078 283.845 293.55 283.85C293.767 283.854 293.937 283.857 294.069 283.859C294.186 283.864 294.247 283.868 294.251 283.872C294.255 283.875 294.2 283.878 294.089 283.882C293.961 283.884 293.799 283.887 293.59 283.892C293.126 283.897 292.47 283.904 291.624 283.913C289.871 283.925 287.336 283.941 284.119 283.961C277.606 283.983 268.342 284.015 257.251 284.054L257.069 284.055V283.872C257.063 278.711 257.056 273.101 257.05 267.167C257.048 264.2 257.046 261.151 257.044 258.038C257.043 256.482 257.043 254.908 257.043 253.321C257.043 252.527 257.043 251.73 257.043 250.929V249.726L257.042 249.123V248.821V248.67V248.594V248.557V248.538V248.529C256.856 248.712 257.296 248.267 257.255 248.314C270.832 248.325 283.536 248.335 294.251 248.344L294.431 248.344L294.43 248.523C294.392 259.15 294.36 268.002 294.338 274.219C294.319 277.286 294.302 279.703 294.292 281.373C294.283 282.178 294.276 282.803 294.271 283.245C294.267 283.443 294.264 283.598 294.26 283.72C294.258 283.822 294.255 283.875 294.251 283.872Z" fill="#EBEBEB"/>
<path d="M234.738 164.576H175.344V222.039H234.738V164.576Z" fill="#F5F5F5"/>
<path d="M179.956 217.121L196.386 187.551L209.825 206.451L217.992 196.414L230.14 217.121H179.956Z" fill="#E0E0E0"/>
<path d="M215.532 181.8C215.532 184.161 213.618 186.074 211.257 186.074C208.896 186.074 206.982 184.161 206.982 181.8C206.982 179.439 208.896 177.525 211.257 177.525C213.619 177.526 215.532 179.439 215.532 181.8Z" fill="#E0E0E0"/>
<path d="M230.157 217.279C230.153 217.275 230.148 217.195 230.143 217.044C230.141 216.871 230.136 216.653 230.13 216.374C230.123 215.762 230.114 214.899 230.101 213.787C230.087 211.509 230.065 208.213 230.038 204.029C230.008 195.636 229.965 183.684 229.913 169.333L230.156 169.576C215.622 169.587 198.393 169.601 179.977 169.616C179.909 169.676 180.508 169.084 180.255 169.341V169.353V169.379V169.43V169.533V169.738V170.148V170.966V172.598C180.255 173.684 180.254 174.765 180.254 175.842C180.253 177.995 180.253 180.129 180.252 182.24C180.249 186.463 180.248 190.597 180.245 194.622C180.236 202.669 180.226 210.278 180.218 217.277L179.972 217.031C194.95 217.083 207.461 217.126 216.256 217.156C220.642 217.183 224.1 217.205 226.49 217.22C227.658 217.232 228.565 217.242 229.205 217.249C229.499 217.254 229.729 217.259 229.909 217.263C230.069 217.269 230.153 217.274 230.157 217.279C230.162 217.283 230.087 217.288 229.937 217.293C229.764 217.296 229.544 217.301 229.261 217.307C228.631 217.313 227.741 217.323 226.593 217.336C224.216 217.35 220.776 217.373 216.415 217.4C207.581 217.431 195.015 217.474 179.972 217.526L179.725 217.527V217.279C179.717 210.28 179.708 202.671 179.698 194.623C179.696 190.598 179.693 186.463 179.691 182.241C179.69 180.13 179.69 177.996 179.689 175.844C179.688 174.767 179.688 173.685 179.688 172.6V170.968L179.688 170.15V169.74V169.535V169.432V169.38V169.355V169.343C179.435 169.591 180.031 168.988 179.975 169.052C198.391 169.066 215.62 169.08 230.155 169.091L230.398 169.092L230.397 169.334C230.346 183.748 230.303 195.754 230.273 204.184C230.246 208.345 230.225 211.623 230.21 213.888C230.198 214.981 230.189 215.828 230.182 216.428C230.177 216.696 230.172 216.906 230.169 217.072C230.167 217.213 230.163 217.283 230.157 217.279Z" fill="#E0E0E0"/>
<path d="M242.694 186.41L245.628 192.355L252.189 193.309L247.442 197.936L248.562 204.471L242.694 201.386L236.826 204.471L237.947 197.936L233.199 193.309L239.76 192.355L242.694 186.41Z" fill="url(#paint8_linear_1511_8795)"/>
<path d="M263.36 165.744L266.294 171.689L272.855 172.642L268.107 177.27L269.228 183.804L263.36 180.719L257.492 183.804L258.612 177.27L253.865 172.642L260.426 171.689L263.36 165.744Z" fill="url(#paint9_linear_1511_8795)"/>
<path d="M290.985 157.633L293.919 163.578L300.48 164.531L295.732 169.159L296.853 175.693L290.985 172.608L285.117 175.693L286.237 169.159L281.49 164.531L288.051 163.578L290.985 157.633Z" fill="url(#paint10_linear_1511_8795)"/>
<path d="M319.56 165.938L322.494 171.883L329.055 172.836L324.308 177.463L325.428 183.998L319.56 180.913L313.692 183.998L314.813 177.463L310.065 172.836L316.626 171.883L319.56 165.938Z" fill="url(#paint11_linear_1511_8795)"/>
<path d="M339.263 185.637L342.197 191.582L348.758 192.535L344.011 197.163L345.132 203.697L339.263 200.612L333.395 203.697L334.516 197.163L329.769 192.535L336.329 191.582L339.263 185.637Z" fill="url(#paint12_linear_1511_8795)"/>
<path d="M346.409 214.221L349.343 220.166L355.904 221.119L351.156 225.747L352.277 232.28L346.409 229.196L340.541 232.28L341.661 225.747L336.914 221.119L343.475 220.166L346.409 214.221Z" fill="url(#paint13_linear_1511_8795)"/>
<path d="M339.46 242.613L342.394 248.558L348.954 249.512L344.207 254.139L345.328 260.673L339.46 257.588L333.592 260.673L334.712 254.139L329.965 249.512L336.526 248.558L339.46 242.613Z" fill="url(#paint14_linear_1511_8795)"/>
<path d="M318.536 262.312L321.47 268.258L328.031 269.211L323.283 273.838L324.404 280.373L318.536 277.287L312.667 280.373L313.788 273.838L309.041 269.211L315.601 268.258L318.536 262.312Z" fill="url(#paint15_linear_1511_8795)"/>
<path d="M290.431 270.432L293.365 276.377L299.926 277.33L295.178 281.958L296.299 288.492L290.431 285.407L284.563 288.492L285.684 281.958L280.937 277.33L287.497 276.377L290.431 270.432Z" fill="url(#paint16_linear_1511_8795)"/>
<path d="M263.578 262.32L266.512 268.265L273.073 269.219L268.326 273.846L269.446 280.381L263.578 277.295L257.71 280.381L258.831 273.846L254.083 269.219L260.644 268.265L263.578 262.32Z" fill="url(#paint17_linear_1511_8795)"/>
<path d="M242.332 242.098L245.266 248.043L251.826 248.996L247.079 253.624L248.2 260.158L242.332 257.073L236.464 260.158L237.584 253.624L232.837 248.996L239.398 248.043L242.332 242.098Z" fill="url(#paint18_linear_1511_8795)"/>
<path d="M235.186 214.254L238.12 220.199L244.681 221.153L239.934 225.78L241.054 232.314L235.186 229.229L229.318 232.314L230.439 225.78L225.691 221.153L232.252 220.199L235.186 214.254Z" fill="url(#paint19_linear_1511_8795)"/>
<path d="M311.223 234.645H305.483V203.403C305.483 196.049 299.501 190.066 292.147 190.066C284.793 190.066 278.81 196.049 278.81 203.403V234.645H273.07V203.403C273.07 192.885 281.629 184.326 292.147 184.326C302.665 184.326 311.223 192.884 311.223 203.403V234.645Z" fill="#273240"/>
<path d="M313.094 253.733H271.207C268.576 253.733 266.442 251.599 266.442 248.968V225.511C266.442 222.88 268.576 220.746 271.207 220.746H313.094C315.725 220.746 317.859 222.88 317.859 225.511V248.968C317.859 251.6 315.725 253.733 313.094 253.733Z" fill="url(#paint20_linear_1511_8795)"/>
<path d="M296.453 232.942C296.453 235.316 294.529 237.24 292.155 237.24C289.782 237.24 287.857 235.316 287.857 232.942C287.857 230.568 289.781 228.645 292.155 228.645C294.528 228.645 296.453 230.569 296.453 232.942Z" fill="#273240"/>
<path d="M293.328 234.645H290.983V243.482H293.328V234.645Z" fill="#273240"/>
<path d="M269.183 250.605C269.065 250.605 268.97 245.104 268.97 238.32C268.97 231.533 269.065 226.033 269.183 226.033C269.301 226.033 269.396 231.533 269.396 238.32C269.396 245.105 269.301 250.605 269.183 250.605Z" fill="#FAFAFA"/>
<path d="M288.788 238.454C288.774 238.475 288.586 238.387 288.284 238.168C287.98 237.95 287.577 237.579 287.176 237.039C286.375 235.987 285.642 234.078 286.117 232.016C286.617 229.959 288.128 228.581 289.316 228.001C289.917 227.698 290.444 227.547 290.813 227.489C291.181 227.429 291.388 227.434 291.392 227.459C291.41 227.54 290.576 227.618 289.461 228.266C288.364 228.886 286.993 230.215 286.533 232.114C286.092 234.018 286.722 235.821 287.424 236.866C288.13 237.946 288.841 238.389 288.788 238.454Z" fill="#FAFAFA"/>
<defs>
<linearGradient id="paint0_linear_1511_8795" x1="477.14" y1="281.027" x2="487.993" y2="281.574" gradientUnits="userSpaceOnUse">
<stop stop-color="#0066B2"/>
<stop offset="1" stop-color="#00AEEF"/>
</linearGradient>
<linearGradient id="paint1_linear_1511_8795" x1="481.8" y1="308.634" x2="496.836" y2="311.141" gradientUnits="userSpaceOnUse">
<stop stop-color="#0066B2"/>
<stop offset="1" stop-color="#00AEEF"/>
</linearGradient>
<linearGradient id="paint2_linear_1511_8795" x1="459.086" y1="288.013" x2="477.945" y2="290.1" gradientUnits="userSpaceOnUse">
<stop stop-color="#0066B2"/>
<stop offset="1" stop-color="#00AEEF"/>
</linearGradient>
<linearGradient id="paint3_linear_1511_8795" x1="25.5605" y1="164.735" x2="62.4996" y2="168.394" gradientUnits="userSpaceOnUse">
<stop stop-color="#0066B2"/>
<stop offset="1" stop-color="#00AEEF"/>
</linearGradient>
<linearGradient id="paint4_linear_1511_8795" x1="121.278" y1="72.419" x2="143.239" y2="74.7965" gradientUnits="userSpaceOnUse">
<stop stop-color="#0066B2"/>
<stop offset="1" stop-color="#00AEEF"/>
</linearGradient>
<linearGradient id="paint5_linear_1511_8795" x1="233.289" y1="29.8147" x2="343.95" y2="52.0829" gradientUnits="userSpaceOnUse">
<stop stop-color="#0066B2"/>
<stop offset="1" stop-color="#00AEEF"/>
</linearGradient>
<linearGradient id="paint6_linear_1511_8795" x1="476.053" y1="177.329" x2="534.986" y2="188.412" gradientUnits="userSpaceOnUse">
<stop stop-color="#0066B2"/>
<stop offset="1" stop-color="#00AEEF"/>
</linearGradient>
<linearGradient id="paint7_linear_1511_8795" x1="472.513" y1="181.945" x2="539.089" y2="194.162" gradientUnits="userSpaceOnUse">
<stop stop-color="#0066B2"/>
<stop offset="1" stop-color="#00AEEF"/>
</linearGradient>
<linearGradient id="paint8_linear_1511_8795" x1="233.199" y1="187.216" x2="253.895" y2="189.572" gradientUnits="userSpaceOnUse">
<stop stop-color="#0066B2"/>
<stop offset="1" stop-color="#00AEEF"/>
</linearGradient>
<linearGradient id="paint9_linear_1511_8795" x1="253.865" y1="166.55" x2="274.561" y2="168.906" gradientUnits="userSpaceOnUse">
<stop stop-color="#0066B2"/>
<stop offset="1" stop-color="#00AEEF"/>
</linearGradient>
<linearGradient id="paint10_linear_1511_8795" x1="281.49" y1="158.439" x2="302.186" y2="160.795" gradientUnits="userSpaceOnUse">
<stop stop-color="#0066B2"/>
<stop offset="1" stop-color="#00AEEF"/>
</linearGradient>
<linearGradient id="paint11_linear_1511_8795" x1="310.065" y1="166.744" x2="330.761" y2="169.1" gradientUnits="userSpaceOnUse">
<stop stop-color="#0066B2"/>
<stop offset="1" stop-color="#00AEEF"/>
</linearGradient>
<linearGradient id="paint12_linear_1511_8795" x1="329.769" y1="186.443" x2="350.464" y2="188.799" gradientUnits="userSpaceOnUse">
<stop stop-color="#0066B2"/>
<stop offset="1" stop-color="#00AEEF"/>
</linearGradient>
<linearGradient id="paint13_linear_1511_8795" x1="336.914" y1="215.027" x2="357.609" y2="217.383" gradientUnits="userSpaceOnUse">
<stop stop-color="#0066B2"/>
<stop offset="1" stop-color="#00AEEF"/>
</linearGradient>
<linearGradient id="paint14_linear_1511_8795" x1="329.965" y1="243.42" x2="350.66" y2="245.775" gradientUnits="userSpaceOnUse">
<stop stop-color="#0066B2"/>
<stop offset="1" stop-color="#00AEEF"/>
</linearGradient>
<linearGradient id="paint15_linear_1511_8795" x1="309.041" y1="263.119" x2="329.736" y2="265.475" gradientUnits="userSpaceOnUse">
<stop stop-color="#0066B2"/>
<stop offset="1" stop-color="#00AEEF"/>
</linearGradient>
<linearGradient id="paint16_linear_1511_8795" x1="280.937" y1="271.238" x2="301.632" y2="273.594" gradientUnits="userSpaceOnUse">
<stop stop-color="#0066B2"/>
<stop offset="1" stop-color="#00AEEF"/>
</linearGradient>
<linearGradient id="paint17_linear_1511_8795" x1="254.083" y1="263.127" x2="274.778" y2="265.482" gradientUnits="userSpaceOnUse">
<stop stop-color="#0066B2"/>
<stop offset="1" stop-color="#00AEEF"/>
</linearGradient>
<linearGradient id="paint18_linear_1511_8795" x1="232.837" y1="242.904" x2="253.532" y2="245.26" gradientUnits="userSpaceOnUse">
<stop stop-color="#0066B2"/>
<stop offset="1" stop-color="#00AEEF"/>
</linearGradient>
<linearGradient id="paint19_linear_1511_8795" x1="225.691" y1="215.06" x2="246.387" y2="217.416" gradientUnits="userSpaceOnUse">
<stop stop-color="#0066B2"/>
<stop offset="1" stop-color="#00AEEF"/>
</linearGradient>
<linearGradient id="paint20_linear_1511_8795" x1="266.442" y1="222.219" x2="321.632" y2="231.532" gradientUnits="userSpaceOnUse">
<stop stop-color="#0066B2"/>
<stop offset="1" stop-color="#00AEEF"/>
</linearGradient>
</defs>
</svg>
