<svg width="36" height="36" viewBox="0 0 36 36" fill="none" xmlns="http://www.w3.org/2000/svg">
<path d="M5.35556 1.74454C4.30565 1.88616 3.36805 2.54541 2.92366 3.45371C2.53788 4.23504 2.57206 2.96537 2.57206 17.42C2.57206 31.8112 2.54765 30.6587 2.90413 31.3864C3.16783 31.9284 3.77336 32.5242 4.33006 32.7976C5.07721 33.1639 4.64748 33.1443 12.1434 33.1443H18.858L18.5894 32.9148C18.1889 32.5779 17.6371 31.9968 17.2855 31.5426L16.9681 31.1422H11.2204H5.47276L5.21883 31.0152C5.07721 30.9469 4.89653 30.8101 4.81839 30.7125C4.50098 30.3316 4.5254 31.2936 4.53516 17.3224L4.54981 4.60129L4.65725 4.40596C4.77933 4.17644 5.01861 3.94204 5.25789 3.81507C5.42393 3.72717 5.77553 3.72229 15.635 3.72229C25.6311 3.72229 25.846 3.72229 26.0316 3.81507C26.2757 3.93716 26.5053 4.16667 26.6273 4.41084C26.7152 4.59641 26.7201 4.78686 26.7445 10.305L26.769 16.0136L27.3061 16.1504C27.604 16.2236 28.0289 16.3555 28.2535 16.4385C28.483 16.5215 28.6881 16.5899 28.7076 16.5899C28.7321 16.5899 28.7418 13.8503 28.7321 10.4955C28.7174 4.79662 28.7125 4.38642 28.6295 4.11296C28.2877 2.97026 27.477 2.15963 26.3295 1.81291C26.0511 1.72501 25.5432 1.72013 15.8303 1.71524C10.2194 1.71036 5.50206 1.72501 5.35556 1.74454Z" fill="url(#paint0_linear_4296_5602)"/>
<path d="M6.99124 7.6204C6.72266 7.72783 6.58104 7.8548 6.45408 8.10873C6.32223 8.3822 6.30269 8.55312 6.38571 8.851C6.45896 9.11958 6.79103 9.43212 7.07914 9.50048C7.35749 9.57373 23.4383 9.5835 23.7362 9.51025C23.9657 9.46142 24.122 9.3491 24.3222 9.10005C24.4589 8.92913 24.4736 8.88518 24.4736 8.558C24.4736 8.24058 24.4589 8.1771 24.3271 7.99153C24.2489 7.87922 24.0829 7.73272 23.9657 7.66923L23.7508 7.55692L15.4443 7.5618C9.20828 7.5618 7.10356 7.57645 6.99124 7.6204Z" fill="url(#paint1_linear_4296_5602)"/>
<path d="M7.04513 11.9607C6.77655 12.034 6.45425 12.3612 6.381 12.6346C6.25403 13.1034 6.45425 13.5673 6.8791 13.7773L7.13303 13.9043H15.4396H23.751L23.9659 13.792C24.0831 13.7285 24.2491 13.582 24.3272 13.4697C24.4591 13.2841 24.4737 13.2206 24.4737 12.9032C24.4737 12.576 24.4591 12.5321 24.3224 12.3612C24.1221 12.1121 23.9659 11.9998 23.7364 11.951C23.4629 11.8826 7.2893 11.8972 7.04513 11.9607Z" fill="url(#paint2_linear_4296_5602)"/>
<path d="M6.8791 16.399C6.1759 16.7506 6.17102 17.7956 6.86933 18.1521C7.05978 18.2498 7.1135 18.2498 11.8454 18.24L16.6262 18.2254L16.8167 18.074C17.0755 17.864 17.222 17.5954 17.222 17.3073C17.222 16.8873 17.0218 16.5553 16.6604 16.3892C16.4748 16.3013 16.2307 16.2964 11.7771 16.2964C7.09397 16.2964 7.08908 16.2964 6.8791 16.399Z" fill="url(#paint3_linear_4296_5602)"/>
<path d="M24.2297 17.064C23.2531 17.1763 22.5743 17.3325 21.9102 17.5865C17.5982 19.2517 15.3909 23.9202 16.851 28.2858C17.3345 29.7264 18.2818 31.1084 19.4685 32.0948C21.622 33.887 24.4739 34.5023 27.2086 33.7552C28.6736 33.3596 29.9725 32.5734 31.0762 31.4209C34.0941 28.2614 34.2259 23.339 31.3692 20.0037C29.7674 18.1285 27.2867 17.0054 24.8402 17.0395C24.5862 17.0395 24.3128 17.0542 24.2297 17.064ZM26.2319 19.154C28.4294 19.6424 30.1825 21.1269 30.9883 23.1681C31.335 24.052 31.4034 24.4427 31.4082 25.5512C31.4082 26.4595 31.3985 26.5669 31.2715 27.0552C30.6855 29.3748 28.9959 31.1572 26.7593 31.8214C25.5727 32.173 24.093 32.1534 22.9259 31.7725C20.6649 31.0352 19.0241 29.199 18.5065 26.8355C18.3844 26.2593 18.3844 24.8382 18.5114 24.2571C18.7897 22.9777 19.4148 21.835 20.3328 20.9267C21.3876 19.8914 22.5987 19.2956 24.1321 19.0612C24.4446 19.0173 25.8998 19.0759 26.2319 19.154Z" fill="url(#paint4_linear_4296_5602)"/>
<path d="M24.6838 21.8986L24.6691 22.3723L24.4592 22.4113C23.9562 22.4944 23.4434 22.8557 23.2334 23.2708C23.0674 23.5931 23.0088 24.0521 23.0772 24.4428C23.209 25.1948 23.6583 25.6148 24.7424 26.0152C25.2893 26.2155 25.5921 26.3766 25.7337 26.5475C26.1048 26.987 25.9876 27.6365 25.4944 27.8709C25.3137 27.9588 25.2112 27.9735 24.8694 27.9637C24.5324 27.949 24.4347 27.9246 24.2687 27.8123C24.049 27.6707 23.9073 27.4168 23.8732 27.1042L23.8487 26.8942H23.336H22.8232L22.8477 27.2263C22.9063 28.0223 23.4678 28.6181 24.3371 28.7987L24.5959 28.8525V29.2675V29.6777H24.9377H25.2796V29.2675V28.8525L25.5628 28.7987C25.9681 28.7157 26.3002 28.5399 26.5639 28.2762C26.8715 27.9686 26.9887 27.6512 26.9887 27.114C26.9887 26.1617 26.5834 25.6978 25.3235 25.2095C24.3127 24.8139 24.088 24.5942 24.1173 24.0277C24.1369 23.7005 24.2199 23.5394 24.464 23.3587C24.6643 23.2122 25.1575 23.1927 25.4114 23.3245C25.7093 23.471 25.9144 23.8226 25.9144 24.1645V24.3061H26.432H26.9545L26.9301 23.9642C26.8715 23.1829 26.3051 22.5383 25.5774 22.4211L25.3772 22.3869V21.9084V21.4249H25.0354H24.6984L24.6838 21.8986Z" fill="url(#paint5_linear_4296_5602)"/>
<path d="M6.99616 20.7166C6.62503 20.8484 6.33203 21.2537 6.33203 21.6444C6.33203 22.0546 6.66898 22.4892 7.05965 22.5966C7.1915 22.6308 8.43675 22.6455 10.9175 22.6357L14.5751 22.6211L14.79 22.4746C15.4834 21.9862 15.3418 20.9656 14.5409 20.697C14.2772 20.6091 7.2501 20.6238 6.99616 20.7166Z" fill="url(#paint6_linear_4296_5602)"/>
<path d="M6.8791 25.1663C6.45425 25.3763 6.25403 25.8402 6.381 26.309C6.45913 26.602 6.77655 26.9097 7.07932 26.9829C7.37232 27.0562 14.2285 27.0659 14.4922 26.9927C14.7559 26.9194 14.9854 26.7485 15.1124 26.5288C15.2052 26.3627 15.2198 26.2748 15.2101 25.9818C15.1954 25.6791 15.1759 25.6107 15.044 25.4447C14.9659 25.3421 14.7999 25.2103 14.6827 25.1468L14.4678 25.0393H10.8004H7.13303L6.8791 25.1663Z" fill="url(#paint7_linear_4296_5602)"/>
<defs>
<linearGradient id="paint0_linear_4296_5602" x1="2.57129" y1="31.7414" x2="31.2229" y2="29.1592" gradientUnits="userSpaceOnUse">
<stop stop-color="#0066B2"/>
<stop offset="1" stop-color="#00AEEF"/>
</linearGradient>
<linearGradient id="paint1_linear_4296_5602" x1="6.33594" y1="9.4711" x2="16.5493" y2="-0.538376" gradientUnits="userSpaceOnUse">
<stop stop-color="#0066B2"/>
<stop offset="1" stop-color="#00AEEF"/>
</linearGradient>
<linearGradient id="paint2_linear_4296_5602" x1="6.34326" y1="13.8151" x2="16.5299" y2="3.80913" gradientUnits="userSpaceOnUse">
<stop stop-color="#0066B2"/>
<stop offset="1" stop-color="#00AEEF"/>
</linearGradient>
<linearGradient id="paint3_linear_4296_5602" x1="6.34863" y1="18.1572" x2="15.1406" y2="12.8433" gradientUnits="userSpaceOnUse">
<stop stop-color="#0066B2"/>
<stop offset="1" stop-color="#00AEEF"/>
</linearGradient>
<linearGradient id="paint4_linear_4296_5602" x1="16.4019" y1="33.3062" x2="34.9807" y2="31.2949" gradientUnits="userSpaceOnUse">
<stop stop-color="#0066B2"/>
<stop offset="1" stop-color="#00AEEF"/>
</linearGradient>
<linearGradient id="paint5_linear_4296_5602" x1="22.8232" y1="29.3093" x2="27.408" y2="29.0588" gradientUnits="userSpaceOnUse">
<stop stop-color="#0066B2"/>
<stop offset="1" stop-color="#00AEEF"/>
</linearGradient>
<linearGradient id="paint6_linear_4296_5602" x1="6.33203" y1="22.5494" x2="14.3085" y2="18.7056" gradientUnits="userSpaceOnUse">
<stop stop-color="#0066B2"/>
<stop offset="1" stop-color="#00AEEF"/>
</linearGradient>
<linearGradient id="paint7_linear_4296_5602" x1="6.34326" y1="26.9535" x2="14.3058" y2="23.1375" gradientUnits="userSpaceOnUse">
<stop stop-color="#0066B2"/>
<stop offset="1" stop-color="#00AEEF"/>
</linearGradient>
</defs>
</svg>
