<svg width="40" height="40" viewBox="0 0 40 40" fill="none" xmlns="http://www.w3.org/2000/svg">
<path d="M5.3315 1.8024C5.02812 2.00465 4.5899 2.47658 4.38765 2.84737L4 3.52155L4.05056 20.4096C4.08427 37.2471 4.08427 37.2977 4.43821 37.7696C4.62361 38.0224 5.04497 38.4101 5.34835 38.6123L5.90454 39H19.9779C33.8659 39 34.0513 39 34.6075 38.6461C34.9109 38.4607 35.3323 38.0224 35.5514 37.6854L35.939 37.0617L35.9896 20.9153C36.0233 10.6004 35.9727 4.41483 35.8716 3.84178C35.6694 2.7631 35.3154 2.24062 34.4896 1.76869C33.8828 1.41475 33.7143 1.41475 19.8937 1.41475H5.90454L5.3315 1.8024ZM32.9895 20.2074V36.3033H19.9274H6.86524V20.2074V4.11145H19.9274H32.9895V20.2074Z" fill="white"/>
<path d="M15.9152 8.66089C13.5387 8.74516 13.387 8.76201 13.0837 9.14966C12.6286 9.72271 12.6623 10.5317 13.2016 11.0374L13.6399 11.4419L19.8086 11.4924C26.584 11.5598 26.6177 11.543 27.0391 10.5486C27.2245 10.0935 27.2245 9.92496 27.0222 9.41933C26.8705 9.04854 26.6346 8.81258 26.3818 8.76201C25.775 8.62718 18.6793 8.55976 15.9152 8.66089Z" fill="white"/>
<path d="M10.2693 17.814C9.76371 18.3533 9.78056 19.2803 10.2862 19.7523C10.6738 20.123 10.7581 20.123 16.2864 20.123C19.5561 20.123 22.0168 20.0556 22.1854 19.9545C22.7079 19.6848 22.9607 18.859 22.7079 18.2691C22.5899 17.9825 22.3539 17.6792 22.1854 17.5949C22.0168 17.4938 19.5392 17.4263 16.2526 17.4263H10.6233L10.2693 17.814Z" fill="white"/>
<path d="M26.2811 17.814C25.7754 18.3533 25.7923 19.2803 26.2979 19.7523C26.635 20.0725 26.8878 20.123 28.0002 20.123C29.1463 20.123 29.3486 20.0725 29.7025 19.7017C30.225 19.1961 30.2418 18.4713 29.7699 17.8646C29.4497 17.4601 29.3317 17.4263 28.0339 17.4263C26.8035 17.4263 26.6013 17.4769 26.2811 17.814Z" fill="white"/>
<path d="M11.1794 21.7923C10.2187 21.9271 9.89844 22.2811 9.89844 23.1744C9.89844 23.6631 9.99956 23.8822 10.3367 24.1519C10.7749 24.489 10.9771 24.5059 16.32 24.5059C19.3537 24.5059 21.9662 24.4553 22.1179 24.4047C22.5392 24.2362 22.91 23.3598 22.792 22.8036C22.5561 21.7755 22.3201 21.7249 16.893 21.6912C14.2132 21.6743 11.6344 21.7249 11.1794 21.7923Z" fill="white"/>
<path d="M27.0903 21.7586C25.961 21.9777 25.4891 23.3766 26.2981 24.1351C26.6352 24.4553 26.888 24.5059 28.0004 24.5059C29.1465 24.5059 29.3488 24.4553 29.7027 24.0845C30.242 23.562 30.242 22.8204 29.7533 22.2474C29.4499 21.9103 29.1634 21.7923 28.4386 21.7417C27.933 21.708 27.3262 21.708 27.0903 21.7586Z" fill="white"/>
<path d="M11.449 26.1732C10.2187 26.2911 9.89844 26.5777 9.89844 27.5552C9.89844 28.044 9.99956 28.2631 10.3367 28.5328C10.7749 28.8699 10.9771 28.8867 16.3874 28.8867H21.983L22.3707 28.4654C22.91 27.8923 22.91 26.999 22.4044 26.4765C22.0336 26.1057 21.9493 26.1057 17.2638 26.0889C14.6514 26.072 12.0221 26.1057 11.449 26.1732Z" fill="white"/>
<path d="M26.6517 26.2574C26.0618 26.5271 25.9102 26.7968 25.9102 27.6226C25.9102 28.5328 26.5169 28.8867 28.0507 28.8867C29.1462 28.8867 29.3484 28.8362 29.7024 28.4654C30.2417 27.9429 30.2417 27.2013 29.7361 26.6114C29.4159 26.2237 29.1799 26.1395 28.2698 26.0889C27.545 26.0383 26.9888 26.0889 26.6517 26.2574Z" fill="white"/>
</svg>
