<svg width="24" height="24" viewBox="0 0 24 24" fill="none" xmlns="http://www.w3.org/2000/svg">
<rect width="24" height="24" rx="2" fill="#0066B2" fill-opacity="0.08"/>
<path d="M11.5433 4.08321C11.0659 4.23113 10.8373 4.55387 9.32447 7.18958C7.65026 10.1077 6.91737 11.3785 4.65147 15.2917C3.1588 17.8736 3.03104 18.1089 3.00415 18.4586C2.9907 18.667 3.01087 18.9494 3.05122 19.0772C3.15207 19.3865 3.6429 19.8302 3.97237 19.9244C4.33545 20.0252 19.8001 20.0252 20.1632 19.9244C20.4926 19.8302 20.9834 19.3865 21.0843 19.0772C21.1246 18.9494 21.1448 18.667 21.1314 18.4586C21.0978 18.1022 20.8826 17.7055 17.2182 11.3583C14.3807 6.43652 13.2713 4.56732 13.0763 4.3925C12.6729 4.02269 12.0947 3.90167 11.5433 4.08321ZM12.2493 5.354C12.4981 5.66329 19.8673 18.5594 19.8404 18.6267C19.7866 18.7679 4.3489 18.7679 4.29511 18.6267C4.27494 18.5796 5.22299 16.8785 6.39292 14.8479C7.56285 12.8174 9.26396 9.87236 10.1717 8.299C11.0726 6.72564 11.8459 5.40106 11.8862 5.354C11.9198 5.31365 12.0005 5.27331 12.0678 5.27331C12.135 5.27331 12.2157 5.31365 12.2493 5.354Z" fill="#0066B2"/>
<path d="M11.7532 9.57019C11.4305 9.65087 11.1952 9.83242 11.0943 10.0677C11.0204 10.2493 11.0405 10.5922 11.2355 12.4009C11.3565 13.5641 11.4574 14.6063 11.4641 14.7071C11.4708 15.1375 12.0962 15.3795 12.4727 15.0971C12.6341 14.9694 12.6408 14.8954 12.8828 12.6228C13.1182 10.3972 13.1249 10.2695 13.0173 10.0476C12.8358 9.66432 12.2642 9.44916 11.7532 9.57019Z" fill="#0066B2"/>
<path d="M11.6584 15.7826C11.5373 15.8633 11.3894 16.0112 11.3424 16.0986C11.2079 16.3608 11.2886 16.7575 11.5239 16.9996C11.7054 17.1744 11.7861 17.208 12.0685 17.208C12.3509 17.208 12.4316 17.1744 12.6131 16.9996C12.8485 16.7575 12.9292 16.3608 12.7947 16.0986C12.6737 15.8767 12.2904 15.6279 12.0685 15.6279C11.9677 15.6279 11.7861 15.6952 11.6584 15.7826Z" fill="#0066B2"/>
</svg>
