<svg width="21" height="20" viewBox="0 0 21 20" fill="none" xmlns="http://www.w3.org/2000/svg">
<path d="M5.50008 5.83333H12.1667V7.5H5.50008V5.83333ZM5.50008 9.16667H15.5001V10.8333H5.50008V9.16667ZM5.50008 12.5H7.99175V14.1667H5.50008V12.5Z" fill="#273240"/>
<path d="M12.1667 2.5L9.66675 0V1.66667H3.83341C3.39139 1.66667 2.96746 1.84226 2.6549 2.15482C2.34234 2.46738 2.16675 2.89131 2.16675 3.33333V16.6667C2.16675 17.1087 2.34234 17.5326 2.6549 17.8452C2.96746 18.1577 3.39139 18.3333 3.83341 18.3333H7.16675V16.6667H3.83341V3.33333H9.66675V5L12.1667 2.5ZM8.83341 17.5L11.3334 20V18.3333H17.1667C17.6088 18.3333 18.0327 18.1577 18.3453 17.8452C18.6578 17.5326 18.8334 17.1087 18.8334 16.6667V3.33333C18.8334 2.89131 18.6578 2.46738 18.3453 2.15482C18.0327 1.84226 17.6088 1.66667 17.1667 1.66667H13.8334V3.33333H17.1667V16.6667H11.3334V15L8.83341 17.5Z" fill="#273240"/>
</svg>
