<svg width="24" height="24" viewBox="0 0 24 24" fill="none" xmlns="http://www.w3.org/2000/svg">
<rect width="24" height="24" rx="2" fill="#0066B2" fill-opacity="0.08"/>
<path d="M11.0802 4.0217C9.8384 4.16427 8.62422 4.61499 7.56182 5.32786C3.8779 7.7976 2.89368 12.7371 5.35422 16.4118C7.82397 20.0957 12.7681 21.08 16.4382 18.6194C20.1221 16.1497 21.1063 11.2056 18.6458 7.53545C16.9717 5.03351 14.0558 3.68136 11.0802 4.0217ZM13.0164 5.97634C13.8535 6.11891 14.6491 6.43165 15.339 6.89617C15.5505 7.03414 15.7253 7.15372 15.7253 7.15832C15.7253 7.16292 13.8029 9.08996 11.4527 11.4401L7.18469 15.7081L6.92713 15.3264C6.5914 14.8159 6.41663 14.4572 6.22806 13.8915C5.97971 13.1464 5.91072 12.6405 5.94292 11.7437C5.97051 10.9388 6.0395 10.5709 6.27865 9.90401C6.79376 8.46448 7.90675 7.21811 9.3003 6.51904C9.72802 6.30288 10.4777 6.05452 10.9468 5.97634C11.4849 5.88436 12.4829 5.88436 13.0164 5.97634ZM17.0775 8.63465C17.9099 9.88102 18.2456 11.4677 18.0019 12.9854C17.6432 15.1792 16.0473 17.0373 13.9178 17.7456C12.1426 18.3297 10.1695 18.0629 8.62422 17.0281L8.26549 16.7889L12.5335 12.5209C14.8837 10.1708 16.8107 8.24832 16.8153 8.24832C16.8199 8.24832 16.9395 8.42309 17.0775 8.63465Z" fill="#0066B2"/>
</svg>
