<svg width="26" height="23" viewBox="0 0 26 23" fill="none" xmlns="http://www.w3.org/2000/svg">
<path d="M24.7686 5.37036C24.5492 5.00516 24.235 4.70082 23.8567 4.48703C23.4783 4.27324 23.0488 4.15729 22.6099 4.15051H6.35591L5.6194 1.39364C5.54499 1.12752 5.37897 0.893433 5.14839 0.729519C4.91781 0.565604 4.63625 0.481516 4.34956 0.49095H1.80988C1.4731 0.49095 1.15011 0.619469 0.911967 0.848236C0.673825 1.077 0.540039 1.38728 0.540039 1.7108C0.540039 2.03433 0.673825 2.3446 0.911967 2.57337C1.15011 2.80213 1.4731 2.93065 1.80988 2.93065H3.38448L6.88925 15.4463C6.96366 15.7125 7.12968 15.9465 7.36026 16.1105C7.59084 16.2744 7.8724 16.3585 8.15909 16.349H19.5877C19.8222 16.3483 20.0519 16.2853 20.2514 16.1669C20.4508 16.0484 20.6123 15.8793 20.7178 15.6781L24.8829 7.67588C25.0634 7.31238 25.1475 6.9116 25.1275 6.50931C25.1076 6.10702 24.9843 5.71573 24.7686 5.37036ZM18.8004 13.9093H9.12417L7.05432 6.59021H22.6099L18.8004 13.9093Z" fill="#00AEEF"/>
<path d="M7.5239 22.4491C8.57587 22.4491 9.42866 21.6298 9.42866 20.6191C9.42866 19.6084 8.57587 18.7891 7.5239 18.7891C6.47193 18.7891 5.61914 19.6084 5.61914 20.6191C5.61914 21.6298 6.47193 22.4491 7.5239 22.4491Z" fill="#00AEEF"/>
<path d="M20.2229 22.4491C21.2748 22.4491 22.1276 21.6298 22.1276 20.6191C22.1276 19.6084 21.2748 18.7891 20.2229 18.7891C19.1709 18.7891 18.3181 19.6084 18.3181 20.6191C18.3181 21.6298 19.1709 22.4491 20.2229 22.4491Z" fill="#00AEEF"/>
</svg>
