<svg width="16" height="16" viewBox="0 0 16 16" fill="none" xmlns="http://www.w3.org/2000/svg">
<path d="M3.63714 3.65117C3.33049 3.73368 3.10498 3.96332 3.02522 4.2741C2.92209 4.67838 3.14348 5.10054 3.53951 5.25868C3.97955 5.43332 4.47184 5.21193 4.6451 4.76089C4.69186 4.6385 4.70423 4.41299 4.67123 4.27135C4.61623 4.03895 4.43884 3.81894 4.22294 3.7158C4.15831 3.68555 4.07306 3.65392 4.03318 3.64567C3.93417 3.62505 3.7224 3.6278 3.63714 3.65117Z" fill="#273240"/>
<path d="M6.33085 3.65057C6.09845 3.71382 5.88806 3.88846 5.78218 4.1071C5.55391 4.57739 5.80693 5.13156 6.31985 5.2897C6.3996 5.31308 6.54124 5.31445 9.84701 5.31445C13.1528 5.31445 13.2944 5.31308 13.3742 5.2897C13.6877 5.19344 13.9146 4.95142 13.9806 4.6434C14.0645 4.24186 13.8458 3.83896 13.4567 3.68082L13.3467 3.63681L9.87451 3.63406C6.92352 3.63269 6.39135 3.63406 6.33085 3.65057Z" fill="#273240"/>
<path d="M3.71545 6.47729C3.37992 6.52817 3.08977 6.80319 3.01964 7.13734C2.88076 7.79327 3.52156 8.34057 4.15136 8.10405C4.40301 8.00917 4.62853 7.74789 4.67666 7.49487C4.69728 7.38761 4.69316 7.1951 4.66978 7.10434C4.59552 6.81969 4.34938 6.5708 4.06886 6.49792C3.96022 6.47041 3.81996 6.46216 3.71545 6.47729Z" fill="#273240"/>
<path d="M6.4287 6.4776C6.10555 6.52572 5.83052 6.76087 5.73151 7.07577C5.70951 7.14865 5.70264 7.20641 5.70264 7.31641C5.70264 7.42642 5.70951 7.48418 5.73151 7.55706C5.8154 7.82246 6.02304 8.03285 6.29119 8.12498L6.40257 8.16211H9.83348C12.6607 8.16211 13.2781 8.15936 13.34 8.14423C13.7182 8.05073 14.0001 7.69732 14.0001 7.31641C14.0001 7.01526 13.8062 6.69761 13.5435 6.56835C13.329 6.46247 13.6865 6.47209 9.89536 6.46934C8.02795 6.46797 6.4672 6.47209 6.4287 6.4776Z" fill="#273240"/>
<path d="M3.64848 9.3357C3.48897 9.37558 3.37896 9.43883 3.25245 9.56397C3.12594 9.69048 3.05443 9.81837 3.02005 9.97925C2.93067 10.3987 3.17132 10.8208 3.57697 10.9611C3.69936 11.0023 3.92213 11.0133 4.04451 10.9817C4.35391 10.9047 4.59456 10.6641 4.67156 10.3547C4.68807 10.2887 4.69219 10.2268 4.68807 10.114C4.68257 9.98613 4.67431 9.94625 4.63856 9.85274C4.4818 9.45671 4.05826 9.23532 3.64848 9.3357Z" fill="#273240"/>
<path d="M6.43016 9.3187C6.11113 9.36133 5.82236 9.6116 5.73023 9.9265C5.63534 10.2469 5.74948 10.5976 6.019 10.819C6.10563 10.8905 6.26927 10.9688 6.36828 10.9867C6.41916 10.9963 7.5935 10.9991 9.89544 10.9977L13.347 10.9936L13.457 10.9496C13.8448 10.7914 14.0648 10.3872 13.9809 9.98701C13.9163 9.68311 13.699 9.44796 13.3814 9.3407C13.3085 9.31733 13.1723 9.31595 9.88857 9.31458C8.00879 9.3132 6.45354 9.31595 6.43016 9.3187Z" fill="#273240"/>
</svg>
