<svg width="80" height="80" viewBox="0 0 80 80" fill="none" xmlns="http://www.w3.org/2000/svg">
<path d="M31.6377 0.246765C28.0906 0.715544 23.4809 2.13751 20.2307 3.77823C16.8555 5.46583 13.4491 7.93474 10.6989 10.6849C4.91728 16.4665 1.29206 23.7951 0.229491 31.905C-0.0361501 34.0457 -0.083028 38.9366 0.151361 40.9211C1.85459 54.7501 11.0583 66.3758 24.0434 71.1573C28.7625 72.8918 34.0753 73.6575 38.9506 73.2981C41.7945 73.0793 42.404 72.9387 43.1852 72.298C44.9041 70.8917 44.701 68.0009 42.779 66.8133C41.9664 66.2977 41.8414 66.2977 37.7318 66.4696C35.4973 66.5633 34.5285 66.5321 33.0127 66.3289C22.9965 65.0007 14.4647 58.9691 9.99571 50.0623C6.88615 43.8432 5.99547 37.1709 7.40181 30.5299C9.87071 18.9042 19.0744 9.74735 30.7157 7.34095C39.7944 5.46583 49.3263 8.02849 56.4517 14.2632C61.0301 18.2791 64.4991 24.1389 65.8273 30.1392C66.4523 32.8894 66.6242 34.9833 66.4836 37.9522C66.4054 39.3742 66.3585 40.8742 66.3742 41.2962C66.421 44.1713 70.4369 45.437 72.3277 43.1713C72.9214 42.4368 73.0933 41.7962 73.2965 39.421C73.6871 34.9676 73.0465 29.6236 71.562 25.1389C67.1398 11.6537 54.9672 1.74686 40.857 0.137384C38.8569 -0.0813796 33.669 -0.0345018 31.6377 0.246765Z" fill="url(#paint0_linear_4521_6406)"/>
<path d="M33.4347 16.779C30.7783 17.2009 27.7156 18.4041 25.5436 19.8729C24.2467 20.748 23.856 21.0761 22.3716 22.5293C19.4651 25.4045 17.4806 29.311 16.7775 33.5456C16.4493 35.5145 16.5587 39.1553 17.0119 41.0773C18.887 49.2341 25.3717 55.2657 33.5597 56.5002C34.9973 56.7189 35.388 56.7189 35.9818 56.5627C37.4819 56.1408 38.435 54.8594 38.435 53.2656C38.435 51.6092 37.4037 50.2967 35.8724 49.9998C35.4349 49.906 34.5286 49.7185 33.8566 49.5779C29.2939 48.6403 25.5749 45.2963 24.0435 40.7648C23.606 39.4679 23.5279 39.0147 23.4654 37.1708C23.4185 35.4051 23.4498 34.8426 23.731 33.6863C25.1842 27.6234 30.4814 23.3888 36.6537 23.3888C39.3101 23.3888 41.7478 24.1076 43.8573 25.4826C46.9043 27.4671 48.9669 30.5142 49.6232 33.9832C50.0451 36.2958 50.1858 36.7333 50.6702 37.2802C51.3733 38.0772 52.1703 38.4209 53.2797 38.4209C54.8892 38.4209 56.1393 37.499 56.5612 35.9989C56.733 35.3582 56.733 35.0145 56.5143 33.5456C55.858 29.186 53.7485 25.092 50.592 22.0918C47.8888 19.5135 44.7792 17.8415 41.0915 16.9977C39.3257 16.5758 35.2942 16.4665 33.4347 16.779Z" fill="url(#paint1_linear_4521_6406)"/>
<path d="M40.4507 40.4367C40.0913 40.8117 39.9976 41.0305 39.9976 41.593C39.9976 42.5149 53.8109 78.8922 54.4203 79.5485C54.7485 79.9235 54.936 79.986 55.6235 79.986C57.0142 79.986 56.9986 80.0329 59.4988 72.4074C60.702 68.704 61.9208 65.0007 62.1864 64.1725L62.6708 62.6568L64.1865 62.1724C65.0147 61.9067 68.7181 60.6879 72.4214 59.4847C80.0313 56.9846 80 57.0002 80 55.6251C80 55.0313 79.9063 54.7501 79.6562 54.4532C79.125 53.875 42.6227 39.9835 41.607 39.9835C41.0445 39.9835 40.8257 40.0773 40.4507 40.4367Z" fill="url(#paint2_linear_4521_6406)"/>
<defs>
<linearGradient id="paint0_linear_4521_6406" x1="-1.14237e-07" y1="3.5708" x2="87.2925" y2="13.023" gradientUnits="userSpaceOnUse">
<stop stop-color="#0066B2"/>
<stop offset="1" stop-color="#00AEEF"/>
</linearGradient>
<linearGradient id="paint1_linear_4521_6406" x1="-1.14237e-07" y1="3.5708" x2="87.2925" y2="13.023" gradientUnits="userSpaceOnUse">
<stop stop-color="#0066B2"/>
<stop offset="1" stop-color="#00AEEF"/>
</linearGradient>
<linearGradient id="paint2_linear_4521_6406" x1="-1.14237e-07" y1="3.5708" x2="87.2925" y2="13.023" gradientUnits="userSpaceOnUse">
<stop stop-color="#0066B2"/>
<stop offset="1" stop-color="#00AEEF"/>
</linearGradient>
</defs>
</svg>
