<svg width="20" height="20" viewBox="0 0 20 20" fill="none" xmlns="http://www.w3.org/2000/svg">
<path d="M10.1914 2C8.85029 2.00213 7.53297 2.35452 6.36989 3.02226C5.20681 3.69001 4.23831 4.64995 3.56027 5.80706V4.34041C3.56027 4.1335 3.47808 3.93507 3.33177 3.78877C3.18547 3.64247 2.98704 3.56027 2.78013 3.56027C2.57323 3.56027 2.3748 3.64247 2.2285 3.78877C2.08219 3.93507 2 4.1335 2 4.34041V7.46095C2 7.66785 2.08219 7.86628 2.2285 8.01259C2.3748 8.15889 2.57323 8.24108 2.78013 8.24108H6.29074C6.49765 8.24108 6.69608 8.15889 6.84238 8.01259C6.98868 7.86628 7.07088 7.66785 7.07088 7.46095C7.07088 7.25404 6.98868 7.05561 6.84238 6.90931C6.69608 6.76301 6.49765 6.68081 6.29074 6.68081H4.85529C5.3893 5.73523 6.16455 4.9482 7.10198 4.39999C8.03941 3.85179 9.10546 3.56203 10.1914 3.56027C11.3359 3.55866 12.4587 3.87176 13.4372 4.46533C14.4157 5.05891 15.2121 5.9101 15.7394 6.92584C16.2667 7.94158 16.5045 9.08275 16.4269 10.2246C16.3493 11.3664 15.9593 12.4649 15.2994 13.3999C14.6395 14.335 13.7352 15.0706 12.6854 15.5263C11.6356 15.982 10.4807 16.1403 9.34703 15.9838C8.21332 15.8274 7.14447 15.3622 6.25734 14.6392C5.37021 13.9162 4.69896 12.9631 4.317 11.8843C4.24872 11.6888 4.10557 11.5284 3.91903 11.4384C3.73249 11.3484 3.51785 11.3363 3.32233 11.4045C3.1268 11.4728 2.96641 11.616 2.87643 11.8025C2.78646 11.989 2.77427 12.2037 2.84255 12.3992C3.31896 13.7482 4.15715 14.9402 5.26546 15.8449C6.37377 16.7496 7.70951 17.3321 9.1266 17.5287C10.5437 17.7253 11.9876 17.5284 13.3003 16.9596C14.613 16.3908 15.7441 15.472 16.5697 14.3036C17.3954 13.1353 17.8838 11.7624 17.9817 10.335C18.0796 8.90773 17.7831 7.48099 17.1246 6.21086C16.4662 4.94073 15.4712 3.87611 14.2484 3.13345C13.0256 2.39079 11.6221 1.99868 10.1914 2Z" fill="#273240"/>
<path d="M13.1165 12.9216C12.9477 12.9216 12.7835 12.8669 12.6484 12.7656L9.52787 10.4252C9.43098 10.3525 9.35234 10.2583 9.29818 10.15C9.24402 10.0416 9.21582 9.92218 9.21582 9.80107V6.68053C9.21582 6.47362 9.29801 6.27519 9.44432 6.12889C9.59062 5.98258 9.78905 5.90039 9.99596 5.90039C10.2029 5.90039 10.4013 5.98258 10.5476 6.12889C10.6939 6.27519 10.7761 6.47362 10.7761 6.68053V9.411L13.5846 11.5174C13.6665 11.5788 13.7356 11.6558 13.7878 11.744C13.84 11.8322 13.8743 11.9297 13.8888 12.0311C13.9033 12.1326 13.8976 12.2358 13.8722 12.3351C13.8468 12.4343 13.8021 12.5276 13.7406 12.6096C13.6679 12.7064 13.5737 12.7851 13.4654 12.8392C13.3571 12.8934 13.2376 12.9216 13.1165 12.9216Z" fill="#273240"/>
</svg>
