<svg width="80" height="80" viewBox="0 0 80 80" fill="none" xmlns="http://www.w3.org/2000/svg">
<path d="M32.0312 3.51189C19.7344 5.18376 9.14062 12.7775 3.75 23.8088C1.125 29.1838 0 34.09 0 40.1369C0 46.1838 1.125 51.09 3.75 56.465C9.20312 67.6213 19.7969 75.1369 32.3438 76.7931C35.0938 77.1525 40.3906 77.0275 43.125 76.5431C59.2188 73.6994 71.5156 60.8088 73.5156 44.6681C73.6406 43.6056 73.75 42.1213 73.75 41.3869C73.75 38.5588 74.0625 38.2619 77.1875 38.2619C79.7344 38.2619 80 38.1994 80 37.6681C80 37.4181 78.3281 34.6213 75.4375 30.0744C72.9375 26.1056 70.7812 22.7463 70.6406 22.59C70.0312 21.8556 69.9219 21.9963 64.9062 29.9025C62.2969 34.0275 60.1562 37.5275 60.1562 37.6838C60.1562 38.1213 60.8281 38.2619 63.0625 38.2619C66.2656 38.2619 66.4844 38.4494 66.4375 41.1525C66.3438 45.9806 64.7969 51.2306 62.2188 55.4494C58.1562 62.0744 51.625 66.9338 44.2188 68.8088C41.5625 69.4806 39.7812 69.6994 36.875 69.6994C28.6562 69.6994 21.375 66.59 15.6094 60.6525C11.2656 56.1681 8.59375 50.7931 7.57812 44.5119C7.21875 42.2931 7.21875 37.9806 7.57812 35.7619C8.59375 29.4806 11.2656 24.1056 15.6094 19.6213C20.2812 14.7931 26.0156 11.8244 32.5781 10.8556C38.0938 10.0431 43.0938 10.6838 48.4688 12.8869C50.3125 13.6369 50.9688 13.715 52.1406 13.3244C54.2188 12.6369 55.1406 10.2306 54.0938 8.24626C53.6094 7.32439 53.0312 6.87126 51.4062 6.15251C48.625 4.93376 44.6562 3.87126 41.4062 3.48064C39.1094 3.21501 34.1562 3.23064 32.0312 3.51189Z" fill="url(#paint0_linear_4513_6435)"/>
<path d="M35.5467 18.0273C34.7342 18.4336 34.6249 18.7773 34.5311 21.0742L34.453 23.1836L33.4374 23.5117C29.2655 24.8555 26.8905 27.6523 26.4842 31.6992C26.2811 33.8086 27.0311 36.1992 28.3905 37.7773C29.6561 39.2617 32.3124 40.8867 35.5467 42.168C40.2811 44.043 42.0624 46.1211 41.1717 48.7461C40.8124 49.793 40.1249 50.5273 38.953 51.1055C38.0467 51.543 37.7186 51.6211 36.4061 51.668C34.6405 51.7461 33.078 51.418 30.5467 50.4336C28.7655 49.7461 28.4061 49.6992 27.7186 50.1211C27.328 50.3555 27.1092 50.7148 26.7342 51.6992C26.0936 53.3555 26.0155 53.7773 26.2499 54.3711C26.578 55.168 28.6717 55.9961 32.1092 56.6992C32.9686 56.8711 33.7967 57.0586 33.953 57.1055C34.1874 57.1836 34.2186 57.418 34.2186 59.1367C34.2186 62.043 34.5624 62.4805 36.8592 62.4805C39.1717 62.4805 39.4217 62.168 39.5311 59.1211L39.6092 56.9492L41.0155 56.4648C45.4999 54.9648 47.9686 51.6836 47.9686 47.2617C47.9686 43.9648 46.7967 41.5742 44.203 39.5742C43.0467 38.6836 41.3749 37.793 38.3124 36.4648C34.578 34.8242 33.4842 33.9648 33.1405 32.4805C32.8436 31.1523 33.3749 29.9023 34.578 29.0898C36.2967 27.9336 39.0311 27.9805 42.6092 29.2305C44.9061 30.0273 45.4217 29.7617 46.3124 27.1992C46.7811 25.8242 46.7811 25.3555 46.2499 24.8242C45.9217 24.4961 43.5311 23.7148 41.7186 23.3398C41.078 23.2148 40.3905 23.0742 40.203 23.0273C39.8592 22.9492 39.8436 22.8867 39.8436 21.1367C39.8436 19.0742 39.6405 18.4023 38.9217 18.043C38.2967 17.7148 36.1874 17.7148 35.5467 18.0273Z" fill="url(#paint1_linear_4513_6435)"/>
<defs>
<linearGradient id="paint0_linear_4513_6435" x1="-1.14237e-07" y1="73.7094" x2="87.1132" y2="63.4733" gradientUnits="userSpaceOnUse">
<stop stop-color="#0066B2"/>
<stop offset="1" stop-color="#00AEEF"/>
</linearGradient>
<linearGradient id="paint1_linear_4513_6435" x1="26.1289" y1="60.4856" x2="50.1715" y2="59.2134" gradientUnits="userSpaceOnUse">
<stop stop-color="#0066B2"/>
<stop offset="1" stop-color="#00AEEF"/>
</linearGradient>
</defs>
</svg>
