<svg width="32" height="32" viewBox="0 0 32 32" fill="none" xmlns="http://www.w3.org/2000/svg">
<path d="M21.3333 26.666H10.6667C9.6058 26.666 8.58839 26.2446 7.83824 25.4944C7.08809 24.7443 6.66667 23.7269 6.66667 22.666V9.33268C6.66667 8.97906 6.52619 8.63992 6.27614 8.38987C6.02609 8.13982 5.68696 7.99935 5.33333 7.99935C4.97971 7.99935 4.64057 8.13982 4.39052 8.38987C4.14048 8.63992 4 8.97906 4 9.33268V22.666C4 24.4341 4.70238 26.1298 5.95262 27.3801C7.20286 28.6303 8.89856 29.3327 10.6667 29.3327H21.3333C21.687 29.3327 22.0261 29.1922 22.2761 28.9422C22.5262 28.6921 22.6667 28.353 22.6667 27.9993C22.6667 27.6457 22.5262 27.3066 22.2761 27.0565C22.0261 26.8065 21.687 26.666 21.3333 26.666ZM28 11.9193C27.9861 11.7969 27.9593 11.6762 27.92 11.5593V11.4393C27.8559 11.3023 27.7704 11.1762 27.6667 11.066L19.6667 3.06602C19.5564 2.9623 19.4304 2.87679 19.2933 2.81268H19.1733L18.7467 2.66602H13.3333C12.2725 2.66602 11.2551 3.08744 10.5049 3.83759C9.75476 4.58773 9.33333 5.60515 9.33333 6.66602V19.9993C9.33333 21.0602 9.75476 22.0776 10.5049 22.8278C11.2551 23.5779 12.2725 23.9993 13.3333 23.9993H24C25.0609 23.9993 26.0783 23.5779 26.8284 22.8278C27.5786 22.0776 28 21.0602 28 19.9993V11.9993V11.9193ZM20 7.21268L23.4533 10.666H21.3333C20.9797 10.666 20.6406 10.5255 20.3905 10.2755C20.1405 10.0254 20 9.6863 20 9.33268V7.21268ZM25.3333 19.9993C25.3333 20.353 25.1929 20.6921 24.9428 20.9422C24.6928 21.1922 24.3536 21.3327 24 21.3327H13.3333C12.9797 21.3327 12.6406 21.1922 12.3905 20.9422C12.1405 20.6921 12 20.353 12 19.9993V6.66602C12 6.31239 12.1405 5.97326 12.3905 5.72321C12.6406 5.47316 12.9797 5.33268 13.3333 5.33268H17.3333V9.33268C17.3333 10.3935 17.7548 11.411 18.5049 12.1611C19.2551 12.9113 20.2725 13.3327 21.3333 13.3327H25.3333V19.9993Z" fill="url(#paint0_linear_3220_6432)"/>
<defs>
<linearGradient id="paint0_linear_3220_6432" x1="4" y1="3.85649" x2="30.2456" y2="6.41378" gradientUnits="userSpaceOnUse">
<stop stop-color="#0066B2"/>
<stop offset="1" stop-color="#00AEEF"/>
</linearGradient>
</defs>
</svg>
