<svg width="40" height="40" viewBox="0 0 40 40" fill="none" xmlns="http://www.w3.org/2000/svg">
<path d="M16.5739 3.43904C8.13544 4.82446 2 12.0574 2 20.6039C2 22.8529 2.2339 24.2744 2.9716 26.4335C4.03315 29.5282 6.22824 32.5689 8.89113 34.5841C10.3305 35.6816 13.1913 37.049 15.1345 37.5528C17.1677 38.1106 21.18 38.1466 23.2671 37.6608C24.0408 37.4809 24.7065 37.2649 24.7605 37.175C24.9224 36.9051 24.4546 35.5557 24.2027 35.5557C24.0768 35.5557 23.4651 35.6816 22.8533 35.8435C22.2236 36.0055 21.0541 36.1494 20.2444 36.1674C18.769 36.1854 18.751 36.1854 18.0853 35.5557C17.1857 34.692 15.9622 32.0831 15.4044 29.7981C15.1525 28.7545 14.9546 27.7829 14.9546 27.621C14.9546 27.3691 15.2245 27.3511 17.2037 27.423L19.4527 27.513V26.6134V25.7138L17.0777 25.5878C15.7643 25.5158 14.6487 25.4079 14.5948 25.3539C14.4328 25.21 14.5048 15.9798 14.6487 15.8179C14.8287 15.638 23.8609 15.62 24.0408 15.7999C24.1128 15.8719 24.2387 17.0054 24.3107 18.3188C24.4007 19.6323 24.4726 20.7298 24.4726 20.7658C24.4906 20.8018 24.8685 20.8018 25.3543 20.7658L26.1999 20.7118L26.1459 18.4268L26.074 16.1238L26.6857 16.2317C29.9424 16.8075 33.181 18.1389 34.2965 19.3804L34.9623 20.1361L34.9083 22.0253L34.8363 23.9325L35.61 24.0944C36.0418 24.1844 36.4377 24.2204 36.4736 24.1844C36.5096 24.1484 36.6176 23.3208 36.7255 22.3672C37.0854 19.2185 36.4377 15.7459 34.9803 12.7951C33.163 9.16065 29.9963 6.20988 26.1279 4.55457C23.4111 3.38506 19.5787 2.93525 16.5739 3.43904ZM20.5503 5.63412C21.8277 6.78564 22.8533 9.0527 23.537 12.2554L23.8969 13.8747H19.4167C15.5663 13.8747 14.9131 14.1086 14.9131 13.8747C14.9131 13.7307 15.1525 12.5253 15.3864 11.5357C16.1061 8.63887 17.0057 6.69568 18.1213 5.67011C19.0929 4.77048 19.5967 4.77048 20.5503 5.63412ZM15.4944 6.04795C14.6667 7.19947 13.5692 10.4201 13.1374 12.9391C12.9754 13.9467 12.8675 14.1626 12.5436 14.2345C12.3457 14.2705 11.536 14.4325 10.7623 14.5764C8.90912 14.9542 6.85798 15.6559 5.43657 16.4116C4.78884 16.7355 4.24906 16.9874 4.23107 16.9694C4.06914 16.8255 5.31062 13.7847 5.95835 12.6872C7.34377 10.3662 9.98867 7.90118 12.4357 6.67769C13.5872 6.08394 15.0806 5.54416 15.5484 5.52617C15.8542 5.50817 15.8542 5.54416 15.4944 6.04795ZM24.3287 5.85003C28.9888 7.45137 32.5693 11.0139 34.1346 15.6559C34.3685 16.3397 34.5484 16.9334 34.5125 16.9694C34.4765 16.9874 33.9187 16.7355 33.253 16.3756C31.7236 15.566 29.9963 14.9902 27.6933 14.5044C26.6857 14.2885 25.8401 14.1086 25.8221 14.0906C25.8041 14.0726 25.6961 13.5148 25.5882 12.8491C25.1743 10.4741 24.3827 8.15308 23.0872 5.63412C22.9793 5.43621 23.2671 5.47219 24.3287 5.85003ZM12.5616 20.6219C12.5616 25.102 12.5616 25.12 12.1838 25.03C7.9915 24.1484 5.54452 23.1408 4.35702 21.7914C3.60133 20.9098 3.61933 20.28 4.46497 19.3624C5.34661 18.3728 7.57768 17.3113 10.1326 16.6635C11.2481 16.3756 12.2557 16.1417 12.3637 16.1238C12.5076 16.1238 12.5616 17.4372 12.5616 20.6219ZM6.03032 25.102C7.39775 25.7677 10.2226 26.5954 12.5436 27.0272C12.8675 27.0812 12.9754 27.2971 13.1374 28.3047C13.5692 30.8056 14.5228 33.6125 15.4224 35.0339C15.9262 35.8435 15.8182 35.8975 14.3968 35.3937C10.4385 34.0443 6.78601 30.7337 5.14869 27.0272C4.6449 25.8937 4.12312 24.1664 4.30304 24.2564C4.37501 24.2923 5.14869 24.6702 6.03032 25.102Z" fill="white"/>
<path d="M23.5898 23.231C23.5898 23.5188 27.4402 37.643 27.5482 37.7689C27.6202 37.8409 28.2499 36.4015 28.9696 34.5662C29.6893 32.731 30.301 31.2376 30.337 31.2376C30.6969 31.2376 37.8939 30.1401 37.9479 30.0681C38.0738 29.9422 38.5236 30.1581 30.8768 26.5596C27.0264 24.7603 23.8058 23.231 23.7338 23.195C23.6438 23.159 23.5898 23.177 23.5898 23.231Z" fill="white"/>
</svg>
