<svg width="52" height="52" viewBox="0 0 52 52" fill="none" xmlns="http://www.w3.org/2000/svg">
<path d="M19.1014 0.661659C10.5106 2.9612 2.87443 10.6842 0.618273 19.3183C-0.206091 22.5724 -0.206091 29.4276 0.618273 32.6817C2.91781 41.4026 10.5974 49.0822 19.3183 51.3817C22.5724 52.2061 29.4276 52.2061 32.6817 51.3817C41.4026 49.0822 49.0822 41.4026 51.3817 32.6817C52.2061 29.4276 52.2061 22.5724 51.3817 19.3183C50.7309 16.7584 47.8673 10.8144 47.3033 10.8144C47.1297 10.8144 46.1752 11.6821 45.1339 12.7234L43.2683 14.6325L44.3529 16.9754C45.3075 19.0146 46.3922 22.2253 46.3922 23.0496C46.3922 23.2666 44.3529 23.3967 41.8365 23.3967H37.2808V21.3141C37.2808 18.3204 36.1093 11.7255 35.0246 8.34126C33.9399 5.08719 32.1176 2.39716 29.9483 0.96537C28.69 0.141006 27.9091 -0.0325432 24.9587 0.0108452C23.0063 0.0108452 20.403 0.314556 19.1014 0.661659ZM27.7355 6.56237C29.5144 8.47142 31.6404 16.6283 31.6404 21.4877V23.3967H26H20.3596V21.4877C20.3596 20.4464 20.6633 17.9299 21.0104 15.8907C22.1385 9.51272 24.0042 5.60784 26 5.60784C26.4773 5.60784 27.2149 6.04172 27.7355 6.56237ZM16.151 11.2916C15.6304 13.461 15.0229 17.0622 14.8928 19.3183L14.5891 23.3967H10.1202C7.64706 23.3967 5.60784 23.2232 5.60784 23.0496C5.60784 22.0083 7.12641 17.713 8.08093 16.0642C9.5995 13.4176 12.3329 10.554 14.9362 8.81852C16.1076 7.99416 17.1055 7.34335 17.1055 7.34335C17.1489 7.34335 16.7151 9.12223 16.151 11.2916ZM14.7192 30.6425C14.7192 33.2023 15.7605 39.7972 16.6283 42.5741L17.2357 44.6133L15.8907 43.9191C13.9383 42.9212 10.1635 39.2332 8.60159 36.8035C7.43012 34.9812 5.60784 30.2086 5.60784 28.9937C5.60784 28.7768 7.64706 28.6033 10.1635 28.6033H14.7192V30.6425ZM31.5102 32.378C31.2065 36.63 29.8615 41.8798 28.5165 44.3096C26.9545 47.043 25.0455 47.043 23.4835 44.2662C22.1819 41.9232 20.8369 36.5432 20.4898 32.2044L20.2295 28.6033H26H31.7705L31.5102 32.378ZM46.3922 28.9937C46.3922 30.2086 44.5699 34.9812 43.355 36.8469C41.8799 39.103 38.2787 42.6174 36.1527 43.8757L34.8511 44.6133L35.849 40.665C36.3696 38.539 36.9771 34.9378 37.1072 32.6817L37.4109 28.6033H41.8799C44.3529 28.6033 46.3922 28.7768 46.3922 28.9937Z" fill="url(#paint0_linear_1912_4960)"/>
<path d="M39.5382 3.06317C39.2345 3.36688 39.0176 4.27802 39.0176 5.14577C39.0176 7.09821 39.6684 7.74902 41.6208 7.74902C43.5733 7.74902 44.2241 7.09821 44.2241 5.14577C44.2241 4.27802 44.0071 3.36688 43.7034 3.06317C43.3997 2.75945 42.4886 2.54252 41.6208 2.54252C40.7531 2.54252 39.8419 2.75945 39.5382 3.06317Z" fill="url(#paint1_linear_1912_4960)"/>
<defs>
<linearGradient id="paint0_linear_1912_4960" x1="-7.42541e-08" y1="49.6788" x2="56.7402" y2="43.5353" gradientUnits="userSpaceOnUse">
<stop stop-color="#0066B2"/>
<stop offset="1" stop-color="#00AEEF"/>
</linearGradient>
<linearGradient id="paint1_linear_1912_4960" x1="39.0176" y1="7.51659" x2="44.6987" y2="6.90153" gradientUnits="userSpaceOnUse">
<stop stop-color="#0066B2"/>
<stop offset="1" stop-color="#00AEEF"/>
</linearGradient>
</defs>
</svg>
