<svg width="426" height="327" viewBox="0 0 426 327" fill="none" xmlns="http://www.w3.org/2000/svg">
<g opacity="0.2">
<path d="M95.3298 81.8834C89.9829 79.369 81.1402 83.4572 78.3208 89.4398C72.9386 100.86 90.346 117.4 96.6764 115.624C103.75 113.641 105.147 86.4998 95.3298 81.8834Z" stroke="#0066B2" stroke-width="1.93366" stroke-miterlimit="10" stroke-linecap="round" stroke-dasharray="4.83 4.83 4.83 4.83 4.83 4.83"/>
<path d="M68.5852 107.751C66.677 106.648 46.4637 94.955 35.0245 104.209C26.9925 110.706 26.9156 124.595 32.9515 132.401C44.9062 147.861 81.9764 140.929 85.8227 129.867C88.4129 122.417 76.2522 112.186 68.5852 107.751Z" stroke="#0066B2" stroke-width="1.93366" stroke-miterlimit="10" stroke-linecap="round" stroke-dasharray="4.83 4.83 4.83 4.83 4.83 4.83"/>
<path d="M94.5939 298.653C143.795 286.441 199.7 274.009 286.509 276.126C335.059 277.311 346.06 262.244 382.855 243.512C415.65 226.817 431.758 193.618 421.865 174.803C411.878 155.807 381.458 163.37 356.544 135.094C345.199 122.216 347.195 113.189 340.645 98.9085C319.902 53.689 242.156 18.3446 203.818 37.0498C153.169 61.761 196.47 168.535 139.853 197.702C104.041 216.153 76.9725 180.733 41.6117 207.771C24.0909 221.169 2.66218 239.962 1.00494 260.367C1.00494 260.367 -1.31544 310.255 94.5939 298.653Z" stroke="#0066B2" stroke-width="1.93366" stroke-miterlimit="10" stroke-linecap="round" stroke-dasharray="4.83 4.83 4.83 4.83 4.83 4.83"/>
<path d="M366.423 243.09C366.423 243.09 357.511 254.906 348.597 271.119C340.561 285.739 334.449 305.439 333.1 321.887C329.315 321.708 325.157 321.54 320.663 321.38C294.042 320.436 255.61 319.844 212.878 319.844C164.296 319.844 121.275 320.61 94.8472 321.787C93.9374 321.828 93.047 321.869 92.1768 321.91C59.1819 281.014 -7.2595 209.766 53.8846 180.456C53.8846 180.456 58.364 179.091 65.0795 176.161C86.3343 166.884 130.012 141.922 125.153 94.8555C125.153 94.8555 123.498 86.0728 123.498 73.8521C123.498 45.2765 132.545 -2.09033 192.941 0.0714963C229.515 1.38252 263.198 19.994 283.562 49.7839C303.537 79.0024 335.475 114.952 361.485 94.4281C367.489 89.6887 375.428 87.933 382.839 90.0165C401.561 95.2751 422.829 122.498 366.423 243.09Z" fill="#0066B2"/>
</g>
<path opacity="0.15" d="M414.99 323.478C414.99 325.412 324.501 326.98 212.877 326.98C149.894 326.98 93.641 326.481 56.5735 325.698C48.0358 325.518 40.517 325.323 34.1684 325.115C29.9865 324.979 26.3124 324.836 23.189 324.689C15.1528 324.313 10.7637 323.905 10.7637 323.478C10.7637 322.936 17.8875 322.422 30.6021 321.964C35.8092 321.776 41.9532 321.597 48.9298 321.431C85.6391 320.55 145.396 319.977 212.877 319.977C272.234 319.977 325.615 320.42 362.592 321.126C395.15 321.748 414.99 322.573 414.99 323.478Z" fill="#273240"/>
<path d="M277.889 66.3307L264.649 91.142C264.147 92.0818 262.979 92.4371 262.039 91.9357L240.099 80.2278C239.159 79.7262 238.804 78.5577 239.306 77.6178L254.983 48.24C255.484 47.3001 256.653 46.9447 257.593 47.4463L274.852 56.6565L274.906 56.8292L277.889 66.3307Z" fill="white"/>
<path opacity="0.1" d="M277.89 66.3297L273.007 63.7239C272.242 63.3156 271.953 62.3645 272.361 61.5993L274.907 56.8281L277.89 66.3297Z" fill="#273240"/>
<path d="M256.44 71.1764L256.856 70.3973C257.215 69.7234 257.672 69.2142 258.226 68.8693C258.779 68.5245 259.589 68.2756 260.653 68.1222C261.671 67.9891 262.386 67.8204 262.797 67.6159C263.208 67.4115 263.522 67.1057 263.74 66.6986C263.983 66.2423 264 65.805 263.791 65.3865C263.581 64.9682 263.174 64.5977 262.571 64.2756C261.518 63.7137 260.134 63.4173 258.419 63.3858L258.502 60.4676C260.535 60.4254 262.43 60.8726 264.185 61.809C265.631 62.5807 266.595 63.5415 267.077 64.6915C267.559 65.8416 267.491 66.9957 266.873 68.1539C266.461 68.9261 265.929 69.4992 265.279 69.8735C264.628 70.2478 263.624 70.5237 262.267 70.7012C261.327 70.84 260.698 70.9915 260.381 71.1556C260.063 71.3198 259.792 71.6125 259.567 72.0336L259.23 72.6654L256.44 71.1764ZM254.181 74.5977C254.496 74.008 254.892 73.6467 255.369 73.5133C255.845 73.3801 256.386 73.4744 256.99 73.7965C257.572 74.1075 257.941 74.5025 258.095 74.9819C258.25 75.4612 258.174 75.9887 257.866 76.5642C257.571 77.1188 257.176 77.4695 256.683 77.6166C256.189 77.7636 255.655 77.6836 255.079 77.3764C254.49 77.0618 254.117 76.6619 253.961 76.1775C253.804 75.6929 253.878 75.1662 254.181 74.5977Z" fill="#0066B2"/>
<path d="M97.5404 198.101L81.889 222.116C81.2961 223.026 80.078 223.283 79.1682 222.69L57.9319 208.85C57.0222 208.257 56.7653 207.039 57.3582 206.13L75.8903 177.694C76.4831 176.784 77.7012 176.527 78.611 177.12L95.3168 188.007L95.3566 188.188L97.5404 198.101Z" fill="white"/>
<path opacity="0.1" d="M97.5411 198.101L92.8147 195.02C92.0741 194.538 91.8651 193.546 92.3477 192.806L95.3575 188.188L97.5411 198.101Z" fill="#273240"/>
<path d="M80.5418 209.312L77.7102 207.466L77.8734 201.271L72.2711 203.922L69.6155 202.191L77.4254 198.688L77.4847 190.658L80.2203 192.441L79.998 198.29L85.2116 195.694L87.8832 197.435L80.4324 200.841L80.5418 209.312Z" fill="#0066B2"/>
<path d="M369.597 122.046L379.864 148.81C380.253 149.824 379.746 150.961 378.733 151.35L355.066 160.429C354.052 160.818 352.915 160.312 352.526 159.298L340.369 127.608C339.98 126.594 340.487 125.457 341.501 125.068L360.118 117.926L360.287 117.999L369.597 122.046Z" fill="white"/>
<path opacity="0.1" d="M369.596 122.047L364.329 124.068C363.504 124.384 362.578 123.972 362.261 123.147L360.287 118L369.596 122.047Z" fill="#273240"/>
<path d="M367.198 145.103L365.194 145.872L362.393 144.325L361.345 147.349L359.466 148.07L361.016 143.901L357.324 141.961L359.26 141.219L361.877 142.708L362.792 139.864L364.683 139.139L363.234 143.131L367.198 145.103Z" fill="#0066B2"/>
<path d="M366.334 127.121L348.041 134.139C347.822 134.223 347.577 134.113 347.493 133.895C347.409 133.676 347.518 133.431 347.737 133.347L366.031 126.329C366.249 126.245 366.494 126.354 366.578 126.573C366.662 126.792 366.553 127.037 366.334 127.121Z" fill="#0066B2"/>
<path d="M367.123 129.097L348.83 136.115C348.611 136.199 348.366 136.09 348.282 135.871C348.198 135.653 348.308 135.407 348.526 135.323L366.82 128.306C367.038 128.222 367.284 128.331 367.367 128.55C367.451 128.768 367.342 129.014 367.123 129.097Z" fill="#0066B2"/>
<path d="M367.914 131.076L349.621 138.094C349.402 138.178 349.157 138.068 349.073 137.85C348.989 137.631 349.099 137.386 349.317 137.302L367.611 130.284C367.829 130.2 368.075 130.309 368.158 130.528C368.242 130.747 368.133 130.992 367.914 131.076Z" fill="#0066B2"/>
<path d="M368.704 133.054L350.41 140.072C350.191 140.156 349.946 140.047 349.862 139.828C349.778 139.61 349.888 139.364 350.106 139.28L368.4 132.263C368.618 132.179 368.864 132.288 368.948 132.507C369.031 132.725 368.922 132.971 368.704 133.054Z" fill="#0066B2"/>
<path d="M369.344 135.097L351.051 142.115C350.832 142.199 350.587 142.09 350.503 141.871C350.419 141.653 350.528 141.407 350.747 141.323L369.04 134.306C369.259 134.222 369.504 134.331 369.588 134.55C369.672 134.768 369.563 135.014 369.344 135.097Z" fill="#0066B2"/>
<path d="M101.762 268.342L113.309 294.579C113.747 295.573 113.295 296.733 112.302 297.17L89.101 307.381C88.1071 307.819 86.9468 307.367 86.5094 306.374L72.837 275.308C72.3996 274.314 72.8507 273.153 73.8446 272.716L92.0956 264.684L92.2682 264.749L101.762 268.342Z" fill="#F4F4F4"/>
<path opacity="0.1" d="M101.761 268.341L96.5977 270.614C95.7887 270.97 94.8441 270.603 94.4881 269.793L92.2676 264.748L101.761 268.341Z" fill="#273240"/>
<path d="M100.475 291.489L98.5106 292.353L95.6382 290.944L94.7374 294.014L92.8952 294.825L94.2423 290.586L90.4609 288.827L92.3586 287.992L95.0443 289.353L95.8212 286.468L97.6745 285.652L96.42 289.71L100.475 291.489Z" fill="#0066B2"/>
<path d="M98.7452 273.568L80.8118 281.461C80.5974 281.555 80.3471 281.458 80.2528 281.243C80.1585 281.029 80.2558 280.779 80.4702 280.685L98.4036 272.792C98.6179 272.698 98.8681 272.795 98.9625 273.009C99.0568 273.224 98.9595 273.474 98.7452 273.568Z" fill="#0066B2"/>
<path d="M99.6299 275.506L81.6965 283.398C81.4822 283.493 81.2319 283.395 81.1376 283.181C81.0432 282.967 81.1406 282.716 81.3549 282.622L99.2883 274.729C99.5027 274.635 99.753 274.732 99.8473 274.947C99.9415 275.161 99.8443 275.411 99.6299 275.506Z" fill="#0066B2"/>
<path d="M100.515 277.443L82.5813 285.336C82.3669 285.43 82.1167 285.333 82.0224 285.118C81.928 284.904 82.0254 284.654 82.2397 284.56L100.173 276.667C100.387 276.573 100.638 276.67 100.732 276.884C100.826 277.099 100.729 277.349 100.515 277.443Z" fill="#0066B2"/>
<path d="M101.399 279.379L83.4661 287.271C83.2517 287.366 83.0014 287.268 82.9071 287.054C82.8128 286.84 82.9101 286.59 83.1245 286.495L101.058 278.602C101.272 278.508 101.522 278.605 101.617 278.82C101.711 279.034 101.614 279.284 101.399 279.379Z" fill="#0066B2"/>
<path d="M102.138 281.39L84.2043 289.283C83.99 289.377 83.7397 289.28 83.6454 289.066C83.551 288.851 83.6484 288.601 83.8627 288.507L101.796 280.614C102.011 280.52 102.261 280.617 102.355 280.832C102.449 281.046 102.352 281.296 102.138 281.39Z" fill="#0066B2"/>
<path d="M181.91 78.9394L193.458 105.177C193.895 106.17 193.444 107.331 192.45 107.768L169.249 117.979C168.255 118.416 167.095 117.965 166.658 116.971L152.985 85.9052C152.548 84.9113 152.999 83.7511 153.993 83.3137L172.244 75.2812L172.417 75.3465L181.91 78.9394Z" fill="white"/>
<path opacity="0.1" d="M181.91 78.9407L176.746 81.2132C175.937 81.5693 174.993 81.2021 174.637 80.3929L172.416 75.3477L181.91 78.9407Z" fill="#273240"/>
<path d="M180.625 102.087L178.661 102.951L175.789 101.541L174.888 104.612L173.046 105.422L174.393 101.184L170.611 99.4249L172.509 98.5896L175.195 99.9509L175.972 97.0657L177.825 96.25L176.57 100.308L180.625 102.087Z" fill="#0066B2"/>
<path d="M178.896 84.1658L160.962 92.0584C160.748 92.1528 160.498 92.0554 160.403 91.8411C160.309 91.6268 160.406 91.3765 160.621 91.2822L178.554 83.3896C178.768 83.2952 179.019 83.3925 179.113 83.6069C179.207 83.8213 179.11 84.0715 178.896 84.1658Z" fill="#0066B2"/>
<path d="M179.78 86.1033L161.847 93.9959C161.633 94.0903 161.382 93.993 161.288 93.7786C161.194 93.5642 161.291 93.314 161.505 93.2197L179.439 85.3271C179.653 85.2327 179.903 85.3301 179.998 85.5444C180.092 85.7587 179.995 86.009 179.78 86.1033Z" fill="#0066B2"/>
<path d="M180.665 88.0408L162.732 95.9334C162.517 96.0278 162.267 95.9304 162.173 95.7161C162.078 95.5017 162.176 95.2515 162.39 95.1572L180.324 87.2646C180.538 87.1702 180.788 87.2676 180.882 87.4819C180.977 87.6962 180.879 87.9465 180.665 88.0408Z" fill="#0066B2"/>
<path d="M181.55 89.9764L163.616 97.869C163.402 97.9633 163.152 97.866 163.058 97.6516C162.963 97.4373 163.061 97.187 163.275 97.0927L181.208 89.2001C181.423 89.1057 181.673 89.2031 181.767 89.4174C181.861 89.6318 181.764 89.882 181.55 89.9764Z" fill="#0066B2"/>
<path d="M182.288 91.9861L164.355 99.8787C164.14 99.9731 163.89 99.8757 163.796 99.6614C163.701 99.447 163.799 99.1967 164.013 99.1025L181.947 91.2099C182.161 91.1155 182.411 91.2129 182.505 91.4272C182.6 91.6415 182.502 91.8919 182.288 91.9861Z" fill="#0066B2"/>
<path d="M302.557 152.166H123.199V282.314H302.557V152.166Z" fill="white"/>
<path d="M302.554 135.828H123.266V152.202H302.554V135.828Z" fill="#0066B2"/>
<path d="M131.56 145.871C133.082 145.871 134.315 144.698 134.315 143.251C134.315 141.804 133.082 140.631 131.56 140.631C130.038 140.631 128.805 141.804 128.805 143.251C128.805 144.698 130.038 145.871 131.56 145.871Z" fill="#F4F4F4"/>
<path d="M139.595 145.871C141.117 145.871 142.35 144.698 142.35 143.251C142.35 141.804 141.117 140.631 139.595 140.631C138.073 140.631 136.84 141.804 136.84 143.251C136.84 144.698 138.073 145.871 139.595 145.871Z" fill="#F4F4F4"/>
<path d="M147.63 145.871C149.152 145.871 150.385 144.698 150.385 143.251C150.385 141.804 149.152 140.631 147.63 140.631C146.108 140.631 144.875 141.804 144.875 143.251C144.875 144.698 146.108 145.871 147.63 145.871Z" fill="#F4F4F4"/>
<path d="M297.16 159.018H128.596V275.463H297.16V159.018Z" fill="#F4F4F4"/>
<path d="M239.027 187.65V238.848C239.027 240.787 237.454 242.36 235.515 242.36H190.242C188.303 242.36 186.73 240.787 186.73 238.848V178.227C186.73 176.287 188.303 174.715 190.242 174.715H225.857L226.092 174.946L239.027 187.65Z" fill="#0066B2"/>
<path opacity="0.15" d="M239.027 187.649H228.951C227.372 187.649 226.092 186.369 226.092 184.791V174.945L239.027 187.649Z" fill="#273240"/>
<path d="M225.434 217.187C225.037 217.187 224.689 216.931 224.561 216.555C224.23 215.576 223.146 214.611 221.477 213.833C219.194 212.77 216.14 212.185 212.876 212.185C209.612 212.185 206.557 212.77 204.275 213.833C202.605 214.611 201.522 215.576 201.19 216.555C201.063 216.931 200.715 217.187 200.318 217.187C199.691 217.187 199.246 216.574 199.444 215.98C199.935 214.503 201.333 213.178 203.5 212.169C206.02 210.996 209.349 210.35 212.876 210.35C216.402 210.35 219.732 210.996 222.252 212.169C224.418 213.178 225.816 214.502 226.308 215.98C226.505 216.574 226.06 217.187 225.434 217.187Z" fill="white"/>
<path d="M206.131 207.504C208.235 207.504 209.94 205.799 209.94 203.696C209.94 201.592 208.235 199.887 206.131 199.887C204.028 199.887 202.322 201.592 202.322 203.696C202.322 205.799 204.028 207.504 206.131 207.504Z" fill="white"/>
<path d="M219.621 207.504C221.725 207.504 223.43 205.799 223.43 203.696C223.43 201.592 221.725 199.887 219.621 199.887C217.518 199.887 215.812 201.592 215.812 203.696C215.812 205.799 217.518 207.504 219.621 207.504Z" fill="white"/>
</svg>
