<svg width="20" height="20" viewBox="0 0 20 20" fill="none" xmlns="http://www.w3.org/2000/svg">
<rect width="20" height="20" rx="10" fill="url(#paint0_linear_1511_8369)" fill-opacity="0.16"/>
<path d="M5.30305 11.818C6.3072 11.818 7.12123 11.004 7.12123 9.99982C7.12123 8.99567 6.3072 8.18164 5.30305 8.18164C4.29889 8.18164 3.48486 8.99567 3.48486 9.99982C3.48486 11.004 4.29889 11.818 5.30305 11.818Z" fill="url(#paint1_linear_1511_8369)"/>
<path d="M10.1517 11.818C11.1558 11.818 11.9699 11.004 11.9699 9.99982C11.9699 8.99567 11.1558 8.18164 10.1517 8.18164C9.14752 8.18164 8.3335 8.99567 8.3335 9.99982C8.3335 11.004 9.14752 11.818 10.1517 11.818Z" fill="url(#paint2_linear_1511_8369)"/>
<path d="M14.9998 11.818C16.004 11.818 16.818 11.004 16.818 9.99982C16.818 8.99567 16.004 8.18164 14.9998 8.18164C13.9957 8.18164 13.1816 8.99567 13.1816 9.99982C13.1816 11.004 13.9957 11.818 14.9998 11.818Z" fill="url(#paint3_linear_1511_8369)"/>
<defs>
<linearGradient id="paint0_linear_1511_8369" x1="-2.85593e-08" y1="0.892858" x2="21.8232" y2="3.25551" gradientUnits="userSpaceOnUse">
<stop stop-color="#0066B2"/>
<stop offset="1" stop-color="#00AEEF"/>
</linearGradient>
<linearGradient id="paint1_linear_1511_8369" x1="3.48486" y1="8.34398" x2="7.45272" y2="8.77355" gradientUnits="userSpaceOnUse">
<stop stop-color="#0066B2"/>
<stop offset="1" stop-color="#00AEEF"/>
</linearGradient>
<linearGradient id="paint2_linear_1511_8369" x1="8.3335" y1="8.34398" x2="12.3014" y2="8.77355" gradientUnits="userSpaceOnUse">
<stop stop-color="#0066B2"/>
<stop offset="1" stop-color="#00AEEF"/>
</linearGradient>
<linearGradient id="paint3_linear_1511_8369" x1="13.1816" y1="8.34398" x2="17.1495" y2="8.77355" gradientUnits="userSpaceOnUse">
<stop stop-color="#0066B2"/>
<stop offset="1" stop-color="#00AEEF"/>
</linearGradient>
</defs>
</svg>
