<svg width="16" height="16" viewBox="0 0 16 16" fill="none" xmlns="http://www.w3.org/2000/svg">
<path d="M14.0007 8.00061C13.8238 8.00061 13.6543 8.07085 13.5292 8.19587C13.4042 8.3209 13.334 8.49047 13.334 8.66728V12.6673C13.334 12.8441 13.2637 13.0137 13.1387 13.1387C13.0137 13.2637 12.8441 13.3339 12.6673 13.3339H3.33398C3.15717 13.3339 2.9876 13.2637 2.86258 13.1387C2.73756 13.0137 2.66732 12.8441 2.66732 12.6673V3.33394C2.66732 3.15713 2.73756 2.98756 2.86258 2.86254C2.9876 2.73752 3.15717 2.66728 3.33398 2.66728H7.33398C7.5108 2.66728 7.68036 2.59704 7.80539 2.47201C7.93041 2.34699 8.00065 2.17742 8.00065 2.00061C8.00065 1.8238 7.93041 1.65423 7.80539 1.52921C7.68036 1.40418 7.5108 1.33394 7.33398 1.33394H3.33398C2.80355 1.33394 2.29484 1.54466 1.91977 1.91973C1.5447 2.2948 1.33398 2.80351 1.33398 3.33394V12.6673C1.33398 13.1977 1.5447 13.7064 1.91977 14.0815C2.29484 14.4566 2.80355 14.6673 3.33398 14.6673H12.6673C13.1978 14.6673 13.7065 14.4566 14.0815 14.0815C14.4566 13.7064 14.6673 13.1977 14.6673 12.6673V8.66728C14.6673 8.49047 14.5971 8.3209 14.4721 8.19587C14.347 8.07085 14.1775 8.00061 14.0007 8.00061ZM4.00065 8.50728V11.3339C4.00065 11.5108 4.07089 11.6803 4.19591 11.8053C4.32094 11.9304 4.49051 12.0006 4.66732 12.0006H7.49398C7.58172 12.0011 7.6687 11.9843 7.74992 11.9511C7.83115 11.9179 7.90502 11.8691 7.96732 11.8073L12.5807 7.18728L14.474 5.33394C14.5365 5.27197 14.5861 5.19823 14.6199 5.11699C14.6538 5.03576 14.6712 4.94862 14.6712 4.86061C14.6712 4.7726 14.6538 4.68547 14.6199 4.60423C14.5861 4.52299 14.5365 4.44925 14.474 4.38728L11.6473 1.52728C11.5853 1.46479 11.5116 1.4152 11.4304 1.38135C11.3491 1.3475 11.262 1.33008 11.174 1.33008C11.086 1.33008 10.9988 1.3475 10.9176 1.38135C10.8364 1.4152 10.7626 1.46479 10.7007 1.52728L8.82065 3.41394L4.19398 8.03394C4.1322 8.09624 4.08331 8.17011 4.05014 8.25134C4.01696 8.33256 4.00014 8.41954 4.00065 8.50728ZM11.174 2.94061L13.0607 4.82728L12.114 5.77394L10.2273 3.88728L11.174 2.94061ZM5.33398 8.78061L9.28732 4.82728L11.174 6.71394L7.22065 10.6673H5.33398V8.78061Z" fill="white"/>
</svg>
