<svg width="500" height="500" viewBox="0 0 500 500" fill="none" xmlns="http://www.w3.org/2000/svg">
<path opacity="0.1" d="M410.247 249.133C320.62 197.599 175.305 197.599 85.6756 249.133C-3.95242 300.667 -3.95142 384.221 85.6766 435.754C175.307 487.287 320.621 487.287 410.248 435.754C499.873 384.221 499.873 300.667 410.247 249.133Z" fill="#FF3030"/>
<path d="M139.255 349.281C174.299 349.281 202.709 332.879 202.709 312.646C202.709 292.413 174.299 276.011 139.255 276.011C104.21 276.011 75.8008 292.413 75.8008 312.646C75.8008 332.879 104.21 349.281 139.255 349.281Z" fill="white"/>
<path d="M247.287 408.962L241.388 405.555L245.679 403.078C247.913 401.784 248.247 399.953 248.247 398.971C248.245 397.995 247.909 396.164 245.675 394.875L234.988 388.704C233.803 388.02 232.396 387.672 230.8 387.671C229.209 387.672 227.802 388.02 226.619 388.703L219.409 392.867L182.15 371.355C180.966 370.672 179.561 370.325 177.969 370.324C176.381 370.324 174.973 370.671 173.783 371.356L158.556 380.148C157.242 380.908 156.379 381.658 155.826 382.527C155.168 383.578 154.966 384.873 155.239 386.452L163.121 425.89C163.579 427.871 165.063 429.598 167.534 431.023L178.221 437.194C179.407 437.879 180.811 438.226 182.395 438.226H182.403C183.996 438.226 185.404 437.879 186.587 437.195L216.889 419.699L225.713 424.793C226.899 425.478 228.303 425.825 229.904 425.825C231.489 425.825 232.894 425.479 234.081 424.794L247.282 417.17C249.521 415.885 249.858 414.05 249.86 413.059C249.858 412.083 249.521 410.251 247.287 408.962ZM188.607 410.649L186.836 401.767L195.413 406.719L188.607 410.649Z" fill="#E0E0E0"/>
<path d="M306.625 347.585C303.955 345.888 301.001 344.105 297.847 342.283C294.719 340.477 291.564 338.735 288.449 337.093C284.458 335.032 280.061 333.334 275.382 332.041C270.661 330.74 265.679 330.049 260.576 329.986L259.886 329.983C255.015 329.983 249.965 330.609 244.877 331.844C239.518 333.148 234.136 335.348 228.879 338.382C223.436 341.525 219.612 344.665 217.19 347.983C214.657 351.461 213.434 354.982 213.557 358.453C213.681 361.919 215.045 365.244 217.603 368.331C219.929 371.145 222.968 373.773 226.657 376.158C229.417 377.906 232.438 379.729 235.636 381.575C238.833 383.421 241.921 385.125 244.83 386.647C248.831 388.713 253.229 390.412 257.897 391.699C262.618 393.003 267.6 393.693 272.704 393.754L273.396 393.758C278.279 393.758 283.328 393.132 288.403 391.897C293.761 390.593 299.144 388.394 304.4 385.359C309.847 382.214 313.67 379.074 316.089 375.76C318.626 372.284 319.848 368.759 319.723 365.288C319.599 361.827 318.237 358.503 315.676 355.409C313.345 352.593 310.306 349.965 306.625 347.585ZM288.496 368.474C288.223 368.89 287.45 369.768 285.342 370.983C283.599 371.99 281.879 372.684 280.23 373.046C278.915 373.335 277.602 373.481 276.328 373.481C275.981 373.481 275.634 373.471 275.286 373.449C273.675 373.351 272.083 373.039 270.552 372.521C268.92 371.968 267.287 371.259 265.655 370.389C259.729 367.35 254.118 364.11 248.93 360.729C247.532 359.857 246.397 358.971 245.558 358.1C244.941 357.458 244.555 356.841 244.439 356.327C244.417 356.228 244.351 355.924 244.783 355.266C245.055 354.853 245.825 353.977 247.936 352.758C249.684 351.749 251.404 351.055 253.047 350.695C254.313 350.418 255.568 350.277 256.777 350.277C257.157 350.277 257.534 350.291 257.905 350.318C259.506 350.437 261.096 350.76 262.629 351.278C264.291 351.841 265.988 352.545 267.602 353.339C273.353 356.355 278.982 359.606 284.349 363.009C285.77 363.899 286.943 364.794 287.829 365.667C288.424 366.255 288.786 366.818 288.875 367.296C288.895 367.414 288.96 367.767 288.496 368.474Z" fill="#E0E0E0"/>
<path d="M394.571 323.926L388.671 320.519L392.963 318.042C395.197 316.749 395.53 314.917 395.53 313.94C395.53 312.965 395.197 311.135 392.959 309.838L382.273 303.67C381.091 302.986 379.685 302.638 378.082 302.635C376.492 302.638 375.086 302.985 373.902 303.668L366.692 307.832L329.434 286.321C328.251 285.638 326.845 285.29 325.252 285.289C323.665 285.289 322.257 285.635 321.067 286.32L305.841 295.111C304.529 295.87 303.665 296.618 303.107 297.494C302.452 298.547 302.25 299.841 302.522 301.418L310.405 340.856C310.863 342.837 312.347 344.563 314.816 345.989L325.503 352.158C326.688 352.844 328.093 353.191 329.678 353.191H329.686C331.276 353.191 332.684 352.844 333.87 352.159L364.172 334.664L372.996 339.758C374.182 340.443 375.59 340.79 377.187 340.79C378.773 340.79 380.178 340.443 381.363 339.758L394.564 332.135C396.799 330.852 397.14 329.018 397.143 328.019C397.141 327.042 396.802 325.215 394.571 323.926ZM335.891 325.613L334.12 316.731L342.697 321.684L335.891 325.613Z" fill="#E0E0E0"/>
<path d="M479.967 78.6653L468.747 72.1877C468.802 71.7514 468.841 71.2984 468.841 70.8111V67.561C468.841 61.7759 464.78 54.7422 459.771 51.8503C457.742 50.6788 455.876 50.38 454.365 50.8068C453.544 42.5863 447.838 33.2867 440.907 29.2849C433.412 24.9582 427.337 28.4655 427.337 37.1201V41.9827C427.337 44.2237 427.752 46.5904 428.486 48.9429L419.166 43.5621C416.386 41.9578 414.135 43.2586 414.135 46.4671C414.135 49.6757 416.388 53.5779 419.166 55.1821L479.968 90.2865C482.748 91.8908 484.999 90.59 484.999 87.3815C484.999 84.1718 482.746 80.2696 479.967 78.6653Z" fill="#EBEBEB"/>
<path d="M411.939 90.6871L404.791 86.5608C404.827 86.2822 404.852 85.9941 404.852 85.6834V83.6131C404.852 79.9279 402.265 75.4471 399.074 73.6045C397.781 72.8587 396.592 72.6678 395.629 72.9393C395.106 67.702 391.471 61.7781 387.055 59.2288C382.28 56.4721 378.41 58.7059 378.41 64.2195V67.3178C378.41 68.7454 378.675 70.2537 379.142 71.7524L373.205 68.3245C371.435 67.3024 370 68.1312 370 70.1754C370 72.2196 371.435 74.7048 373.205 75.7269L411.94 98.0908C413.71 99.1128 415.145 98.284 415.145 96.2398C415.144 94.1957 413.709 91.7092 411.939 90.6871Z" fill="#EBEBEB"/>
<path d="M373.82 300.748C370.585 285.938 365.406 271.422 368.625 248.765C371.542 228.231 382.327 209.876 397.699 207.822C408.064 206.437 417.113 217.993 406.968 232.834C405.284 235.297 383.317 256.792 386.938 286.503L384.889 306.237L373.82 300.748Z" fill="#FF3030"/>
<g opacity="0.2">
<path d="M373.82 300.748C370.585 285.938 365.406 271.422 368.625 248.765C371.542 228.231 382.327 209.876 397.699 207.822C408.064 206.437 417.113 217.993 406.968 232.834C405.284 235.297 383.317 256.792 386.938 286.503L384.889 306.237L373.82 300.748Z" fill="#273240"/>
</g>
<path d="M379.196 298.549C379.462 298.427 379.626 298.139 379.579 297.836C373.623 259.844 381.229 231.469 399.579 215.874C399.861 215.635 399.895 215.211 399.656 214.93C399.419 214.649 399 214.605 398.712 214.854C380.127 230.647 372.224 259.575 378.256 298.044C378.313 298.409 378.655 298.658 379.02 298.602C379.082 298.592 379.141 298.574 379.196 298.549Z" fill="white"/>
<path d="M391.142 312.058C391.067 306.297 394.244 293.745 401.779 282.79C411.283 268.972 426.095 264.449 427.61 257.207C429.429 248.507 420.324 243.544 408.525 247.764C394.344 252.837 377.588 273.266 383.397 307.706L391.142 312.058Z" fill="#273240"/>
<path d="M387.265 305.974C387.521 305.874 387.707 305.633 387.723 305.34C389.321 274.771 407.475 258.764 416.849 254.57C417.212 254.408 417.374 253.982 417.212 253.619C417.05 253.255 416.638 253.088 416.261 253.256C405.894 257.893 387.916 274.064 386.284 305.266C386.263 305.662 386.569 306.002 386.966 306.023C387.071 306.027 387.172 306.01 387.265 305.974Z" fill="white"/>
<path d="M244.655 401.337L231.445 408.959C230.709 409.392 229.797 409.602 228.721 409.602C227.645 409.602 226.745 409.392 226.009 408.959L215.721 403.02L183.958 421.362C183.222 421.783 182.31 422.005 181.234 422.005C180.159 422.005 179.258 421.783 178.51 421.362L167.825 415.19C166.071 414.185 165.066 413.097 164.797 411.928L156.929 372.578C156.882 372.321 156.871 372.087 156.871 371.877C156.871 372.637 156.859 382.457 156.871 382.936C156.871 383.123 156.894 383.322 156.929 383.544L164.797 422.894C165.066 424.063 166.071 425.15 167.825 426.156L178.51 432.328C179.258 432.749 180.158 432.971 181.234 432.971C182.31 432.971 183.222 432.749 183.958 432.328L215.721 413.986L226.009 419.925C226.745 420.358 227.646 420.568 228.721 420.568C229.796 420.568 230.708 420.358 231.445 419.925L244.655 412.303C245.392 411.87 245.766 411.356 245.766 410.725V399.759C245.766 400.378 245.392 400.904 244.655 401.337Z" fill="#FF3030"/>
<path d="M244.153 396.637V385.671C244.153 386.291 243.779 386.817 243.043 387.249L234.369 392.253L243.733 397.654C244.001 397.35 244.153 397.011 244.153 396.637Z" fill="#FF3030"/>
<path d="M184.016 395.094L190.586 398.905L200.09 393.422L181.537 382.702L184.004 395.094H184.016Z" fill="#FF3030"/>
<path opacity="0.35" d="M184.018 395.094L190.588 398.905L200.092 393.422L181.539 382.702L184.006 395.094H184.018Z" fill="#273240"/>
<path opacity="0.2" d="M244.153 396.637V385.671C244.153 386.291 243.779 386.817 243.043 387.249L234.369 392.253L243.733 397.654C244.001 397.35 244.153 397.011 244.153 396.637Z" fill="#273240"/>
<path opacity="0.2" d="M244.655 401.338L231.445 408.96C230.709 409.393 229.797 409.603 228.721 409.603V420.569C229.796 420.569 230.708 420.359 231.445 419.926L244.655 412.304C245.392 411.871 245.766 411.357 245.766 410.726V399.76C245.766 400.379 245.392 400.905 244.655 401.338Z" fill="#273240"/>
<path opacity="0.25" d="M164.799 411.928L156.931 372.578C156.884 372.321 156.873 372.087 156.873 371.877C156.873 372.637 156.861 382.457 156.873 382.936C156.873 383.123 156.896 383.322 156.931 383.544L164.799 422.894C164.846 423.116 164.928 423.338 165.044 423.56V412.594C164.927 412.372 164.845 412.15 164.799 411.928Z" fill="#273240"/>
<path opacity="0.35" d="M181.234 422.006C180.159 422.006 179.258 421.784 178.51 421.363L167.825 415.191C166.41 414.384 165.475 413.519 165.043 412.596V423.562C165.475 424.485 166.411 425.351 167.825 426.157L178.51 432.329C179.258 432.75 180.158 432.972 181.234 432.972C181.339 432.972 181.433 432.972 181.538 432.949V421.983C181.433 422.006 181.34 422.006 181.234 422.006Z" fill="#273240"/>
<path opacity="0.2" d="M183.959 421.362C183.292 421.748 182.486 421.958 181.539 421.982V432.948C182.486 432.925 183.292 432.714 183.959 432.328L215.722 413.986V403.02L183.959 421.362Z" fill="#273240"/>
<path opacity="0.35" d="M226.009 408.959L215.721 403.02V413.986L226.009 419.925C226.745 420.358 227.646 420.568 228.721 420.568V409.602C227.646 409.602 226.745 409.392 226.009 408.959Z" fill="#273240"/>
<path d="M231.45 408.959C230.709 409.386 229.801 409.6 228.725 409.599C227.65 409.599 226.744 409.385 226.004 408.958L215.719 403.02L183.956 421.359C183.216 421.786 182.312 421.999 181.233 421.999C180.156 422 179.252 421.785 178.512 421.358L167.824 415.187C166.076 414.178 165.068 413.092 164.798 411.927L156.934 372.573C156.8 371.797 156.868 371.195 157.134 370.769C157.405 370.343 157.976 369.876 158.849 369.371L174.074 360.581C174.814 360.155 175.722 359.942 176.799 359.941C177.874 359.942 178.782 360.156 179.52 360.582L218.239 382.936L226.91 377.929C227.648 377.502 228.558 377.29 229.633 377.288C230.71 377.29 231.615 377.503 232.355 377.93L243.043 384.1C243.783 384.527 244.153 385.051 244.153 385.671C244.153 386.294 243.781 386.817 243.043 387.244L234.372 392.251L244.655 398.188C245.397 398.616 245.765 399.139 245.767 399.76C245.766 400.382 245.395 400.906 244.656 401.332L231.45 408.959ZM200.089 393.416L181.538 382.705L185.369 401.915L200.089 393.416Z" fill="#FF3030"/>
<path d="M315.64 352.646C315.593 355.288 314.552 357.989 312.553 360.736C310.402 363.682 306.814 366.616 301.764 369.527C296.725 372.438 291.651 374.507 286.542 375.758C281.433 376.997 276.441 377.593 271.566 377.535C266.703 377.477 262.003 376.822 257.502 375.583C253.001 374.344 248.828 372.731 244.993 370.743C242.106 369.235 239.089 367.563 235.921 365.739C232.765 363.915 229.807 362.138 227.048 360.385C223.623 358.175 220.829 355.767 218.689 353.172C216.526 350.565 215.404 347.864 215.31 345.047C215.369 346.789 215.24 354.095 215.31 356.013C215.403 358.83 216.526 361.531 218.689 364.138C220.828 366.733 223.622 369.141 227.048 371.351C229.807 373.105 232.765 374.881 235.921 376.705C239.089 378.529 242.105 380.2 244.993 381.72C248.828 383.696 253.001 385.309 257.502 386.548C262.003 387.787 266.703 388.442 271.566 388.5C276.441 388.559 281.433 387.962 286.542 386.723C291.651 385.472 296.725 383.403 301.764 380.492C306.814 377.581 310.402 374.647 312.553 371.701C314.704 368.755 315.733 365.867 315.627 363.062C315.569 361.449 315.675 355.136 315.64 352.646Z" fill="#FF3030"/>
<path opacity="0.35" d="M274.257 377.477C273.357 377.51 272.457 377.545 271.566 377.535C266.703 377.477 262.003 376.822 257.502 375.583C253.001 374.344 248.828 372.731 244.993 370.743C242.106 369.235 239.089 367.563 235.921 365.739C232.765 363.915 229.807 362.138 227.048 360.385C223.623 358.175 220.829 355.767 218.689 353.172C216.526 350.565 215.404 347.864 215.31 345.047C215.369 346.789 215.24 354.095 215.31 356.013C215.403 358.83 216.526 361.531 218.689 364.138C220.828 366.733 223.622 369.141 227.048 371.351C229.807 373.105 232.765 374.881 235.921 376.705C239.089 378.529 242.105 380.2 244.993 381.72C248.828 383.696 253.001 385.309 257.502 386.548C262.003 387.787 266.703 388.442 271.566 388.5C272.458 388.511 273.358 388.475 274.257 388.442V377.477Z" fill="#273240"/>
<path opacity="0.2" d="M315.64 352.646C315.593 355.288 314.553 357.989 312.554 360.736C310.403 363.682 306.814 366.616 301.764 369.527C296.725 372.438 291.652 374.507 286.543 375.758C282.369 376.77 278.278 377.33 274.26 377.477V388.443C278.278 388.295 282.369 387.736 286.543 386.724C291.652 385.473 296.725 383.404 301.764 380.493C306.814 377.582 310.403 374.648 312.554 371.702C314.705 368.756 315.734 365.868 315.628 363.062C315.57 361.448 315.675 355.136 315.64 352.646Z" fill="#273240"/>
<path d="M242.282 346.824C242.843 347.409 243.498 347.993 244.246 348.554C244.585 348.332 244.924 348.11 245.298 347.888C247.32 346.731 249.296 345.936 251.249 345.503C253.201 345.082 255.107 344.93 256.954 345.07C258.801 345.21 260.613 345.573 262.402 346.169C264.179 346.777 265.979 347.525 267.791 348.414C273.636 351.489 279.283 354.739 284.731 358.199C285.444 358.643 286.098 359.099 286.694 359.543C288.132 358.614 289.173 357.693 289.77 356.773C290.506 355.651 290.775 354.54 290.577 353.453C290.378 352.377 289.759 351.314 288.718 350.285C287.666 349.256 286.345 348.239 284.732 347.234C279.284 343.774 273.638 340.512 267.792 337.449C265.98 336.561 264.18 335.812 262.403 335.204C260.614 334.608 258.802 334.246 256.955 334.105C255.108 333.965 253.202 334.117 251.25 334.538C249.298 334.97 247.322 335.765 245.299 336.923C243.288 338.092 241.909 339.238 241.172 340.36C240.436 341.482 240.178 342.581 240.412 343.645C240.657 344.72 241.277 345.772 242.282 346.824Z" fill="#FF3030"/>
<path opacity="0.35" d="M242.282 346.824C242.843 347.409 243.498 347.993 244.246 348.554C244.585 348.332 244.924 348.11 245.298 347.888C247.32 346.731 249.296 345.936 251.249 345.503C253.201 345.082 255.107 344.93 256.954 345.07C258.801 345.21 260.613 345.573 262.402 346.169C264.179 346.777 265.979 347.525 267.791 348.414C273.636 351.489 279.283 354.739 284.731 358.199C285.444 358.643 286.098 359.099 286.694 359.543C288.132 358.614 289.173 357.693 289.77 356.773C290.506 355.651 290.775 354.54 290.577 353.453C290.378 352.377 289.759 351.314 288.718 350.285C287.666 349.256 286.345 348.239 284.732 347.234C279.284 343.774 273.638 340.512 267.792 337.449C265.98 336.561 264.18 335.812 262.403 335.204C260.614 334.608 258.802 334.246 256.955 334.105C255.108 333.965 253.202 334.117 251.25 334.538C249.298 334.97 247.322 335.765 245.299 336.923C243.288 338.092 241.909 339.238 241.172 340.36C240.436 341.482 240.178 342.581 240.412 343.645C240.657 344.72 241.277 345.772 242.282 346.824Z" fill="#273240"/>
<path d="M229.17 327.611C234.211 324.7 239.289 322.624 244.397 321.381C249.505 320.141 254.498 319.549 259.37 319.606C264.241 319.666 268.932 320.315 273.435 321.557C277.939 322.8 282.106 324.41 285.939 326.388C288.963 327.982 292.056 329.688 295.215 331.512C298.374 333.336 301.263 335.083 303.887 336.75C307.314 338.963 310.104 341.37 312.255 343.969C314.407 346.569 315.532 349.278 315.634 352.089C315.735 354.903 314.71 357.786 312.56 360.734C310.407 363.683 306.811 366.615 301.77 369.525C296.729 372.436 291.653 374.511 286.544 375.754C281.438 376.996 276.445 377.587 271.571 377.529C266.699 377.472 262.007 376.822 257.507 375.578C253.001 374.337 248.834 372.726 245.001 370.748C242.11 369.234 239.088 367.566 235.928 365.741C232.768 363.917 229.809 362.132 227.052 360.385C223.625 358.172 220.835 355.767 218.686 353.165C216.532 350.567 215.409 347.859 215.307 345.045C215.207 342.232 216.232 339.35 218.381 336.401C220.534 333.452 224.129 330.521 229.17 327.611ZM284.728 347.229C279.282 343.776 273.636 340.516 267.788 337.449C265.975 336.557 264.174 335.81 262.395 335.207C260.613 334.606 258.798 334.238 256.949 334.101C255.102 333.966 253.199 334.111 251.251 334.538C249.301 334.965 247.321 335.761 245.302 336.925C243.287 338.089 241.908 339.234 241.169 340.36C240.43 341.486 240.178 342.583 240.412 343.649C240.65 344.717 241.271 345.773 242.278 346.822C243.287 347.87 244.598 348.9 246.211 349.907C251.453 353.323 257.101 356.584 263.151 359.687C264.898 360.619 266.663 361.384 268.445 361.986C270.223 362.588 272.057 362.948 273.939 363.062C275.823 363.179 277.738 363.024 279.687 362.596C281.637 362.169 283.621 361.374 285.636 360.209C287.654 359.045 289.03 357.9 289.769 356.774C290.508 355.65 290.779 354.543 290.576 353.456C290.374 352.37 289.752 351.312 288.712 350.284C287.667 349.258 286.34 348.239 284.728 347.229Z" fill="#FF3030"/>
<path d="M391.938 316.301L378.728 323.923C377.992 324.355 377.08 324.566 376.004 324.566C374.928 324.566 374.028 324.356 373.292 323.923L363.004 317.984L331.241 336.326C330.504 336.747 329.593 336.969 328.517 336.969C327.442 336.969 326.541 336.747 325.793 336.326L315.108 330.153C313.354 329.148 312.349 328.06 312.08 326.891L304.212 287.541C304.165 287.284 304.154 287.05 304.154 286.84C304.154 287.6 304.142 297.42 304.154 297.899C304.154 298.086 304.177 298.285 304.212 298.507L312.08 337.857C312.349 339.026 313.354 340.113 315.108 341.119L325.793 347.292C326.541 347.713 327.441 347.935 328.517 347.935C329.593 347.935 330.504 347.713 331.241 347.292L363.004 328.95L373.292 334.889C374.029 335.321 374.929 335.532 376.004 335.532C377.079 335.532 377.991 335.322 378.728 334.889L391.938 327.267C392.675 326.835 393.049 326.32 393.049 325.689V314.723C393.049 315.342 392.675 315.868 391.938 316.301Z" fill="#FF3030"/>
<path d="M391.435 311.601V300.635C391.435 301.255 391.061 301.781 390.324 302.213L381.65 307.217L391.014 312.618C391.283 312.314 391.435 311.975 391.435 311.601Z" fill="#FF3030"/>
<path d="M331.299 310.058L337.868 313.869L347.373 308.386L328.82 297.666L331.287 310.058H331.299Z" fill="#FF3030"/>
<path opacity="0.35" d="M331.299 310.058L337.868 313.869L347.373 308.386L328.82 297.666L331.287 310.058H331.299Z" fill="#273240"/>
<path opacity="0.2" d="M391.435 311.601V300.635C391.435 301.255 391.061 301.781 390.324 302.213L381.65 307.217L391.014 312.618C391.283 312.314 391.435 311.975 391.435 311.601Z" fill="#273240"/>
<path opacity="0.2" d="M391.938 316.301L378.728 323.923C377.992 324.355 377.08 324.566 376.004 324.566V335.532C377.079 335.532 377.991 335.322 378.728 334.889L391.938 327.267C392.675 326.835 393.049 326.32 393.049 325.689V314.723C393.049 315.342 392.675 315.868 391.938 316.301Z" fill="#273240"/>
<path opacity="0.25" d="M312.08 326.892L304.212 287.542C304.165 287.285 304.154 287.051 304.154 286.841C304.154 287.601 304.142 297.421 304.154 297.9C304.154 298.087 304.177 298.286 304.212 298.508L312.08 337.858C312.127 338.08 312.209 338.302 312.325 338.524V327.558C312.209 327.336 312.127 327.114 312.08 326.892Z" fill="#273240"/>
<path opacity="0.35" d="M328.517 336.97C327.442 336.97 326.541 336.748 325.793 336.327L315.108 330.154C313.693 329.347 312.758 328.482 312.326 327.559V338.525C312.758 339.449 313.694 340.314 315.108 341.12L325.793 347.293C326.541 347.714 327.441 347.936 328.517 347.936C328.622 347.936 328.716 347.936 328.821 347.913V336.947C328.716 336.97 328.622 336.97 328.517 336.97Z" fill="#273240"/>
<path opacity="0.2" d="M331.24 336.326C330.573 336.712 329.767 336.922 328.82 336.946V347.912C329.767 347.889 330.574 347.678 331.24 347.292L363.003 328.95V317.984L331.24 336.326Z" fill="#273240"/>
<path opacity="0.35" d="M373.292 323.922L363.004 317.983V328.949L373.292 334.888C374.029 335.32 374.929 335.531 376.004 335.531V324.565C374.928 324.565 374.028 324.354 373.292 323.922Z" fill="#273240"/>
<path d="M378.733 323.923C377.992 324.35 377.084 324.564 376.008 324.563C374.933 324.563 374.027 324.349 373.287 323.922L363.002 317.984L331.239 336.323C330.499 336.75 329.595 336.963 328.516 336.963C327.439 336.964 326.535 336.749 325.795 336.322L315.107 330.151C313.359 329.142 312.351 328.056 312.081 326.891L304.217 287.538C304.083 286.762 304.151 286.16 304.417 285.734C304.688 285.307 305.259 284.841 306.132 284.336L321.357 275.546C322.097 275.121 323.005 274.907 324.082 274.906C325.157 274.907 326.065 275.121 326.803 275.547L365.522 297.901L374.193 292.894C374.931 292.467 375.841 292.255 376.916 292.253C377.993 292.255 378.898 292.468 379.638 292.895L390.326 299.065C391.066 299.492 391.436 300.016 391.436 300.636C391.436 301.259 391.064 301.782 390.326 302.209L381.655 307.216L391.938 313.153C392.679 313.581 393.048 314.104 393.05 314.725C393.049 315.347 392.678 315.871 391.939 316.297L378.733 323.923ZM347.371 308.38L328.82 297.669L332.651 316.879L347.371 308.38Z" fill="#FF3030"/>
<path d="M310.378 409.165C310.603 409.034 310.88 408.97 311.208 408.97C311.535 408.97 311.811 409.035 312.036 409.165L315.294 411.046C315.52 411.176 315.633 411.336 315.632 411.525C315.632 411.714 315.52 411.875 315.294 412.004L300.728 420.414C300.502 420.544 300.226 420.609 299.898 420.608C299.571 420.609 299.294 420.544 299.068 420.414L279.216 408.952C278.991 408.822 278.878 408.663 278.877 408.473C278.878 408.284 278.99 408.124 279.216 407.995L293.537 399.726C293.762 399.596 294.039 399.531 294.366 399.531C294.695 399.531 294.972 399.596 295.197 399.726L298.455 401.607C298.68 401.737 298.791 401.896 298.792 402.086C298.791 402.275 298.68 402.436 298.454 402.565L288.988 408.03L292.307 409.946L301.097 404.872C301.322 404.742 301.598 404.677 301.927 404.677C302.254 404.677 302.531 404.743 302.755 404.872L306.013 406.753C306.239 406.883 306.352 407.043 306.351 407.232C306.352 407.422 306.239 407.582 306.013 407.711L297.224 412.785L300.666 414.772L310.378 409.165Z" fill="#273240"/>
<path d="M315.231 393.587C315.456 393.457 315.734 393.393 316.061 393.393C316.388 393.393 316.665 393.457 316.892 393.588L319.996 395.38C320.221 395.51 320.332 395.669 320.333 395.859C320.332 396.048 320.221 396.209 319.996 396.338L317.199 397.952C315.314 399.041 315.313 400.129 317.199 401.217L324.759 405.582C324.985 405.712 325.098 405.872 325.097 406.061C325.097 406.25 324.985 406.411 324.759 406.54L320.887 408.775C320.662 408.906 320.385 408.97 320.057 408.97C319.73 408.97 319.453 408.905 319.227 408.775L304.907 400.507C304.68 400.376 304.568 400.217 304.568 400.027C304.569 399.838 304.68 399.678 304.906 399.548L308.471 397.489C308.696 397.359 308.973 397.295 309.3 397.295C309.628 397.295 309.905 397.359 310.131 397.49L310.837 397.897C310.858 397.366 311.057 396.825 311.436 396.274C311.815 395.724 312.465 395.182 313.387 394.65L315.231 393.587Z" fill="#273240"/>
<path d="M330.106 385C330.331 384.869 330.609 384.805 330.936 384.805C331.264 384.805 331.54 384.869 331.767 385L334.871 386.792C335.097 386.922 335.208 387.082 335.208 387.271C335.208 387.46 335.097 387.621 334.871 387.75L332.074 389.364C330.189 390.453 330.188 391.541 332.074 392.629L339.634 396.994C339.86 397.124 339.973 397.284 339.972 397.472C339.972 397.662 339.86 397.822 339.634 397.952L335.762 400.187C335.536 400.318 335.26 400.382 334.932 400.382C334.605 400.383 334.327 400.317 334.103 400.187L319.783 391.919C319.556 391.788 319.443 391.629 319.443 391.44C319.444 391.251 319.555 391.091 319.781 390.961L323.346 388.903C323.571 388.773 323.849 388.709 324.175 388.708C324.503 388.708 324.779 388.773 325.006 388.903L325.712 389.311C325.733 388.779 325.933 388.238 326.312 387.687C326.691 387.137 327.341 386.596 328.263 386.064L330.106 385Z" fill="#273240"/>
<path d="M356.537 377.618C356.865 377.784 357.269 378.006 357.751 378.283C358.233 378.562 358.616 378.796 358.904 378.984C359.845 379.576 360.543 380.238 360.994 380.971C361.443 381.704 361.635 382.465 361.563 383.251C361.49 384.038 361.131 384.83 360.486 385.628C359.841 386.427 358.892 387.187 357.643 387.908C356.393 388.63 355.077 389.177 353.695 389.55C352.311 389.922 350.939 390.13 349.578 390.171C348.215 390.213 346.897 390.103 345.627 389.843C344.357 389.582 343.21 389.18 342.186 388.636C341.858 388.471 341.455 388.249 340.972 387.971C340.491 387.693 340.107 387.459 339.819 387.27C338.857 386.691 338.149 386.034 337.7 385.3C337.249 384.568 337.064 383.804 337.146 383.012C337.228 382.219 337.587 381.421 338.222 380.617C338.857 379.812 339.799 379.05 341.049 378.328C342.299 377.606 343.62 377.062 345.014 376.695C346.408 376.329 347.789 376.122 349.162 376.074C350.534 376.027 351.851 376.137 353.111 376.403C354.37 376.669 355.513 377.074 356.537 377.618ZM347.564 385.354C348.404 385.768 349.294 385.958 350.237 385.921C351.179 385.886 352.061 385.632 352.88 385.158C353.699 384.685 354.14 384.177 354.201 383.633C354.262 383.089 353.934 382.574 353.218 382.089C352.951 381.888 352.624 381.675 352.234 381.45C351.845 381.225 351.476 381.036 351.129 380.882C350.288 380.468 349.399 380.279 348.456 380.315C347.512 380.351 346.631 380.605 345.811 381.078C344.992 381.552 344.551 382.06 344.491 382.604C344.43 383.148 344.757 383.663 345.474 384.148C345.74 384.349 346.068 384.562 346.456 384.787C346.847 385.011 347.215 385.201 347.564 385.354Z" fill="#273240"/>
<path d="M364.526 365.126C364.752 364.996 365.029 364.932 365.356 364.931C365.684 364.932 365.961 364.996 366.187 365.127L369.291 366.919C369.517 367.049 369.628 367.208 369.628 367.398C369.628 367.587 369.517 367.748 369.291 367.877L366.494 369.491C364.609 370.58 364.608 371.668 366.494 372.756L374.054 377.121C374.279 377.251 374.393 377.411 374.392 377.599C374.392 377.789 374.28 377.949 374.054 378.079L370.182 380.314C369.956 380.444 369.68 380.509 369.352 380.509C369.025 380.509 368.748 380.445 368.523 380.314L354.203 372.046C353.976 371.915 353.863 371.756 353.863 371.567C353.864 371.378 353.975 371.217 354.201 371.088L357.766 369.029C357.992 368.899 358.269 368.835 358.595 368.835C358.923 368.835 359.2 368.899 359.427 369.03L360.132 369.437C360.153 368.906 360.353 368.365 360.732 367.814C361.111 367.264 361.761 366.723 362.683 366.19L364.526 365.126Z" fill="#273240"/>
<path d="M152.588 274.36C148.372 274.191 146.506 274.609 147.161 279.071C147.817 283.533 148.008 286.967 148.008 286.967C148.008 286.967 155.521 287.185 159.004 285.239C162.488 283.294 158.93 274.614 152.588 274.36Z" fill="#FF3030"/>
<path opacity="0.5" d="M152.588 274.36C148.372 274.191 146.506 274.609 147.161 279.071C147.817 283.533 148.008 286.967 148.008 286.967C148.008 286.967 155.521 287.185 159.004 285.239C162.488 283.294 158.93 274.614 152.588 274.36Z" fill="#273240"/>
<path d="M153.263 293.518C152.99 293.518 152.713 293.491 152.436 293.436C150.134 292.982 148.636 290.748 149.091 288.446C150.184 282.908 151.262 278.631 152.214 274.857C153.602 269.355 154.699 265.008 155.367 258.875C156.413 249.274 153.376 240.109 150.185 234.732C148.988 232.715 149.653 230.108 151.67 228.911C153.684 227.714 156.294 228.378 157.491 230.396C159.379 233.577 165.415 245.098 163.813 259.795C163.081 266.515 161.863 271.344 160.453 276.935C159.526 280.608 158.476 284.771 157.426 290.091C157.027 292.116 155.251 293.518 153.263 293.518Z" fill="#273240"/>
<path d="M143.104 299.262C143.104 299.262 142.697 301.043 143.075 301.75C143.665 302.852 146.93 304.201 148.65 304.911C150.37 305.621 152.265 306.667 154.068 309.945C155.995 313.448 159.492 315.827 163.403 317.313C167.314 318.799 173.009 319.572 179.698 317.901C186.386 316.23 186.667 312.203 186.667 312.203C186.667 312.203 186.772 308.425 185.047 307.945C183.322 307.464 143.104 299.262 143.104 299.262Z" fill="#273240"/>
<path d="M145.8 285.22C145.61 286.409 145.34 287.585 144.99 288.737C144.027 291.91 142.438 295.175 143.103 299.26C144.202 301.218 146.494 301.957 148.217 302.721C150.532 303.748 152.192 304.428 153.848 306.429C156.821 310.02 159.655 314.562 168.64 315.728C177.624 316.894 184.163 313.626 185.632 310.993C187.101 308.36 185.445 306.082 179.558 303.396C176.569 302.032 169.75 296.423 168.966 295.681C168.205 294.961 167.64 294.124 167.049 293.269C165.855 291.542 164.941 289.348 164.65 287.282C164.377 285.352 164.478 282.851 164.975 280.447C165.081 279.931 165.338 279.395 165.119 278.916C164.544 277.661 162.575 277.993 161.491 278.079C159.856 278.208 158.249 278.557 156.65 278.906C156.132 279.019 155.583 279.148 155.207 279.522C154.844 279.882 154.707 280.405 154.575 280.898C154.374 281.65 154.151 282.396 153.906 283.135C153.736 283.648 153.512 284.207 153.025 284.439C152.543 284.668 151.936 284.475 151.573 284.085C151.21 283.694 151.058 283.148 151.024 282.616C150.989 282.084 151.06 281.551 151.08 281.018C151.1 280.508 151.065 279.969 150.792 279.538C150.203 278.609 148.708 278.465 148.331 277.432C148.129 276.879 148.356 276.231 148.783 275.825C149.21 275.419 149.802 275.227 150.388 275.165C150.974 275.103 151.506 275.122 152.145 275.14L152.456 273.905C150.93 273.764 149.754 273.82 148.37 274.419C147.632 274.738 146.808 275.423 146.498 276.184C145.953 277.523 146.283 278.636 146.35 279.248C146.607 281.605 146.174 282.878 145.8 285.22Z" fill="#FF3030"/>
<path opacity="0.35" d="M145.8 285.22C145.61 286.409 145.34 287.585 144.99 288.737C144.027 291.91 142.438 295.175 143.103 299.26C144.202 301.218 146.494 301.957 148.217 302.721C150.532 303.748 152.192 304.428 153.848 306.429C156.821 310.02 159.655 314.562 168.64 315.728C177.624 316.894 184.163 313.626 185.632 310.993C187.101 308.36 185.445 306.082 179.558 303.396C176.569 302.032 169.75 296.423 168.966 295.681C168.205 294.961 167.64 294.124 167.049 293.269C165.855 291.542 164.941 289.348 164.65 287.282C164.377 285.352 164.478 282.851 164.975 280.447C165.081 279.931 165.338 279.395 165.119 278.916C164.544 277.661 162.575 277.993 161.491 278.079C159.856 278.208 158.249 278.557 156.65 278.906C156.132 279.019 155.583 279.148 155.207 279.522C154.844 279.882 154.707 280.405 154.575 280.898C154.374 281.65 154.151 282.396 153.906 283.135C153.736 283.648 153.512 284.207 153.025 284.439C152.543 284.668 151.936 284.475 151.573 284.085C151.21 283.694 151.058 283.148 151.024 282.616C150.989 282.084 151.06 281.551 151.08 281.018C151.1 280.508 151.065 279.969 150.792 279.538C150.203 278.609 148.708 278.465 148.331 277.432C148.129 276.879 148.356 276.231 148.783 275.825C149.21 275.419 149.802 275.227 150.388 275.165C150.974 275.103 151.506 275.122 152.145 275.14L152.456 273.905C150.93 273.764 149.754 273.82 148.37 274.419C147.632 274.738 146.808 275.423 146.498 276.184C145.953 277.523 146.283 278.636 146.35 279.248C146.607 281.605 146.174 282.878 145.8 285.22Z" fill="#273240"/>
<path d="M162.679 314.172C162.679 314.172 162.22 307.8 168.676 303.934C175.132 300.068 179.341 301.999 181.485 303.334C184.038 304.924 187.768 308.35 185.83 311.15C183.737 314.174 180.171 315.784 173.356 316.322C166.542 316.86 162.679 314.172 162.679 314.172Z" fill="#FAFAFA"/>
<path d="M153.782 290.955C154.017 290.977 154.258 290.895 154.425 290.714C155.311 289.756 160.719 286.487 164.813 288.169C164.911 288.014 165.082 287.02 164.586 286.713C159.058 285.327 154.335 288.572 153.267 289.73C152.987 290.033 153.02 290.499 153.339 290.77C153.468 290.88 153.623 290.94 153.782 290.955Z" fill="#FAFAFA"/>
<path d="M166.528 292.492C166.539 291.778 166.121 291.143 165.869 290.965C161.212 290.297 156.53 293.228 155.506 294.338C155.226 294.641 155.26 295.106 155.58 295.377C155.71 295.487 155.864 295.547 156.023 295.562C156.258 295.583 156.499 295.501 156.666 295.32C157.524 294.388 162.847 291.299 166.528 292.492Z" fill="#FAFAFA"/>
<path d="M173.583 299.419C173.513 298.942 172.569 298.219 171.786 298.02C166.637 297.666 162.289 301.589 161.438 302.889C161.212 303.234 161.322 303.689 161.682 303.902C161.828 303.989 161.991 304.023 162.149 304.011C162.384 303.993 162.609 303.873 162.743 303.667C163.498 302.515 168.699 298.12 173.583 299.419Z" fill="#FAFAFA"/>
<path d="M158.697 300.041C158.933 300.035 159.163 299.925 159.307 299.725C160.064 298.68 164.578 294.721 169.23 295.916C169.262 295.508 168.408 294.704 167.994 294.588C163.377 294.17 158.925 297.662 158.039 298.885C157.797 299.219 157.885 299.678 158.234 299.908C158.377 300.004 158.538 300.045 158.697 300.041Z" fill="#FAFAFA"/>
<path d="M105.662 289.114C101.457 288.768 99.5753 289.107 100.042 293.593C100.509 298.079 100.557 301.517 100.557 301.517C100.557 301.517 108.054 302.051 111.616 300.253C115.178 298.456 111.987 289.634 105.662 289.114Z" fill="#FF3030"/>
<path opacity="0.5" d="M105.662 289.114C101.457 288.768 99.5753 289.107 100.042 293.593C100.509 298.079 100.557 301.517 100.557 301.517C100.557 301.517 108.054 302.051 111.616 300.253C115.178 298.456 111.987 289.634 105.662 289.114Z" fill="#273240"/>
<path d="M105.532 308.283C105.26 308.272 104.984 308.233 104.709 308.166C102.428 307.616 101.025 305.32 101.577 303.04C102.902 297.553 104.159 293.325 105.269 289.595C106.887 284.156 108.165 279.859 109.091 273.76C110.539 264.211 107.89 254.927 104.929 249.42C103.818 247.354 104.592 244.778 106.658 243.666C108.72 242.555 111.3 243.328 112.412 245.395C114.165 248.652 119.711 260.417 117.493 275.034C116.479 281.717 115.059 286.49 113.415 292.017C112.334 295.648 111.11 299.763 109.837 305.034C109.351 307.04 107.518 308.367 105.532 308.283Z" fill="#273240"/>
<path d="M95.1387 313.594C95.1387 313.594 94.6567 315.356 95.0057 316.078C95.5487 317.203 98.7537 318.689 100.443 319.47C102.132 320.252 103.981 321.376 105.645 324.727C107.423 328.308 110.817 330.832 114.662 332.481C118.507 334.13 124.165 335.142 130.917 333.754C137.669 332.366 138.12 328.354 138.12 328.354C138.12 328.354 138.384 324.584 136.68 324.032C134.976 323.48 95.1387 313.594 95.1387 313.594Z" fill="#273240"/>
<path d="M98.4243 299.678C98.1843 300.858 97.8653 302.022 97.4673 303.158C96.3713 306.287 94.6463 309.483 95.1393 313.593C96.1543 315.596 98.4143 316.43 100.103 317.266C102.373 318.39 104.002 319.138 105.573 321.207C108.393 324.92 111.033 329.577 119.961 331.12C128.889 332.663 135.559 329.672 137.137 327.103C138.716 324.534 137.157 322.189 131.387 319.257C128.458 317.769 121.881 311.878 121.129 311.104C120.399 310.353 119.87 309.492 119.316 308.613C118.196 306.837 117.375 304.607 117.17 302.53C116.979 300.59 117.185 298.096 117.782 295.714C117.91 295.204 118.189 294.678 117.99 294.191C117.468 292.913 115.487 293.162 114.4 293.202C112.761 293.262 111.141 293.543 109.529 293.824C109.006 293.915 108.453 294.021 108.061 294.379C107.684 294.724 107.525 295.24 107.372 295.728C107.139 296.471 106.885 297.207 106.609 297.935C106.418 298.44 106.171 298.99 105.674 299.2C105.183 299.408 104.584 299.191 104.238 298.785C103.892 298.379 103.763 297.827 103.751 297.294C103.739 296.761 103.832 296.232 103.874 295.7C103.915 295.191 103.903 294.651 103.648 294.209C103.099 293.256 101.611 293.049 101.278 292.001C101.1 291.44 101.353 290.802 101.797 290.415C102.241 290.028 102.84 289.861 103.428 289.823C104.016 289.785 104.546 289.827 105.184 289.872L105.547 288.651C104.028 288.446 102.851 288.453 101.443 288.992C100.692 289.28 99.8403 289.93 99.4993 290.677C98.8983 291.992 99.1813 293.118 99.2223 293.733C99.3823 296.101 98.8963 297.354 98.4243 299.678Z" fill="#FF3030"/>
<path opacity="0.35" d="M98.4243 299.678C98.1843 300.858 97.8653 302.022 97.4673 303.158C96.3713 306.287 94.6463 309.483 95.1393 313.593C96.1543 315.596 98.4143 316.43 100.103 317.266C102.373 318.39 104.002 319.138 105.573 321.207C108.393 324.92 111.033 329.577 119.961 331.12C128.889 332.663 135.559 329.672 137.137 327.103C138.716 324.534 137.157 322.189 131.387 319.257C128.458 317.769 121.881 311.878 121.129 311.104C120.399 310.353 119.87 309.492 119.316 308.613C118.196 306.837 117.375 304.607 117.17 302.53C116.979 300.59 117.185 298.096 117.782 295.714C117.91 295.204 118.189 294.678 117.99 294.191C117.468 292.913 115.487 293.162 114.4 293.202C112.761 293.262 111.141 293.543 109.529 293.824C109.006 293.915 108.453 294.021 108.061 294.379C107.684 294.724 107.525 295.24 107.372 295.728C107.139 296.471 106.885 297.207 106.609 297.935C106.418 298.44 106.171 298.99 105.674 299.2C105.183 299.408 104.584 299.191 104.238 298.785C103.892 298.379 103.763 297.827 103.751 297.294C103.739 296.761 103.832 296.232 103.874 295.7C103.915 295.191 103.903 294.651 103.648 294.209C103.099 293.256 101.611 293.049 101.278 292.001C101.1 291.44 101.353 290.802 101.797 290.415C102.241 290.028 102.84 289.861 103.428 289.823C104.016 289.785 104.546 289.827 105.184 289.872L105.547 288.651C104.028 288.446 102.851 288.453 101.443 288.992C100.692 289.28 99.8403 289.93 99.4993 290.677C98.8983 291.992 99.1813 293.118 99.2223 293.733C99.3823 296.101 98.8963 297.354 98.4243 299.678Z" fill="#273240"/>
<path d="M114.069 329.315C114.069 329.315 113.878 322.929 120.491 319.338C127.104 315.747 131.228 317.853 133.314 319.278C135.798 320.974 139.38 324.554 137.327 327.27C135.109 330.204 131.478 331.662 124.647 331.913C117.815 332.163 114.069 329.315 114.069 329.315Z" fill="#FAFAFA"/>
<path d="M106.157 305.745C106.391 305.776 106.636 305.705 106.81 305.531C107.735 304.611 113.276 301.573 117.296 303.425C117.4 303.275 117.613 302.288 117.13 301.961C111.665 300.344 106.809 303.387 105.694 304.499C105.401 304.79 105.415 305.257 105.723 305.541C105.847 305.656 105.999 305.723 106.157 305.745Z" fill="#FAFAFA"/>
<path d="M118.826 307.815C118.867 307.102 118.476 306.45 118.232 306.262C113.608 305.399 108.806 308.13 107.736 309.196C107.444 309.487 107.458 309.953 107.766 310.238C107.891 310.353 108.043 310.42 108.201 310.441C108.435 310.472 108.679 310.401 108.853 310.227C109.751 309.332 115.198 306.469 118.826 307.815Z" fill="#FAFAFA"/>
<path d="M125.585 315.032C125.535 314.552 124.622 313.791 123.849 313.559C118.719 312.989 114.21 316.726 113.305 317.989C113.064 318.324 113.156 318.783 113.506 319.012C113.648 319.105 113.809 319.146 113.969 319.141C114.205 319.133 114.434 319.022 114.577 318.822C115.379 317.702 120.76 313.529 125.585 315.032Z" fill="#FAFAFA"/>
<path d="M110.685 315.029C110.921 315.033 111.155 314.932 111.308 314.739C112.108 313.727 116.785 309.961 121.383 311.351C121.432 310.945 120.613 310.105 120.204 309.973C115.608 309.362 111.014 312.663 110.077 313.848C109.821 314.172 109.89 314.634 110.229 314.879C110.366 314.978 110.525 315.026 110.685 315.029Z" fill="#FAFAFA"/>
<path d="M214.064 215.395C210.001 215.395 204.939 213.972 199.324 210.137C197.941 209.192 197.585 207.303 198.53 205.92C199.476 204.535 201.364 204.182 202.747 205.126C210.313 210.294 215.723 209.688 217.73 208.516C218.544 208.039 219.148 206.914 219.385 205.429C219.859 202.463 218.877 197.612 214.699 192.895C205.86 182.91 194.77 177.778 177.615 175.735C175.951 175.537 174.763 174.027 174.961 172.363C175.159 170.699 176.665 169.506 178.333 169.709C196.845 171.914 209.463 177.825 219.244 188.872C223.982 194.223 226.275 200.77 225.378 206.387C224.846 209.72 223.218 212.337 220.794 213.756C219.096 214.746 216.808 215.395 214.064 215.395Z" fill="#273240"/>
<path d="M175.684 137.576C180.274 133.253 184.318 120.535 182.232 107.173C180.146 93.811 167.798 81.315 162.881 78.612C157.964 75.909 154.504 79.405 155.841 84.386C157.66 91.162 159.927 106.406 147.281 113.119C147.281 113.119 149.153 123.072 155.67 130.973C162.187 138.874 175.684 137.576 175.684 137.576Z" fill="#FF3030"/>
<path opacity="0.75" d="M175.684 137.576C180.274 133.253 184.318 120.535 182.232 107.173C180.146 93.811 167.798 81.315 162.881 78.612C157.964 75.909 154.504 79.405 155.841 84.386C157.66 91.162 159.927 106.406 147.281 113.119C147.281 113.119 149.153 123.072 155.67 130.973C162.187 138.874 175.684 137.576 175.684 137.576Z" fill="white"/>
<path d="M158.52 87.013C157.405 87.013 156.3 86.851 155.277 86.525C154.957 86.423 154.78 86.082 154.882 85.762C154.985 85.444 155.326 85.264 155.644 85.368C159.626 86.638 164.999 85.155 166.344 80.998C166.447 80.68 166.785 80.504 167.109 80.608C167.428 80.711 167.602 81.054 167.499 81.373C166.288 85.113 162.341 87.013 158.52 87.013Z" fill="#FF3030"/>
<path d="M163.069 95.4065C159.663 95.4065 157.3 94.0645 156.385 93.5465C156.093 93.3805 155.992 93.0105 156.157 92.7195C156.322 92.4265 156.693 92.3255 156.984 92.4905C158.851 93.5505 161.815 94.8425 165.988 93.8385C171.507 92.5105 172.685 89.2775 172.935 87.9485C172.997 87.6175 173.319 87.4035 173.644 87.4645C173.973 87.5265 174.189 87.8435 174.128 88.1725C173.834 89.7335 172.48 93.5255 166.273 95.0195C165.125 95.2945 164.053 95.4065 163.069 95.4065Z" fill="#FF3030"/>
<path d="M169.352 105.927C169.337 105.927 169.321 105.927 169.305 105.927C162.179 105.913 157.763 102.351 155.765 100.229C155.535 99.9851 155.547 99.6011 155.791 99.3711C156.034 99.1421 156.418 99.1521 156.649 99.3971C158.514 101.377 162.636 104.701 169.307 104.714C169.322 104.714 169.338 104.714 169.353 104.714C177.145 104.714 179.46 101.054 180.45 99.4891C180.631 99.2051 181.007 99.1211 181.288 99.3011C181.571 99.4801 181.655 99.8551 181.476 100.138C180.474 101.722 177.813 105.927 169.352 105.927Z" fill="#FF3030"/>
<path d="M172.535 118.134C170.309 118.134 167.904 117.804 165.448 116.976C159.709 115.041 155.564 111.714 153.131 107.089C152.975 106.792 153.088 106.425 153.386 106.269C153.68 106.114 154.05 106.226 154.205 106.523C156.52 110.925 160.325 113.968 165.837 115.826C173.444 118.389 180.705 115.84 182.728 113.972C182.975 113.745 183.359 113.761 183.585 114.006C183.813 114.252 183.797 114.636 183.551 114.864C181.961 116.333 177.737 118.134 172.535 118.134Z" fill="#FF3030"/>
<path opacity="0.1" d="M157.193 126.732C168.077 114.297 163.869 94.7084 161.193 89.0924C157.425 81.1874 159.02 77.7204 162.317 78.3404C157.705 76.2004 154.556 79.5994 155.841 84.3854C157.66 91.1614 159.927 106.405 147.281 113.118C147.281 113.118 148.92 121.825 154.465 129.416C155.375 128.648 156.287 127.767 157.193 126.732Z" fill="#273240"/>
<path d="M185.679 211.349C181.979 202.342 180.137 177.445 180.902 161.077C183.381 160.558 186.414 157.178 185.188 152.808C184.086 148.88 183.016 148.362 179.704 144.121C177.339 141.093 175.696 137.086 173.577 133.842C166.302 122.7 157.05 115.267 143.435 112.064C141.098 111.514 139.692 109.103 140.363 106.799C141.233 103.808 141.974 99.8828 141.06 97.0018C139.373 91.6848 136.015 91.1458 133.788 92.1298C131.561 93.1138 131.402 95.3248 132.069 98.8948C132.736 102.465 131.69 103.09 130.497 102.706C129.304 102.322 128.423 95.8338 120.113 92.7808C111.803 89.7278 106.189 93.7338 106.328 97.1648C106.479 100.908 109.202 101.2 114.968 101.824C117.419 102.089 120.025 103.121 121.683 104.805C124.002 107.16 122.717 111.145 119.491 111.864C98.3567 116.574 81.9527 134.184 77.3127 157.944C76.6097 161.574 76.1257 165.953 75.8327 170.846C75.8327 170.846 73.7147 166.867 69.1697 165.75C65.0877 164.746 63.4727 166.701 63.5267 168.522C63.5807 170.344 65.8537 171.213 68.1437 172.161C71.8137 173.681 72.4107 175.091 72.4107 175.091C72.4107 175.091 69.2377 174.554 66.7287 175.663C64.2197 176.771 63.5627 179.485 65.9887 180.518C67.3437 181.095 69.4107 180.061 71.5407 179.567C72.8817 179.257 75.3627 178.765 75.5007 180.375L75.5027 180.374C75.4537 184.136 75.4867 188.074 75.5957 192.116C75.9027 203.527 77.9017 211.341 76.0777 221.69C74.6957 229.533 67.8347 235.731 74.7237 242.204C77.8027 245.097 81.3997 245.323 84.2217 244.83C86.5307 244.426 88.6877 245.865 89.2237 248.147C89.9887 251.404 92.3447 255.359 98.9807 257.115C105.107 258.736 109.028 256.87 111.417 254.599C113.149 252.953 115.91 252.932 117.443 254.765C119.991 257.811 124.72 261.082 133.27 261.04C141.804 260.998 146.125 257.29 148.259 254.132C149.518 252.269 151.975 251.594 153.91 252.738C157.157 254.658 162.376 256.202 168.88 252.733C173.713 250.155 174.963 245.522 175.08 241.766C175.156 239.302 177.383 237.375 179.82 237.749C183.55 238.323 187.347 237.346 189.912 233.469C194.532 226.485 189.013 219.465 185.679 211.349Z" fill="#FF3030"/>
<g opacity="0.1">
<path d="M68.1426 172.16C71.8126 173.68 72.4096 175.09 72.4096 175.09C72.4096 175.09 69.2366 174.553 66.7276 175.662C64.2186 176.77 63.5617 179.484 65.9877 180.517C67.3427 181.094 69.4097 180.06 71.5397 179.566C72.8807 179.256 75.3617 178.764 75.4997 180.374L75.5016 180.373C75.4527 184.135 75.4857 188.073 75.5947 192.115C75.9017 203.526 77.9006 211.34 76.0766 221.689C74.6946 229.532 67.8337 235.73 74.7227 242.203C76.3377 243.721 78.0946 244.493 79.8086 244.824C79.6036 244.714 76.3787 239.526 80.1777 232.055C85.5187 221.554 85.1877 214.976 83.7887 193.691C82.0767 167.649 85.2726 156.52 94.7236 138.117C104.407 119.261 119.814 118.344 126.355 113.347C129.91 110.631 128.693 105.694 125.584 102.565C122.972 99.9362 118.892 98.8722 116.487 98.6232C111.218 98.0782 106.331 97.1642 107.319 94.5342C106.645 95.3632 106.294 96.2822 106.33 97.1642C106.481 100.907 109.204 101.199 114.97 101.823C117.421 102.088 120.027 103.12 121.685 104.804C124.004 107.159 122.719 111.144 119.493 111.863C98.3587 116.573 81.9547 134.183 77.3147 157.943C76.6117 161.573 76.1277 165.952 75.8347 170.845C75.8347 170.845 73.7166 166.866 69.1716 165.749C65.0896 164.745 63.4747 166.7 63.5287 168.521C63.5797 170.343 65.8536 171.212 68.1426 172.16Z" fill="#273240"/>
<path d="M94.7231 248.249C92.0371 244.714 89.8701 244.134 86.1401 244.919C86.1331 244.92 86.1281 244.924 86.1211 244.925C87.6231 245.33 88.8391 246.515 89.2221 248.146C89.9871 251.403 92.3431 255.358 98.9791 257.114C103.305 258.259 106.527 257.661 108.891 256.414C99.2991 258.499 97.4081 251.784 94.7231 248.249Z" fill="#273240"/>
<path d="M140.795 259.809C136.069 260.429 131.639 259.362 126.658 255.714C121.288 251.781 118.664 252.148 115.342 253.479L115.34 253.48C116.132 253.661 116.871 254.084 117.441 254.764C119.989 257.81 124.718 261.081 133.268 261.039C136.273 261.024 138.746 260.549 140.795 259.809Z" fill="#273240"/>
<path d="M134.269 97.338C134.09 94.185 136.103 91.803 138.577 92.843C136.992 91.497 135.172 91.518 133.788 92.129C131.561 93.113 131.402 95.324 132.069 98.894C132.736 102.464 131.69 103.089 130.497 102.705C130.321 102.648 130.149 102.446 129.961 102.153L129.962 102.156C130.876 104.182 131.769 106.206 133.852 105.075C135.936 103.944 134.448 100.492 134.269 97.338Z" fill="#273240"/>
</g>
<path opacity="0.2" d="M114.146 169.43C114.146 169.43 115.3 174.315 120.652 174.247C126.004 174.179 126.592 171.748 128.785 168.433C130.978 165.118 135.679 164.368 139.767 164.3C143.855 164.232 147.68 159.593 145.489 154.896C145.489 154.896 146.046 158.247 142.77 160.388C139.494 162.529 135.135 160.6 130.842 162.655C126.549 164.709 126.179 169.331 123.026 170.801C119.873 172.272 116.051 171.154 114.146 169.43Z" fill="#273240"/>
<path d="M139.207 166.66C138.734 171.066 134.777 174.246 130.371 173.773C127.761 173.494 125.577 171.989 124.338 169.889C126.462 167.91 127.263 164.488 130.844 162.655C133.672 161.211 135.82 161.866 138.187 161.805C139.001 163.225 139.402 164.912 139.207 166.66Z" fill="#273240"/>
<path d="M112.449 166.973C113.43 169.189 115.697 171.838 120.862 171.388C126.263 170.917 125.828 165.212 130.841 162.655C135.428 160.315 138.239 163.487 143.05 160.206C147.394 157.243 144.933 151.396 143.296 150.2" stroke="#273240" stroke-width="1.2138" stroke-miterlimit="10" stroke-linecap="round"/>
<path d="M137.119 165.788C137.104 167.005 136.105 167.979 134.888 167.963C133.671 167.948 132.697 166.949 132.713 165.732C132.728 164.515 133.727 163.541 134.944 163.557C136.16 163.573 137.134 164.572 137.119 165.788Z" fill="#F5F5F5"/>
<path opacity="0.2" d="M180.89 161.352L180.357 161.077C180.357 161.077 178.474 160.949 177.403 159.959C176.332 158.969 175.128 155.728 171.705 154.895C168.281 154.062 166.366 155.732 162.571 155.893C158.775 156.054 157.498 153.431 156.737 151.233C156.335 154.962 157.391 157.461 160.095 158.559C163.098 159.778 168.528 157.219 170.849 158.559C173.17 159.899 174.513 162.67 177.403 162.991C179.073 163.177 180.191 162.72 180.851 162.3C180.863 161.981 180.876 161.665 180.89 161.352Z" fill="#273240"/>
<path d="M177.402 159.96C176.467 163.601 172.984 166.114 169.124 165.701C164.9 165.24 161.841 161.441 162.302 157.217C162.351 156.768 162.436 156.319 162.569 155.894C165.385 155.821 167.958 153.867 171.709 154.899C175.011 155.809 175.229 158.418 177.402 159.96Z" fill="#273240"/>
<path d="M156.889 148.714C156.121 150.86 157.139 153.655 159.34 154.986C163.702 157.624 166.604 153.491 171.706 154.896C175.538 155.952 175.222 159.266 178.587 160.601C179.238 160.859 180.264 161.101 180.902 161.076" stroke="#273240" stroke-width="1.2138" stroke-miterlimit="10" stroke-linecap="round"/>
<path d="M174.071 159.55C174.057 160.687 173.124 161.596 171.987 161.582C170.85 161.568 169.941 160.635 169.955 159.498C169.969 158.361 170.902 157.452 172.039 157.466C173.175 157.481 174.085 158.414 174.071 159.55Z" fill="#F5F5F5"/>
<path d="M149.815 176.643C139.421 181.291 130.29 190.484 126.071 200.618C123.47 206.865 124.886 212.062 128.374 213.24C135.249 215.563 142.959 204.843 150.626 201.103C158.218 197.4 164.539 200.978 168.431 198.47C173.01 195.519 172.341 187.993 169.88 182.619C167.136 176.625 160.21 171.995 149.815 176.643Z" fill="#273240"/>
<path d="M168.168 198.609C164.358 185.364 151.923 181.235 139.3 183.233C133.513 188.008 128.778 194.115 126.071 200.618C123.47 206.865 124.886 212.062 128.374 213.24C135.249 215.563 142.959 204.842 150.626 201.103C158.054 197.48 164.258 200.81 168.168 198.609Z" fill="#F28F8F"/>
<path opacity="0.1" d="M159.957 199.304C147.191 195.872 138.95 206.844 134.914 206.741C130.876 206.638 128.925 203.113 134.521 194.155C140.066 185.279 152.127 182.763 157.368 185.38C152.142 182.803 145.749 182.211 139.3 183.232C133.513 188.007 128.778 194.114 126.071 200.617C123.47 206.864 124.887 212.061 128.374 213.239C135.249 215.562 142.959 204.841 150.626 201.102C154.03 199.443 157.171 199.246 159.957 199.304Z" fill="#273240"/>
<path d="M164.858 186.624C162.395 187.692 162.428 190.964 160.399 197.91C160.257 198.397 160.118 198.863 159.982 199.311C163.405 199.389 166.288 199.851 168.431 198.47C168.869 198.188 169.25 197.85 169.603 197.487C170.1 192.217 167.464 185.494 164.858 186.624Z" fill="#F5F5F5"/>
<path d="M169.604 197.488C169.662 196.876 169.673 196.244 169.652 195.607C168.988 196.457 167.95 197.287 166.79 197.514C164.92 197.879 162.84 197.514 162.84 197.514C162.84 197.514 163.485 193.452 164.118 189.962C164.543 187.619 165.946 186.605 167.06 187.416C166.375 186.646 165.617 186.297 164.86 186.626C162.397 187.694 162.43 190.966 160.401 197.912C160.259 198.399 160.12 198.865 159.984 199.313C163.407 199.391 166.289 199.853 168.433 198.472C168.87 198.188 169.251 197.85 169.604 197.488Z" fill="#E0E0E0"/>
<path d="M138.468 195.255C136.005 196.323 136.038 199.595 134.009 206.541C133.121 209.58 132.364 211.819 131.771 213.425C135.438 212.719 139.289 209.418 143.204 206.246C143.757 200.959 141.094 194.116 138.468 195.255Z" fill="#F5F5F5"/>
<path d="M143.204 206.246C143.292 205.401 143.291 204.517 143.228 203.631C139.34 206.151 137.002 208.847 136.386 208.513C135.768 208.177 136.298 205.444 136.564 202.437C136.885 198.808 137.335 195.051 139.746 195.314C139.328 195.114 138.898 195.068 138.467 195.255C136.004 196.323 136.037 199.595 134.008 206.541C133.12 209.58 132.363 211.819 131.77 213.425C135.439 212.72 139.29 209.418 143.204 206.246Z" fill="#E0E0E0"/>
<path d="M53.7601 240.386C53.4401 240.386 53.1151 240.335 52.7951 240.227C51.2051 239.695 50.3501 237.974 50.8831 236.385C58.9611 212.297 70.8331 202.117 87.3691 193.5C88.8531 192.725 90.6871 193.301 91.4621 194.788C92.2371 196.274 91.6601 198.107 90.1741 198.881C74.5861 207.005 64.1001 216.062 56.6371 238.315C56.2111 239.583 55.0281 240.386 53.7601 240.386Z" fill="#273240"/>
<path d="M51.6216 234.218C50.3486 237.517 48.4116 238.855 46.5586 240.798C44.7056 242.741 42.7136 243.931 40.7806 246.974C38.8476 250.017 37.9366 255.168 38.5166 257.575C38.8446 258.936 40.7296 258.951 40.8396 257.755C41.2496 253.322 41.9876 249.504 45.1016 247.125C45.1016 247.125 42.9926 251.403 42.7136 255.308C42.4346 259.212 42.9456 263.864 44.5636 264.099C46.1816 264.334 46.1156 262.676 45.8906 260.332C45.6656 257.988 45.4546 251.779 48.5756 247.351C48.5756 247.351 47.4626 253.893 48.5736 258.065C49.6846 262.237 51.8496 265.229 53.0486 264.716C54.2466 264.203 54.1896 263.41 52.8936 260.199C51.8876 257.706 51.9376 254.549 52.1926 251.874C52.4516 249.146 53.0776 247.237 54.9106 245.334C55.7086 244.506 56.5526 244.044 57.2216 243.852C57.9776 243.635 59.2806 244.071 59.9786 244.749C61.1066 245.847 62.0976 247.233 62.4076 249.51C62.6926 251.61 66.1626 251.803 64.8706 245.897C63.5786 239.992 56.3086 238.957 58.1326 234.139L51.6216 234.218Z" fill="#273240"/>
<path d="M202.676 212.13L205.44 206.773C201.145 204.531 206.057 197.938 203.574 192.427C201.091 186.916 198.42 189.139 199.443 190.995C200.552 193.007 200.762 194.751 200.332 196.265C199.915 197.732 198.964 198.589 197.947 197.722C196.929 196.854 196.288 193.992 192.577 190.842C189.209 187.983 186.022 187.427 184.63 187.424C181.733 187.417 182.751 189.436 184.146 189.996C190.131 192.396 190.878 193.73 192.384 195.686C193.89 197.642 193.691 198.773 192.908 198.539C192.125 198.305 190.944 196.611 187.287 194.929C183.63 193.247 179.587 193.264 178.948 194.029C178.31 194.794 178.391 195.787 180.128 196.203C181.864 196.618 185.541 197.536 187.538 198.688C190.088 200.159 191.253 202.058 190.831 202.614C190.409 203.17 188.232 201.624 184.913 201.013C181.595 200.402 179.887 200.405 178.515 200.937C177.492 201.333 177.859 203.384 180.905 203.527C183.365 203.643 187.383 204.833 189.622 206.36C190.868 207.21 192.528 208.372 194.68 209.305C197.031 210.324 198.453 210.768 202.676 212.13Z" fill="#273240"/>
<path d="M103.384 131.17C106.893 133.005 112.521 142.588 105.622 152.779C98.7241 162.97 88.9521 162.601 84.4691 161.828C81.6691 160.466 67.0151 154.114 66.2901 133.848C65.5651 113.583 78.0381 105.829 81.1591 104.033C84.2801 102.238 90.4961 101.695 89.7301 108.637C88.9641 115.579 88.2301 121.735 93.2741 126.199C97.2261 129.697 103.384 131.17 103.384 131.17Z" fill="#FF3030"/>
<path opacity="0.75" d="M103.384 131.17C106.893 133.005 112.521 142.588 105.622 152.779C98.7241 162.97 88.9521 162.601 84.4691 161.828C81.6691 160.466 67.0151 154.114 66.2901 133.848C65.5651 113.583 78.0381 105.829 81.1591 104.033C84.2801 102.238 90.4961 101.695 89.7301 108.637C88.9641 115.579 88.2301 121.735 93.2741 126.199C97.2261 129.697 103.384 131.17 103.384 131.17Z" fill="white"/>
<path d="M77.1278 157.518C76.5498 157.518 76.0528 157.491 75.6568 157.449C75.3238 157.413 75.0828 157.114 75.1188 156.78C75.1548 156.446 75.4588 156.209 75.7878 156.242C78.8338 156.57 88.1338 155.889 94.5578 148.882C101.134 141.706 101.396 134.721 100.456 130.125C100.39 129.797 100.601 129.476 100.93 129.409C101.252 129.343 101.578 129.553 101.646 129.882C102.642 134.755 102.375 142.149 95.4508 149.703C89.5218 156.171 81.2438 157.518 77.1278 157.518Z" fill="#FF3030"/>
<path d="M73.4082 144.143C69.7332 144.143 67.0152 143.552 66.7872 143.501C66.4602 143.427 66.2542 143.103 66.3272 142.776C66.4022 142.449 66.7232 142.243 67.0522 142.317C67.5122 142.42 78.3852 144.782 86.1822 139.553C93.2382 134.821 93.8542 129.107 94.1172 126.667C94.1522 126.333 94.4672 126.099 94.7862 126.129C95.1192 126.164 95.3602 126.464 95.3242 126.797C95.0672 129.181 94.3852 135.514 86.8582 140.56C82.5662 143.439 77.4172 144.143 73.4082 144.143Z" fill="#FF3030"/>
<path d="M76.311 127.987C71.081 127.987 67.664 126.342 65.926 125.204C65.646 125.02 65.568 124.644 65.752 124.364C65.936 124.081 66.312 124.007 66.592 124.189C68.611 125.511 73.072 127.565 80.304 126.46C86.013 125.587 88.485 123.751 90.307 121.896C90.54 121.657 90.925 121.654 91.165 121.889C91.404 122.124 91.407 122.508 91.172 122.747C89.204 124.75 86.547 126.733 80.486 127.659C78.985 127.888 77.594 127.987 76.311 127.987Z" fill="#FF3030"/>
<path d="M82.6743 116.295C81.5413 116.295 80.3203 116.151 79.0163 115.811C75.8073 114.975 73.4113 113.137 72.0853 110.497C71.9363 110.198 72.0573 109.833 72.3553 109.683C72.6513 109.532 73.0193 109.652 73.1713 109.953C74.3503 112.305 76.4203 113.881 79.3223 114.637C83.8453 115.815 87.2663 114.417 89.3393 113.036C89.6143 112.849 89.9943 112.923 90.1813 113.205C90.3673 113.483 90.2913 113.86 90.0133 114.046C88.3323 115.165 85.8473 116.295 82.6743 116.295Z" fill="#FF3030"/>
<path opacity="0.1" d="M92.3831 154.598C87.9581 154.195 82.4221 152.942 77.6301 145.593C72.8381 138.244 71.3471 122.94 75.7221 113.716C78.5991 107.65 84.3551 102.086 88.5001 103.944C86.6461 102.218 83.2281 102.843 81.1591 104.033C78.0381 105.828 65.5651 113.582 66.2901 133.848C67.0151 154.114 81.6691 160.465 84.4691 161.828C88.9521 162.6 98.7241 162.97 105.622 152.779C110.241 145.955 109.242 139.409 107.026 135.274L107.022 135.272C110.487 146.142 98.9561 155.197 92.3831 154.598Z" fill="#273240"/>
<path d="M101.456 152.5C101.456 152.5 96.2444 158.246 96.1994 163.775C96.1764 166.576 98.1954 169.139 101.456 169.139C104.718 169.139 106.737 166.577 106.714 163.775C106.668 158.246 101.456 152.5 101.456 152.5Z" fill="#FAFAFA"/>
<path d="M280.016 60.695L215.535 97.877C214.865 98.264 214.322 99.205 214.322 99.979V140.516C214.322 141.29 214.868 142.225 215.542 142.606L219.889 145.043C220.563 145.423 221.653 145.418 222.323 145.031L286.804 107.849C287.474 107.462 288.017 106.521 288.017 105.747V65.21C288.017 64.436 287.471 63.501 286.797 63.12L282.45 60.683C281.776 60.303 280.687 60.308 280.016 60.695Z" fill="#FF3030"/>
<path d="M221.109 144.33V103.793C221.109 103.019 221.652 102.078 222.323 101.691L286.804 64.5095C287.474 64.1225 288.017 64.4365 288.017 65.2105V105.747C288.017 106.521 287.474 107.462 286.804 107.849L222.323 145.031C221.652 145.417 221.109 145.103 221.109 144.33Z" fill="#FF3030"/>
<path opacity="0.2" d="M222.323 145.031C221.607 145.441 220.497 145.419 219.887 145.045L215.542 142.603C214.869 142.227 214.32 141.291 214.32 140.518V99.9783C214.32 99.5743 214.471 99.1323 214.707 98.7393L221.467 102.599C221.243 102.974 221.108 103.406 221.108 103.793V144.328C221.11 145.037 221.609 145.445 222.323 145.031Z" fill="#273240"/>
<path opacity="0.4" d="M288.002 64.9899C287.907 64.3789 287.408 64.1599 286.803 64.5079L222.326 101.692C221.99 101.888 221.687 102.219 221.469 102.6L214.703 98.7399C214.922 98.3759 215.213 98.0619 215.538 97.8769L280.02 60.6929C280.687 60.3059 281.774 60.3009 282.452 60.6819L286.797 63.1179C287.408 63.4649 287.917 64.2669 288.002 64.9899Z" fill="white"/>
<path d="M214.322 114.382L204.558 124.315C204.037 124.845 204.218 125.634 204.742 125.975C204.943 126.106 211.501 129.863 211.501 129.863L221.11 118.293L214.322 114.382Z" fill="#FF3030"/>
<path opacity="0.1" d="M214.322 114.382L204.558 124.315C204.037 124.845 204.218 125.634 204.742 125.975C204.943 126.106 211.501 129.863 211.501 129.863L221.11 118.293L214.322 114.382Z" fill="#273240"/>
<path d="M221.111 118.292L211.347 128.224C210.626 128.957 211.249 130.186 212.266 130.04L221.111 128.763C222.06 128.764 222.06 118.292 221.111 118.292Z" fill="#FF3030"/>
<path d="M229.012 115.016C229.05 113.883 229.207 112.747 229.485 111.605C229.762 110.464 230.155 109.385 230.663 108.367C231.172 107.349 231.789 106.418 232.518 105.571C233.245 104.725 234.085 104.027 235.038 103.477C235.977 102.934 236.815 102.664 237.549 102.666C238.283 102.669 238.904 102.885 239.414 103.315C239.923 103.745 240.315 104.371 240.592 105.192C240.869 106.014 241.026 106.968 241.065 108.057C241.091 108.894 241.103 109.779 241.103 110.711C241.103 111.643 241.09 112.523 241.065 113.351C241.027 114.483 240.869 115.62 240.592 116.761C240.314 117.902 239.922 118.987 239.414 120.015C238.905 121.042 238.283 121.976 237.549 122.816C236.815 123.656 235.977 124.348 235.038 124.891C234.085 125.441 233.245 125.718 232.518 125.721C231.789 125.725 231.172 125.507 230.663 125.067C230.155 124.627 229.761 123.996 229.485 123.174C229.207 122.352 229.051 121.398 229.012 120.31C228.985 119.512 228.973 118.647 228.973 117.715C228.973 116.783 228.986 115.883 229.012 115.016ZM237.492 115.265C237.505 114.901 237.519 114.497 237.53 114.053C237.543 113.609 237.549 113.16 237.549 112.704C237.549 112.248 237.543 111.811 237.53 111.391C237.518 110.972 237.504 110.599 237.492 110.269C237.466 109.788 237.399 109.371 237.29 109.018C237.181 108.665 237.026 108.393 236.826 108.201C236.626 108.009 236.379 107.909 236.083 107.901C235.786 107.895 235.439 108.005 235.039 108.236C234.639 108.466 234.292 108.757 233.996 109.106C233.699 109.456 233.452 109.842 233.253 110.265C233.052 110.688 232.898 111.139 232.789 111.618C232.679 112.098 232.611 112.593 232.586 113.103C232.56 113.455 232.544 113.846 232.537 114.276C232.531 114.707 232.528 115.149 232.528 115.606C232.528 116.062 232.531 116.506 232.537 116.938C232.543 117.37 232.56 117.758 232.586 118.099C232.638 119.061 232.86 119.755 233.253 120.183C233.645 120.611 234.241 120.594 235.039 120.133C235.837 119.672 236.43 119.003 236.816 118.126C237.202 117.246 237.427 116.293 237.492 115.265Z" fill="#273240"/>
<path d="M253.176 105.258C253.189 105.548 253.196 105.926 253.196 106.391C253.196 106.857 253.189 107.243 253.176 107.548C253.15 108.514 253.008 109.488 252.752 110.47C252.494 111.451 252.14 112.384 251.689 113.269C251.238 114.153 250.695 114.958 250.057 115.683C249.419 116.408 248.708 116.998 247.923 117.451C247.138 117.905 246.426 118.137 245.788 118.148C245.151 118.159 244.607 117.983 244.156 117.619C243.705 117.254 243.351 116.73 243.094 116.046C242.836 115.362 242.695 114.551 242.669 113.615C242.656 113.325 242.65 112.947 242.65 112.481C242.65 112.016 242.656 111.63 242.669 111.325C242.682 110.366 242.817 109.396 243.075 108.414C243.333 107.432 243.69 106.497 244.147 105.609C244.603 104.72 245.151 103.908 245.788 103.174C246.426 102.44 247.138 101.844 247.923 101.391C248.708 100.938 249.419 100.711 250.057 100.71C250.695 100.708 251.242 100.888 251.699 101.249C252.155 101.609 252.511 102.133 252.761 102.821C253.012 103.509 253.151 104.32 253.176 105.258ZM246.145 111.458C246.184 112.19 246.361 112.677 246.676 112.921C246.991 113.166 247.407 113.139 247.922 112.841C248.437 112.544 248.852 112.091 249.168 111.482C249.483 110.874 249.66 110.183 249.699 109.406C249.725 109.094 249.737 108.749 249.737 108.373C249.737 107.996 249.724 107.667 249.699 107.385C249.661 106.654 249.484 106.166 249.168 105.922C248.852 105.678 248.437 105.704 247.922 106.002C247.407 106.299 246.991 106.753 246.676 107.361C246.361 107.969 246.184 108.662 246.145 109.437C246.119 109.749 246.107 110.093 246.107 110.47C246.107 110.847 246.119 111.176 246.145 111.458Z" fill="#273240"/>
<path d="M261.057 109.867C260.684 110.083 260.355 110.213 260.072 110.257C259.789 110.302 259.544 110.294 259.338 110.235C259.133 110.175 258.958 110.082 258.817 109.956C258.675 109.83 258.559 109.704 258.47 109.577V115.912C258.47 116.13 258.418 116.348 258.315 116.567C258.211 116.785 258.09 116.934 257.948 117.016L255.513 118.421C255.371 118.503 255.249 118.495 255.146 118.396C255.043 118.296 254.992 118.138 254.992 117.919V98.4092C254.992 98.1912 255.043 97.9742 255.146 97.7562C255.25 97.5382 255.371 97.3882 255.513 97.3062L257.851 95.9572C257.992 95.8752 258.114 95.8852 258.219 95.9832C258.322 96.0822 258.373 96.2402 258.373 96.4592V97.1442C258.488 96.8792 258.615 96.5972 258.75 96.3012C258.885 96.0052 259.052 95.7152 259.252 95.4312C259.452 95.1482 259.697 94.8672 259.986 94.5912C260.276 94.3152 260.633 94.0542 261.058 93.8082C261.638 93.4732 262.184 93.2922 262.7 93.2622C263.214 93.2332 263.666 93.3882 264.052 93.7312C264.439 94.0722 264.75 94.6022 264.989 95.3162C265.227 96.0322 265.358 96.9662 265.385 98.1212C265.398 98.4112 265.404 98.8092 265.404 99.3152C265.404 99.8202 265.398 100.226 265.385 100.53C265.358 101.715 265.227 102.802 264.989 103.792C264.75 104.783 264.438 105.672 264.052 106.46C263.666 107.248 263.214 107.929 262.7 108.504C262.183 109.078 261.637 109.533 261.057 109.867ZM261.927 102.168C261.965 101.59 261.965 101.035 261.927 100.502C261.888 99.8312 261.739 99.3122 261.483 98.9452C261.225 98.5782 260.794 98.5692 260.188 98.9192C259.905 99.0832 259.66 99.2932 259.454 99.5512C259.249 99.8092 259.078 100.091 258.943 100.396C258.807 100.702 258.701 101.016 258.624 101.338C258.547 101.661 258.495 101.978 258.47 102.29C258.443 102.603 258.43 102.957 258.43 103.353C258.43 103.75 258.443 104.089 258.47 104.372C258.495 104.654 258.547 104.912 258.624 105.145C258.701 105.378 258.807 105.57 258.943 105.72C259.079 105.87 259.249 105.955 259.454 105.974C259.66 105.994 259.905 105.922 260.188 105.758C260.794 105.408 261.224 104.902 261.483 104.237C261.739 103.575 261.887 102.884 261.927 102.168Z" fill="#273240"/>
<path d="M272.918 98.082C272.918 97.864 272.87 97.723 272.773 97.66C272.677 97.597 272.513 97.593 272.281 97.647C272.048 97.702 271.743 97.799 271.363 97.939C270.984 98.079 270.51 98.234 269.944 98.402C268.965 98.689 268.212 98.569 267.684 98.04C267.155 97.513 266.892 96.575 266.892 95.227C266.892 94.553 267 93.866 267.219 93.164C267.438 92.463 267.744 91.781 268.137 91.117C268.529 90.454 269.003 89.839 269.557 89.271C270.11 88.704 270.728 88.223 271.411 87.829C272.081 87.442 272.699 87.21 273.266 87.13C273.832 87.051 274.321 87.086 274.734 87.234C275.145 87.383 275.471 87.641 275.709 88.009C275.947 88.377 276.079 88.802 276.105 89.282C276.118 89.493 276.069 89.709 275.96 89.931C275.85 90.153 275.724 90.304 275.583 90.386L273.284 91.713C273.142 91.795 273.03 91.81 272.947 91.76C272.864 91.709 272.763 91.658 272.647 91.606C272.532 91.554 272.38 91.532 272.193 91.541C272.006 91.55 271.745 91.651 271.41 91.844C271.114 92.015 270.867 92.222 270.666 92.467C270.466 92.712 270.367 92.981 270.367 93.278C270.367 93.497 270.398 93.646 270.463 93.728C270.528 93.81 270.656 93.83 270.849 93.788C271.043 93.747 271.314 93.665 271.661 93.543C272.009 93.422 272.466 93.267 273.033 93.078C274.204 92.699 275.057 92.816 275.592 93.429C276.126 94.043 276.393 94.944 276.393 96.133C276.393 96.807 276.284 97.5 276.065 98.211C275.846 98.922 275.524 99.624 275.099 100.315C274.675 101.006 274.16 101.656 273.554 102.263C272.948 102.87 272.259 103.397 271.488 103.843C270.715 104.289 270.036 104.547 269.45 104.617C268.864 104.688 268.371 104.631 267.972 104.445C267.573 104.258 267.266 103.98 267.055 103.607C266.842 103.234 266.723 102.817 266.697 102.357C266.685 102.146 266.733 101.93 266.843 101.708C266.952 101.487 267.078 101.334 267.219 101.253L269.615 99.87C269.756 99.789 269.86 99.784 269.924 99.856C269.988 99.928 270.071 99.999 270.175 100.068C270.278 100.138 270.426 100.171 270.618 100.169C270.812 100.166 271.102 100.053 271.489 99.83C271.875 99.607 272.209 99.335 272.492 99.013C272.776 98.69 272.918 98.38 272.918 98.082Z" fill="#273240"/>
<path d="M281.629 90.4952C281.629 90.7132 281.577 90.9322 281.474 91.1502C281.37 91.3682 281.249 91.5182 281.107 91.5992L278.673 93.0042C278.531 93.0862 278.408 93.0782 278.306 92.9792C278.202 92.8802 278.152 92.7212 278.152 92.5022V79.6852C278.152 79.4672 278.202 79.2492 278.306 79.0312C278.409 78.8132 278.531 78.6632 278.673 78.5812L281.107 77.1762C281.248 77.0942 281.37 77.1042 281.474 77.2032C281.577 77.3022 281.629 77.4612 281.629 77.6792V90.4952ZM281.629 96.8902C281.629 97.1082 281.577 97.3262 281.474 97.5442C281.37 97.7632 281.249 97.9122 281.107 97.9942L278.673 99.3992C278.531 99.4812 278.408 99.4732 278.306 99.3732C278.202 99.2742 278.152 99.1152 278.152 98.8972V95.8932C278.152 95.6752 278.202 95.4582 278.306 95.2392C278.409 95.0212 278.531 94.8712 278.673 94.7892L281.107 93.3842C281.248 93.3022 281.37 93.3112 281.474 93.4102C281.577 93.5102 281.629 93.6682 281.629 93.8862V96.8902Z" fill="#273240"/>
</svg>
