<svg width="24" height="24" viewBox="0 0 24 24" fill="none" xmlns="http://www.w3.org/2000/svg">
<rect width="24" height="24" rx="2" fill="#0066B2" fill-opacity="0.08"/>
<path d="M13.5727 12.5955L13.7538 12.4769C13.7539 12.4768 13.754 12.4767 13.7541 12.4767C16.258 10.8448 16.6188 7.39146 14.5138 5.27126C13.3553 4.09784 11.6502 3.61097 10.0079 3.96333C8.68256 4.24209 7.31097 5.30507 6.74419 6.49152L6.74411 6.49169C6.59462 6.80562 6.42276 7.28998 6.36152 7.58066C5.97037 9.40902 6.73727 11.3265 8.27229 12.38C8.38472 12.4579 8.48688 12.5292 8.56824 12.5878C8.49238 12.6197 8.40179 12.6576 8.3034 12.6988C8.27374 12.7112 8.24337 12.7239 8.21249 12.7368C5.78051 13.741 4.05497 16.1049 3.86883 18.696L3.86873 18.6973L3.86874 18.6973C3.85096 18.9782 3.84174 19.1569 3.85999 19.2825C3.86992 19.3509 3.88846 19.4096 3.92033 19.4647C3.95093 19.5176 3.9899 19.5601 4.02886 19.5991C4.14545 19.7157 4.28433 19.7914 4.4415 19.7886C4.59741 19.7859 4.73788 19.7065 4.8598 19.5845C4.94707 19.4973 5.00485 19.4065 5.04278 19.2592C5.07775 19.1235 5.09645 18.9369 5.11455 18.6582L5.11457 18.6578C5.23457 16.7237 6.57962 14.8395 8.50899 13.9209C9.33987 13.5304 10.0314 13.3748 11.022 13.3748H11.0229C12.1635 13.3677 12.9333 13.5512 13.953 14.0718C13.953 14.0718 13.9531 14.0718 13.9532 14.0719L13.5727 12.5955ZM13.5727 12.5955L13.814 12.692C13.8142 12.6921 13.8144 12.6922 13.8146 12.6922L13.5727 12.5955ZM12.1893 5.22026L12.1884 5.21996C11.4114 4.94939 10.3876 5.00406 9.58977 5.354L9.58951 5.35411C9.21156 5.51904 8.81598 5.81324 8.47471 6.16866C8.13347 6.52404 7.85483 6.93198 7.70349 7.3172L7.70315 7.31806C7.58786 7.60628 7.51864 8.00281 7.50356 8.41178C7.4885 8.82025 7.52798 9.22673 7.62007 9.53395C8.40956 12.1109 11.7233 12.9301 13.6387 11.0148L13.6389 11.0145C15.0765 9.58395 15.0084 7.32482 13.4845 5.95446C13.0936 5.60545 12.7695 5.41838 12.1893 5.22026Z" fill="#0066B2" stroke="#0066B2" stroke-width="0.3"/>
<path d="M19.2942 16.4712H17.8824V15.0594C17.8824 14.8722 17.8081 14.6926 17.6757 14.5603C17.5433 14.4279 17.3638 14.3535 17.1766 14.3535C16.9893 14.3535 16.8098 14.4279 16.6774 14.5603C16.545 14.6926 16.4707 14.8722 16.4707 15.0594L16.4957 16.4712H15.0589C14.8717 16.4712 14.6922 16.5455 14.5598 16.6779C14.4274 16.8103 14.353 16.9898 14.353 17.177C14.353 17.3643 14.4274 17.5438 14.5598 17.6762C14.6922 17.8086 14.8717 17.8829 15.0589 17.8829L16.4957 17.8579L16.4707 19.2947C16.4707 19.4819 16.545 19.6614 16.6774 19.7938C16.8098 19.9262 16.9893 20.0006 17.1766 20.0006C17.3638 20.0006 17.5433 19.9262 17.6757 19.7938C17.8081 19.6614 17.8824 19.4819 17.8824 19.2947V17.8579L19.2942 17.8829C19.4814 17.8829 19.661 17.8086 19.7933 17.6762C19.9257 17.5438 20.0001 17.3643 20.0001 17.177C20.0001 16.9898 19.9257 16.8103 19.7933 16.6779C19.661 16.5455 19.4814 16.4712 19.2942 16.4712Z" fill="#0066B2"/>
</svg>
