<svg width="36" height="36" viewBox="0 0 36 36" fill="none" xmlns="http://www.w3.org/2000/svg">
<path d="M17.7537 4.32056C17.5138 4.39631 17.4097 4.5478 16.4818 6.1574C15.5192 7.83012 12.4389 13.167 7.17452 22.2849C5.26825 25.5894 4.06263 27.6724 3.2673 29.0547C2.5919 30.2256 2.58243 30.2383 2.57296 30.4434C2.55402 30.7779 2.69605 31.021 2.99272 31.1567L3.15052 31.2324H17.9999H32.8492L33.007 31.1567C33.3037 31.021 33.4457 30.7779 33.4268 30.4434L33.4173 30.2383L31.8487 27.524C30.9871 26.0312 29.6773 23.7588 28.9357 22.4743C23.2831 12.6873 20.5973 8.03526 19.5811 6.26786C18.5711 4.51308 18.4891 4.39631 18.2303 4.31741C18.0788 4.27322 17.8989 4.27322 17.7537 4.32056ZM18.0535 6.58978C18.0724 6.63081 19.0098 8.25934 20.1365 10.213C21.2664 12.1666 23.4125 15.8876 24.9117 18.4819C26.4108 21.0762 28.0614 23.9387 28.5822 24.8414C29.1029 25.744 29.9519 27.2147 30.4695 28.1079L31.4069 29.7333L24.7034 29.7428C21.0171 29.7459 14.9827 29.7459 11.2964 29.7428L4.59285 29.7333L5.5302 28.1079C6.0478 27.2147 6.89679 25.744 7.41754 24.8414C7.93829 23.9387 9.58892 21.0762 11.0881 18.4819C12.5872 15.8876 14.7333 12.1666 15.8632 10.213C16.9899 8.25934 17.9273 6.63081 17.9462 6.58978C17.9651 6.55191 17.9872 6.52035 17.9999 6.52035C18.0125 6.52035 18.0346 6.55191 18.0535 6.58978Z" fill="url(#paint0_linear_4296_5567)"/>
<path d="M18.2175 11.4688C17.9587 11.7339 17.8324 11.9043 17.6872 12.1726C17.3243 12.848 17.2549 13.3877 17.3527 14.8773C17.4064 15.7137 17.4 16.386 17.3401 16.3607C17.3243 16.3544 17.2044 16.2155 17.0687 16.0546C16.2418 15.0572 15.4938 14.6059 14.8594 14.7227C14.7553 14.7416 14.6637 14.7669 14.6511 14.7827C14.6385 14.7953 14.7048 14.9594 14.7963 15.1519C15.3233 16.2534 15.579 17.4054 15.5253 18.4626C15.5159 18.6867 15.5001 18.8761 15.4938 18.8824C15.4875 18.8919 15.4086 18.8414 15.317 18.7719C14.9004 18.4563 13.9568 18.1155 13.234 18.0208L13.0636 17.9987L13.2246 18.2007C13.5591 18.6236 13.8968 19.2075 14.0672 19.6556C14.2345 20.1007 14.2882 20.4194 14.2913 20.9591C14.2913 21.4325 14.2377 21.9217 14.184 21.9217C14.1714 21.9217 14.1398 21.8807 14.1083 21.8302C14.0167 21.6724 13.8116 21.4451 13.638 21.3031C13.2845 21.0128 12.849 20.8423 12.3188 20.7887C12.0126 20.7571 11.4351 20.7729 11.4351 20.8139C11.4351 20.8266 11.5108 20.8707 11.6023 20.9181C12.1041 21.1643 12.4608 21.6503 12.7164 22.4393C12.7764 22.6287 12.9216 23.1557 13.0352 23.6071C13.3571 24.8979 13.578 25.4912 13.9378 26.0499C14.1146 26.3213 14.4744 26.7063 14.7426 26.9115C15.115 27.1924 15.7179 27.4638 16.2575 27.5869C17.116 27.7889 18.4068 27.8109 19.4673 27.6468C21.484 27.3344 22.838 26.315 23.5954 24.5381C24.0057 23.5786 24.2393 22.493 24.356 21.0064L24.3718 20.8013L24.3118 21.038C24.1761 21.5556 23.9237 21.9091 23.608 22.0322C23.526 22.0637 23.4534 22.0827 23.4471 22.0764C23.4408 22.07 23.4566 21.928 23.4786 21.7639C23.5449 21.3157 23.5702 20.1732 23.526 19.7756C23.4502 19.1286 23.2861 18.5352 23.021 17.9671L22.9011 17.7083L22.879 17.8662C22.7622 18.7562 22.6865 19.0623 22.5034 19.4095C22.3298 19.7345 22.0521 19.9649 21.7428 20.0407L21.6513 20.0628L21.6734 19.8166C21.8375 18.0713 21.6576 16.8278 21.0737 15.6885C20.938 15.4202 20.5593 14.8205 20.5246 14.8205C20.5151 14.8205 20.5056 14.9594 20.4993 15.1298C20.4835 15.6979 20.3573 16.1619 20.1427 16.468C20.0701 16.5658 19.8176 16.7457 19.7482 16.7457C19.7166 16.7457 19.7166 16.7237 19.7513 16.6416C19.7766 16.5816 19.8144 16.4112 19.8365 16.2597C19.9154 15.7137 19.7703 15.2308 19.2716 14.3692C18.6814 13.3467 18.4889 12.9048 18.3942 12.3777C18.3406 12.0558 18.3342 11.8317 18.3784 11.5256C18.3974 11.4057 18.4068 11.3047 18.4005 11.2984C18.3942 11.292 18.3121 11.3678 18.2175 11.4688ZM18.3248 20.9339C18.5078 21.502 18.6151 22.8433 18.5362 23.5597C18.492 23.9826 18.5047 24.0363 18.6593 24.0363C18.7887 24.0363 19.0286 23.869 19.098 23.7301C19.1327 23.6639 19.2116 23.484 19.2748 23.3325C19.502 22.7802 19.6661 22.5056 19.7292 22.5655C19.7419 22.5782 19.7576 22.7454 19.7608 22.9348C19.7766 23.3767 19.7198 23.5692 19.401 24.1815C19.1201 24.7243 19.1043 24.8316 19.2748 25.002C19.4957 25.223 19.7103 25.1093 20.13 24.557C20.4362 24.1562 20.4993 24.0931 20.5593 24.1531C20.6287 24.2225 20.6287 24.6012 20.5624 24.92C20.4078 25.6585 19.9943 26.3844 19.4262 26.9083C18.7887 27.4953 17.9618 27.6374 17.1917 27.287C16.3112 26.8894 15.6105 25.8416 15.4622 24.6991C15.3991 24.213 15.3865 23.4303 15.4433 23.3419C15.4938 23.2599 15.5853 23.3893 15.9009 24.0047C16.4217 25.021 16.7025 25.3334 17.0024 25.2167C17.1381 25.1662 17.0182 24.6738 16.7909 24.3424C16.7089 24.2256 16.6205 24.0489 16.5921 23.9511C16.4911 23.6039 16.5479 22.9695 16.712 22.5782C16.7878 22.4014 16.8319 22.4077 16.8319 22.594C16.8319 22.9632 16.9487 23.3893 17.0939 23.5534C17.2833 23.768 17.5957 23.8217 17.7788 23.6702C18.0186 23.465 18.0628 23.2599 18.0944 22.1584C18.1228 21.2463 18.1417 20.9907 18.1922 20.855C18.2332 20.7476 18.2743 20.7697 18.3248 20.9339Z" fill="url(#paint1_linear_4296_5567)"/>
<path d="M13.3286 28.7562V29.1191H18.3783H23.4281V28.7562V28.3932H18.3783H13.3286V28.7562Z" fill="url(#paint2_linear_4296_5567)"/>
<defs>
<linearGradient id="paint0_linear_4296_5567" x1="2.57129" y1="30.0294" x2="36.1204" y2="25.8703" gradientUnits="userSpaceOnUse">
<stop stop-color="#0066B2"/>
<stop offset="1" stop-color="#00AEEF"/>
</linearGradient>
<linearGradient id="paint1_linear_4296_5567" x1="11.4351" y1="27.0211" x2="25.6139" y2="25.8145" gradientUnits="userSpaceOnUse">
<stop stop-color="#0066B2"/>
<stop offset="1" stop-color="#00AEEF"/>
</linearGradient>
<linearGradient id="paint2_linear_4296_5567" x1="13.3286" y1="29.0867" x2="16.7394" y2="23.9492" gradientUnits="userSpaceOnUse">
<stop stop-color="#0066B2"/>
<stop offset="1" stop-color="#00AEEF"/>
</linearGradient>
</defs>
</svg>
