<svg width="36" height="36" viewBox="0 0 36 36" fill="none" xmlns="http://www.w3.org/2000/svg">
<path d="M4.48461 2.51838C3.65925 2.80913 3.18093 3.25932 2.78701 4.13157L2.57129 4.59114V17.4873V30.3834L2.81514 30.8993C3.14341 31.5933 3.44354 31.931 4.04379 32.2592L4.54088 32.5406L12.1379 32.5687C16.3209 32.5781 19.8287 32.5687 19.9506 32.5406C20.2226 32.475 20.5321 31.9685 20.5321 31.584C20.5321 31.3776 20.4383 31.1807 20.2601 30.9743L19.9881 30.6648L12.5318 30.6367L5.07549 30.6179L4.84101 30.3834C4.71908 30.2521 4.58778 30.0177 4.55026 29.8582C4.45647 29.3705 4.48461 5.23829 4.5784 4.98506C4.63467 4.85375 4.76598 4.65679 4.87853 4.55363L5.09424 4.35666H15.5612H26.0282L26.2439 4.55363C26.3565 4.65679 26.4878 4.85375 26.5441 4.98506C26.591 5.10699 26.6285 6.69204 26.6285 8.52095V11.8317L26.8629 12.0756C27.1537 12.357 27.482 12.432 27.904 12.3101C28.5512 12.1319 28.5512 12.1412 28.5512 8.15517V4.59114L28.3073 4.07529C27.979 3.38125 27.6789 3.0436 27.0787 2.71534L26.5816 2.43397L15.7019 2.41521C6.97005 2.39645 4.7566 2.41521 4.48461 2.51838Z" fill="url(#paint0_linear_4296_5773)"/>
<path d="M7.76692 10.7243C7.38238 11.1088 7.38238 11.6434 7.76692 12.0655L8.03891 12.375H13.9477C19.8096 12.375 19.8659 12.375 20.1285 12.178C20.6162 11.8123 20.6443 11.1182 20.2035 10.6774L19.9784 10.4523H14.0133H8.03891L7.76692 10.7243Z" fill="url(#paint1_linear_4296_5773)"/>
<path d="M21.9205 13.4627C21.5265 13.5002 20.8794 13.6503 20.4667 13.7816C18.3377 14.4944 16.7995 15.845 15.8429 17.8146C15.1957 19.1464 15.055 19.7935 15.0644 21.3317C15.0644 22.4291 15.1019 22.7104 15.3176 23.442C16.0961 26.0212 17.8969 27.897 20.4386 28.7505C21.1983 29.0037 21.5078 29.06 22.5113 29.0975C24.3215 29.1632 25.8034 28.788 27.0977 27.9345L27.6041 27.5969L29.8176 29.8666L32.0217 32.127L32.4531 32.1176C32.7907 32.1176 32.9408 32.0613 33.119 31.8831C33.4004 31.6017 33.5035 31.1797 33.3722 30.8326C33.3253 30.7013 32.3312 29.604 31.1682 28.4035L29.0579 26.2276L29.5175 25.5241C30.3147 24.3049 30.7555 22.7948 30.7555 21.2942C30.7555 16.539 26.7038 12.9562 21.9205 13.4627ZM23.5805 15.4229C24.5653 15.5636 25.3438 15.8544 26.1129 16.3796C27.3697 17.2143 28.2232 18.4242 28.5983 19.8873C29.3862 22.9637 27.4447 26.19 24.3121 26.9966C23.5993 27.1842 22.2581 27.1842 21.489 27.006C20.0353 26.659 18.6003 25.5804 17.8124 24.2392C16.5932 22.1664 16.7526 19.6435 18.2251 17.702C19.1349 16.5015 20.5793 15.648 22.0799 15.4323C22.849 15.3198 22.8396 15.3198 23.5805 15.4229Z" fill="url(#paint2_linear_4296_5773)"/>
<path d="M8.09586 15.7062C7.47685 15.9595 7.29865 16.8317 7.7676 17.31L8.03959 17.582H11.1534H14.2673L14.5392 17.31C14.9988 16.8411 14.8769 16.0345 14.2954 15.7531C14.0328 15.6406 13.5263 15.6124 11.1347 15.6218C9.57775 15.6218 8.19903 15.6593 8.09586 15.7062Z" fill="url(#paint3_linear_4296_5773)"/>
<path d="M7.97345 20.9957C7.34506 21.3427 7.34506 22.3088 7.96407 22.6745C8.17979 22.8058 8.50806 22.834 9.86801 22.834C10.7778 22.834 11.6219 22.7965 11.7532 22.7402C12.391 22.4963 12.5317 21.596 11.997 21.1176L11.7157 20.8644H9.95242C8.67688 20.8738 8.13289 20.9019 7.97345 20.9957Z" fill="url(#paint4_linear_4296_5773)"/>
<defs>
<linearGradient id="paint0_linear_4296_5773" x1="2.57129" y1="31.2257" x2="31.0045" y2="28.5744" gradientUnits="userSpaceOnUse">
<stop stop-color="#0066B2"/>
<stop offset="1" stop-color="#00AEEF"/>
</linearGradient>
<linearGradient id="paint1_linear_4296_5773" x1="7.47852" y1="12.2892" x2="16.8308" y2="5.4239" gradientUnits="userSpaceOnUse">
<stop stop-color="#0066B2"/>
<stop offset="1" stop-color="#00AEEF"/>
</linearGradient>
<linearGradient id="paint2_linear_4296_5773" x1="15.064" y1="31.2916" x2="35.1114" y2="29.1615" gradientUnits="userSpaceOnUse">
<stop stop-color="#0066B2"/>
<stop offset="1" stop-color="#00AEEF"/>
</linearGradient>
<linearGradient id="paint3_linear_4296_5773" x1="7.50195" y1="17.4944" x2="14.4477" y2="14.6896" gradientUnits="userSpaceOnUse">
<stop stop-color="#0066B2"/>
<stop offset="1" stop-color="#00AEEF"/>
</linearGradient>
<linearGradient id="paint4_linear_4296_5773" x1="7.50098" y1="22.7461" x2="12.4779" y2="21.4259" gradientUnits="userSpaceOnUse">
<stop stop-color="#0066B2"/>
<stop offset="1" stop-color="#00AEEF"/>
</linearGradient>
</defs>
</svg>
