<svg width="40" height="40" viewBox="0 0 40 40" fill="none" xmlns="http://www.w3.org/2000/svg">
<path d="M33.334 33.3334V15.2201L20.0007 7.22008L6.66732 15.2201V33.3334H13.334V28.7501C13.334 26.982 14.0364 25.2863 15.2866 24.036C16.5368 22.7858 18.2325 22.0834 20.0007 22.0834C21.7688 22.0834 23.4645 22.7858 24.7147 24.036C25.9649 25.2863 26.6673 26.982 26.6673 28.7501V33.3334H33.334ZM23.334 36.6667V28.7501C23.334 27.866 22.9828 27.0182 22.3577 26.3931C21.7326 25.7679 20.8847 25.4167 20.0007 25.4167C19.1166 25.4167 18.2688 25.7679 17.6436 26.3931C17.0185 27.0182 16.6673 27.866 16.6673 28.7501V36.6667H6.66732C5.78326 36.6667 4.93542 36.3156 4.3103 35.6904C3.68517 35.0653 3.33398 34.2175 3.33398 33.3334V15.2201C3.33398 14.6445 3.48304 14.0787 3.76664 13.5777C4.05024 13.0768 4.45873 12.6579 4.95232 12.3618L18.2857 4.36175C18.8037 4.05091 19.3965 3.88672 20.0007 3.88672C20.6048 3.88672 21.1976 4.05091 21.7157 4.36175L35.049 12.3618C35.5426 12.6579 35.9511 13.0768 36.2347 13.5777C36.5183 14.0787 36.6673 14.6445 36.6673 15.2201V33.3334C36.6673 34.2175 36.3161 35.0653 35.691 35.6904C35.0659 36.3156 34.218 36.6667 33.334 36.6667H23.334Z" fill="white"/>
</svg>
