<svg width="12" height="12" viewBox="0 0 12 12" fill="none" xmlns="http://www.w3.org/2000/svg">
<path d="M10.9993 6.83073H6.83268V10.9974C6.83268 11.2184 6.74488 11.4304 6.5886 11.5867C6.43232 11.7429 6.22036 11.8307 5.99935 11.8307C5.77834 11.8307 5.56637 11.7429 5.41009 11.5867C5.25381 11.4304 5.16602 11.2184 5.16602 10.9974V6.83073H0.999349C0.778335 6.83073 0.566374 6.74293 0.410093 6.58665C0.253813 6.43037 0.166016 6.21841 0.166016 5.9974C0.166016 5.77638 0.253813 5.56442 0.410093 5.40814C0.566374 5.25186 0.778335 5.16406 0.999349 5.16406H5.16602V0.997396C5.16602 0.776382 5.25381 0.56442 5.41009 0.40814C5.56637 0.25186 5.77834 0.164062 5.99935 0.164062C6.22036 0.164062 6.43232 0.25186 6.5886 0.40814C6.74488 0.56442 6.83268 0.776382 6.83268 0.997396V5.16406H10.9993C11.2204 5.16406 11.4323 5.25186 11.5886 5.40814C11.7449 5.56442 11.8327 5.77638 11.8327 5.9974C11.8327 6.21841 11.7449 6.43037 11.5886 6.58665C11.4323 6.74293 11.2204 6.83073 10.9993 6.83073Z" fill="#273240"/>
</svg>
