<svg width="20" height="20" viewBox="0 0 20 20" fill="none" xmlns="http://www.w3.org/2000/svg">
<path d="M11.0343 0C12.1594 0.00300022 12.7304 0.00900066 13.2234 0.0230017L13.4174 0.0300022C13.6415 0.0380028 13.8625 0.0480035 14.1295 0.0600043C15.1936 0.110008 15.9196 0.27802 16.5567 0.525039C17.2167 0.779057 17.7728 1.12308 18.3288 1.67812C18.8373 2.17806 19.2308 2.78279 19.4819 3.45025C19.7289 4.0873 19.8969 4.81335 19.9469 5.87843C19.9589 6.14445 19.9689 6.36547 19.9769 6.59048L19.9829 6.7845C19.9979 7.27653 20.0039 7.84758 20.0059 8.97266L20.0069 9.71871V11.0288C20.0094 11.7583 20.0017 12.4877 19.9839 13.217L19.9779 13.411C19.9699 13.636 19.9599 13.857 19.9479 14.123C19.8979 15.1881 19.7279 15.9132 19.4819 16.5512C19.2315 17.219 18.838 17.8239 18.3288 18.3233C17.8287 18.8317 17.224 19.2252 16.5567 19.4764C15.9196 19.7234 15.1936 19.8915 14.1295 19.9415C13.8922 19.9526 13.6548 19.9626 13.4174 19.9715L13.2234 19.9775C12.7304 19.9915 12.1594 19.9985 11.0343 20.0005L10.2882 20.0015H8.97912C8.24933 20.004 7.51954 19.9963 6.78996 19.9785L6.59594 19.9725C6.35854 19.9635 6.12118 19.9531 5.88389 19.9415C4.81981 19.8915 4.09376 19.7234 3.45571 19.4764C2.78833 19.2258 2.18384 18.8322 1.68458 18.3233C1.17559 17.8236 0.781741 17.2188 0.530498 16.5512C0.28348 15.9142 0.115468 15.1881 0.0654642 14.123C0.0543222 13.8857 0.0443214 13.6484 0.035462 13.411L0.0304618 13.217C0.0120325 12.4877 0.00369764 11.7583 0.00545986 11.0288V8.97266C0.00266868 8.2432 0.0100033 7.51375 0.0274615 6.7845L0.034462 6.59048C0.0424626 6.36547 0.0524633 6.14445 0.0644642 5.87843C0.114468 4.81335 0.28248 4.0883 0.529498 3.45025C0.780631 2.78211 1.17527 2.17718 1.68558 1.67812C2.18471 1.16956 2.78881 0.776044 3.45571 0.525039C4.09376 0.27802 4.81881 0.110008 5.88389 0.0600043C6.14991 0.0480035 6.37193 0.0380028 6.59594 0.0300022L6.78996 0.0240017C7.5192 0.00623316 8.24866 -0.0014348 8.97812 0.001L11.0343 0ZM10.0062 5.00037C8.68001 5.00037 7.40815 5.52719 6.4704 6.46494C5.53265 7.40269 5.00583 8.67455 5.00583 10.0007C5.00583 11.3269 5.53265 12.5988 6.4704 13.5365C7.40815 14.4743 8.68001 15.0011 10.0062 15.0011C11.3324 15.0011 12.6042 14.4743 13.542 13.5365C14.4797 12.5988 15.0066 11.3269 15.0066 10.0007C15.0066 8.67455 14.4797 7.40269 13.542 6.46494C12.6042 5.52719 11.3324 5.00037 10.0062 5.00037ZM10.0062 7.00051C10.4002 7.00045 10.7903 7.07799 11.1544 7.2287C11.5184 7.37941 11.8492 7.60035 12.1278 7.8789C12.4065 8.15745 12.6275 8.48816 12.7783 8.85214C12.9292 9.21611 13.0068 9.60624 13.0069 10.0002C13.007 10.3942 12.9294 10.7844 12.7787 11.1484C12.628 11.5124 12.4071 11.8432 12.1285 12.1219C11.85 12.4005 11.5193 12.6215 11.1553 12.7724C10.7913 12.9232 10.4012 13.0009 10.0072 13.001C9.21148 13.001 8.44837 12.6849 7.88572 12.1222C7.32307 11.5596 7.00697 10.7964 7.00697 10.0007C7.00697 9.20503 7.32307 8.44191 7.88572 7.87926C8.44837 7.31661 9.21148 7.00051 10.0072 7.00051M15.2576 3.50026C14.926 3.50026 14.6081 3.63196 14.3736 3.8664C14.1392 4.10084 14.0075 4.4188 14.0075 4.75035C14.0075 5.08189 14.1392 5.39986 14.3736 5.6343C14.6081 5.86873 14.926 6.00044 15.2576 6.00044C15.5891 6.00044 15.9071 5.86873 16.1415 5.6343C16.376 5.39986 16.5077 5.08189 16.5077 4.75035C16.5077 4.4188 16.376 4.10084 16.1415 3.8664C15.9071 3.63196 15.5891 3.50026 15.2576 3.50026Z" fill="#0066B2"/>
</svg>
