<svg width="52" height="52" viewBox="0 0 52 52" fill="none" xmlns="http://www.w3.org/2000/svg">
<path d="M47.4861 0.830524C49.2194 1.80552 51.0611 4.69441 51.6028 7.29441C51.8194 8.26941 52 10.2916 52 11.7361V14.4444H48.9306H45.8972L45.7889 31.4889C45.6806 47.0166 45.6083 48.6777 45.0306 49.725C43.8028 52.0361 44.1278 52 24.6639 52C12.9278 52 6.57222 51.8555 5.59722 51.6027C2.49166 50.7361 -3.8147e-06 46.5472 -3.8147e-06 42.25V40.0833H3.25H6.5V22.1C6.5 5.3083 6.53611 4.04441 7.18611 2.88885C7.54722 2.20275 8.37778 1.26385 9.02777 0.794411L10.2194 -3.05176e-05H28.1306H46.0417L47.4861 0.830524ZM10.6167 4.11663C10.1833 4.73052 10.1111 7.79997 10.1111 22.4611V40.0833H24.7361H39.3611V42.6111C39.3611 45.2472 39.9028 47.125 40.9139 47.9555C42.1778 49.0027 42.25 47.5583 42.25 26.2889C42.25 14.4444 42.3944 5.09163 42.575 4.40552L42.9361 3.21386L27.0472 3.32219C11.7722 3.43052 11.1222 3.46663 10.6167 4.11663ZM45.8611 8.19719V10.8333H47.125C48.2083 10.8333 48.3889 10.725 48.3889 10.0027C48.3889 8.84719 47.4861 5.88608 46.9083 5.19997C46.1861 4.3333 45.8611 5.27219 45.8611 8.19719ZM3.61111 43.875C3.61111 44.6694 4.80278 46.6194 5.74166 47.4139L6.93333 48.3889H21.7389H36.5444L36.3278 47.5583C36.2194 47.125 36.0028 46.0777 35.8944 45.2111L35.6417 43.6944H19.6444C10.8333 43.6944 3.61111 43.7666 3.61111 43.875Z" fill="url(#paint0_linear_1912_83)"/>
<path d="M30.6944 9.02756C30.6944 9.822 30.4417 10.2192 29.6833 10.6164C28.4556 11.2664 27.8056 12.5664 27.8056 14.4081C27.8056 16.1776 28.8167 17.2248 31.4889 18.2359C32.5722 18.6692 33.4028 19.2109 33.4028 19.4998C33.4028 20.2581 31.3806 20.3664 29.7556 19.6803C29.0333 19.3914 28.3833 19.1748 28.3472 19.2109C28.1667 19.4637 27.4444 21.847 27.4444 22.2081C27.4444 22.4609 28.1667 22.8581 29.0694 23.1109C30.5139 23.5081 30.6944 23.6887 30.6944 24.5914C30.6944 25.6026 30.7667 25.6387 32.5 25.6387C34.2333 25.6387 34.3056 25.6026 34.3056 24.6276C34.3056 23.8692 34.5944 23.472 35.5333 22.9664C36.9056 22.2442 37.5556 21.0887 37.5556 19.3192C37.5556 17.6581 36.1833 16.1414 33.7639 15.1303C32.6444 14.6609 31.8139 14.1192 31.8861 13.9387C32.0306 13.4692 33.5833 13.4692 35.2806 13.8664C36.4 14.1192 36.4361 14.0831 36.8333 12.6387C37.3028 10.8692 37.1944 10.6164 35.5694 10.3276C34.45 10.1109 34.3056 9.93034 34.3056 9.02756C34.3056 7.98034 34.2694 7.94423 32.5 7.94423C30.7306 7.94423 30.6944 7.98034 30.6944 9.02756Z" fill="url(#paint1_linear_1912_83)"/>
<path d="M23.4722 11.9171V13.7227H18.2361H13V11.9171V10.1115H18.2361H23.4722V11.9171Z" fill="url(#paint2_linear_1912_83)"/>
<path d="M23.4722 18.7775V20.583H18.2361H13V18.7775V16.9719H18.2361H23.4722V18.7775Z" fill="url(#paint3_linear_1912_83)"/>
<path d="M23.4722 26.0001V27.8057H18.2361H13V26.0001V24.1946H18.2361H23.4722V26.0001Z" fill="url(#paint4_linear_1912_83)"/>
<path d="M37.1944 33.2218V35.0273H25.0972H13V33.2218V31.4162H25.0972H37.1944V33.2218Z" fill="url(#paint5_linear_1912_83)"/>
<defs>
<linearGradient id="paint0_linear_1912_83" x1="52" y1="49.6786" x2="-4.74032" y2="43.5357" gradientUnits="userSpaceOnUse">
<stop stop-color="#0066B2"/>
<stop offset="1" stop-color="#00AEEF"/>
</linearGradient>
<linearGradient id="paint1_linear_1912_83" x1="27.4444" y1="24.8487" x2="38.564" y2="24.1608" gradientUnits="userSpaceOnUse">
<stop stop-color="#0066B2"/>
<stop offset="1" stop-color="#00AEEF"/>
</linearGradient>
<linearGradient id="paint2_linear_1912_83" x1="23.4722" y1="13.5614" x2="12.9487" y2="10.2575" gradientUnits="userSpaceOnUse">
<stop stop-color="#0066B2"/>
<stop offset="1" stop-color="#00AEEF"/>
</linearGradient>
<linearGradient id="paint3_linear_1912_83" x1="23.4722" y1="20.4218" x2="12.9487" y2="17.1178" gradientUnits="userSpaceOnUse">
<stop stop-color="#0066B2"/>
<stop offset="1" stop-color="#00AEEF"/>
</linearGradient>
<linearGradient id="paint4_linear_1912_83" x1="23.4722" y1="27.6445" x2="12.9487" y2="24.3405" gradientUnits="userSpaceOnUse">
<stop stop-color="#0066B2"/>
<stop offset="1" stop-color="#00AEEF"/>
</linearGradient>
<linearGradient id="paint5_linear_1912_83" x1="37.1944" y1="34.8661" x2="19.6933" y2="22.1714" gradientUnits="userSpaceOnUse">
<stop stop-color="#0066B2"/>
<stop offset="1" stop-color="#00AEEF"/>
</linearGradient>
</defs>
</svg>
