<svg width="16" height="16" viewBox="0 0 16 16" fill="none" xmlns="http://www.w3.org/2000/svg">
<path d="M4 6.5C4 6.36739 4.05268 6.24022 4.14645 6.14645C4.24021 6.05268 4.36739 6 4.5 6H8.5C8.63261 6 8.75979 6.05268 8.85355 6.14645C8.94732 6.24022 9 6.36739 9 6.5C9 6.63261 8.94732 6.75978 8.85355 6.85355C8.75979 6.94732 8.63261 7 8.5 7H4.5C4.36739 7 4.24021 6.94732 4.14645 6.85355C4.05268 6.75978 4 6.63261 4 6.5ZM4.66667 8.5C4.66667 8.36739 4.71935 8.24022 4.81311 8.14645C4.90688 8.05268 5.03406 8 5.16667 8H8.5C8.63261 8 8.75979 8.05268 8.85355 8.14645C8.94732 8.24022 9 8.36739 9 8.5C9 8.63261 8.94732 8.75978 8.85355 8.85355C8.75979 8.94732 8.63261 9 8.5 9H5.16667C5.03406 9 4.90688 8.94732 4.81311 8.85355C4.71935 8.75978 4.66667 8.63261 4.66667 8.5ZM4.5 10C4.36739 10 4.24021 10.0527 4.14645 10.1464C4.05268 10.2402 4 10.3674 4 10.5C4 10.6326 4.05268 10.7598 4.14645 10.8536C4.24021 10.9473 4.36739 11 4.5 11H8.5C8.63261 11 8.75979 10.9473 8.85355 10.8536C8.94732 10.7598 9 10.6326 9 10.5C9 10.3674 8.94732 10.2402 8.85355 10.1464C8.75979 10.0527 8.63261 10 8.5 10H4.5Z" fill="#273240"/>
<path fill-rule="evenodd" clip-rule="evenodd" d="M4 14.4999H12.6667C13.1529 14.4999 13.6192 14.3068 13.963 13.9629C14.3068 13.6191 14.5 13.1528 14.5 12.6666V8.99992C14.5 8.86731 14.4473 8.74013 14.3536 8.64636C14.2598 8.5526 14.1326 8.49992 14 8.49992H11.8333V3.29525C11.8333 2.34658 10.7607 1.79458 9.98867 2.34592L9.872 2.42925C9.61653 2.6106 9.31087 2.7078 8.99757 2.70732C8.68428 2.70685 8.37892 2.60871 8.124 2.42658C7.69841 2.1237 7.18903 1.96094 6.66667 1.96094C6.1443 1.96094 5.63492 2.1237 5.20933 2.42658C4.95441 2.60871 4.64906 2.70685 4.33576 2.70732C4.02246 2.7078 3.71681 2.6106 3.46133 2.42925L3.34467 2.34592C2.57267 1.79458 1.5 2.34592 1.5 3.29525V11.9999C1.5 12.663 1.76339 13.2988 2.23223 13.7677C2.70107 14.2365 3.33696 14.4999 4 14.4999ZM5.79067 3.23992C6.04663 3.05821 6.35277 2.9606 6.66667 2.9606C6.98057 2.9606 7.2867 3.05821 7.54267 3.23992C7.96714 3.54333 8.47571 3.70673 8.99747 3.70732C9.51923 3.70792 10.0282 3.54569 10.4533 3.24325L10.57 3.15992C10.5949 3.14219 10.6242 3.13165 10.6547 3.12945C10.6852 3.12725 10.7157 3.13348 10.7429 3.14745C10.77 3.16142 10.7929 3.1826 10.8088 3.20866C10.8248 3.23473 10.8333 3.26469 10.8333 3.29525V12.6666C10.8333 12.9666 10.9053 13.2499 11.0333 13.4999H4C3.60218 13.4999 3.22064 13.3419 2.93934 13.0606C2.65804 12.7793 2.5 12.3977 2.5 11.9999V3.29525C2.50008 3.26469 2.50856 3.23473 2.52452 3.20866C2.54048 3.1826 2.5633 3.16142 2.59048 3.14745C2.61767 3.13348 2.64817 3.12725 2.67866 3.12945C2.70914 3.13165 2.73844 3.14219 2.76333 3.15992L2.88 3.24325C3.30516 3.54569 3.81411 3.70792 4.33587 3.70732C4.85763 3.70673 5.3662 3.54333 5.79067 3.23992ZM11.8333 12.6666V9.49992H13.5V12.6666C13.5 12.8876 13.4122 13.0996 13.2559 13.2558C13.0996 13.4121 12.8877 13.4999 12.6667 13.4999C12.4457 13.4999 12.2337 13.4121 12.0774 13.2558C11.9211 13.0996 11.8333 12.8876 11.8333 12.6666Z" fill="#273240"/>
</svg>
