<svg width="18" height="18" viewBox="0 0 18 18" fill="none" xmlns="http://www.w3.org/2000/svg">
<path d="M16 0.00195312C16.5304 0.00195313 17.0391 0.212667 17.4142 0.587739C17.7893 0.962812 18 1.47152 18 2.00195V16.002C18 16.5324 17.7893 17.0411 17.4142 17.4162C17.0391 17.7912 16.5304 18.002 16 18.002H2C1.46957 18.002 0.960859 17.7912 0.585786 17.4162C0.210714 17.0411 0 16.5324 0 16.002V2.00195C0 1.47152 0.210714 0.962812 0.585786 0.587739C0.960859 0.212667 1.46957 0.00195313 2 0.00195312H16ZM15.5 15.502V10.202C15.5 9.33735 15.1565 8.50815 14.5452 7.89678C13.9338 7.28542 13.1046 6.94195 12.24 6.94195C11.39 6.94195 10.4 7.46195 9.92 8.24195V7.13195H7.13V15.502H9.92V10.572C9.92 9.80195 10.54 9.17195 11.31 9.17195C11.6813 9.17195 12.0374 9.31945 12.2999 9.582C12.5625 9.84455 12.71 10.2006 12.71 10.572V15.502H15.5ZM3.88 5.56195C4.32556 5.56195 4.75288 5.38495 5.06794 5.06989C5.383 4.75483 5.56 4.32752 5.56 3.88195C5.56 2.95195 4.81 2.19195 3.88 2.19195C3.43178 2.19195 3.00193 2.37001 2.68499 2.68694C2.36805 3.00388 2.19 3.43374 2.19 3.88195C2.19 4.81195 2.95 5.56195 3.88 5.56195ZM5.27 15.502V7.13195H2.5V15.502H5.27Z" fill="#0066B2"/>
</svg>
