<svg width="74" height="53" viewBox="0 0 74 53" fill="none" xmlns="http://www.w3.org/2000/svg">
<g clip-path="url(#clip0_1511_6567)">
<path d="M5.83284 49.3341C5.83284 49.1693 5.80981 49.0203 5.76375 48.887C5.71768 48.7538 5.62659 48.6276 5.49093 48.5089C5.35527 48.3902 5.1649 48.2726 4.92018 48.1561C4.67546 48.0399 4.35427 47.9163 3.95696 47.7853C3.49159 47.6302 3.04326 47.4558 2.61186 47.2619C2.18034 47.0681 1.79743 46.838 1.46311 46.5713C1.12856 46.3046 0.86081 45.9932 0.65962 45.6368C0.458431 45.2805 0.357893 44.865 0.357893 44.39C0.357893 43.9344 0.459582 43.5236 0.663305 43.1575C0.866798 42.7915 1.15044 42.4802 1.5139 42.2232C1.87735 41.9661 2.3076 41.7676 2.80441 41.6269C3.30122 41.4864 3.84283 41.416 4.42947 41.416C5.00632 41.416 5.53699 41.4935 6.02183 41.6486C6.50666 41.8038 6.92332 42.0244 7.27238 42.3103C7.62132 42.5963 7.89391 42.9417 8.09027 43.3464C8.28662 43.7513 8.38485 44.2033 8.38485 44.7024H5.8401C5.8401 44.5038 5.8097 44.3208 5.74924 44.1534C5.68855 43.9862 5.59642 43.8432 5.47285 43.7244C5.34928 43.6057 5.19669 43.5124 5.01485 43.4446C4.833 43.3768 4.61857 43.3428 4.37132 43.3428C4.1289 43.3428 3.91573 43.3707 3.73147 43.4265C3.54721 43.4824 3.39335 43.5599 3.26978 43.6592C3.14621 43.7584 3.05293 43.8724 2.98994 44.0008C2.92694 44.1292 2.89551 44.2663 2.89551 44.4116C2.89551 44.5716 2.9403 44.7158 3.0299 44.8442C3.1195 44.9726 3.24802 45.094 3.41535 45.2079C3.58257 45.3218 3.78606 45.4283 4.02606 45.5277C4.26594 45.6271 4.53623 45.7253 4.83669 45.8223C5.3988 46.0017 5.90056 46.2003 6.34175 46.4185C6.78282 46.6366 7.15468 46.8864 7.45779 47.1674C7.7609 47.4484 7.991 47.766 8.14854 48.1198C8.30597 48.4736 8.38485 48.8735 8.38485 49.3194C8.38485 49.7944 8.29145 50.2174 8.10489 50.5881C7.91833 50.959 7.65415 51.2705 7.31246 51.5225C6.97077 51.7746 6.55872 51.9661 6.07642 52.0969C5.59411 52.2277 5.05722 52.2932 4.46598 52.2932C4.10253 52.2932 3.74137 52.2629 3.38276 52.2024C3.02391 52.1419 2.68096 52.0485 2.35389 51.9225C2.02683 51.7966 1.72142 51.6377 1.43777 51.4462C1.15413 51.2547 0.909292 51.0259 0.703381 50.7592C0.497355 50.4925 0.335092 50.1897 0.216244 49.8503C0.0973958 49.5109 0.0380859 49.1328 0.0380859 48.716H2.59735C2.59735 49.0262 2.63858 49.2867 2.72092 49.4977C2.80326 49.7087 2.92441 49.8796 3.08437 50.0104C3.24433 50.1414 3.43942 50.2346 3.66974 50.2903C3.89984 50.3461 4.16529 50.3738 4.46586 50.3738C4.70828 50.3738 4.91557 50.3461 5.08751 50.2903C5.25945 50.2346 5.40133 50.1595 5.51293 50.0649C5.62429 49.9704 5.70548 49.8601 5.75638 49.7341C5.80728 49.6081 5.83284 49.4749 5.83284 49.3341Z" fill="#0066B2"/>
<path d="M15.1541 49.3341C15.1541 49.1693 15.1311 49.0203 15.085 48.887C15.039 48.7538 14.9479 48.6276 14.8122 48.5089C14.6766 48.3902 14.4862 48.2726 14.2415 48.1561C13.9967 48.0399 13.6756 47.9163 13.2782 47.7853C12.8129 47.6302 12.3645 47.4558 11.9331 47.2619C11.5016 47.0681 11.1187 46.838 10.7844 46.5713C10.4499 46.3046 10.1821 45.9932 9.98091 45.6368C9.77972 45.2805 9.67918 44.865 9.67918 44.39C9.67918 43.9344 9.78087 43.5236 9.98459 43.1575C10.1881 42.7915 10.4717 42.4802 10.8352 42.2232C11.1986 41.9661 11.6289 41.7676 12.1257 41.6269C12.6225 41.4864 13.1641 41.416 13.7508 41.416C14.3276 41.416 14.8583 41.4935 15.3431 41.6486C15.828 41.8038 16.2446 42.0244 16.5937 42.3103C16.9426 42.5963 17.2152 42.9417 17.4116 43.3464C17.6079 43.7513 17.7061 44.2033 17.7061 44.7024H15.1614C15.1614 44.5038 15.131 44.3208 15.0705 44.1534C15.0098 43.9862 14.9177 43.8432 14.7941 43.7244C14.6706 43.6057 14.518 43.5124 14.3361 43.4446C14.1543 43.3768 13.9399 43.3428 13.6926 43.3428C13.4502 43.3428 13.237 43.3707 13.0528 43.4265C12.8685 43.4824 12.7146 43.5599 12.5911 43.6592C12.4675 43.7584 12.3742 43.8724 12.3112 44.0008C12.2482 44.1292 12.2168 44.2663 12.2168 44.4116C12.2168 44.5716 12.2616 44.7158 12.3512 44.8442C12.4408 44.9726 12.5693 45.094 12.7366 45.2079C12.9039 45.3218 13.1073 45.4283 13.3473 45.5277C13.5872 45.6271 13.8575 45.7253 14.158 45.8223C14.7201 46.0017 15.2218 46.2003 15.663 46.4185C16.1041 46.6366 16.476 46.8864 16.7791 47.1674C17.0822 47.4484 17.3123 47.766 17.4698 48.1198C17.6273 48.4736 17.7061 48.8735 17.7061 49.3194C17.7061 49.7944 17.6127 50.2174 17.4262 50.5881C17.2396 50.959 16.9754 51.2705 16.6337 51.5225C16.2921 51.7746 15.88 51.9661 15.3977 52.0969C14.9154 52.2277 14.3785 52.2932 13.7873 52.2932C13.4238 52.2932 13.0627 52.2629 12.704 52.2024C12.3452 52.1419 12.0022 52.0485 11.6752 51.9225C11.3481 51.7966 11.0427 51.6377 10.7591 51.4462C10.4754 51.2547 10.2306 51.0259 10.0247 50.7592C9.81864 50.4925 9.65638 50.1897 9.53753 49.8503C9.41868 49.5109 9.35938 49.1328 9.35938 48.716H11.9186C11.9186 49.0262 11.9599 49.2867 12.0422 49.4977C12.1245 49.7087 12.2457 49.8796 12.4057 50.0104C12.5656 50.1414 12.7607 50.2346 12.991 50.2903C13.2211 50.3461 13.4866 50.3738 13.7872 50.3738C14.0296 50.3738 14.2369 50.3461 14.4088 50.2903C14.5807 50.2346 14.7226 50.1595 14.8342 50.0649C14.9456 49.9704 15.0268 49.8601 15.0777 49.7341C15.1286 49.6081 15.1541 49.4749 15.1541 49.3341Z" fill="#0066B2"/>
<path d="M19.0151 52.1479V41.5615H22.425C23.1422 41.5615 23.8015 41.6851 24.4026 41.9323C25.0036 42.1796 25.5211 42.5274 25.955 42.9758C26.3888 43.4243 26.7269 43.9598 26.9693 44.5826C27.2115 45.2055 27.3328 45.8903 27.3328 46.6366V47.0802C27.3328 47.8317 27.2115 48.5175 26.9693 49.1379C26.7269 49.7584 26.3888 50.2917 25.955 50.7376C25.5211 51.1835 25.0061 51.53 24.4099 51.7773C23.8136 52.0245 23.1617 52.148 22.4541 52.148H19.0151V52.1479ZM21.5671 43.5321V50.1847H22.4542C23.1861 50.1847 23.7484 49.9243 24.141 49.4032C24.5336 48.8821 24.73 48.1078 24.73 47.0801V46.622C24.73 45.5994 24.5336 44.8287 24.141 44.3101C23.7484 43.7915 23.1763 43.5321 22.4251 43.5321H21.5671Z" fill="#0066B2"/>
<path d="M40.9367 52.1479H39.0974L34.3786 44.6371V52.1479H32.5391V41.5615H34.3786L39.1117 49.1015V41.5615H40.9367V52.1479Z" fill="#00AEEF"/>
<path d="M42.6094 48.142C42.6094 47.5701 42.6929 47.0406 42.8602 46.5535C43.0274 46.0663 43.2672 45.6435 43.58 45.2847C43.8927 44.926 44.2744 44.6449 44.7251 44.4412C45.1759 44.2377 45.6873 44.1357 46.2593 44.1357C46.8361 44.1357 47.3524 44.2375 47.8079 44.4412C48.2635 44.6449 48.6477 44.9259 48.9605 45.2847C49.273 45.6436 49.5119 46.0664 49.6767 46.5535C49.8415 47.0405 49.9239 47.5701 49.9239 48.142V48.2948C49.9239 48.8669 49.8415 49.3978 49.6767 49.8872C49.5119 50.3769 49.273 50.7996 48.9605 51.1559C48.6477 51.5123 48.2648 51.7908 47.8117 51.9919C47.3585 52.1931 46.8458 52.2936 46.274 52.2936C45.6971 52.2936 45.1821 52.1931 44.7289 51.9919C44.2757 51.7907 43.8927 51.5121 43.58 51.1559C43.2672 50.7997 43.0274 50.3768 42.8602 49.8872C42.6929 49.3978 42.6094 48.867 42.6094 48.2948V48.142ZM44.3762 48.2948C44.3762 48.6486 44.4126 48.9832 44.4853 49.2983C44.5579 49.6133 44.6718 49.8885 44.8269 50.1235C44.9821 50.3587 45.1795 50.5441 45.4195 50.6798C45.6593 50.8154 45.9441 50.8832 46.2739 50.8832C46.5985 50.8832 46.8808 50.8154 47.1209 50.6798C47.3608 50.5441 47.5571 50.3587 47.7098 50.1235C47.8624 49.8885 47.9763 49.6133 48.0515 49.2983C48.1266 48.9832 48.1641 48.6486 48.1641 48.2948V48.142C48.1641 47.7931 48.1265 47.4623 48.0515 47.1497C47.9763 46.8369 47.8613 46.563 47.7062 46.3281C47.5512 46.0932 47.3535 45.9052 47.1137 45.7647C46.8737 45.6242 46.5891 45.5539 46.2593 45.5539C45.9296 45.5539 45.6471 45.6242 45.4122 45.7647C45.1773 45.9052 44.9822 46.0932 44.8271 46.3281C44.6719 46.563 44.558 46.837 44.4854 47.1497C44.4127 47.4623 44.3763 47.7932 44.3763 48.142V48.2948H44.3762Z" fill="#00AEEF"/>
<path d="M51.0875 48.1557C51.0875 47.5595 51.1589 47.0144 51.3021 46.5199C51.445 46.0254 51.651 45.6012 51.92 45.2475C52.189 44.8939 52.5151 44.6199 52.898 44.426C53.2809 44.232 53.7122 44.135 54.1923 44.135C54.6285 44.135 55.0125 44.2102 55.3446 44.3604C55.6766 44.5107 55.9663 44.7264 56.2135 45.0075V40.9795H57.9802V52.1474H56.3807L56.2934 51.333C56.0414 51.6385 55.742 51.8748 55.3955 52.0419C55.049 52.209 54.6431 52.2927 54.1777 52.2927C53.7026 52.2927 53.2747 52.1922 52.8943 51.991C52.5137 51.7898 52.1902 51.5124 51.9235 51.1586C51.6568 50.8048 51.451 50.3844 51.3055 49.897C51.1601 49.4099 51.0874 48.8803 51.0874 48.3083V48.1557H51.0875ZM52.8543 48.3083C52.8543 48.6574 52.8869 48.986 52.9525 49.2937C53.018 49.6014 53.1221 49.8717 53.2652 50.1043C53.4082 50.3369 53.5912 50.5199 53.8141 50.6533C54.0371 50.7866 54.3086 50.8532 54.6285 50.8532C55.0259 50.8532 55.3519 50.7649 55.6064 50.5878C55.8608 50.4109 56.0632 50.177 56.2136 49.8862V46.527C56.0632 46.2362 55.8597 46.0061 55.6027 45.8364C55.3457 45.6666 55.026 45.5817 54.6431 45.5817C54.3231 45.5817 54.0503 45.6498 53.825 45.7855C53.5996 45.9211 53.4153 46.1054 53.2725 46.338C53.1295 46.5706 53.024 46.8434 52.9561 47.1559C52.8883 47.4687 52.8545 47.8019 52.8545 48.1556V48.3083H52.8543Z" fill="#00AEEF"/>
<path d="M63.2878 52.2928C62.706 52.2928 62.1826 52.1958 61.7172 52.002C61.2518 51.8082 60.8567 51.5417 60.532 51.2023C60.2073 50.8629 59.9576 50.4605 59.7831 49.9953C59.6087 49.53 59.5215 49.0283 59.5215 48.4902V48.1992C59.5215 47.5787 59.6134 47.0177 59.7976 46.516C59.9819 46.0142 60.2339 45.5879 60.5538 45.2364C60.8737 44.8849 61.2505 44.6135 61.6844 44.422C62.1182 44.2305 62.5848 44.1348 63.0842 44.1348C63.6561 44.1348 64.1529 44.2305 64.5746 44.422C64.9962 44.6135 65.3451 44.8814 65.6215 45.2255C65.8979 45.5697 66.104 45.9792 66.2396 46.4543C66.3753 46.9293 66.4431 47.4504 66.4431 48.0174V48.7735H61.3027C61.3268 49.079 61.391 49.3602 61.4954 49.6171C61.5996 49.874 61.7414 50.0957 61.9208 50.2824C62.1 50.4689 62.3121 50.6157 62.5568 50.7222C62.8016 50.8289 63.0792 50.8822 63.3895 50.8822C63.8257 50.8822 64.2048 50.7951 64.5273 50.6205C64.8495 50.4459 65.1296 50.2061 65.367 49.9005L66.3197 50.8094C66.1936 50.9985 66.0372 51.1815 65.8506 51.3583C65.664 51.5355 65.4459 51.6929 65.1964 51.8311C64.9466 51.9693 64.6643 52.0806 64.3492 52.1654C64.0341 52.2502 63.6804 52.2928 63.2878 52.2928ZM63.0769 45.5529C62.5922 45.5529 62.2007 45.7225 61.9028 46.0618C61.6047 46.4012 61.4144 46.8737 61.3321 47.4796H64.6984V47.3487C64.6838 47.1161 64.6462 46.8919 64.5858 46.6761C64.5251 46.4605 64.4317 46.2691 64.3058 46.1016C64.1797 45.9344 64.0161 45.8012 63.8149 45.7018C63.6137 45.6024 63.3677 45.5529 63.0769 45.5529Z" fill="#00AEEF"/>
<path d="M72.2243 50.0107C72.2243 49.8847 72.2036 49.767 72.1623 49.6579C72.1211 49.5489 72.0399 49.4472 71.9189 49.3525C71.7976 49.2581 71.6268 49.1695 71.4062 49.0871C71.1855 49.0046 70.8984 48.9271 70.5446 48.8544C70.1228 48.7674 69.7388 48.6583 69.3923 48.5272C69.0458 48.3964 68.7488 48.2377 68.5016 48.0509C68.2544 47.8644 68.0617 47.645 67.9235 47.3929C67.7853 47.1409 67.7165 46.8501 67.7165 46.5205C67.7165 46.2006 67.7866 45.8965 67.9273 45.6081C68.0678 45.3196 68.2703 45.0663 68.5345 44.8483C68.7987 44.6303 69.1183 44.4569 69.4941 44.3284C69.8699 44.1999 70.2904 44.1357 70.7557 44.1357C71.2452 44.1357 71.6851 44.2 72.0753 44.3284C72.4654 44.4568 72.7963 44.6339 73.0679 44.8592C73.3392 45.0847 73.5465 45.3501 73.6895 45.6554C73.8324 45.9608 73.9041 46.2903 73.9041 46.644H72.1372C72.1372 46.4939 72.1081 46.3472 72.0499 46.2042C71.9917 46.0613 71.9044 45.9341 71.7882 45.8225C71.672 45.7109 71.5275 45.6226 71.3556 45.5571C71.1837 45.4916 70.9836 45.4588 70.7558 45.4588C70.5327 45.4588 70.339 45.4867 70.174 45.5426C70.0091 45.5984 69.8723 45.6712 69.7633 45.7608C69.6542 45.8504 69.5729 45.9546 69.5196 46.0734C69.4662 46.1921 69.4396 46.317 69.4396 46.4476C69.4396 46.5787 69.4637 46.6949 69.5123 46.7967C69.5609 46.8985 69.6469 46.9906 69.7705 47.0731C69.894 47.1555 70.06 47.2318 70.2684 47.302C70.4767 47.3724 70.7386 47.4415 71.0538 47.5093C71.5094 47.6063 71.9177 47.7202 72.2789 47.851C72.6398 47.9821 72.9452 48.142 73.195 48.3309C73.4445 48.52 73.6348 48.7429 73.7657 48.9999C73.8966 49.2568 73.9621 49.562 73.9621 49.9158C73.9621 50.2648 73.8869 50.5847 73.7366 50.8755C73.5863 51.1663 73.3719 51.4171 73.0931 51.628C72.8143 51.8389 72.4788 52.0026 72.0861 52.1189C71.6935 52.235 71.2571 52.2933 70.7774 52.2933C70.2393 52.2933 69.763 52.2168 69.3487 52.0644C68.9343 51.9118 68.5864 51.7116 68.3054 51.4645C68.0242 51.2172 67.8121 50.9374 67.6691 50.6247C67.5261 50.3122 67.4546 49.9935 67.4546 49.6685H69.1705C69.1851 49.911 69.2409 50.1145 69.3378 50.2794C69.4347 50.4442 69.5583 50.5775 69.7086 50.6793C69.8588 50.7811 70.0285 50.8549 70.2176 50.901C70.4066 50.947 70.6005 50.9701 70.7991 50.9701C71.2645 50.9701 71.6183 50.8818 71.8606 50.7049C72.1029 50.528 72.2243 50.2967 72.2243 50.0107Z" fill="#00AEEF"/>
<path d="M11.5264 18.7312L30.2576 37.4624L48.9888 18.7312L30.2576 0L11.5264 18.7312ZM47.776 18.7312L30.2576 36.2497L12.7393 18.7312L30.2577 1.21278L47.776 18.7312Z" fill="#0066B2"/>
<path d="M32.8837 15.979L45.864 3.04043L61.5548 18.7312L45.8639 34.4219L39.6101 28.1263L39.0669 28.6694L45.864 35.5082L62.641 18.7311L45.8639 1.9541L32.3405 15.4357C32.1876 15.5887 32.191 15.8377 32.3481 15.9862C32.4992 16.1293 32.7367 16.126 32.8837 15.979Z" fill="#00AEEF"/>
<path d="M30.2574 17.1426C29.4528 17.1426 28.8008 17.7947 28.8008 18.5992C28.8008 19.4036 29.4529 20.0557 30.2574 20.0557C31.0619 20.0557 31.7139 19.4036 31.7139 18.5992C31.7139 17.7947 31.0619 17.1426 30.2574 17.1426ZM30.2574 19.4732C29.7747 19.4732 29.3834 19.0819 29.3834 18.5993C29.3834 18.1166 29.7747 17.7253 30.2574 17.7253C30.74 17.7253 31.1313 18.1166 31.1313 18.5993C31.1313 19.0819 30.7401 19.4732 30.2574 19.4732Z" fill="#00AEEF"/>
</g>
<defs>
<clipPath id="clip0_1511_6567">
<rect width="74" height="52.2933" fill="white"/>
</clipPath>
</defs>
</svg>
