<svg width="16" height="16" viewBox="0 0 16 16" fill="none" xmlns="http://www.w3.org/2000/svg">
<path d="M4.66667 7.33268H6V8.66602H4.66667V7.33268ZM14 3.33268V12.666C14 13.406 13.4067 13.9993 12.6667 13.9993H3.33333C2.97971 13.9993 2.64057 13.8589 2.39052 13.6088C2.14048 13.3588 2 13.0196 2 12.666V3.33268C2 2.59935 2.6 1.99935 3.33333 1.99935H4V0.666016H5.33333V1.99935H10.6667V0.666016H12V1.99935H12.6667C13.0203 1.99935 13.3594 2.13982 13.6095 2.38987C13.8595 2.63992 14 2.97906 14 3.33268ZM3.33333 4.66602H12.6667V3.33268H3.33333V4.66602ZM12.6667 12.666V5.99935H3.33333V12.666H12.6667ZM10 8.66602V7.33268H11.3333V8.66602H10ZM7.33333 8.66602V7.33268H8.66667V8.66602H7.33333ZM4.66667 9.99935H6V11.3327H4.66667V9.99935ZM10 11.3327V9.99935H11.3333V11.3327H10ZM7.33333 11.3327V9.99935H8.66667V11.3327H7.33333Z" fill="#273240"/>
</svg>
