<svg width="24" height="24" viewBox="0 0 24 24" fill="none" xmlns="http://www.w3.org/2000/svg">
<rect width="24" height="24" rx="2" fill="#0066B2" fill-opacity="0.08"/>
<g clip-path="url(#clip0_3702_1782)">
<path fill-rule="evenodd" clip-rule="evenodd" d="M6.28439 4H14.5573C15.1627 4.0014 15.743 4.24253 16.1711 4.67063C16.5992 5.09873 16.8403 5.67896 16.8417 6.28439V11.3778C16.8403 11.9832 16.5992 12.5634 16.1711 12.9915C15.743 13.4196 15.1627 13.6608 14.5573 13.6622H10.2316L6.76384 16.6438C6.70642 16.6944 6.63522 16.7268 6.55932 16.7368C6.48343 16.7468 6.40628 16.7339 6.33772 16.6998C6.26917 16.6658 6.21232 16.6121 6.17443 16.5455C6.13655 16.479 6.11934 16.4027 6.12501 16.3264L6.30962 13.6608H6.28439C5.67919 13.6594 5.09916 13.4185 4.6711 12.9907C4.24303 12.5629 4.00175 11.983 4 11.3778V6.28439C4.0014 5.67896 4.24253 5.09873 4.67063 4.67063C5.09873 4.24253 5.67896 4.0014 6.28439 4ZM10.986 9.93011H9.48385V9.86901C9.47677 9.65797 9.50597 9.44728 9.57018 9.24612C9.63073 9.08519 9.72082 8.93699 9.83581 8.80916C10.0763 8.562 10.3327 8.33085 10.6035 8.11721C10.8169 7.94012 10.9235 7.78075 10.9235 7.63908C10.9265 7.57646 10.9162 7.51391 10.8933 7.45555C10.8704 7.39718 10.8355 7.34431 10.7907 7.30041C10.6806 7.21205 10.541 7.16884 10.4003 7.17955C10.3142 7.17689 10.2286 7.19217 10.1488 7.22441C10.069 7.25665 9.99679 7.30515 9.93675 7.36681C9.81323 7.489 9.73487 7.70681 9.70167 8.01361L8.17033 7.81838C8.20012 7.30464 8.41753 6.81973 8.78127 6.45571C9.13544 6.11217 9.68396 5.9404 10.4268 5.9404C11.0019 5.9404 11.4641 6.05993 11.8187 6.299C12.0409 6.43435 12.224 6.62512 12.3502 6.8526C12.4764 7.08008 12.5413 7.33645 12.5386 7.59658C12.5389 7.8273 12.4749 8.05356 12.3539 8.25002C12.147 8.54631 11.8904 8.80466 11.5956 9.0137C11.3988 9.15232 11.228 9.32451 11.0909 9.52237C11.0164 9.6464 10.9799 9.78954 10.986 9.93409V9.93011ZM9.43206 10.4175H11.0391V11.5703H9.43206V10.4175ZM18.1831 7.71877C18.6935 7.81834 19.1536 8.09185 19.4849 8.49267C19.8162 8.89349 19.9983 9.39681 20 9.91682V15.0076C19.9982 15.6005 19.7619 16.1687 19.3426 16.5881C18.9233 17.0074 18.3551 17.2437 17.7621 17.2455H17.6798L17.8683 19.9602C17.8727 20.0263 17.8574 20.0922 17.8244 20.1497C17.7915 20.2072 17.7424 20.2538 17.6832 20.2835C17.6239 20.3133 17.5573 20.3249 17.4915 20.317C17.4257 20.3091 17.3637 20.282 17.3132 20.2391L13.8282 17.1578H9.24479L11.5026 14.8601H16.2839C16.7872 14.8587 17.2694 14.6582 17.6253 14.3023C17.9812 13.9464 18.1817 13.4642 18.1831 12.9609V7.86619C18.1831 7.81572 18.1831 7.76525 18.1831 7.71611V7.71877ZM14.556 4.77032H6.28439C5.88326 4.77172 5.49896 4.93168 5.21532 5.21532C4.93168 5.49896 4.77172 5.88326 4.77032 6.28439V11.3778C4.76996 11.78 4.92915 12.166 5.21298 12.4511C5.49681 12.7362 5.88211 12.8971 6.28439 12.8985H6.75322C6.85473 12.9056 6.94928 12.9527 7.01622 13.0293C7.08316 13.106 7.11705 13.206 7.11048 13.3075L6.96041 15.4631L9.8212 13.0034C9.89174 12.9329 9.9871 12.8928 10.0868 12.8918H14.556C14.9571 12.8904 15.3414 12.7305 15.6251 12.4468C15.9087 12.1632 16.0687 11.7789 16.0701 11.3778V6.28439C16.0687 5.88326 15.9087 5.49896 15.6251 5.21532C15.3414 4.93168 14.9571 4.77172 14.556 4.77032Z" fill="#0066B2"/>
</g>
<defs>
<clipPath id="clip0_3702_1782">
<rect width="16" height="16.3201" fill="white" transform="translate(4 4)"/>
</clipPath>
</defs>
</svg>
