<svg width="36" height="36" viewBox="0 0 36 36" fill="none" xmlns="http://www.w3.org/2000/svg">
<path d="M29.9309 3.99893C28.8883 4.27614 28.0989 5.18612 27.9482 6.27086C27.888 6.6686 27.906 6.91568 28.0326 7.53036C28.0687 7.70513 27.9603 7.81963 25.851 9.92885L23.6273 12.1465L23.1332 11.8452C21.0722 10.6038 18.6496 10.4953 16.456 11.5379L16.0582 11.7307L15.9196 11.5921C15.8473 11.5138 15.2266 10.8027 14.5336 10.0132C13.5392 8.86219 13.2922 8.54882 13.3163 8.44637C13.3343 8.37405 13.3946 8.13902 13.4488 7.92208C13.6115 7.28931 13.491 6.49383 13.1415 5.89723C12.5268 4.84864 11.2432 4.32435 10.044 4.63772C9.1159 4.87877 8.32645 5.6622 8.08539 6.57218C7.75394 7.85579 8.35658 9.21774 9.51363 9.78422C10.0259 10.0313 10.6948 10.1398 11.201 10.0434C11.5385 9.98309 11.5927 9.98309 11.6771 10.0795C11.8217 10.2362 14.1599 12.942 14.2503 13.0505C14.3166 13.1349 14.2805 13.2132 13.9912 13.5929C13.3645 14.4245 12.9065 15.4912 12.7257 16.5337C12.6051 17.1966 12.6112 18.3115 12.7317 18.9503C12.7859 19.2335 12.8402 19.5288 12.8522 19.6132C12.8763 19.7518 12.6172 19.9507 9.83303 21.9213L6.7837 24.0787L6.37994 23.916C5.32533 23.4941 4.05377 23.7653 3.31856 24.5668C2.78824 25.1454 2.57129 25.7058 2.57129 26.4832C2.57129 27.8813 3.52948 28.9962 4.91554 29.2131C6.27146 29.418 7.63944 28.5322 7.995 27.2064C8.03718 27.0557 8.07334 26.6941 8.07937 26.3988L8.08539 25.8625L10.978 23.8015L13.8707 21.7405L13.9852 21.8972C14.0454 21.9815 14.3588 22.313 14.6782 22.6264C15.2748 23.2169 15.8594 23.6448 16.4741 23.9341C16.6669 24.0245 16.8356 24.1088 16.8477 24.1209C16.8658 24.1269 16.8477 24.2233 16.8055 24.3318C16.7694 24.4343 16.6247 24.844 16.4921 25.2297L16.239 25.9348L15.992 25.971C15.8533 25.9951 15.552 26.1036 15.317 26.212C13.4067 27.122 13.2198 29.8158 14.9795 30.9909C15.4556 31.3103 15.9136 31.4429 16.5223 31.4429C17.2394 31.4429 17.7155 31.2802 18.282 30.8342C19.2582 30.0568 19.5656 28.6346 18.9991 27.4776C18.8846 27.2425 18.6918 26.9472 18.5712 26.8207L18.3543 26.5796L18.6918 25.6094L19.0353 24.6331L19.885 24.597C20.7046 24.5668 20.9396 24.5247 21.9821 24.2113C22.0424 24.1932 22.5185 24.7175 23.5249 25.9348L24.9772 27.6885L24.8567 28.0018C24.4891 28.9721 24.7543 30.1533 25.5075 30.9065C26.5802 31.9792 28.346 31.9853 29.4066 30.9186C30.9734 29.3518 30.178 26.6881 28.0085 26.2361C27.7192 26.1759 26.9599 26.1819 26.755 26.2482C26.7188 26.2602 26.08 25.5431 25.3328 24.6572L23.9829 23.0361L24.465 22.554C26.1704 20.8245 26.8394 18.197 26.1644 15.8467C26.0198 15.3285 25.5558 14.304 25.2966 13.9183L25.1761 13.7315L27.4179 11.4957L29.6597 9.2539L30.0213 9.33827C31.4375 9.68177 32.8295 8.9104 33.3056 7.53036C33.4683 7.06031 33.4683 6.25881 33.3117 5.79478C33.0586 5.06559 32.5584 4.49911 31.8894 4.17972C31.2446 3.87238 30.6119 3.81211 29.9309 3.99893ZM20.4394 14.1895C21.711 14.5149 22.7656 15.5816 23.091 16.8712C23.4345 18.2271 22.874 19.7879 21.7351 20.6437C20.7407 21.397 19.5415 21.5958 18.3844 21.2102C17.8059 21.0173 17.4805 20.8245 17.0586 20.4388C16.3234 19.7699 15.8292 18.6791 15.8292 17.733C15.8292 17.3171 16.0161 16.5819 16.233 16.1179C16.6548 15.232 17.6974 14.3944 18.6737 14.1533C19.1618 14.0388 19.903 14.0509 20.4394 14.1895Z" fill="url(#paint0_linear_4296_5099)"/>
<defs>
<linearGradient id="paint0_linear_4296_5099" x1="2.57129" y1="30.4728" x2="36.1519" y2="26.4406" gradientUnits="userSpaceOnUse">
<stop stop-color="#0066B2"/>
<stop offset="1" stop-color="#00AEEF"/>
</linearGradient>
</defs>
</svg>
