<svg width="24" height="24" viewBox="0 0 24 24" fill="none" xmlns="http://www.w3.org/2000/svg">
<path d="M4.37587 1.09955C4.25972 1.17268 4.14787 1.28882 4.09625 1.38777C4.01452 1.55123 4.01452 1.77063 4.00161 10.7614C3.99731 15.8246 4.00161 20.0103 4.01452 20.0619C4.03603 20.1479 6.31168 22.8107 6.47945 22.9484C6.53537 22.9871 7.89904 23 12.9795 23H19.4064L19.5913 22.8925C19.7247 22.815 19.8064 22.7247 19.8882 22.5569L20 22.3246L19.9871 21.0685L19.9742 19.8081L19.8709 19.7263C19.7419 19.6188 19.5612 19.6231 19.4193 19.7349L19.3074 19.821V21.0212C19.3074 22.2128 19.3074 22.2214 19.2128 22.2859C19.1267 22.3461 18.4729 22.3547 13.0827 22.3547H7.05159L7.03868 21.2191C7.02578 19.95 7.02578 19.9629 6.70314 19.7392C6.56548 19.6489 6.52677 19.6446 5.62339 19.6446H4.6813V10.7012V1.75342L4.77594 1.68889C4.85337 1.63297 4.99963 1.62006 5.48143 1.62006C6.17402 1.62006 6.22994 1.59425 6.22994 1.28883C6.22994 0.992002 6.18262 0.974794 5.32227 0.974794H4.56945L4.37587 1.09955ZM6.359 21.0212C6.359 21.3997 6.35039 21.7095 6.34179 21.7095C6.32028 21.7095 5.22763 20.4619 5.18031 20.3845C5.1545 20.3458 5.28355 20.3329 5.75244 20.3329H6.359V21.0212Z" fill="#273240"/>
<path d="M6.94413 1.05694C6.90111 1.10426 6.8667 1.2118 6.8667 1.29784C6.8667 1.38387 6.90111 1.49142 6.94413 1.53874C7.01726 1.62047 7.13341 1.62047 13.0656 1.62047C18.4729 1.62047 19.1268 1.62908 19.2129 1.6893L19.3075 1.75383V10.3101V18.8664L19.4193 18.9524C19.5613 19.0643 19.742 19.0686 19.871 18.961L19.9743 18.8793L19.9872 10.2628L19.9958 1.64628L19.8839 1.41829C19.8065 1.25052 19.7248 1.16018 19.5914 1.08275L19.4064 0.975203H13.2119C7.13771 0.975203 7.01726 0.975203 6.94413 1.05694Z" fill="#273240"/>
<path d="M15.3156 3.00902C15.1994 3.13377 15.1951 3.34026 15.3027 3.47361C15.3844 3.57686 15.3887 3.57686 16.4598 3.58976C17.5267 3.60267 17.5353 3.60267 17.6428 3.50373C17.802 3.36177 17.8149 3.13807 17.6729 2.99612C17.5912 2.91438 17.531 2.91008 16.4986 2.91008C15.4145 2.91008 15.4059 2.91008 15.3156 3.00902Z" fill="#273240"/>
<path d="M14.025 4.30088C13.9089 4.42564 13.9046 4.63212 14.0121 4.76548L14.0939 4.86872L15.8146 4.88163L17.5353 4.89453L17.6471 4.79559C17.802 4.65363 17.8149 4.42994 17.673 4.28798C17.5912 4.20624 17.531 4.20194 15.8533 4.20194H14.1154L14.025 4.30088Z" fill="#273240"/>
<path d="M14.025 5.59037C13.9089 5.71512 13.9046 5.9216 14.0121 6.05496L14.0939 6.1582H15.8404C17.5267 6.1582 17.5869 6.1539 17.6687 6.07217C17.802 5.93451 17.802 5.70651 17.673 5.57746C17.5912 5.49573 17.531 5.49142 15.8533 5.49142H14.1154L14.025 5.59037Z" fill="#273240"/>
<path d="M7.17644 8.15089C7.04738 8.25413 7.04738 8.52084 7.17213 8.6499L7.26677 8.74023H10.4458H13.6248L13.7238 8.64559C13.8571 8.51224 13.8528 8.26273 13.7195 8.15519C13.6248 8.07776 13.4829 8.07346 10.4458 8.07346C7.46036 8.07346 7.26677 8.07776 7.17644 8.15089Z" fill="#273240"/>
<path d="M6.31609 9.43995C6.18703 9.54319 6.18703 9.80991 6.31178 9.93896L6.40642 10.0293H11.9945H17.5825L17.6771 9.93896C17.8019 9.80991 17.8019 9.54319 17.6728 9.43995C17.5825 9.36682 17.2943 9.36252 11.9945 9.36252C6.69464 9.36252 6.40642 9.36682 6.31609 9.43995Z" fill="#273240"/>
<path d="M6.31609 10.731C6.18703 10.8342 6.18703 11.1009 6.31178 11.23L6.40642 11.3203H11.9945H17.5825L17.6771 11.23C17.8019 11.1009 17.8019 10.8342 17.6728 10.731C17.5825 10.6578 17.2943 10.6535 11.9945 10.6535C6.69464 10.6535 6.40642 10.6578 6.31609 10.731Z" fill="#273240"/>
<path d="M7.17644 12.022C7.04738 12.1252 7.04738 12.3919 7.17213 12.521L7.26677 12.6113H10.4458H13.6248L13.7238 12.5167C13.8571 12.3833 13.8528 12.1338 13.7195 12.0263C13.6248 11.9489 13.4829 11.9445 10.4458 11.9445C7.46036 11.9445 7.26677 11.9489 7.17644 12.022Z" fill="#273240"/>
<path d="M6.31609 13.313C6.18703 13.4162 6.18703 13.683 6.31178 13.812L6.40642 13.9023H11.9945H17.5825L17.6771 13.812C17.8019 13.683 17.8019 13.4162 17.6728 13.313C17.5825 13.2399 17.2943 13.2356 11.9945 13.2356C6.69464 13.2356 6.40642 13.2399 6.31609 13.313Z" fill="#273240"/>
<path d="M6.31609 14.6021C6.18703 14.7053 6.18703 14.972 6.31178 15.1011L6.40642 15.1914H11.9945H17.5825L17.6771 15.1011C17.8019 14.972 17.8019 14.7053 17.6728 14.6021C17.5825 14.5289 17.2943 14.5246 11.9945 14.5246C6.69464 14.5246 6.40642 14.5289 6.31609 14.6021Z" fill="#273240"/>
<path d="M6.31609 15.8931C6.18703 15.9963 6.18703 16.263 6.31178 16.3921L6.40642 16.4824H11.9945H17.5825L17.6771 16.3921C17.8019 16.263 17.8019 15.9963 17.6728 15.8931C17.5825 15.8199 17.2943 15.8156 11.9945 15.8156C6.69464 15.8156 6.40642 15.8199 6.31609 15.8931Z" fill="#273240"/>
<path d="M7.15902 17.1884C7.05148 17.3088 7.06008 17.567 7.17193 17.6831C7.26227 17.7691 7.29668 17.7734 8.50979 17.7734C9.7401 17.7734 9.75731 17.7734 9.85195 17.6788C9.9724 17.5583 9.9767 17.3174 9.86486 17.1927C9.79172 17.111 9.74441 17.1067 8.50979 17.1067C7.30098 17.1067 7.22785 17.111 7.15902 17.1884Z" fill="#273240"/>
<path d="M13.5946 19.3558C13.543 19.4117 13.5 19.5107 13.5 19.5838C13.5 19.7301 13.6075 19.9021 13.6936 19.9021C13.728 19.9021 13.8614 19.9968 13.9904 20.1129C14.369 20.4571 14.7303 20.4485 15.096 20.0914L15.2465 19.9452L15.3455 20.0785C15.4874 20.2721 15.7843 20.3925 16.0252 20.3538C16.1757 20.3323 16.2704 20.2807 16.4252 20.1344C16.5371 20.0312 16.6489 19.9452 16.6704 19.9452C16.6962 19.9452 16.7651 19.9064 16.8296 19.8548C16.9156 19.786 16.9414 19.7301 16.9414 19.5967C16.9414 19.3687 16.8253 19.2569 16.593 19.2569C16.3822 19.2569 16.2833 19.3042 16.0725 19.5064L15.9133 19.6569L15.767 19.5021C15.5993 19.3214 15.453 19.2569 15.2207 19.2569C14.9884 19.2569 14.868 19.3128 14.6873 19.4978L14.5324 19.6612L14.369 19.5064C14.1625 19.3085 14.0592 19.2569 13.8527 19.2569C13.7366 19.2569 13.6592 19.287 13.5946 19.3558Z" fill="#273240"/>
</svg>
