<svg width="20" height="23" viewBox="0 0 20 23" fill="none" xmlns="http://www.w3.org/2000/svg">
<path d="M7.94003 1.38873C8.10604 0.978416 8.39081 0.627028 8.75782 0.379605C9.12483 0.132183 9.55737 0 10 0C10.4426 0 10.8752 0.132183 11.2422 0.379605C11.6092 0.627028 11.894 0.978416 12.06 1.38873C13.703 1.84059 15.1523 2.81932 16.1852 4.17461C17.2181 5.5299 17.7776 7.18679 17.7776 8.89083V14.1096L19.8132 17.1629C19.9248 17.3302 19.9889 17.5247 19.9987 17.7257C20.0085 17.9266 19.9635 18.1264 19.8686 18.3037C19.7737 18.4811 19.6324 18.6294 19.4599 18.7327C19.2873 18.8361 19.0899 18.8907 18.8887 18.8907H13.8499C13.7162 19.8163 13.2533 20.6628 12.5463 21.275C11.8392 21.8872 10.9353 22.2242 10 22.2242C9.06473 22.2242 8.16076 21.8872 7.45371 21.275C6.74665 20.6628 6.28384 19.8163 6.15006 18.8907H1.11126C0.910104 18.8907 0.712713 18.8361 0.540147 18.7327C0.367581 18.6294 0.226313 18.4811 0.131415 18.3037C0.0365172 18.1264 -0.00845069 17.9266 0.0013087 17.7257C0.0110681 17.5247 0.0751887 17.3302 0.18683 17.1629L2.22235 14.1096V8.89083C2.22235 5.30866 4.64453 2.29094 7.94003 1.38873ZM8.42892 18.8907C8.54367 19.2158 8.75645 19.4974 9.03793 19.6965C9.31941 19.8957 9.65574 20.0027 10.0006 20.0027C10.3454 20.0027 10.6817 19.8957 10.9632 19.6965C11.2447 19.4974 11.4574 19.2158 11.5722 18.8907H8.42892ZM10 3.33536C8.5266 3.33536 7.11355 3.92067 6.07169 4.96252C5.02984 6.00437 4.44454 7.41743 4.44454 8.89083V14.4463C4.44459 14.6658 4.37963 14.8803 4.25787 15.0629L3.18789 16.6685H16.811L15.741 15.0629C15.6196 14.8802 15.5551 14.6657 15.5555 14.4463V8.89083C15.5555 7.41743 14.9702 6.00437 13.9283 4.96252C12.8865 3.92067 11.4734 3.33536 10 3.33536Z" fill="#00AEEF"/>
</svg>
