<svg width="36" height="36" viewBox="0 0 36 36" fill="none" xmlns="http://www.w3.org/2000/svg">
<path d="M3.22384 4.59613C3.07864 4.67478 2.87899 4.85628 2.77614 4.99543L2.59464 5.25558L2.57649 15.3833C2.56439 25.3234 2.56439 25.517 2.67934 25.7469C2.83664 26.0494 3.16939 26.3338 3.45374 26.4124C3.76834 26.5032 11.7059 26.5032 12.0205 26.4124C12.5408 26.2672 12.9099 25.7469 12.9099 25.148C12.9099 24.5248 12.5408 24.0287 11.9661 23.8835C11.7967 23.8412 10.6532 23.817 8.65069 23.817H5.58939L5.39579 23.6415L5.19614 23.4661L5.17799 15.5648C5.15984 6.79228 5.14169 7.31863 5.55309 7.14923C5.74064 7.07058 7.28944 7.05848 17.5442 7.07058L29.3175 7.08873L29.4929 7.28838L29.6684 7.48198V10.2105C29.6684 12.08 29.6926 13.0238 29.741 13.2113C29.8378 13.5925 30.2673 14.0402 30.6364 14.137C31.1869 14.2822 31.7919 14.0704 32.1186 13.6046L32.3001 13.3384L32.3183 9.43007C32.3364 5.10433 32.3485 5.22533 31.9492 4.81998C31.5681 4.42673 32.6873 4.45698 17.4292 4.45698H3.49004L3.22384 4.59613Z" fill="url(#paint0_linear_4296_791)"/>
<path d="M19.9279 12.7328C19.813 12.7873 19.1475 13.1503 18.4517 13.5314C17.3143 14.1546 17.1691 14.2574 17.0118 14.4934C16.8001 14.8322 16.7819 15.2799 16.9634 15.8002C17.1449 16.3326 17.1752 16.7137 17.0602 17.1493C16.7698 18.2928 15.947 19.0188 14.7854 19.1579C14.1018 19.2426 13.9142 19.3455 13.7267 19.7266C13.3092 20.5797 13.279 23.4353 13.6783 24.4275C13.8114 24.7723 14.132 25.0264 14.4164 25.0264C15.4267 25.0264 16.4008 25.6012 16.8303 26.4542C17.1752 27.1379 17.2115 27.7187 16.9634 28.4507C16.7517 29.0618 16.8243 29.5942 17.1631 29.9269C17.2478 30.0116 17.8951 30.4049 18.603 30.8041C19.6738 31.4031 19.94 31.5241 20.1941 31.5483C20.6902 31.5906 20.9625 31.4817 21.4283 31.0582C22.959 29.6486 23.691 29.6426 25.264 31.0219C25.8388 31.5301 26.1897 31.6753 26.6313 31.5906C26.831 31.5543 29.136 30.3262 29.5656 30.0358C29.6563 29.9693 29.7834 29.818 29.8439 29.691C30.0435 29.3038 30.0556 29.0678 29.9104 28.5838C29.7108 27.9546 29.6745 27.6461 29.735 27.2347C29.9286 26.0005 31.0902 25.0264 32.3788 25.0264C32.6692 25.0264 32.9657 24.8268 33.1109 24.5243C33.5344 23.641 33.5344 20.5978 33.1109 19.7206C32.9294 19.3455 32.7479 19.2487 32.1005 19.17C31.3745 19.0853 30.8845 18.8494 30.4368 18.3775C30.0556 17.9782 29.8197 17.5063 29.735 16.986C29.6624 16.5504 29.6805 16.4112 29.8923 15.7215C30.0314 15.2617 30.0435 15.1831 29.977 14.9048C29.856 14.3845 29.7229 14.2695 28.3253 13.4951C26.8491 12.6784 26.6616 12.5997 26.2804 12.6542C25.9235 12.7086 25.7117 12.8236 25.3306 13.1684C24.6651 13.7734 23.9693 14.1364 23.4672 14.1364C22.9529 14.1364 22.2451 13.7613 21.5554 13.1261C21.3678 12.9506 21.1137 12.7631 20.9927 12.7147C20.7023 12.5937 20.182 12.5997 19.9279 12.7328ZM21.4162 15.776C21.6764 16.0543 22.36 16.4899 22.7533 16.629C23.2191 16.7984 23.8362 16.7984 24.296 16.6351C24.6469 16.508 25.2943 16.1027 25.6815 15.7699L25.8993 15.5824L26.8189 16.0845C27.4965 16.4596 27.7203 16.6109 27.6961 16.6774C27.1879 18.0205 27.7022 19.5572 28.9243 20.3256C29.1663 20.4829 29.7168 20.6825 30.1222 20.7672L30.3642 20.8217L30.4428 21.4267C30.5033 21.9046 30.5033 22.1769 30.4489 22.7153C30.4126 23.0904 30.3581 23.4111 30.3339 23.4232C30.3037 23.4413 30.1403 23.4837 29.9588 23.5139C29.5172 23.5986 28.8517 23.9314 28.5068 24.2339C27.5933 25.0506 27.2605 26.4058 27.6961 27.5674C27.7203 27.634 27.5146 27.7792 26.9036 28.1119C26.4498 28.36 26.0324 28.5899 25.9719 28.6201C25.8872 28.6625 25.7904 28.608 25.5423 28.3842C24.8345 27.7429 24.0661 27.3859 23.4127 27.3859C22.8138 27.392 22.0091 27.7731 21.3255 28.3902L21.0351 28.6564L20.1639 28.1664C19.6859 27.9002 19.2866 27.6703 19.2745 27.6582C19.2624 27.6521 19.3048 27.4827 19.3592 27.2891C19.4923 26.8354 19.4923 26.1275 19.3532 25.6617C19.0446 24.5848 18.1674 23.768 17.0723 23.5381C16.8303 23.4897 16.6307 23.4413 16.6186 23.4353C16.6125 23.4292 16.5762 23.1751 16.5339 22.8787C16.4673 22.3705 16.4855 21.5537 16.5762 21.0213C16.6125 20.8035 16.6186 20.8035 17.0118 20.7309C18.1129 20.5192 19.0446 19.6722 19.3532 18.5953C19.4863 18.1415 19.4863 17.3974 19.3592 16.9557C19.2987 16.7621 19.2624 16.5988 19.2745 16.5867C19.3713 16.4959 21.0714 15.5945 21.144 15.5884C21.1924 15.5884 21.3134 15.6731 21.4162 15.776Z" fill="url(#paint1_linear_4296_791)"/>
<path d="M22.6806 18.1892C21.882 18.3586 21.2407 18.7035 20.6599 19.2843C19.9278 20.0224 19.5769 20.8089 19.5225 21.8495C19.462 23.0474 19.831 24.0335 20.6538 24.8503C21.0289 25.2314 21.2225 25.3645 21.6884 25.5884C22.003 25.7396 22.4023 25.8909 22.5777 25.9272C23.0375 26.024 23.945 26.0058 24.4048 25.8969C25.633 25.6126 26.7401 24.6083 27.1697 23.3801C27.3814 22.7993 27.4298 21.7406 27.2846 21.1537C27.1092 20.458 26.7401 19.7925 26.2561 19.3145C25.4575 18.522 24.6771 18.1832 23.5881 18.1529C23.2251 18.1408 22.8137 18.159 22.6806 18.1892ZM24.1265 20.2462C24.7618 20.4882 25.2579 21.0932 25.3547 21.7648C25.4636 22.4424 25.2518 23.0353 24.7315 23.5072C24.3443 23.8641 23.9269 24.0214 23.3884 24.0154C22.6443 24.0093 21.8941 23.4709 21.6218 22.7509C21.2467 21.7345 21.7791 20.5971 22.8197 20.216C23.1585 20.0889 23.7393 20.1071 24.1265 20.2462Z" fill="url(#paint2_linear_4296_791)"/>
<defs>
<linearGradient id="paint0_linear_4296_791" x1="2.57129" y1="25.4973" x2="34.7301" y2="20.7937" gradientUnits="userSpaceOnUse">
<stop stop-color="#0066B2"/>
<stop offset="1" stop-color="#00AEEF"/>
</linearGradient>
<linearGradient id="paint1_linear_4296_791" x1="13.3955" y1="30.7657" x2="35.226" y2="28.2718" gradientUnits="userSpaceOnUse">
<stop stop-color="#0066B2"/>
<stop offset="1" stop-color="#00AEEF"/>
</linearGradient>
<linearGradient id="paint2_linear_4296_791" x1="19.5161" y1="25.6402" x2="28.0835" y2="24.7114" gradientUnits="userSpaceOnUse">
<stop stop-color="#0066B2"/>
<stop offset="1" stop-color="#00AEEF"/>
</linearGradient>
</defs>
</svg>
