<svg width="20" height="20" viewBox="0 0 20 20" fill="none" xmlns="http://www.w3.org/2000/svg">
<g opacity="0.8">
<path d="M12.7253 16.7024C12.3604 17.0673 11.772 17.0673 11.4071 16.7024L5.21781 10.5131C5.14877 10.4442 5.09399 10.3624 5.05661 10.2723C5.01924 10.1822 5 10.0856 5 9.98804C5 9.8905 5.01924 9.79391 5.05661 9.70381C5.09399 9.61371 5.14877 9.53187 5.21781 9.46296L11.4071 3.27371C11.772 2.90876 12.3604 2.90876 12.7253 3.27371C13.0903 3.63866 13.0903 4.22705 12.7253 4.592L7.33303 9.99177L12.7328 15.3915C13.0903 15.749 13.0903 16.3449 12.7253 16.7024Z" fill="#273240"/>
</g>
</svg>
