<svg width="40" height="40" viewBox="0 0 40 40" fill="none" xmlns="http://www.w3.org/2000/svg">
<path fill-rule="evenodd" clip-rule="evenodd" d="M26.6668 15.0007C26.6668 16.7688 25.9645 18.4645 24.7142 19.7147C23.464 20.9649 21.7683 21.6673 20.0002 21.6673C18.2321 21.6673 16.5364 20.9649 15.2861 19.7147C14.0359 18.4645 13.3335 16.7688 13.3335 15.0007C13.3335 13.2325 14.0359 11.5368 15.2861 10.2866C16.5364 9.03636 18.2321 8.33398 20.0002 8.33398C21.7683 8.33398 23.464 9.03636 24.7142 10.2866C25.9645 11.5368 26.6668 13.2325 26.6668 15.0007ZM23.3335 15.0007C23.3335 15.8847 22.9823 16.7326 22.3572 17.3577C21.7321 17.9828 20.8842 18.334 20.0002 18.334C19.1161 18.334 18.2683 17.9828 17.6431 17.3577C17.018 16.7326 16.6668 15.8847 16.6668 15.0007C16.6668 14.1166 17.018 13.2687 17.6431 12.6436C18.2683 12.0185 19.1161 11.6673 20.0002 11.6673C20.8842 11.6673 21.7321 12.0185 22.3572 12.6436C22.9823 13.2687 23.3335 14.1166 23.3335 15.0007Z" fill="#00AEEF"/>
<path fill-rule="evenodd" clip-rule="evenodd" d="M20.0001 1.66699C9.87508 1.66699 1.66675 9.87533 1.66675 20.0003C1.66675 30.1253 9.87508 38.3337 20.0001 38.3337C30.1251 38.3337 38.3334 30.1253 38.3334 20.0003C38.3334 9.87533 30.1251 1.66699 20.0001 1.66699ZM5.00008 20.0003C5.00008 23.4837 6.18842 26.6903 8.18008 29.237C9.5788 27.4002 11.3832 25.9116 13.4525 24.8875C15.5217 23.8635 17.7997 23.3317 20.1084 23.3337C22.3873 23.3315 24.6366 23.8495 26.685 24.8483C28.7333 25.8471 30.5267 27.3002 31.9284 29.097C33.3725 27.203 34.3448 24.9924 34.7649 22.648C35.185 20.3036 35.0408 17.8929 34.3442 15.6153C33.6477 13.3377 32.4188 11.2587 30.7592 9.55039C29.0997 7.84204 27.0572 6.55342 24.8007 5.79117C22.5443 5.02892 20.1387 4.81494 17.7832 5.16695C15.4276 5.51895 13.1897 6.42681 11.2547 7.81541C9.31966 9.20402 7.7431 11.0334 6.65546 13.1523C5.56783 15.2712 5.00038 17.6186 5.00008 20.0003ZM20.0001 35.0003C16.5567 35.0055 13.2172 33.8209 10.5467 31.647C11.6216 30.1082 13.0523 28.8519 14.7171 27.9848C16.3818 27.1177 18.2314 26.6657 20.1084 26.667C21.962 26.6655 23.7892 27.1063 25.4383 27.9527C27.0874 28.7991 28.5107 30.0268 29.5901 31.5337C26.8989 33.7782 23.5044 35.0052 20.0001 35.0003Z" fill="#00AEEF"/>
</svg>
