<svg width="24" height="24" viewBox="0 0 24 24" fill="none" xmlns="http://www.w3.org/2000/svg">
<path d="M11.8648 5C6.42075 5 3.39575 9.234 2.32075 11.116C2.09975 11.502 1.98975 11.696 2.00075 11.984C2.01375 12.272 2.14375 12.46 2.40275 12.836C3.68275 14.694 7.15875 19 11.8648 19C16.5708 19 20.0468 14.694 21.3268 12.836C21.5868 12.46 21.7168 12.272 21.7278 11.984C21.7398 11.696 21.6298 11.502 21.4088 11.116C20.3348 9.234 17.3088 5 11.8648 5Z" stroke="url(#paint0_linear_1511_10558)" stroke-width="2"/>
<path d="M11.8652 16C14.0744 16 15.8652 14.2091 15.8652 12C15.8652 9.79086 14.0744 8 11.8652 8C9.6561 8 7.86523 9.79086 7.86523 12C7.86523 14.2091 9.6561 16 11.8652 16Z" fill="url(#paint1_linear_1511_10558)"/>
<defs>
<linearGradient id="paint0_linear_1511_10558" x1="2" y1="5.625" x2="23.284" y2="8.87216" gradientUnits="userSpaceOnUse">
<stop stop-color="#0066B2"/>
<stop offset="1" stop-color="#00AEEF"/>
</linearGradient>
<linearGradient id="paint1_linear_1511_10558" x1="7.86523" y1="8.35714" x2="16.5945" y2="9.3022" gradientUnits="userSpaceOnUse">
<stop stop-color="#0066B2"/>
<stop offset="1" stop-color="#00AEEF"/>
</linearGradient>
</defs>
</svg>
