<svg width="24" height="24" viewBox="0 0 24 24" fill="none" xmlns="http://www.w3.org/2000/svg">
<rect width="24" height="24" rx="2" fill="#0066B2" fill-opacity="0.08"/>
<path d="M11.2694 4.02914C7.79392 4.31517 4.89047 6.91101 4.12952 10.4081C3.95683 11.2068 3.95683 12.8151 4.12952 13.6138C4.76634 16.555 6.91425 18.8864 9.74215 19.7067C11.1723 20.1169 12.8183 20.1169 14.243 19.7013C16.1805 19.1401 17.9344 17.7639 18.9274 16.0207C21.1131 12.2052 19.8557 7.38053 16.0887 5.13008C14.6424 4.2612 13.0018 3.88883 11.2694 4.02914ZM13.2069 5.14087C14.1837 5.30278 15.3116 5.77769 16.0995 6.36054C16.6068 6.73292 17.3354 7.47227 17.6808 7.96338C18.2259 8.74051 18.6684 9.77129 18.8573 10.6995C18.9868 11.3579 18.9868 12.7287 18.8519 13.3601C18.1449 16.6791 15.3332 18.9836 11.9926 18.9836C10.8053 18.9836 9.80152 18.7407 8.77613 18.2064C6.88727 17.2242 5.58125 15.4865 5.12792 13.3601C4.993 12.7179 4.993 11.2986 5.12792 10.6618C5.58665 8.53004 6.89266 6.79228 8.77613 5.81547C10.1685 5.0923 11.5986 4.87104 13.2069 5.14087Z" fill="#0066B2"/>
<path d="M10.9562 7.04579C10.7457 7.09976 10.4921 7.18611 10.3895 7.24008C10.0387 7.41817 9.52604 7.81213 9.36953 8.028C9.12668 8.368 9.15366 8.51371 9.52604 8.89148C9.9254 9.28545 10.1197 9.31243 10.4759 9.01561C10.8698 8.6972 11.1721 8.58926 11.7225 8.58926C12.1273 8.58387 12.246 8.60546 12.4295 8.7026C12.9476 8.97783 13.2174 9.5283 13.1041 10.068C12.9908 10.5969 12.7911 10.8505 12.0193 11.4603C11.1181 12.1727 10.8428 12.5613 10.7889 13.1765C10.7403 13.8403 10.886 13.9752 11.5984 13.9429C11.987 13.9267 12.0409 13.9105 12.1543 13.7863C12.219 13.7054 12.2892 13.5489 12.3054 13.4302C12.3593 13.1171 12.64 12.7664 13.293 12.2105C14.0917 11.5251 14.3669 11.2121 14.5828 10.7534C15.3761 9.08577 14.5612 7.39118 12.7857 7.01881C12.273 6.90548 11.4311 6.92167 10.9562 7.04579Z" fill="#0066B2"/>
<path d="M11.2374 14.9904C10.811 15.1416 10.5088 15.5625 10.5088 16.0104C10.5142 16.9657 11.7015 17.4784 12.3491 16.7984C12.5326 16.6095 12.6675 16.2695 12.6675 15.9888C12.6675 15.2603 11.9389 14.7476 11.2374 14.9904Z" fill="#0066B2"/>
</svg>
