<svg width="20" height="20" viewBox="0 0 20 20" fill="none" xmlns="http://www.w3.org/2000/svg">
<path d="M6.25 5C5.90278 5 5.60778 5.12167 5.365 5.365C5.12222 5.60833 5.00056 5.90333 5 6.25C5 6.59722 5.12167 6.8925 5.365 7.13583C5.60833 7.37917 5.90333 7.50056 6.25 7.5C6.59722 7.5 6.8925 7.37861 7.13583 7.13583C7.37917 6.89306 7.50056 6.59778 7.5 6.25C7.5 5.90278 7.37861 5.60778 7.13583 5.365C6.89305 5.12222 6.59778 5.00056 6.25 5ZM6.25 13.3333C5.90278 13.3333 5.60778 13.455 5.365 13.6983C5.12222 13.9417 5.00056 14.2367 5 14.5833C5 14.9306 5.12167 15.2258 5.365 15.4692C5.60833 15.7125 5.90333 15.8339 6.25 15.8333C6.59722 15.8333 6.8925 15.7119 7.13583 15.4692C7.37917 15.2264 7.50056 14.9311 7.5 14.5833C7.5 14.2361 7.37861 13.9411 7.13583 13.6983C6.89305 13.4556 6.59778 13.3339 6.25 13.3333ZM3.33333 2.5H16.6667C16.9028 2.5 17.1008 2.58 17.2608 2.74C17.4208 2.9 17.5006 3.09778 17.5 3.33333V9.16667C17.5 9.40278 17.42 9.60083 17.26 9.76083C17.1 9.92083 16.9022 10.0006 16.6667 10H3.33333C3.09722 10 2.89944 9.92 2.74 9.76C2.58056 9.6 2.50056 9.40222 2.5 9.16667V3.33333C2.5 3.09722 2.58 2.89944 2.74 2.74C2.9 2.58056 3.09778 2.50056 3.33333 2.5ZM4.16667 4.16667V8.33333H15.8333V4.16667H4.16667ZM3.33333 10.8333H16.6667C16.9028 10.8333 17.1008 10.9133 17.2608 11.0733C17.4208 11.2333 17.5006 11.4311 17.5 11.6667V17.5C17.5 17.7361 17.42 17.9342 17.26 18.0942C17.1 18.2542 16.9022 18.3339 16.6667 18.3333H3.33333C3.09722 18.3333 2.89944 18.2533 2.74 18.0933C2.58056 17.9333 2.50056 17.7356 2.5 17.5V11.6667C2.5 11.4306 2.58 11.2328 2.74 11.0733C2.9 10.9139 3.09778 10.8339 3.33333 10.8333ZM4.16667 12.5V16.6667H15.8333V12.5H4.16667Z" fill="#273240"/>
</svg>
