<svg width="24" height="21" viewBox="0 0 24 21" fill="none" xmlns="http://www.w3.org/2000/svg">
<path d="M4.35979 0.550218C4.11479 0.700219 3.99979 0.92522 3.99979 1.25522C3.99979 1.58523 4.12479 1.81023 4.39979 1.97023C4.57479 2.07523 4.61479 2.07523 12.9498 2.10023L21.3249 2.12523L21.5899 2.27523C21.9099 2.45023 22.0699 2.63023 22.2449 3.00023L22.3749 3.27524L22.3999 7.63526C22.4249 11.9703 22.4249 11.9953 22.5299 12.1353C22.8699 12.5903 23.5699 12.5753 23.8849 12.1003L23.9999 11.9353V7.50526C23.9999 2.58523 24.0149 2.80523 23.6649 2.10023C23.4049 1.58523 22.8649 1.04522 22.3499 0.785219C21.6199 0.425218 22.2999 0.450217 12.9498 0.450217C4.62979 0.450217 4.52479 0.450217 4.35979 0.550218Z" fill="#0066B2"/>
<path d="M2.30022 3.73067C1.49021 3.94067 0.70021 4.57568 0.335207 5.30068C-0.0197951 6.02069 0.000205097 5.55068 0.000205097 12.8507V19.4258L0.120206 19.6758C0.290207 20.0408 0.465208 20.2258 0.81021 20.3958C1.07021 20.5258 1.17521 20.5508 1.48021 20.5508C1.71022 20.5508 1.93022 20.5208 2.06022 20.4658C2.18022 20.4208 2.95022 19.8758 3.77523 19.2558L5.27524 18.1258L11.7253 18.1008C17.6453 18.0758 18.2003 18.0658 18.4753 17.9858C19.5953 17.6658 20.4553 16.8008 20.7253 15.7257C20.8403 15.2807 20.8403 6.42069 20.7253 5.97569C20.4503 4.89568 19.5553 4.00067 18.4753 3.72567C18.0403 3.61567 2.72522 3.62067 2.30022 3.73067ZM18.3403 5.45568C18.6903 5.63068 18.8603 5.81069 19.0453 6.20069L19.1753 6.47569L19.1903 10.6257C19.2003 13.1157 19.1853 14.9007 19.1553 15.0857C19.0903 15.4957 18.9753 15.7257 18.7003 16.0058C18.2503 16.4608 18.8503 16.4208 11.4503 16.4508L4.92524 16.4758L4.65024 16.6008C4.44523 16.6908 2.46022 18.1258 1.66022 18.7658C1.56522 18.8408 1.60022 6.55569 1.69522 6.29069C1.82022 5.95069 2.10522 5.64068 2.44522 5.46568L2.76022 5.30068H10.3953H18.0353L18.3403 5.45568Z" fill="#0066B2"/>
<path d="M6.86524 10.2047C6.27524 10.4947 6.28524 11.3597 6.88024 11.6497C7.23524 11.8247 7.59025 11.7547 7.87025 11.4547C8.08025 11.2347 8.11525 10.7997 7.94525 10.5047C7.73525 10.1297 7.27024 9.99968 6.86524 10.2047Z" fill="#0066B2"/>
<path d="M10.0654 10.2047C9.4754 10.4947 9.4854 11.3597 10.0804 11.6497C10.4354 11.8247 10.7904 11.7547 11.0704 11.4547C11.2804 11.2347 11.3154 10.7997 11.1454 10.5047C10.9354 10.1297 10.4704 9.99968 10.0654 10.2047Z" fill="#0066B2"/>
<path d="M13.1755 10.1998C12.8605 10.3598 12.7755 10.5148 12.7755 10.9348C12.7755 11.2648 12.7855 11.3048 12.9255 11.4548C13.1905 11.7348 13.5355 11.8198 13.8705 11.6798C14.2005 11.5398 14.3605 11.2848 14.3555 10.8798C14.3555 10.5748 14.2005 10.3348 13.9205 10.1998C13.6655 10.0748 13.4305 10.0748 13.1755 10.1998Z" fill="#0066B2"/>
</svg>
