<svg width="24" height="23" viewBox="0 0 24 23" fill="none" xmlns="http://www.w3.org/2000/svg">
<path d="M11.3572 0.635813C9.80494 0.831066 8.44468 1.90495 7.87844 3.38562C7.30245 4.8793 7.63112 6.66261 8.69851 7.83738C8.78962 7.94152 8.8482 8.03263 8.83844 8.05867C8.82867 8.0847 8.0802 9.37662 7.17553 10.9289C5.62653 13.5843 5.5224 13.7503 5.44104 13.747C5.39223 13.7438 5.21325 13.7177 5.04403 13.6852C4.64701 13.6104 4.03197 13.6104 3.5959 13.6852C1.52297 14.0399 0 15.8492 0 17.9645C0 19.3638 0.644334 20.6297 1.78005 21.4693C2.87021 22.2763 4.25651 22.5139 5.61351 22.1234C5.94219 22.029 6.5312 21.7426 6.84035 21.5246C7.21784 21.261 7.6897 20.7794 7.94678 20.3889C8.16481 20.0635 8.41864 19.5233 8.5 19.2239L8.53905 19.0709H11.943L15.3436 19.0742L15.451 19.4061C15.9359 20.9095 17.2278 22.0355 18.7931 22.3251C19.5057 22.4553 20.098 22.4293 20.7846 22.2438C22.402 21.8012 23.5995 20.5028 23.938 18.8236C24.0258 18.394 24.0193 17.5675 23.925 17.1444C23.7883 16.5164 23.5279 15.9208 23.1797 15.4295C22.5419 14.5378 21.4941 13.8805 20.3941 13.6819C19.9841 13.6071 19.2454 13.6104 18.8419 13.6852C18.6727 13.7177 18.4969 13.7438 18.4514 13.747C18.3798 13.7503 18.2236 13.4932 16.7006 10.8931L15.0279 8.03589L15.1288 7.91548C15.5486 7.4241 15.9098 6.81881 16.0725 6.32743C16.2125 5.90113 16.2808 5.47482 16.2808 4.98018C16.2841 4.27728 16.1799 3.74684 15.9229 3.18061C15.2818 1.76502 14.0061 0.818048 12.4962 0.635813C12.0471 0.580492 11.8095 0.580492 11.3572 0.635813ZM12.3725 2.83566C12.6361 2.88773 13.1698 3.16108 13.3813 3.34982C13.9475 3.86074 14.2144 4.71008 14.0289 5.43577C13.8434 6.16797 13.3683 6.70166 12.6589 6.97176C12.3953 7.07264 12.3595 7.0759 11.943 7.0759C11.5264 7.0759 11.4906 7.07264 11.227 6.97176C10.5176 6.70166 10.0392 6.16472 9.857 5.43577C9.67477 4.71659 9.93185 3.8705 10.4883 3.36935C10.7129 3.16759 11.1782 2.91702 11.4581 2.84868C11.6761 2.79336 12.1447 2.7901 12.3725 2.83566ZM11.3084 9.23995C11.79 9.31154 12.0569 9.31479 12.4506 9.25947C12.6621 9.22693 12.8964 9.18462 12.9713 9.16185L13.1047 9.1228L14.1916 10.9809C14.7871 12.0028 15.5454 13.2979 15.8708 13.8577L16.4663 14.8795L16.2841 15.078C15.9131 15.488 15.5779 16.077 15.4185 16.6042L15.3436 16.8581H11.943H8.5423L8.46746 16.6042C8.308 16.0803 7.97282 15.488 7.60509 15.0813L7.42611 14.886L8.90677 12.3477C9.72033 10.9549 10.4753 9.65649 10.5827 9.46449L10.7812 9.11954L10.9309 9.16185C11.0122 9.18462 11.1847 9.22042 11.3084 9.23995ZM4.7902 15.8525C5.03426 15.9046 5.51914 16.1421 5.71439 16.3081C6.183 16.7084 6.44985 17.2355 6.4954 17.8441C6.55398 18.6641 6.06585 19.5102 5.31413 19.8812C4.65352 20.2099 3.91807 20.1871 3.26072 19.8161C2.96133 19.6469 2.60337 19.2597 2.44391 18.9375C2.26818 18.5795 2.21286 18.342 2.21286 17.9645C2.21286 17.587 2.26818 17.3527 2.44717 16.9882C2.69774 16.4708 3.23794 16.0347 3.81394 15.8818C4.08403 15.8102 4.52661 15.7972 4.7902 15.8525ZM20.059 15.8818C20.6447 16.0315 21.1849 16.4643 21.4387 16.9882C21.6177 17.3527 21.673 17.587 21.673 17.9645C21.673 18.5535 21.4713 19.0481 21.058 19.4614C20.6415 19.8812 20.2054 20.0765 19.6229 20.1025C19.2324 20.122 18.9265 20.0569 18.5718 19.8812C18.1878 19.6925 17.8103 19.315 17.6118 18.9245C17.3742 18.4526 17.3254 17.8246 17.4849 17.3299C17.576 17.0501 17.7289 16.7702 17.9079 16.5652C18.1715 16.256 18.6564 15.9599 19.0534 15.8623C19.3137 15.7972 19.7726 15.8069 20.059 15.8818Z" fill="#0066B2"/>
</svg>
