<svg width="40" height="40" viewBox="0 0 40 40" fill="none" xmlns="http://www.w3.org/2000/svg">
<path d="M19.1429 4.97275C17.0732 5.23309 15.2596 6.66494 14.5046 8.63916C13.7366 10.6307 14.1748 13.0085 15.598 14.5748C15.7195 14.7137 15.7976 14.8352 15.7846 14.8699C15.7716 14.9046 14.7736 16.6272 13.5674 18.6968C11.502 22.2374 11.3632 22.4587 11.2547 22.4544C11.1896 22.45 10.951 22.4153 10.7254 22.3719C10.196 22.2721 9.37596 22.2721 8.79454 22.3719C6.03063 22.8449 4 25.2573 4 28.0776C4 29.9434 4.85911 31.6312 6.3734 32.7507C7.82695 33.8268 9.67534 34.1435 11.4847 33.6228C11.9229 33.497 12.7083 33.1152 13.1205 32.8245C13.6238 32.473 14.2529 31.8308 14.5957 31.3102C14.8864 30.8763 15.2249 30.156 15.3333 29.7568L15.3854 29.5529H19.9239L24.4581 29.5572L24.6013 29.9998C25.2478 32.0044 26.9704 33.5057 29.0574 33.8918C30.0077 34.0654 30.7973 34.0307 31.7129 33.7834C33.8693 33.1933 35.466 31.462 35.9173 29.2231C36.0345 28.6504 36.0258 27.5483 35.8999 26.9842C35.7177 26.1468 35.3706 25.3528 34.9063 24.6976C34.0559 23.5087 32.6587 22.6323 31.1922 22.3676C30.6455 22.2678 29.6605 22.2721 29.1225 22.3719C28.8969 22.4153 28.6626 22.45 28.6018 22.4544C28.5064 22.4587 28.2981 22.1159 26.2675 18.6491L24.0373 14.8395L24.1718 14.679C24.7315 14.0238 25.2131 13.2168 25.4301 12.5616C25.6166 11.9932 25.7078 11.4248 25.7078 10.7652C25.7121 9.82804 25.5732 9.12079 25.2305 8.36581C24.3757 6.47837 22.6748 5.21573 20.6616 4.97275C20.0628 4.89899 19.746 4.89899 19.1429 4.97275ZM20.4967 7.90588C20.8481 7.9753 21.5597 8.33978 21.8418 8.59143C22.5967 9.27265 22.9525 10.4051 22.7052 11.3727C22.4579 12.349 21.8244 13.0606 20.8785 13.4207C20.5271 13.5552 20.4793 13.5595 19.9239 13.5595C19.3686 13.5595 19.3208 13.5552 18.9694 13.4207C18.0235 13.0606 17.3857 12.3446 17.1427 11.3727C16.8997 10.4138 17.2425 9.28567 17.9844 8.61747C18.2838 8.34845 18.9043 8.01435 19.2774 7.92324C19.5681 7.84947 20.193 7.84513 20.4967 7.90588ZM19.0778 16.4449C19.72 16.5404 20.0758 16.5447 20.6008 16.471C20.8828 16.4276 21.1952 16.3712 21.295 16.3408L21.4729 16.2887L22.9221 18.7663C23.7162 20.1287 24.7272 21.8556 25.161 22.6019L25.9551 23.9643L25.7121 24.229C25.2175 24.7757 24.7705 25.5611 24.5579 26.264L24.4581 26.6024H19.9239H15.3897L15.2899 26.264C15.0773 25.5654 14.6304 24.7757 14.1401 24.2333L13.9015 23.973L15.8757 20.5886C16.9604 18.7316 17.9671 17.0003 18.1103 16.7443L18.3749 16.2844L18.5745 16.3408C18.683 16.3712 18.913 16.4189 19.0778 16.4449ZM10.3869 25.2617C10.7124 25.3311 11.3589 25.6478 11.6192 25.8691C12.244 26.4028 12.5998 27.1057 12.6605 27.9171C12.7386 29.0105 12.0878 30.1386 11.0855 30.6333C10.2047 31.0715 9.22409 31.0411 8.34763 30.5465C7.94844 30.3209 7.47116 29.8045 7.25855 29.375C7.02425 28.8977 6.95048 28.581 6.95048 28.0776C6.95048 27.5743 7.02425 27.2619 7.26289 26.776C7.59699 26.0861 8.31725 25.5047 9.08525 25.3007C9.44538 25.2053 10.0355 25.1879 10.3869 25.2617ZM30.7453 25.3007C31.5263 25.5003 32.2465 26.0774 32.585 26.776C32.8236 27.2619 32.8974 27.5743 32.8974 28.0776C32.8974 28.863 32.6284 29.5225 32.0773 30.0736C31.5219 30.6333 30.9405 30.8936 30.1639 30.9283C29.6432 30.9544 29.2353 30.8676 28.7624 30.6333C28.2504 30.3816 27.7471 29.8783 27.4824 29.3576C27.1656 28.7285 27.1006 27.8911 27.3132 27.2316C27.4347 26.8584 27.6386 26.4853 27.8772 26.2119C28.2287 25.7997 28.8752 25.4049 29.4045 25.2747C29.7517 25.1879 30.3634 25.2009 30.7453 25.3007Z" fill="white"/>
</svg>
