<svg width="894" height="189" viewBox="0 0 894 189" fill="none" xmlns="http://www.w3.org/2000/svg">
<g clip-path="url(#clip0_3144_6403)">
<g opacity="0.3">
<mask id="mask0_3144_6403" style="mask-type:luminance" maskUnits="userSpaceOnUse" x="-33" y="0" width="960" height="540">
<path d="M428.518 120.274C427.372 120.38 426.225 120.486 425.078 120.597C423.869 120.52 422.66 120.443 421.449 120.369C423.808 120.329 426.165 120.298 428.518 120.274ZM437.971 120.23C436.231 120.513 434.486 120.803 432.74 121.102C430.852 120.973 428.963 120.847 427.072 120.725C428.854 120.557 430.633 120.399 432.411 120.246C434.266 120.236 436.12 120.23 437.971 120.23ZM443.257 119.399C442.149 119.568 441.042 119.735 439.932 119.911C438.768 119.909 437.603 119.911 436.438 119.913C438.715 119.731 440.988 119.559 443.257 119.399ZM446.271 120.262C444.369 120.704 442.456 121.183 440.546 121.655C438.39 121.498 436.232 121.344 434.073 121.194C436.038 120.86 438.001 120.54 439.958 120.229M452.792 118.785C451.039 119.167 449.286 119.55 447.526 119.956C445.675 119.939 443.821 119.927 441.965 119.92C443.724 119.649 445.48 119.383 447.233 119.127C449.088 119.006 450.943 118.891 452.792 118.785ZM458.252 117.629C457.108 117.866 455.961 118.112 454.816 118.356C453.6 118.423 452.385 118.493 451.168 118.565C453.535 118.237 455.896 117.927 458.252 117.629ZM454.098 120.356C452.102 120.97 450.108 121.578 448.102 122.222C445.932 122.054 443.76 121.891 441.584 121.731C443.582 121.237 445.584 120.728 447.569 120.274C449.749 120.295 451.926 120.322 454.098 120.356ZM460.735 118.375C458.865 118.919 456.99 119.482 455.112 120.053C453.019 120.019 450.924 119.991 448.825 119.969C450.846 119.516 452.853 119.104 454.867 118.672C456.826 118.565 458.781 118.466 460.735 118.375ZM467.032 116.585C465.358 117.046 463.682 117.511 461.999 117.997C460.296 118.074 458.591 118.156 456.884 118.245C458.576 117.879 460.27 117.506 461.953 117.171C463.649 116.968 465.342 116.773 467.032 116.585ZM471.832 115.318C470.919 115.559 470.006 115.802 469.093 116.041C468.039 116.154 466.987 116.265 465.931 116.385C467.904 116.012 469.867 115.67 471.832 115.318ZM835.062 190.914C835.164 190.987 835.261 191.06 835.361 191.134L835.106 191.042C834.997 190.974 834.892 190.906 834.782 190.837L835.062 190.914ZM461.823 120.506C459.794 121.283 457.773 122.035 455.739 122.83C453.472 122.645 451.202 122.462 448.929 122.286C451.017 121.623 453.091 121.009 455.173 120.372C457.393 120.409 459.609 120.454 461.823 120.506ZM468.283 118.057C466.401 118.737 464.501 119.477 462.604 120.207C460.465 120.156 458.325 120.11 456.179 120.071C458.147 119.472 460.115 118.875 462.071 118.312C464.146 118.219 466.217 118.132 468.283 118.057ZM474.97 115.759C473.083 116.408 471.202 117.038 469.31 117.704C467.321 117.774 465.329 117.849 463.334 117.935C465.291 117.384 467.235 116.878 469.185 116.351C471.116 116.144 473.045 115.946 474.97 115.759ZM480.77 113.765C479.28 114.252 477.775 114.787 476.274 115.311C474.596 115.47 472.915 115.637 471.231 115.811C472.773 115.399 474.317 114.981 475.851 114.593C477.492 114.313 479.136 114.027 480.77 113.765ZM485.589 112.268C484.619 112.572 483.653 112.856 482.685 113.155C481.755 113.3 480.833 113.421 479.901 113.573C481.804 113.116 483.693 112.703 485.589 112.268ZM837.526 192.232L837.806 192.465L837.584 192.366L837.28 192.144L837.526 192.232ZM836.376 191.274L836.84 191.66L836.413 191.509L835.926 191.151L836.376 191.274ZM469.344 120.709C467.38 121.593 465.398 122.538 463.42 123.474C461.112 123.275 458.8 123.081 456.486 122.891C458.555 122.083 460.614 121.309 462.675 120.527C464.902 120.581 467.125 120.641 469.344 120.709ZM475.915 117.822C473.956 118.666 471.992 119.53 470.022 120.411C467.838 120.343 465.648 120.283 463.456 120.229C465.44 119.475 467.423 118.726 469.392 118.02C471.571 117.944 473.745 117.879 475.915 117.822ZM482.392 115.086C480.495 115.866 478.592 116.665 476.684 117.484C474.599 117.537 472.509 117.597 470.416 117.668C472.406 116.968 474.388 116.296 476.371 115.622C478.383 115.431 480.389 115.254 482.392 115.086ZM488.517 112.605C486.813 113.272 485.095 113.981 483.38 114.685C481.468 114.843 479.552 115.01 477.633 115.188C479.359 114.598 481.084 114.012 482.798 113.462C484.708 113.165 486.615 112.878 488.517 112.605ZM494.682 110.261C493.051 110.87 491.425 111.458 489.785 112.091C488.154 112.321 486.514 112.578 484.877 112.826C486.61 112.292 488.342 111.759 490.071 111.24C491.612 110.903 493.148 110.579 494.682 110.261ZM498.968 108.672C498.17 108.959 497.366 109.264 496.565 109.563C495.631 109.752 494.707 109.913 493.771 110.109C495.512 109.603 497.236 109.15 498.968 108.672ZM840.018 193.798C840.102 193.878 840.182 193.958 840.266 194.038C840.198 194.001 840.132 193.964 840.062 193.927C839.969 193.848 839.872 193.769 839.778 193.69L840.018 193.798ZM838.891 192.725C839.042 192.867 839.195 193.01 839.345 193.152C839.189 193.082 839.038 193.012 838.88 192.941L838.411 192.551L838.891 192.725ZM837.749 191.652L838.323 192.191C838.121 192.118 837.921 192.046 837.717 191.973L837.124 191.478L837.749 191.652ZM842.411 195.57L842.641 195.82C842.568 195.772 842.498 195.725 842.423 195.677L842.18 195.443L842.411 195.57ZM841.315 194.384L841.739 194.843L841.323 194.615C841.174 194.473 841.028 194.329 840.879 194.187L841.315 194.384ZM840.22 193.206C840.403 193.402 840.587 193.599 840.771 193.795L840.212 193.543C840.021 193.362 839.839 193.18 839.648 192.999L840.22 193.206ZM839.125 192.033C839.337 192.259 839.547 192.484 839.758 192.71L839.08 192.465L838.408 191.835L839.125 192.033ZM476.97 120.968C475.006 122 473.031 123.069 471.055 124.147C468.727 123.937 466.397 123.73 464.063 123.528C466.081 122.581 468.099 121.631 470.103 120.732C472.396 120.803 474.685 120.882 476.97 120.968ZM483.365 117.662C481.433 118.633 479.488 119.652 477.542 120.673C475.292 120.586 473.038 120.506 470.781 120.434C472.784 119.539 474.784 118.653 476.775 117.8C478.976 117.745 481.173 117.698 483.365 117.662ZM489.804 114.51C487.873 115.44 485.944 116.364 484.001 117.333C481.854 117.366 479.701 117.41 477.545 117.462C479.531 116.617 481.509 115.804 483.484 114.996C485.595 114.823 487.701 114.66 489.804 114.51ZM496.032 111.563C494.221 112.397 492.402 113.259 490.579 114.135C488.547 114.277 486.511 114.432 484.471 114.596C486.284 113.852 488.1 113.096 489.899 112.397C491.947 112.108 493.993 111.824 496.032 111.563ZM502.121 108.809C500.423 109.556 498.712 110.34 497.002 111.125C495.108 111.364 493.215 111.599 491.312 111.862C493.104 111.183 494.889 110.528 496.673 109.873C498.493 109.505 500.309 109.151 502.121 108.809ZM508.329 106.168C506.702 106.849 505.08 107.515 503.445 108.22C501.822 108.52 500.186 108.853 498.555 109.175C500.04 108.633 501.52 108.107 502.996 107.594C504.772 107.124 506.563 106.608 508.329 106.168ZM512.522 104.411C511.72 104.735 510.91 105.081 510.102 105.423C509.363 105.603 508.632 105.759 507.891 105.945C509.436 105.428 510.986 104.898 512.522 104.411ZM844.728 197.564L844.948 197.833L844.831 197.744L844.579 197.466L844.728 197.564ZM843.653 196.248L844.062 196.748C843.946 196.673 843.831 196.597 843.715 196.522L843.274 196.041L843.653 196.248ZM842.594 194.962C842.769 195.174 842.945 195.385 843.12 195.597L842.614 195.321C842.429 195.12 842.242 194.92 842.057 194.719L842.594 194.962ZM841.537 193.683C841.739 193.926 841.94 194.17 842.142 194.415L841.513 194.131C841.301 193.902 841.089 193.672 840.877 193.443L841.537 193.683ZM840.473 192.407C840.698 192.676 840.925 192.945 841.148 193.214L840.414 192.948L839.711 192.196L840.473 192.407ZM484.531 121.282C482.593 122.444 480.645 123.637 478.692 124.853C476.342 124.631 473.988 124.413 471.632 124.2C473.635 123.113 475.636 122.037 477.627 120.994C479.933 121.082 482.234 121.179 484.531 121.282ZM490.862 117.582C488.917 118.702 486.974 119.819 485.016 120.986C482.748 120.882 480.475 120.787 478.199 120.699C480.169 119.667 482.14 118.629 484.094 117.651C486.355 117.616 488.61 117.596 490.862 117.582ZM497.159 114.029C495.25 115.086 493.337 116.158 491.416 117.261C489.195 117.273 486.972 117.293 484.744 117.324C486.731 116.337 488.707 115.391 490.682 114.446C492.846 114.295 495.005 114.156 497.159 114.029ZM503.28 110.697C501.463 111.66 499.635 112.664 497.805 113.674C495.693 113.796 493.578 113.925 491.456 114.071C493.347 113.17 495.231 112.293 497.109 111.434C499.171 111.175 501.228 110.928 503.28 110.697ZM509.483 107.489C507.692 108.396 505.894 109.329 504.091 110.277C502.094 110.5 500.086 110.747 498.079 110.996C499.909 110.159 501.74 109.318 503.555 108.529C505.538 108.162 507.511 107.824 509.483 107.489ZM515.521 104.514C513.819 105.338 512.121 106.152 510.409 107.01C508.615 107.311 506.83 107.584 505.026 107.911C506.753 107.174 508.478 106.445 510.197 105.739C511.979 105.304 513.747 104.919 515.521 104.514ZM521.456 101.705C519.922 102.413 518.384 103.133 516.839 103.873C515.219 104.238 513.597 104.606 511.969 104.994C513.543 104.358 515.104 103.763 516.669 103.155C518.265 102.671 519.869 102.162 521.456 101.705ZM525.638 99.8065C524.916 100.128 524.19 100.463 523.465 100.793C522.553 101.049 521.638 101.316 520.724 101.582C522.369 100.964 524.002 100.391 525.638 99.8065ZM846.955 199.754L847.116 199.975L847.035 199.905L846.844 199.67L846.955 199.754ZM845.939 198.355L846.307 198.862L846.008 198.636L845.605 198.137L845.939 198.355ZM844.892 196.925C845.065 197.16 845.238 197.395 845.411 197.63L844.942 197.324L844.393 196.652C844.56 196.743 844.728 196.834 844.892 196.925ZM843.873 195.539C844.066 195.801 844.257 196.063 844.45 196.324C844.256 196.217 844.059 196.11 843.863 196.003L843.251 195.258C843.46 195.352 843.668 195.445 843.873 195.539ZM842.849 194.157C843.064 194.447 843.28 194.736 843.495 195.026C843.265 194.922 843.032 194.817 842.8 194.712L842.124 193.895C842.366 193.983 842.61 194.07 842.849 194.157ZM841.824 192.781C842.054 193.09 842.284 193.399 842.515 193.709L841.738 193.427C841.497 193.137 841.254 192.846 841.012 192.556L841.824 192.781ZM492.124 121.649C490.211 122.938 488.288 124.256 486.36 125.594C483.987 125.36 481.61 125.129 479.229 124.903C481.195 123.68 483.156 122.474 485.106 121.308C487.45 121.415 489.79 121.527 492.124 121.649ZM498.27 117.572C496.379 118.798 494.475 120.072 492.567 121.354C490.248 121.233 487.924 121.118 485.596 121.012C487.576 119.834 489.544 118.709 491.512 117.579C493.769 117.567 496.022 117.564 498.27 117.572ZM504.463 113.649C502.572 114.828 500.676 116.026 498.771 117.255C496.541 117.245 494.304 117.247 492.064 117.258C494.02 116.14 495.966 115.057 497.908 113.988C500.098 113.861 502.283 113.75 504.463 113.649ZM510.588 109.916C508.732 111.027 506.874 112.145 505.005 113.305C502.86 113.402 500.709 113.512 498.554 113.633C500.442 112.596 502.326 111.575 504.2 110.587C506.335 110.35 508.465 110.122 510.588 109.916ZM516.715 106.321C514.889 107.37 513.056 108.44 511.216 109.538C509.152 109.737 507.086 109.94 505.011 110.168C506.849 109.201 508.685 108.241 510.509 107.323C512.582 106.976 514.654 106.635 516.715 106.321ZM522.798 102.893C521.046 103.855 519.285 104.851 517.519 105.862C515.517 106.162 513.498 106.504 511.485 106.836C513.308 105.93 515.122 105.057 516.934 104.189C518.891 103.75 520.853 103.296 522.798 102.893ZM528.629 99.7466C527.016 100.594 525.39 101.481 523.765 102.371C521.934 102.745 520.095 103.142 518.253 103.549C520.025 102.711 521.786 101.912 523.548 101.114C525.248 100.635 526.938 100.195 528.629 99.7466ZM534.349 96.8286C532.906 97.5517 531.461 98.284 530.012 99.0318C528.479 99.4312 526.94 99.8484 525.399 100.273C526.987 99.5633 528.567 98.8788 530.144 98.2035C531.552 97.7239 532.948 97.2846 534.349 96.8286ZM538.663 94.7035C537.85 95.0966 537.042 95.4719 536.226 95.8748C535.419 96.1326 534.609 96.3939 533.799 96.6596C535.426 95.9873 537.046 95.3418 538.663 94.7035ZM849.112 202.165L849.25 202.38L849.21 202.34L849.037 202.099L849.112 202.165ZM848.119 200.635C848.233 200.811 848.348 200.986 848.463 201.161C848.371 201.08 848.282 201 848.19 200.919C848.069 200.751 847.949 200.583 847.828 200.415C847.925 200.488 848.024 200.562 848.119 200.635ZM847.143 199.142L847.6 199.841C847.461 199.735 847.32 199.628 847.18 199.523L846.686 198.844L847.143 199.142ZM846.147 197.624L846.709 198.479L846.161 198.12L845.56 197.297C845.754 197.406 845.95 197.515 846.147 197.624ZM845.156 196.128L845.768 197.051C845.546 196.929 845.331 196.807 845.11 196.685L844.467 195.812C844.696 195.916 844.925 196.022 845.156 196.128ZM844.169 194.641C844.389 194.972 844.608 195.303 844.828 195.634C844.58 195.52 844.336 195.406 844.086 195.293C843.855 194.98 843.624 194.667 843.392 194.355L844.169 194.641ZM843.172 193.156C843.407 193.506 843.643 193.855 843.876 194.205L843.057 193.905C842.813 193.576 842.568 193.248 842.322 192.919L843.172 193.156ZM499.692 122.072C497.809 123.475 495.916 124.909 494.018 126.366C491.634 126.121 489.245 125.88 486.853 125.643C488.796 124.298 490.734 122.973 492.663 121.678C495.011 121.801 497.354 121.934 499.692 122.072ZM505.727 117.639C503.856 118.988 501.976 120.373 500.09 121.777C497.766 121.638 495.438 121.507 493.106 121.383C495.034 120.091 496.96 118.81 498.873 117.573C501.163 117.584 503.447 117.608 505.727 117.639ZM511.762 113.354C509.906 114.643 508.038 115.98 506.166 117.328C503.905 117.296 501.64 117.27 499.37 117.258C501.291 116.02 503.207 114.803 505.112 113.619C507.334 113.518 509.551 113.428 511.762 113.354ZM517.771 109.272C515.937 110.499 514.097 111.743 512.249 113.021C510.056 113.093 507.858 113.178 505.655 113.275C507.554 112.101 509.439 110.973 511.323 109.85C513.479 109.643 515.628 109.448 517.771 109.272ZM523.807 105.319C521.983 106.493 520.156 107.677 518.318 108.901C516.203 109.073 514.078 109.27 511.951 109.472C513.851 108.344 515.74 107.251 517.625 106.174C519.695 105.864 521.75 105.596 523.807 105.319ZM529.803 101.543C528.021 102.642 526.235 103.761 524.439 104.91C522.437 105.176 520.443 105.418 518.429 105.715C520.246 104.682 522.057 103.672 523.861 102.688C525.85 102.281 527.827 101.913 529.803 101.543ZM535.792 97.9218C534.068 98.9406 532.334 99.987 530.596 101.055C528.678 101.41 526.757 101.777 524.828 102.166C526.593 101.207 528.355 100.259 530.106 99.3492C532.008 98.854 533.903 98.3786 535.792 97.9218ZM541.625 94.5423C540.014 95.4516 538.393 96.3968 536.769 97.3514C535.028 97.7667 533.289 98.1739 531.537 98.6219C533.135 97.798 534.733 96.9745 536.319 96.1915C538.093 95.6259 539.863 95.0697 541.625 94.5423ZM547.093 91.5212C545.716 92.2644 544.33 93.0387 542.944 93.8132C541.471 94.2472 540 94.6738 538.518 95.1334C539.971 94.4334 541.425 93.7334 542.87 93.06C544.284 92.5247 545.688 92.029 547.093 91.5212ZM551.705 89.0983C550.842 89.5463 549.979 89.9936 549.114 90.4475C548.325 90.7255 547.534 91.012 546.743 91.2986C548.402 90.5498 550.06 89.8028 551.705 89.0983ZM851.185 204.78L851.293 204.966H851.293L851.155 204.75L851.185 204.78ZM850.255 203.18L850.542 203.673C850.465 203.596 850.391 203.519 850.314 203.442L849.997 202.951L850.255 203.18ZM849.287 201.525C849.437 201.782 849.59 202.038 849.74 202.294L849.351 201.949C849.19 201.7 849.031 201.452 848.87 201.204C849.011 201.311 849.148 201.418 849.287 201.525ZM848.346 199.928L848.854 200.791C848.689 200.664 848.52 200.537 848.352 200.41C848.17 200.132 847.988 199.853 847.806 199.575C847.986 199.693 848.168 199.81 848.346 199.928ZM847.395 198.319L847.982 199.31C847.781 199.178 847.576 199.045 847.372 198.911C847.164 198.594 846.958 198.276 846.75 197.959L847.395 198.319ZM846.438 196.717C846.649 197.07 846.861 197.425 847.071 197.778L846.372 197.388C846.15 197.052 845.926 196.716 845.704 196.38L846.438 196.717ZM845.487 195.125C845.711 195.498 845.932 195.87 846.155 196.243L845.376 195.886C845.142 195.532 844.91 195.18 844.675 194.827L845.487 195.125ZM844.524 193.535C844.759 193.925 844.996 194.314 845.231 194.703L844.384 194.392C844.139 194.023 843.89 193.657 843.643 193.289L844.524 193.535ZM507.247 122.544C505.4 124.057 503.544 125.601 501.681 127.171C499.285 126.914 496.883 126.662 494.478 126.413C496.388 124.95 498.292 123.51 500.187 122.101C502.545 122.242 504.899 122.388 507.247 122.544ZM513.15 117.777C511.312 119.235 509.464 120.732 507.61 122.25C505.273 122.094 502.931 121.947 500.586 121.806C502.486 120.395 504.382 119.003 506.267 117.647C508.567 117.68 510.862 117.723 513.15 117.777ZM519.068 113.159C517.237 114.563 515.395 116.004 513.547 117.467C511.272 117.412 508.991 117.37 506.706 117.336C508.595 115.979 510.481 114.634 512.354 113.337C514.599 113.263 516.836 113.206 519.068 113.159ZM524.971 108.726C523.15 110.073 521.325 111.428 519.488 112.831C517.279 112.877 515.065 112.933 512.844 113.003C514.711 111.714 516.572 110.448 518.425 109.213C520.614 109.036 522.796 108.872 524.971 108.726ZM530.926 104.407C529.104 105.707 527.277 107.022 525.438 108.376C523.287 108.519 521.134 108.67 518.971 108.843C520.836 107.605 522.689 106.411 524.539 105.226C526.672 104.943 528.807 104.655 530.926 104.407ZM536.833 100.281C535.056 101.499 533.275 102.737 531.483 104.008C529.39 104.25 527.277 104.541 525.171 104.816C527.019 103.639 528.857 102.497 530.69 101.372C532.743 100.993 534.793 100.622 536.833 100.281ZM542.802 96.2733C541.03 97.4374 539.251 98.6292 537.464 99.849C535.476 100.177 533.483 100.519 531.482 100.883C533.281 99.786 535.072 98.7179 536.856 97.6717C538.84 97.1988 540.832 96.7044 542.802 96.2733ZM548.65 92.5044C546.966 93.5658 545.271 94.6578 543.572 95.7699C541.67 96.1814 539.747 96.6518 537.831 97.1018C539.572 96.0882 541.306 95.0966 543.03 94.1327C544.907 93.5802 546.788 93.0147 548.65 92.5044ZM554.271 89.0323C552.721 89.9658 551.16 90.9375 549.598 91.9169C547.856 92.3879 546.102 92.8974 544.348 93.4049C545.973 92.505 547.594 91.6181 549.206 90.7624C550.901 90.1651 552.588 89.5914 554.271 89.0323ZM559.749 85.8086C558.371 86.6012 556.983 87.4266 555.595 88.2531C554.183 88.7139 552.778 89.154 551.358 89.642C552.636 88.9733 553.915 88.2998 555.184 87.6618C556.709 87.0316 558.234 86.4034 559.749 85.8086ZM563.964 83.4451C563.19 83.874 562.416 84.3026 561.641 84.7367C560.929 85.0106 560.221 85.2689 559.506 85.5504C560.996 84.8354 562.483 84.1292 563.964 83.4451ZM852.298 205.91C852.384 206.074 852.468 206.239 852.553 206.403L852.372 206.195C852.275 206.028 852.18 205.86 852.083 205.692L852.298 205.91ZM851.388 204.186L851.783 204.934L851.439 204.585L851.014 203.854L851.388 204.186ZM850.474 202.452C850.638 202.761 850.799 203.071 850.963 203.38L850.5 202.968C850.323 202.666 850.148 202.362 849.97 202.059C850.137 202.19 850.304 202.321 850.474 202.452ZM849.548 200.713C849.734 201.062 849.922 201.411 850.108 201.76C849.912 201.609 849.723 201.46 849.528 201.308C849.334 200.978 849.14 200.649 848.946 200.32C849.147 200.451 849.35 200.583 849.548 200.713ZM848.637 199.012C848.837 199.384 849.035 199.757 849.235 200.128C849.02 199.987 848.801 199.845 848.581 199.702C848.37 199.344 848.16 198.985 847.948 198.627L848.637 199.012ZM847.719 197.307C847.934 197.703 848.148 198.1 848.362 198.497L847.627 198.087C847.401 197.708 847.174 197.331 846.949 196.952L847.719 197.307ZM846.798 195.607L847.47 196.848L846.665 196.478C846.431 196.085 846.196 195.692 845.961 195.299L846.798 195.607ZM845.876 193.915C846.111 194.342 846.342 194.77 846.575 195.197L845.709 194.879C845.464 194.472 845.217 194.067 844.971 193.661L845.876 193.915ZM514.779 123.07C512.974 124.681 511.159 126.332 509.337 128.006C506.935 127.739 504.528 127.477 502.117 127.218C503.989 125.643 505.854 124.093 507.711 122.575C510.072 122.733 512.428 122.898 514.779 123.07ZM520.575 117.989C518.762 119.557 516.944 121.147 515.115 122.776C512.773 122.604 510.426 122.439 508.073 122.281C509.94 120.757 511.802 119.254 513.652 117.787C515.966 117.843 518.273 117.912 520.575 117.989ZM526.39 113.045C524.575 114.567 522.756 116.101 520.924 117.682C518.638 117.605 516.348 117.535 514.049 117.477C515.906 116.009 517.758 114.555 519.597 113.148C521.867 113.101 524.133 113.065 526.39 113.045ZM532.159 108.294C530.369 109.745 528.575 111.216 526.77 112.725C524.531 112.743 522.285 112.777 520.034 112.82C521.88 111.414 523.715 110.042 525.545 108.692C527.755 108.545 529.961 108.409 532.159 108.294ZM537.952 103.678C536.17 105.073 534.382 106.493 532.585 107.947C530.403 108.059 528.207 108.199 526.012 108.342C527.88 106.968 529.736 105.638 531.588 104.323C533.721 104.078 535.833 103.887 537.952 103.678ZM543.768 99.2034C541.997 100.54 540.217 101.909 538.429 103.305C536.335 103.51 534.252 103.684 532.145 103.923C533.958 102.641 535.761 101.396 537.559 100.168C539.636 99.8261 541.705 99.5062 543.768 99.2034ZM549.573 94.8996C547.835 96.162 546.086 97.4605 544.331 98.7807C542.292 99.0771 540.242 99.4014 538.19 99.7357C540.022 98.4911 541.845 97.2787 543.661 96.091C545.643 95.663 547.606 95.2863 549.573 94.8996ZM555.379 90.7618C553.672 91.9518 551.954 93.181 550.232 94.4276C548.297 94.8034 546.36 95.1847 544.412 95.6006C546.177 94.452 547.936 93.3305 549.686 92.236C551.591 91.7224 553.489 91.2328 555.379 90.7618ZM561.097 86.8533C559.469 87.9411 557.828 89.0714 556.185 90.2113C554.343 90.6643 552.488 91.1542 550.631 91.649C552.324 90.598 554.01 89.5689 555.688 88.5684C557.498 87.9776 559.303 87.4003 561.097 86.8533ZM566.783 83.1538C565.215 84.1537 563.64 85.1815 562.06 86.2254C560.382 86.7294 558.699 87.2482 557.01 87.7902C558.588 86.8581 560.164 85.9399 561.729 85.0538C563.419 84.4049 565.107 83.7599 566.783 83.1538ZM572.091 79.8533C570.728 80.6851 569.363 81.5212 567.99 82.3847C566.573 82.8885 565.153 83.408 563.728 83.9418C565.135 83.1584 566.541 82.3787 567.938 81.6314C569.329 81.0163 570.709 80.4374 572.091 79.8533ZM576.202 77.3973C575.443 77.8435 574.69 78.2695 573.927 78.7253C573.167 79.0392 572.401 79.3708 571.639 79.6946C573.166 78.9095 574.687 78.1441 576.202 77.3973ZM-1.91023 376.4C-0.958298 378.397 -0.00520858 380.399 0.950567 382.407C2.7713 386.233 4.60048 390.074 6.44004 393.918C0.671784 383.832 -4.91426 373.569 -10.4035 363.43C-7.61589 367.778 -4.78658 372.11 -1.91023 376.4ZM-13.0716 353.319C-9.66741 360.2 -6.27305 367.258 -2.86198 374.404C-6.13423 369.49 -9.34485 364.523 -12.505 359.547C-16.0862 352.928 -19.6307 346.379 -23.1621 339.986C-19.8611 344.451 -16.5007 348.909 -13.0716 353.319ZM854.25 208.837L854.494 209.356L854.359 209.183L854.074 208.632L854.25 208.837ZM853.395 207.025L853.752 207.778L853.446 207.426L853.058 206.683L853.395 207.025ZM852.519 205.189L852.976 206.145L852.557 205.721C852.393 205.409 852.228 205.098 852.064 204.785C852.216 204.92 852.369 205.055 852.519 205.189ZM851.652 203.373C851.824 203.731 851.994 204.089 852.165 204.447C851.991 204.292 851.815 204.136 851.639 203.98C851.455 203.629 851.27 203.279 851.084 202.929L851.652 203.373ZM850.765 201.533C850.956 201.93 851.149 202.326 851.34 202.723C851.132 202.561 850.926 202.401 850.72 202.239C850.518 201.857 850.314 201.475 850.11 201.093C850.327 201.239 850.544 201.385 850.765 201.533ZM849.879 199.704C850.084 200.123 850.286 200.544 850.489 200.964C850.253 200.807 850.026 200.651 849.79 200.493L849.15 199.298C849.394 199.433 849.64 199.568 849.879 199.704ZM848.996 197.894C849.211 198.333 849.427 198.77 849.64 199.209C849.388 199.068 849.131 198.926 848.875 198.783C848.651 198.365 848.427 197.947 848.202 197.528C848.468 197.65 848.735 197.773 848.996 197.894ZM848.111 196.09C848.334 196.543 848.556 196.996 848.779 197.45C848.506 197.324 848.229 197.197 847.953 197.07C847.718 196.638 847.483 196.205 847.249 195.773C847.537 195.879 847.827 195.985 848.111 196.09ZM847.225 194.293C847.457 194.758 847.685 195.225 847.915 195.69C847.621 195.582 847.324 195.473 847.026 195.363C846.786 194.921 846.548 194.477 846.306 194.035L847.225 194.293ZM522.354 123.648C520.576 125.36 518.79 127.102 516.996 128.874C514.586 128.596 512.173 128.322 509.755 128.053C511.584 126.374 513.407 124.72 515.22 123.102C517.604 123.278 519.982 123.459 522.354 123.648ZM528.011 118.271C526.236 119.934 524.45 121.631 522.658 123.354C520.296 123.165 517.929 122.983 515.557 122.808C517.39 121.176 519.215 119.575 521.032 118.004C523.364 118.083 525.691 118.172 528.011 118.271ZM533.678 113.033C531.906 114.645 530.125 116.294 528.337 117.966C526.024 117.866 523.706 117.777 521.381 117.698C523.224 116.109 525.054 114.571 526.88 113.042C529.153 113.025 531.418 113.024 533.678 113.033ZM539.316 107.974C537.562 109.521 535.798 111.109 534.028 112.716C531.777 112.706 529.522 112.706 527.258 112.723C529.08 111.202 530.89 109.723 532.696 108.262C534.91 108.149 537.115 108.056 539.316 107.974ZM545.028 103.007C543.26 104.515 541.481 106.069 539.696 107.641C537.51 107.721 535.322 107.805 533.122 107.915C534.935 106.453 536.737 105.026 538.533 103.623C540.7 103.411 542.875 103.181 545.028 103.007ZM550.674 98.2611C548.948 99.6842 547.21 101.153 545.468 102.637C543.328 102.808 541.164 103.043 539.01 103.249C540.825 101.836 542.632 100.453 544.43 99.0999C546.519 98.7974 548.599 98.5244 550.674 98.2611ZM556.404 93.6291C554.661 95.0142 552.911 96.4256 551.15 97.8715C549.102 98.1284 547.055 98.3823 544.993 98.6784C546.779 97.3395 548.557 96.0276 550.326 94.7479C552.36 94.3531 554.386 93.9797 556.404 93.6291ZM562.118 89.1778C560.397 90.4938 558.671 91.826 556.932 93.2021C554.956 93.5421 552.975 93.8943 550.984 94.276C552.757 92.9986 554.523 91.7462 556.279 90.5287C558.236 90.0481 560.177 89.6123 562.118 89.1778ZM567.859 84.8799C566.16 86.1259 564.456 87.3911 562.74 88.6963C560.858 89.1135 558.98 89.5188 557.084 89.9785C558.781 88.8084 560.473 87.6562 562.154 86.5418C564.061 85.9691 565.967 85.4034 567.859 84.8799ZM573.522 80.8149C571.88 81.9684 570.232 83.1409 568.575 84.3499C566.765 84.8447 564.944 85.3733 563.12 85.913C564.779 84.8198 566.436 83.7402 568.08 82.7007C569.9 82.0537 571.717 81.4126 573.522 80.8149ZM579.008 77.0451C577.481 78.0714 575.949 79.1143 574.407 80.1891C572.737 80.7348 571.057 81.3135 569.374 81.9014C570.932 80.9268 572.488 79.9576 574.032 79.0308C575.699 78.3421 577.356 77.6878 579.008 77.0451ZM584.268 73.5882C582.93 74.4468 581.59 75.3189 580.241 76.2149C578.844 76.7502 577.444 77.2928 576.037 77.8594C577.373 77.072 578.712 76.2754 580.038 75.5228C581.456 74.8523 582.862 74.2223 584.268 73.5882ZM588.103 71.149C587.468 71.542 586.829 71.9529 586.19 72.3611C585.402 72.7082 584.605 73.0867 583.814 73.4446C585.247 72.6666 586.679 71.8936 588.103 71.149ZM18.2438 414.367C20.729 420.256 23.2291 426.146 25.7566 431.999C20.4558 421.971 15.3337 411.629 10.3123 401.238C12.9141 405.672 15.5545 410.057 18.2438 414.367ZM8.61827 391.532C10.587 396.179 12.5562 400.858 14.5321 405.553C15.5036 407.861 16.4761 410.173 17.4505 412.485C14.4322 407.604 11.4729 402.632 8.56163 397.605C6.10154 392.487 3.66314 387.365 1.23799 382.269L-0.703703 378.191C2.34506 382.703 5.44912 387.161 8.61827 391.532ZM-1.98645 367.058C1.38545 374.607 4.72471 382.361 8.06186 390.22C4.7656 385.642 1.53809 380.971 -1.6303 376.247C-5.13256 368.901 -8.61487 361.639 -12.1056 354.557C-8.80053 358.783 -5.43036 362.962 -1.98645 367.058ZM-14.5271 340.533C-10.4252 348.624 -6.41935 357.167 -2.45993 365.999C-5.97986 361.788 -9.42338 357.492 -12.7999 353.151C-16.9386 344.787 -21.0908 336.686 -25.3056 329.004C-21.7872 332.893 -18.1972 336.747 -14.5271 340.533ZM856.152 212.031L856.363 212.526L856.263 212.381L856.021 211.859L856.152 212.031ZM855.324 210.082C855.436 210.343 855.546 210.604 855.657 210.864L855.395 210.523L855.023 209.733L855.324 210.082ZM854.487 208.134C854.627 208.461 854.769 208.788 854.908 209.115L854.52 208.664C854.371 208.348 854.222 208.03 854.072 207.713C854.211 207.854 854.35 207.994 854.487 208.134ZM853.651 206.194C853.815 206.572 853.976 206.951 854.14 207.329C853.98 207.166 853.819 207.003 853.659 206.84C853.483 206.471 853.306 206.102 853.131 205.732C853.306 205.886 853.481 206.041 853.651 206.194ZM852.823 204.286C852.999 204.691 853.177 205.096 853.353 205.501C853.164 205.331 852.969 205.16 852.777 204.989C852.589 204.596 852.402 204.203 852.214 203.811L852.823 204.286ZM851.978 202.351L852.554 203.671L851.905 203.164C851.701 202.738 851.494 202.312 851.289 201.886C851.518 202.041 851.746 202.196 851.978 202.351ZM851.128 200.411L851.74 201.808C851.496 201.644 851.255 201.48 851.013 201.317C850.798 200.871 850.582 200.424 850.366 199.979C850.619 200.123 850.872 200.267 851.128 200.411ZM850.277 198.492C850.489 198.97 850.701 199.448 850.913 199.927C850.647 199.777 850.389 199.628 850.123 199.479C849.901 199.022 849.679 198.564 849.455 198.107C849.73 198.235 850.001 198.363 850.277 198.492ZM849.431 196.581C849.65 197.072 849.866 197.565 850.084 198.057C849.8 197.925 849.521 197.793 849.236 197.66C849.006 197.19 848.774 196.72 848.543 196.249C848.841 196.36 849.132 196.47 849.431 196.581ZM848.573 194.673C848.799 195.177 849.028 195.681 849.253 196.186L848.347 195.849C848.111 195.369 847.876 194.888 847.639 194.409L848.573 194.673ZM529.893 124.28C528.161 126.081 526.42 127.914 524.673 129.774C522.25 129.485 519.822 129.2 517.389 128.919C519.19 127.141 520.982 125.4 522.766 123.682C525.148 123.874 527.524 124.074 529.893 124.28ZM535.402 118.625C533.671 120.376 531.929 122.17 530.18 123.986C527.816 123.779 525.446 123.579 523.07 123.388C524.871 121.658 526.663 119.957 528.447 118.289C530.772 118.39 533.09 118.503 535.402 118.625ZM540.956 113.102C539.214 114.815 537.465 116.548 535.706 118.323C533.401 118.201 531.09 118.085 528.772 117.984C530.569 116.305 532.36 114.652 534.14 113.035C536.418 113.045 538.691 113.066 540.956 113.102ZM546.489 107.752C544.757 109.405 543.021 111.073 541.272 112.788C539.018 112.75 536.756 112.729 534.489 112.718C536.269 111.104 538.043 109.512 539.806 107.959C542.039 107.878 544.27 107.802 546.489 107.752ZM552.042 102.54C550.313 104.139 548.579 105.759 546.834 107.421C544.628 107.468 542.407 107.548 540.187 107.626C541.991 106.041 543.788 104.476 545.574 102.955C547.744 102.781 549.886 102.677 552.042 102.54ZM557.651 97.4342C555.915 98.9884 554.172 100.57 552.419 102.189C550.283 102.322 548.162 102.418 546.012 102.587C547.764 101.096 549.513 99.6212 551.248 98.1933C553.388 97.9257 555.527 97.66 557.651 97.4342ZM563.288 92.4721C561.561 93.9659 559.826 95.4909 558.081 97.0496C555.976 97.2708 553.852 97.54 551.732 97.8023C553.504 96.3479 555.271 94.9155 557.026 93.5241C559.117 93.1645 561.214 92.7851 563.288 92.4721ZM568.841 87.7524C567.154 89.1603 565.457 90.6019 563.752 92.0726C561.704 92.3783 559.634 92.7438 557.569 93.0954C559.333 91.703 561.087 90.3461 562.834 89.0155C564.845 88.5703 566.847 88.1493 568.841 87.7524ZM574.481 83.135C572.789 84.4928 571.086 85.8875 569.376 87.3096C567.41 87.6963 565.437 88.1009 563.455 88.5344C565.202 87.2098 566.937 85.9305 568.667 84.6668C570.612 84.1355 572.553 83.6148 574.481 83.135ZM580.066 78.7399C578.421 80.0071 576.765 81.3127 575.103 82.6412C573.206 83.1083 571.295 83.62 569.382 84.137C571.096 82.8929 572.799 81.6906 574.496 80.5059C576.359 79.8967 578.22 79.2961 580.066 78.7399ZM585.535 74.6115C583.964 75.7712 582.381 76.9712 580.794 78.1875C578.999 78.7224 577.19 79.2973 575.38 79.8808C577.042 78.7286 578.692 77.6196 580.338 76.525C582.079 75.8592 583.81 75.2267 585.535 74.6115ZM590.964 70.6869C589.477 71.7365 587.977 72.8284 586.476 73.9297C584.844 74.5036 583.212 75.0783 581.567 75.6973C583.147 74.6567 584.714 73.6611 586.278 72.6735C587.849 71.9823 589.407 71.3333 590.964 70.6869ZM596.087 67.1581C594.823 68.0098 593.548 68.8971 592.274 69.7849C590.825 70.3753 589.363 71.0065 587.902 71.6359C589.36 70.7291 590.805 69.8691 592.249 69.0076C593.536 68.3652 594.81 67.7675 596.087 67.1581ZM600.281 64.4017C599.538 64.8842 598.791 65.3738 598.045 65.8633C597.253 66.2323 596.451 66.6326 595.656 67.0139C597.205 66.1186 598.748 65.2417 600.281 64.4017ZM36.6149 452.176C38.889 458.162 41.1799 464.112 43.5012 469.989C38.5551 459.994 33.7896 449.569 29.1329 438.959C31.5843 443.45 34.0753 447.865 36.6149 452.176ZM28.0642 429.394L28.074 429.42C30.6842 436.416 33.2997 443.428 35.9383 450.394C33.1088 445.538 30.3373 440.558 27.6147 435.487C24.811 429.046 22.0431 422.547 19.2958 416.044C22.1612 420.593 25.0811 425.053 28.0642 429.394ZM18.9486 405.129C21.8446 412.733 24.7219 420.436 27.6042 428.16C24.5134 423.628 21.4901 418.967 18.5241 414.215C17.2875 411.285 16.0544 408.354 14.8241 405.429C13.0277 401.16 11.236 396.902 9.44522 392.67C12.5474 396.92 15.7129 401.083 18.9486 405.129ZM8.8095 379.321C12.1134 387.402 15.358 395.717 18.579 404.159C15.281 400.008 12.0562 395.735 8.89552 391.375C5.52611 383.425 2.15498 375.578 -1.24783 367.934C2.03517 371.816 5.3848 375.623 8.8095 379.321ZM-3.29513 351.622C0.737254 360.144 4.63907 369.153 8.46275 378.476C4.99658 374.711 1.60567 370.837 -1.71631 366.886C-5.679 358.016 -9.68815 349.431 -13.7902 341.289C-10.3644 344.804 -6.86805 348.257 -3.29513 351.622ZM857.979 215.447L858.157 215.912L858.096 215.813L857.884 215.307L857.979 215.447ZM857.189 213.388L857.489 214.166L857.268 213.845C857.155 213.579 857.041 213.312 856.928 213.046L857.189 213.388ZM856.387 211.32L856.774 212.319L856.428 211.868L856.007 210.877L856.387 211.32ZM855.596 209.283C855.745 209.664 855.892 210.047 856.041 210.429L855.597 209.912C855.434 209.532 855.27 209.154 855.107 208.774C855.271 208.944 855.431 209.113 855.596 209.283ZM854.793 207.237C854.96 207.661 855.128 208.084 855.294 208.509C855.113 208.324 854.935 208.138 854.753 207.952L854.22 206.713C854.41 206.887 854.6 207.062 854.793 207.237ZM853.992 205.199C854.172 205.652 854.349 206.107 854.528 206.561C854.32 206.373 854.121 206.187 853.912 205.999L853.348 204.696C853.563 204.864 853.779 205.032 853.992 205.199ZM853.186 203.165C853.378 203.648 853.571 204.131 853.762 204.614C853.536 204.436 853.307 204.259 853.079 204.081C852.876 203.614 852.672 203.147 852.468 202.681L853.186 203.165ZM852.37 201.117L852.978 202.641L852.231 202.138C852.018 201.65 851.806 201.162 851.591 200.675L852.37 201.117ZM851.56 199.092C851.768 199.61 851.975 200.13 852.183 200.649L851.376 200.191C851.157 199.692 850.935 199.195 850.715 198.697L851.56 199.092ZM850.741 197.07C850.956 197.602 851.173 198.134 851.387 198.666L850.522 198.262C850.296 197.753 850.073 197.244 849.846 196.736L850.741 197.07ZM849.927 195.057C850.147 195.599 850.365 196.142 850.584 196.684L849.672 196.342C849.439 195.823 849.205 195.305 848.972 194.786L849.927 195.057ZM537.452 124.961C535.754 126.843 534.047 128.76 532.333 130.703C529.912 130.405 527.486 130.109 525.055 129.819C526.808 127.955 528.554 126.119 530.291 124.314C532.684 124.523 535.071 124.738 537.452 124.961ZM542.841 119.052C541.142 120.89 539.432 122.766 537.716 124.667C535.343 124.444 532.963 124.228 530.578 124.02C532.333 122.2 534.081 120.403 535.818 118.648C538.165 118.772 540.507 118.906 542.841 119.052ZM548.246 113.269C546.546 115.061 544.836 116.895 543.12 118.75C540.794 118.604 538.461 118.471 536.122 118.345C537.885 116.567 539.639 114.823 541.385 113.109C543.68 113.148 545.965 113.204 548.246 113.269ZM553.632 107.656C551.945 109.387 550.245 111.164 548.541 112.959C546.266 112.893 543.986 112.837 541.698 112.797C543.457 111.073 545.204 109.399 546.947 107.738C549.184 107.691 551.408 107.672 553.632 107.656ZM559.108 102.105C557.399 103.808 555.676 105.563 553.949 107.334C551.733 107.348 549.52 107.361 547.291 107.407C549.045 105.739 550.787 104.114 552.524 102.509C554.719 102.372 556.928 102.205 559.108 102.105ZM564.518 96.7969C562.839 98.4209 561.149 100.081 559.452 101.768C557.282 101.865 555.086 102.025 552.902 102.159C554.671 100.528 556.43 98.9364 558.181 97.3712C560.305 97.1485 562.41 96.9789 564.518 96.7969ZM570.023 91.5655C568.32 93.1591 566.611 94.7728 564.889 96.4338C562.799 96.6114 560.716 96.7683 558.61 96.9863C560.364 95.4226 562.109 93.8949 563.846 92.3967C565.916 92.0876 567.969 91.8291 570.023 91.5655ZM575.545 86.4887C573.85 88.0202 572.15 89.5754 570.437 91.1736C568.4 91.4319 566.362 91.6947 564.309 91.9975C566.038 90.5095 567.758 89.0537 569.469 87.6301C571.502 87.2313 573.53 86.8383 575.545 86.4887ZM581.048 81.6036C579.372 83.0637 577.689 84.5514 575.995 86.0778C574.008 86.4191 572.008 86.7981 570.004 87.1877C571.744 85.7456 573.475 84.3354 575.196 82.9591C577.157 82.4768 579.105 82.0335 581.048 81.6036ZM586.565 76.8858C584.909 78.2737 583.247 79.6899 581.572 81.1434C579.657 81.5627 577.732 82.0095 575.8 82.4799C577.503 81.124 579.199 79.7965 580.885 78.5045C582.787 77.9383 584.681 77.3972 586.565 76.8858ZM592.019 72.4039C590.411 73.6974 588.797 75.0186 587.172 76.3749C585.327 76.8697 583.468 77.4088 581.606 77.9564C583.271 76.688 584.927 75.4458 586.574 74.2385C588.398 73.598 590.212 72.9889 592.019 72.4039ZM597.489 68.0922C595.911 69.3089 594.323 70.5538 592.727 71.8319C590.995 72.3862 589.26 72.9534 587.512 73.5584C589.141 72.3746 590.762 71.2145 592.374 70.0895C594.089 69.3909 595.791 68.7367 597.489 68.0922ZM602.832 64.0648C601.359 65.149 599.88 66.2576 598.392 67.3962C596.781 67.999 595.158 68.6398 593.532 69.291C595.076 68.2245 596.615 67.1788 598.144 66.166C599.716 65.4337 601.275 64.7468 602.832 64.0648ZM607.873 60.4327C606.6 61.3278 605.323 62.2419 604.038 63.1779C602.65 63.776 601.25 64.4133 599.85 65.0509C601.173 64.189 602.492 63.3411 603.804 62.5192C605.166 61.8021 606.522 61.1097 607.873 60.4327ZM611.639 57.8123C610.97 58.2647 610.297 58.7395 609.624 59.2101C608.825 59.6015 608.022 60.0036 607.218 60.4089C608.7 59.514 610.171 58.6566 611.639 57.8123ZM53.6079 489.886C55.7057 495.957 57.823 501.962 59.9742 507.862C55.3159 497.911 50.8469 487.423 46.4939 476.634C48.82 481.164 51.1891 485.587 53.6079 489.886ZM45.8891 467.08C48.2522 474.17 50.6263 481.226 53.0255 488.199C50.3473 483.381 47.73 478.408 45.1626 473.315C42.5965 466.885 40.0696 460.358 37.5659 453.783C40.2814 458.345 43.0534 462.787 45.8891 467.08ZM37.8416 442.845C39.0756 446.552 40.3079 450.267 41.5393 453.982C42.859 457.964 44.1788 461.945 45.502 465.917C42.5694 461.439 39.7063 456.799 36.901 452.036C34.1825 444.876 31.4889 437.665 28.8019 430.465C31.7504 434.721 34.7606 438.857 37.8416 442.845ZM29.1726 417.215C31.9904 425.355 34.7688 433.618 37.5348 441.922C34.4023 437.839 31.3432 433.603 28.347 429.245C25.4321 421.431 22.5237 413.636 19.5959 405.939C22.7193 409.819 25.9096 413.586 29.1726 417.215ZM19.4081 390.159C22.6467 398.692 25.8 407.491 28.905 416.443C25.6064 412.751 22.3835 408.916 19.2266 404.969C15.993 396.48 12.7351 388.113 9.41949 379.978C12.6796 383.478 16.0064 386.88 19.4081 390.159ZM7.58032 361.338C11.5816 370.244 15.4178 379.673 19.1416 389.456C15.715 386.136 12.3634 382.69 9.08061 379.145C5.25923 369.798 1.35876 360.764 -2.66978 352.208C-1.00937 353.762 0.666597 355.297 2.35965 356.809C4.07997 358.345 5.82333 359.852 7.58032 361.338ZM-9.19663 329.291C-3.35215 338.626 2.10045 349.204 7.27466 360.662C5.69373 359.318 4.12298 357.958 2.57105 356.572C0.681191 354.885 -1.18697 353.17 -3.03516 351.431C-8.27867 340.352 -13.7428 330.092 -19.5385 321.006C-16.1587 323.828 -12.71 326.594 -9.19663 329.291ZM859.734 219.099L859.875 219.508L859.852 219.467L859.679 219.009L859.734 219.099ZM858.975 216.914L859.242 217.679L859.057 217.376L858.759 216.596L858.975 216.914ZM858.214 214.736L858.568 215.75L858.262 215.3C858.133 214.964 858.006 214.628 857.876 214.292L858.214 214.736ZM857.454 212.571L857.875 213.766L857.469 213.232C857.316 212.836 857.162 212.442 857.009 212.047L857.454 212.571ZM856.696 210.427L857.158 211.733L856.663 211.156C856.498 210.729 856.333 210.302 856.167 209.876L856.696 210.427ZM855.937 208.282C856.105 208.754 856.271 209.228 856.439 209.7C856.247 209.503 856.058 209.304 855.869 209.107C855.688 208.646 855.507 208.185 855.326 207.724C855.529 207.91 855.732 208.096 855.937 208.282ZM855.158 206.109C855.34 206.619 855.524 207.128 855.706 207.637C855.489 207.441 855.274 207.244 855.06 207.048L854.484 205.583C854.71 205.759 854.936 205.934 855.158 206.109ZM854.393 203.978C854.581 204.501 854.768 205.023 854.955 205.545C854.725 205.363 854.489 205.181 854.254 204.998C854.055 204.492 853.855 203.986 853.654 203.481C853.901 203.646 854.148 203.812 854.393 203.978ZM853.612 201.823C853.812 202.373 854.013 202.922 854.212 203.473L853.445 202.956C853.234 202.426 853.023 201.897 852.812 201.369C853.08 201.52 853.347 201.672 853.612 201.823ZM852.835 199.689L853.446 201.366L852.625 200.899C852.41 200.364 852.198 199.826 851.982 199.29C852.267 199.423 852.553 199.557 852.835 199.689ZM852.057 197.562C852.266 198.132 852.476 198.702 852.685 199.274L851.81 198.865C851.589 198.316 851.366 197.769 851.145 197.221L852.057 197.562ZM851.273 195.439C851.487 196.02 851.702 196.6 851.916 197.181L850.988 196.834C850.763 196.279 850.539 195.722 850.312 195.167L851.273 195.439ZM544.982 125.694C543.33 127.65 541.669 129.641 540 131.662C537.572 131.353 535.138 131.049 532.699 130.748C534.418 128.801 536.128 126.883 537.831 124.997C540.221 125.222 542.604 125.455 544.982 125.694ZM550.247 119.549C548.581 121.475 546.912 123.41 545.229 125.399C542.857 125.16 540.479 124.928 538.095 124.703C539.816 122.799 541.531 120.918 543.236 119.076C545.579 119.222 547.916 119.382 550.247 119.549ZM555.534 113.519C553.866 115.401 552.191 117.303 550.504 119.249C548.18 119.082 545.852 118.921 543.514 118.774C545.236 116.914 546.952 115.077 548.657 113.281C550.955 113.348 553.25 113.426 555.534 113.519ZM560.817 107.641C559.154 109.467 557.485 111.32 555.807 113.211C553.529 113.117 551.243 113.04 548.952 112.972C550.663 111.171 552.368 109.391 554.061 107.655C556.317 107.641 558.576 107.623 560.817 107.641ZM566.111 101.898C564.452 103.672 562.785 105.48 561.109 107.319C558.877 107.3 556.626 107.32 554.378 107.333C556.112 105.557 557.841 103.8 559.558 102.092C561.756 101.994 563.928 101.959 566.111 101.898ZM571.487 96.2261C569.81 97.9691 568.122 99.7508 566.427 101.562C564.254 101.621 562.089 101.66 559.901 101.755C561.605 100.061 563.304 98.3857 564.99 96.7584C567.159 96.5744 569.336 96.367 571.487 96.2261ZM576.811 90.7716C575.164 92.4326 573.505 94.1356 571.839 95.8638C569.698 96.0022 567.526 96.2133 565.368 96.3943C567.101 94.7264 568.822 93.0971 570.536 91.4966C572.637 91.2305 574.728 90.9914 576.811 90.7716ZM582.216 85.405C580.55 87.0311 578.872 88.7022 577.187 90.3974C575.115 90.6134 573.039 90.843 570.95 91.1041C572.674 89.4988 574.386 87.9383 576.091 86.4003C578.14 86.0492 580.185 85.7057 582.216 85.405ZM587.577 80.2577C585.941 81.8012 584.293 83.388 582.638 84.9989C580.618 85.2952 578.578 85.6438 576.54 85.9896C578.261 84.4425 579.97 82.9382 581.671 81.4594C583.651 81.0264 585.616 80.6372 587.577 80.2577ZM592.996 75.2438C591.352 76.7396 589.699 78.2655 588.036 79.8286C586.095 80.2001 584.153 80.576 582.194 80.9997C583.894 79.5275 585.583 78.0965 587.264 76.6918C589.186 76.1765 591.093 75.7027 592.996 75.2438ZM598.38 70.4451C596.763 71.8604 595.139 73.2952 593.504 74.7765C591.626 75.2244 589.737 75.7032 587.841 76.2059C589.513 74.816 591.173 73.4651 592.826 72.1415C594.687 71.5455 596.538 70.9824 598.38 70.4451ZM603.793 65.8078C602.186 67.1567 600.574 68.5242 598.949 69.94C597.151 70.4582 595.347 70.9965 593.532 71.5699C595.195 70.2449 596.847 68.9602 598.492 67.7015C600.269 67.0356 602.034 66.4141 603.793 65.8078ZM609.148 61.4112C607.6 62.6549 606.047 63.9152 604.482 65.2218C602.771 65.8043 601.05 66.4216 599.323 67.0592C600.937 65.8312 602.541 64.644 604.138 63.4798C605.818 62.7561 607.486 62.077 609.148 61.4112ZM614.376 57.3066C612.924 58.4217 611.468 59.5463 609.999 60.7173C608.412 61.3443 606.812 62.0133 605.209 62.6922C606.723 61.5981 608.226 60.5456 609.724 59.5092C611.284 58.7458 612.833 58.0164 614.376 57.3066ZM619.456 53.5004C618.133 54.4687 616.809 55.439 615.474 56.4533C614.12 57.0652 612.765 57.6844 611.4 58.3371C612.726 57.4343 614.038 56.5791 615.35 55.7207C616.724 54.964 618.095 54.2127 619.456 53.5004ZM623.371 50.6937C622.565 51.2607 621.766 51.8083 620.956 52.3908C620.302 52.7268 619.653 53.0403 618.995 53.3859C620.462 52.4626 621.921 51.5606 623.371 50.6937ZM62.4341 504.606C64.5883 511.773 66.757 518.87 68.9554 525.848C66.4041 521.086 63.9146 516.14 61.4789 511.043C59.1077 504.618 56.7784 498.062 54.4749 491.422C57.0667 495.975 59.7169 500.379 62.4341 504.606ZM55.2224 480.311C57.511 488.075 59.7966 495.82 62.0977 503.487C59.2974 499.088 56.567 494.499 53.8972 489.755C51.4296 482.613 48.9912 475.375 46.564 468.101C49.3835 472.33 52.2666 476.41 55.2224 480.311ZM47.6255 454.691C50.0703 462.837 52.487 471.034 54.8993 479.215L54.9667 479.444C51.9649 475.449 49.0379 471.269 46.1756 466.936C44.7277 462.594 43.284 458.238 41.8402 453.882C40.7026 450.452 39.5652 447.021 38.4255 443.596C41.4226 447.445 44.4869 451.153 47.6255 454.691ZM39.3373 427.8C42.0783 436.398 44.7588 445.149 47.4061 453.962C44.2392 450.367 41.1477 446.602 38.1244 442.692C35.3429 434.334 32.5488 426.014 29.7156 417.817C32.8519 421.283 36.0574 424.619 39.3373 427.8ZM29.8546 399.605C33.0456 408.528 36.1257 417.75 39.1307 427.157C35.8308 423.936 32.6063 420.559 29.4501 417.05C26.3397 408.067 23.1807 399.234 19.9376 390.666C23.1746 393.765 26.4785 396.753 29.8546 399.605ZM18.1804 369.806C22.185 379.03 25.9873 388.821 29.643 399.011C26.2496 396.128 22.9297 393.109 19.6775 389.977C15.9613 380.185 12.1346 370.741 8.14269 361.817C11.4232 364.576 14.7669 367.247 18.1804 369.806ZM1.37047 337.022C7.29962 346.567 12.7785 357.417 17.9228 369.21C14.4921 366.626 11.134 363.928 7.83798 361.142C2.70909 349.733 -2.69167 339.179 -8.47816 329.843C-5.25487 332.303 -1.97647 334.706 1.37047 337.022ZM861.409 222.967L861.465 223.142L861.396 222.941L861.409 222.967ZM860.685 220.662L860.92 221.41L860.777 221.149L860.51 220.375L860.685 220.662ZM859.969 218.385C860.076 218.722 860.181 219.06 860.287 219.398L860.023 218.963L859.669 217.937L859.969 218.385ZM859.242 216.099L859.628 217.311C859.506 217.131 859.383 216.951 859.261 216.771L858.839 215.564L859.242 216.099ZM858.517 213.821C858.663 214.275 858.806 214.731 858.952 215.185L858.497 214.584C858.341 214.139 858.187 213.693 858.031 213.249L858.517 213.821ZM857.794 211.569C857.952 212.058 858.11 212.547 858.267 213.037L857.734 212.409C857.567 211.934 857.397 211.457 857.229 210.981L857.794 211.569ZM857.068 209.316L857.572 210.879L856.972 210.255C856.792 209.749 856.615 209.243 856.435 208.737L857.068 209.316ZM856.329 207.037C856.509 207.591 856.69 208.146 856.87 208.701L856.207 208.096C856.015 207.555 855.819 207.015 855.626 206.474C855.863 206.663 856.092 206.848 856.329 207.037ZM855.594 204.787C855.778 205.352 855.963 205.916 856.147 206.481C855.908 206.292 855.667 206.102 855.424 205.911C855.228 205.367 855.034 204.822 854.837 204.278C855.09 204.448 855.345 204.618 855.594 204.787ZM854.854 202.528C855.048 203.117 855.24 203.706 855.433 204.295C855.177 204.121 854.916 203.946 854.656 203.773C854.451 203.203 854.244 202.634 854.038 202.065C854.311 202.22 854.586 202.374 854.854 202.528ZM854.111 200.286C854.309 200.885 854.508 201.483 854.705 202.082C854.43 201.924 854.151 201.766 853.872 201.608C853.663 201.031 853.452 200.456 853.243 199.88C853.533 200.016 853.824 200.152 854.111 200.286ZM853.37 198.052C853.573 198.66 853.773 199.27 853.976 199.879C853.684 199.741 853.387 199.603 853.092 199.465C852.878 198.879 852.664 198.293 852.45 197.708C852.757 197.823 853.067 197.938 853.37 198.052ZM852.621 195.822C852.829 196.44 853.039 197.058 853.246 197.678C852.937 197.562 852.622 197.444 852.308 197.327C852.09 196.733 851.869 196.14 851.65 195.546L852.621 195.822ZM552.54 126.478C550.926 128.506 549.305 130.567 547.676 132.655C545.243 132.336 542.804 132.019 540.358 131.708C542.03 129.684 543.693 127.687 545.346 125.731C547.749 125.973 550.147 126.222 552.54 126.478ZM557.652 120.115C556.036 122.102 554.409 124.132 552.775 126.184C550.388 125.928 547.995 125.678 545.596 125.436C547.281 123.445 548.953 121.504 550.621 119.577C552.971 119.746 555.316 119.925 557.652 120.115ZM562.8 113.865C561.175 115.816 559.542 117.799 557.899 119.815C555.566 119.625 553.225 119.447 550.879 119.276C552.57 117.325 554.249 115.421 555.923 113.535C558.223 113.631 560.514 113.743 562.8 113.865ZM567.948 107.769C566.323 109.673 564.694 111.591 563.051 113.56C560.772 113.438 558.487 113.325 556.193 113.229C557.88 111.331 559.556 109.472 561.225 107.64M573.169 101.735C571.526 103.611 569.876 105.512 568.214 107.455C565.985 107.403 563.761 107.339 561.517 107.319C563.199 105.474 564.872 103.664 566.536 101.886C568.751 101.826 570.97 101.757 573.169 101.735ZM578.355 95.8922C576.73 97.699 575.097 99.535 573.454 101.409C571.265 101.429 569.057 101.492 566.852 101.549C568.558 99.7291 570.256 97.9403 571.944 96.1887C574.097 96.0503 576.219 95.9886 578.355 95.8922ZM583.64 90.1001C581.992 91.8802 580.334 93.6954 578.668 95.5445C576.542 95.639 574.429 95.6995 572.287 95.8354C573.961 94.0999 575.629 92.3915 577.286 90.7232C579.408 90.503 581.535 90.2739 583.64 90.1001ZM588.881 84.5205C587.255 86.2249 585.617 87.9684 583.972 89.7419C581.882 89.9116 579.771 90.1334 577.661 90.3494C579.362 88.6408 581.054 86.9602 582.736 85.3218C584.797 85.0208 586.839 84.7701 588.881 84.5205ZM594.15 79.0811C592.527 80.729 590.892 82.4183 589.25 84.1363C587.221 84.3815 585.189 84.636 583.142 84.9319C584.815 83.3051 586.482 81.703 588.136 80.1454C590.151 79.7602 592.155 79.4117 594.15 79.0811ZM599.45 73.7896C597.828 75.3814 596.194 77.0159 594.552 78.6781C592.576 79.0012 590.595 79.3387 588.6 79.716C590.276 78.1426 591.946 76.5938 593.603 75.0902C595.563 74.6233 597.509 74.1985 599.45 73.7896ZM604.733 68.6968C603.133 70.2105 601.521 71.7692 599.901 73.3535C597.985 73.7525 596.063 74.1672 594.128 74.6232C595.776 73.1337 597.418 71.6707 599.048 70.2489C600.954 69.7006 602.848 69.1845 604.733 68.6968ZM610.054 63.7576C608.458 65.2097 606.849 66.7079 605.234 68.2303C603.379 68.7045 601.517 69.2033 599.643 69.7367C601.299 68.2997 602.945 66.8943 604.582 65.5263C606.417 64.9017 608.238 64.3196 610.054 63.7576ZM615.345 59.0388C613.79 60.397 612.22 61.8025 610.646 63.229C608.861 63.7745 607.065 64.3578 605.262 64.9637C606.881 63.6186 608.492 62.3024 610.092 61.0245C611.854 60.3289 613.603 59.6717 615.345 59.0388ZM620.56 54.5812C619.062 55.8328 617.551 57.1324 616.036 58.4478C614.343 59.0547 612.638 59.7003 610.927 60.3667C612.484 59.1327 614.034 57.9227 615.573 56.7517C617.245 55.9956 618.906 55.276 620.56 54.5812ZM625.73 50.3621C624.308 51.4968 622.873 52.6757 621.435 53.8675C619.89 54.5068 618.34 55.16 616.778 55.8533C618.209 54.7774 619.636 53.7112 621.052 52.6892C622.619 51.8859 624.18 51.1067 625.73 50.3621ZM630.622 46.5552C629.366 47.5117 628.099 48.5015 626.831 49.5012C625.501 50.1287 624.166 50.7721 622.824 51.4437C624.088 50.5484 625.352 49.6504 626.604 48.7973C627.951 48.023 629.289 47.283 630.622 46.5552ZM634.537 43.6514C633.812 44.1809 633.085 44.7185 632.356 45.2588C631.566 45.6791 630.768 46.1272 629.973 46.564C631.502 45.5673 633.024 44.5914 634.537 43.6514ZM64.6505 491.829C65.8162 496.254 66.9766 500.679 68.1344 505.095C69.1524 508.979 70.1688 512.854 71.1847 516.717C68.2911 512.84 65.4748 508.75 62.7265 504.476C60.3951 496.719 58.0794 488.879 55.7617 481.017C58.653 484.802 61.6131 488.414 64.6505 491.829ZM57.4488 464.935C59.8291 473.62 62.1617 482.383 64.4722 491.15C61.4096 487.681 58.4246 484.01 55.5106 480.165L55.204 479.126C52.8556 471.163 50.5038 463.184 48.1265 455.253C51.1612 458.648 54.2668 461.883 57.4488 464.935ZM49.4653 436.906C52.1456 445.898 54.7428 455.073 57.2858 464.339C54.0848 461.248 50.9617 457.971 47.9095 454.534C45.2545 445.688 42.5679 436.904 39.8196 428.271C42.964 431.299 46.178 434.184 49.4653 436.906ZM40.1673 407.699C43.3382 416.953 46.3701 426.545 49.3013 436.358C45.9995 433.606 42.7727 430.69 39.6157 427.629C36.6086 418.201 33.5268 408.958 30.3352 400.01C30.9054 400.489 31.4772 400.965 32.0519 401.436C34.7093 403.614 37.4167 405.7 40.1673 407.699ZM28.5131 377.059C32.5587 386.535 36.364 396.631 39.9874 407.171C37.3678 405.259 34.7877 403.267 32.2535 401.189C31.5402 400.605 30.8304 400.013 30.1232 399.416C26.4773 389.225 22.6849 379.429 18.6925 370.193C21.9035 372.584 25.1765 374.878 28.5131 377.059ZM11.3427 343.553C17.4674 353.265 23.0726 364.378 28.281 376.519C24.9352 374.322 21.6553 372.011 18.4364 369.601C13.3307 357.846 7.89616 347.011 2.01751 337.46C5.07338 339.56 8.18128 341.595 11.3427 343.553ZM-21.5777 309.387C-22.8737 308.678 -24.1889 308.025 -25.5224 307.422C-26.7398 306.166 -27.9765 304.969 -29.2274 303.819C-28.5053 304.268 -27.7878 304.734 -27.0772 305.218C-25.2052 306.493 -23.3729 307.885 -21.5777 309.387ZM862.328 224.653L862.526 225.35L862.418 225.133L862.188 224.394L862.328 224.653ZM861.643 222.251L861.931 223.256L861.704 222.842L861.382 221.817L861.643 222.251ZM860.958 219.856L861.307 221.078L860.977 220.531L860.596 219.317L860.958 219.856ZM860.269 217.462C860.404 217.93 860.54 218.397 860.674 218.865L860.26 218.248C860.114 217.786 859.966 217.326 859.819 216.865L860.269 217.462ZM859.579 215.078L860.02 216.603L859.529 215.951L859.053 214.455L859.579 215.078ZM858.89 212.71L859.362 214.329L858.801 213.665C858.633 213.141 858.465 212.617 858.297 212.092C858.495 212.298 858.694 212.504 858.89 212.71ZM858.198 210.349L858.697 212.05C858.49 211.834 858.282 211.618 858.074 211.402L857.542 209.748C857.761 209.948 857.981 210.149 858.198 210.349ZM857.503 207.981C857.678 208.572 857.85 209.165 858.024 209.757C857.798 209.549 857.571 209.342 857.343 209.134C857.156 208.557 856.97 207.978 856.783 207.401C857.022 207.594 857.261 207.787 857.503 207.981ZM856.795 205.598C856.978 206.213 857.162 206.827 857.343 207.443C857.093 207.243 856.847 207.044 856.601 206.845C856.408 206.255 856.215 205.666 856.022 205.076C856.282 205.25 856.542 205.425 856.795 205.598ZM856.097 203.247C856.283 203.87 856.467 204.494 856.652 205.117C856.393 204.94 856.127 204.762 855.862 204.584C855.663 203.979 855.467 203.373 855.268 202.768C855.544 202.927 855.818 203.087 856.097 203.247ZM855.39 200.894C855.582 201.532 855.775 202.169 855.966 202.807C855.681 202.643 855.403 202.481 855.119 202.317C854.916 201.702 854.711 201.088 854.508 200.474C854.802 200.614 855.094 200.754 855.39 200.894ZM854.682 198.548C854.878 199.195 855.072 199.843 855.268 200.49C854.966 200.348 854.673 200.206 854.372 200.064C854.165 199.441 853.96 198.818 853.752 198.195C854.065 198.313 854.369 198.43 854.682 198.548ZM853.971 196.207C854.172 196.864 854.371 197.52 854.57 198.177L853.628 197.821C853.417 197.189 853.204 196.559 852.992 195.927L853.971 196.207ZM560.088 127.315C558.515 129.402 556.931 131.527 555.341 133.674C552.908 133.346 550.468 133.021 548.022 132.7C549.654 130.611 551.279 128.547 552.894 126.517C555.299 126.776 557.698 127.041 560.088 127.315ZM565.074 120.756C563.496 122.809 561.906 124.904 560.311 127.019C557.924 126.747 555.531 126.482 553.13 126.223C554.767 124.168 556.399 122.135 558.018 120.144C560.378 120.337 562.728 120.543 565.074 120.756ZM570.087 114.293C568.503 116.309 566.906 118.376 565.305 120.457C562.964 120.245 560.619 120.038 558.264 119.845C559.909 117.827 561.544 115.836 563.17 113.885C565.483 114.009 567.79 114.143 570.087 114.293ZM575.112 107.958C573.527 109.93 571.929 111.952 570.326 113.991C568.032 113.839 565.73 113.705 563.422 113.58C565.068 111.606 566.701 109.687 568.331 107.779C570.594 107.833 572.864 107.872 575.112 107.958ZM580.167 101.753C578.573 103.689 576.975 105.641 575.363 107.643C573.121 107.557 570.854 107.519 568.597 107.465C570.262 105.518 571.915 103.616 573.562 101.736C575.775 101.716 577.971 101.736 580.167 101.753ZM585.29 95.6129C583.68 97.519 582.062 99.4511 580.433 101.427C578.243 101.408 576.053 101.391 573.847 101.41C575.499 99.5287 577.139 97.6867 578.772 95.8732C580.949 95.7772 583.132 95.6655 585.29 95.6129ZM590.401 89.6415C588.8 91.4862 587.191 93.3625 585.572 95.2765C583.423 95.3278 581.251 95.4326 579.084 95.5261C580.757 93.6721 582.419 91.8547 584.071 90.0712C586.192 89.8995 588.299 89.7659 590.401 89.6415ZM595.541 83.797C593.94 85.5907 592.33 87.4208 590.71 89.2853C588.616 89.4067 586.516 89.5451 584.404 89.7129C586.062 87.9275 587.711 86.1743 589.351 84.4592C591.426 84.2085 593.486 83.995 595.541 83.797ZM600.708 78.0912C599.105 79.8332 597.492 81.6149 595.87 83.4295C593.828 83.6234 591.781 83.8293 589.72 84.075C591.373 82.3482 593.018 80.6526 594.653 78.9968C596.681 78.6658 598.699 78.3659 600.708 78.0912ZM605.896 72.5345C604.295 74.2205 602.682 75.9492 601.061 77.7081C599.067 77.9778 597.066 78.2699 595.054 78.594C596.712 76.918 598.362 75.272 600.001 73.668C601.977 73.2572 603.94 72.8861 605.896 72.5345ZM611.084 67.1596C609.496 68.7763 607.896 70.4369 606.287 72.1257C604.351 72.4698 602.408 72.8302 600.451 73.2324C602.088 71.6352 603.718 70.0663 605.335 68.5403C607.262 68.0484 609.178 67.5891 611.084 67.1596ZM616.315 61.9282C614.725 63.4888 613.123 65.0939 611.511 66.729C609.629 67.1477 607.738 67.5937 605.836 68.0741C607.482 66.5266 609.12 65.0091 610.746 63.5351C612.613 62.9644 614.469 62.4334 616.315 61.9282ZM621.533 56.9044C619.966 58.3832 618.387 59.9066 616.801 61.458C614.979 61.9509 613.145 62.4814 611.303 63.0376C612.923 61.5761 614.534 60.1436 616.134 58.7537C617.943 58.1045 619.744 57.4859 621.533 56.9044ZM626.709 52.1168C625.173 53.5075 623.626 54.9421 622.072 56.4036C620.323 56.965 618.562 57.5631 616.793 58.1892C618.385 56.8149 619.968 55.4672 621.539 54.1626C623.273 53.4457 624.995 52.7673 626.709 52.1168ZM631.857 47.5565C630.375 48.8396 628.881 50.1676 627.381 51.518C625.728 52.1366 624.067 52.7823 622.397 53.463C623.917 52.2103 625.432 50.9819 626.935 49.7948C628.585 49.0157 630.226 48.2692 631.857 47.5565ZM636.951 43.2437C635.532 44.4163 634.1 45.633 632.664 46.8689C631.132 47.5286 629.594 48.2125 628.047 48.9298C629.528 47.773 631.002 46.6395 632.466 45.5445C633.971 44.7444 635.463 43.9849 636.951 43.2437ZM641.85 39.2899C640.601 40.2723 639.34 41.2977 638.077 42.3304C636.74 42.9838 635.39 43.6815 634.04 44.3829C635.338 43.4294 636.63 42.4944 637.915 41.5884C639.231 40.8046 640.547 40.0256 641.85 39.2899ZM645.645 36.3677C644.892 36.9362 644.132 37.531 643.374 38.1158C642.57 38.5591 641.766 39.0033 640.957 39.4644C642.531 38.3898 644.092 37.3655 645.645 36.3677ZM74.1977 501.63C76.2905 510.415 78.3474 519.225 80.3884 527.994C77.4097 524.681 74.5126 521.134 71.6891 517.386C70.6066 513.276 69.5256 509.15 68.4416 505.015C67.3366 500.8 66.2288 496.577 65.1171 492.353C68.0683 495.642 71.0935 498.741 74.1977 501.63ZM67.3215 473.588C69.627 482.668 71.8663 491.854 74.0645 501.07C70.9435 498.145 67.9046 495.004 64.938 491.674C62.6205 482.876 60.2806 474.08 57.8947 465.362C60.9632 468.282 64.1032 471.032 67.3215 473.588ZM59.5585 444.555C62.1997 453.877 64.7339 463.415 67.1917 473.077C63.9618 470.494 60.8109 467.716 57.7313 464.766C55.1865 455.481 52.5876 446.287 49.9057 437.273C51.3947 438.497 52.8992 439.687 54.4198 440.842C56.1119 442.127 57.8265 443.363 59.5585 444.555ZM50.3529 414.518C53.5305 424.031 56.5403 433.922 59.422 444.072C57.8019 442.949 56.1962 441.792 54.6113 440.589C52.9699 439.343 51.3467 438.052 49.7416 436.723C46.812 426.9 43.7827 417.295 40.6133 408.026C43.7953 410.322 47.0392 412.494 50.3529 414.518ZM38.5614 383.151C42.6986 392.829 46.5559 403.187 50.1933 414.041C46.8725 412.001 43.6218 409.812 40.4334 407.499C36.8196 396.961 33.0264 386.858 28.9931 377.373C32.1239 379.405 35.3137 381.332 38.5614 383.151ZM20.7523 349.05C27.1733 358.859 32.9982 370.192 38.3548 382.663C35.0993 380.829 31.9015 378.888 28.7635 376.841C23.5925 364.737 18.0297 353.642 11.9533 343.925C14.841 345.701 17.7724 347.413 20.7523 349.05ZM-21.3082 312.541C-22.9427 312.016 -24.6037 311.56 -26.2929 311.182C-27.6929 309.303 -29.1128 307.492 -30.5549 305.757C-28.9094 306.323 -27.2938 306.97 -25.704 307.689C-24.2137 309.229 -22.7499 310.848 -21.3082 312.541ZM-15.9399 314.574C-17.5104 313.891 -19.1079 313.279 -20.7306 312.736C-22.1052 311.106 -23.5018 309.548 -24.9203 308.057C-23.3489 308.797 -21.8033 309.607 -20.2842 310.491C-18.8108 311.779 -17.3645 313.142 -15.9399 314.574ZM-11.1041 316.938C-12.4347 316.213 -13.7833 315.536 -15.153 314.916C-16.3617 313.679 -17.5895 312.499 -18.8337 311.365C-17.7581 312.028 -16.6933 312.721 -15.6446 313.457C-14.1032 314.54 -12.5916 315.706 -11.1041 316.938ZM863.888 228.852L864.061 229.522L863.991 229.365L863.788 228.647L863.888 228.852ZM863.244 226.345L863.499 227.334L863.305 226.941L863.019 225.93L863.244 226.345ZM862.596 223.834C862.703 224.247 862.81 224.66 862.917 225.074L862.624 224.532L862.272 223.297L862.596 223.834ZM861.945 221.331L862.314 222.749L861.937 222.123L861.533 220.711C861.671 220.918 861.807 221.124 861.945 221.331ZM861.295 218.838C861.431 219.356 861.566 219.875 861.701 220.393C861.551 220.169 861.4 219.945 861.25 219.721C861.103 219.209 860.956 218.697 860.808 218.185L861.295 218.838ZM860.639 216.34L861.08 218.018L860.557 217.318L860.082 215.675L860.639 216.34ZM859.986 213.86C860.142 214.446 860.295 215.033 860.45 215.618C860.256 215.388 860.06 215.157 859.865 214.926C859.698 214.353 859.534 213.778 859.367 213.205C859.575 213.425 859.78 213.642 859.986 213.86ZM859.326 211.38C859.489 211.991 859.652 212.602 859.815 213.214C859.603 212.991 859.388 212.768 859.173 212.546C858.999 211.951 858.825 211.357 858.649 210.762C858.877 210.968 859.104 211.174 859.326 211.38ZM858.671 208.919C858.839 209.548 859.006 210.178 859.173 210.808C858.944 210.596 858.71 210.383 858.477 210.17C858.296 209.556 858.116 208.941 857.936 208.328L858.671 208.919ZM858.003 206.436C858.179 207.09 858.357 207.743 858.532 208.398C858.28 208.196 858.03 207.994 857.779 207.792C857.591 207.156 857.401 206.522 857.212 205.887C857.475 206.07 857.736 206.252 858.003 206.436ZM857.337 203.964C857.516 204.629 857.695 205.295 857.875 205.96C857.601 205.772 857.338 205.586 857.067 205.4C856.877 204.759 856.688 204.118 856.496 203.479L857.337 203.964ZM856.667 201.503C856.852 202.179 857.036 202.856 857.22 203.533L856.365 203.038C856.17 202.385 855.973 201.732 855.777 201.078L856.667 201.503ZM855.994 199.045C856.183 199.732 856.371 200.418 856.558 201.105L855.655 200.674C855.455 200.012 855.256 199.351 855.056 198.69L855.994 199.045ZM855.322 196.596C855.513 197.289 855.703 197.985 855.894 198.679L854.944 198.318C854.741 197.649 854.539 196.98 854.335 196.312L855.322 196.596ZM567.63 128.199C566.093 130.35 564.553 132.513 563 134.725C560.566 134.386 558.127 134.051 555.68 133.72C557.271 131.569 558.857 129.444 560.433 127.353C562.839 127.628 565.238 127.911 567.63 128.199ZM572.489 121.462C570.947 123.58 569.397 125.725 567.84 127.904C565.451 127.616 563.057 127.333 560.655 127.058C562.253 124.941 563.845 122.844 565.426 120.788C567.787 121.003 570.143 121.227 572.489 121.462ZM577.37 114.82C575.824 116.901 574.269 119.019 572.707 121.164C570.364 120.928 568.013 120.706 565.656 120.49C567.26 118.405 568.86 116.338 570.447 114.318C572.763 114.471 575.069 114.641 577.37 114.82ZM582.248 108.312C580.707 110.343 579.154 112.422 577.595 114.519C575.3 114.339 572.997 114.17 570.686 114.016C572.292 111.974 573.895 109.941 575.482 107.967C577.751 108.056 579.995 108.192 582.248 108.312ZM587.192 101.861C585.633 103.87 584.061 105.926 582.485 108.003C580.237 107.883 578.001 107.742 575.738 107.653C577.35 105.652 578.952 103.689 580.546 101.754C582.769 101.774 584.986 101.804 587.192 101.861ZM592.158 95.5486C590.592 97.5191 589.022 99.504 587.438 101.542C585.238 101.484 583.029 101.449 580.812 101.428C582.445 99.45 584.064 97.5175 585.677 95.6092C587.85 95.5587 590.003 95.5568 592.158 95.5486ZM597.169 89.3295C595.595 91.2596 594.015 93.2133 592.423 95.2129C590.274 95.2193 588.125 95.2243 585.959 95.273C587.587 93.3496 589.204 91.4668 590.813 89.6133C592.943 89.4904 595.058 89.4051 597.169 89.3295ZM602.204 83.2368C600.628 85.1185 599.044 87.0309 597.448 88.9843C595.346 89.0574 593.242 89.1367 591.121 89.2573C592.747 87.3872 594.365 85.5532 595.972 83.7546C598.059 83.5562 600.137 83.3827 602.204 83.2368ZM607.256 77.2871C605.68 79.1164 604.095 80.9807 602.5 82.8821C600.443 83.0249 598.377 83.1926 596.3 83.3871C597.93 81.5658 599.552 79.7781 601.163 78.0293C603.203 77.754 605.235 77.5054 607.256 77.2871ZM612.329 71.4814C610.753 73.257 609.167 75.0712 607.572 76.9204C605.563 77.1342 603.544 77.3762 601.516 77.6467C603.15 75.8761 604.775 74.1379 606.389 72.4423C608.38 72.0891 610.358 71.774 612.329 71.4814ZM617.413 65.8412C615.844 67.5534 614.264 69.3076 612.674 71.0945C610.718 71.3802 608.755 71.6874 606.78 72.0334C608.401 70.3334 610.013 68.6651 611.614 67.0396C613.557 66.6072 615.491 66.2089 617.413 65.8412ZM622.546 60.3317C620.97 61.9937 619.382 63.6987 617.786 65.437C615.881 65.7968 613.966 66.186 612.041 66.6092C613.67 64.9589 615.291 63.3411 616.9 61.7675C618.792 61.256 620.676 60.7758 622.546 60.3317ZM627.652 55.0431C626.096 56.625 624.527 58.2516 622.95 59.9101C621.1 60.344 619.238 60.8144 617.367 61.3146C618.978 59.7433 620.58 58.2042 622.171 56.7089C624.008 56.1185 625.836 55.5627 627.652 55.0431ZM632.778 49.9313C631.231 51.4425 629.673 52.9987 628.105 54.5867C626.317 55.0928 624.517 55.6345 622.708 56.2084C624.311 54.7073 625.905 53.2389 627.487 51.8137C629.261 51.1495 631.025 50.524 632.778 49.9313ZM637.86 45.0633C636.355 46.4747 634.837 47.9299 633.312 49.4145C631.595 49.9883 629.865 50.6002 628.128 51.2417C629.684 49.8468 631.231 48.4836 632.768 47.1615C634.477 46.4258 636.174 45.7273 637.86 45.0633ZM642.991 40.3595C641.502 41.6943 639.999 43.0727 638.49 44.4806C636.86 45.1135 635.222 45.7766 633.573 46.4761C635.116 45.1574 636.652 43.8706 638.176 42.6248C639.791 41.8345 641.396 41.0801 642.991 40.3595ZM647.963 36.0069C646.568 37.1994 645.161 38.4332 643.748 39.6908C642.232 40.3655 640.704 41.0797 639.17 41.8174C640.615 40.6477 642.05 39.5088 643.476 38.4042C644.98 37.5744 646.477 36.7724 647.963 36.0069ZM652.711 32.0448C651.47 33.0549 650.217 34.1036 648.962 35.1665C647.642 35.8335 646.317 36.5249 644.984 37.2418C646.274 36.2586 647.556 35.3065 648.832 34.3753C650.132 33.5741 651.426 32.794 652.711 32.0448ZM656.523 28.9977C655.764 29.5901 654.995 30.216 654.229 30.8321C653.435 31.2831 652.644 31.7274 651.844 32.1982C653.417 31.0857 654.975 30.0234 656.523 28.9977ZM568.174 127.945C569.735 125.762 571.287 123.617 572.831 121.496C585.544 122.777 598.041 124.345 610.306 126.164C697.077 139.028 772.12 164.373 828.377 188.668C770.491 168.44 693.007 146.435 604.406 132.905C592.522 131.09 580.437 129.43 568.174 127.945ZM563.33 134.771C564.885 132.556 566.427 130.394 567.965 128.24C580.283 129.73 592.422 131.397 604.358 133.22C691.604 146.543 768.062 168.079 825.628 188.037C766.638 172.18 688.079 154.043 599.39 140.112C587.544 138.251 575.515 136.466 563.33 134.771ZM83.8651 509.712C85.8756 518.898 87.8309 528.137 89.7536 537.361C86.6948 534.636 83.723 531.663 80.8269 528.474C78.7796 519.678 76.7177 510.839 74.6186 502.024C77.6232 504.794 80.7048 507.362 83.8651 509.712ZM77.2352 480.663C79.4893 490.076 81.6556 499.627 83.7614 509.238C80.5892 506.863 77.4994 504.265 74.485 501.464C72.2847 492.228 70.0427 483.02 67.7337 473.919C69.3327 475.178 70.9512 476.39 72.5892 477.552C74.1196 478.636 75.67 479.668 77.2352 480.663ZM69.6088 450.8C72.2353 460.385 74.7317 470.221 77.1286 480.216C75.6625 479.277 74.2085 478.31 72.7731 477.292C71.0274 476.054 69.305 474.757 67.6037 473.407C65.1461 463.733 62.6121 454.181 59.9707 444.844C63.1149 446.99 66.3267 448.978 69.6088 450.8ZM60.3776 420.084C63.5984 429.8 66.6247 439.934 69.493 450.374C66.2023 448.537 62.9848 446.526 59.8339 444.36C56.9535 434.199 53.9456 424.296 50.7699 414.77C53.9114 416.674 57.1121 418.451 60.3776 420.084ZM48.3079 388.173C52.5836 397.987 56.5395 408.54 60.2351 419.653C56.9652 418.009 53.7594 416.223 50.6154 414.306C46.9869 403.453 43.1391 393.095 39.0132 383.408C42.0574 385.1 45.156 386.689 48.3079 388.173ZM29.5472 353.601C36.3751 363.434 42.517 374.944 48.1107 387.723C44.9546 386.228 41.854 384.624 38.8064 382.92C33.4874 370.49 27.7054 359.18 21.335 349.365C24.0345 350.837 26.7678 352.258 29.5472 353.601ZM-23.8737 317.327C-24.9711 317.225 -26.0832 317.16 -27.2028 317.115C-28.565 314.922 -29.9418 312.793 -31.3346 310.725C-28.8822 312.946 -26.3977 315.15 -23.8737 317.327ZM-22.2021 317.518C-22.5711 317.473 -22.9394 317.427 -23.3098 317.386C-25.882 315.173 -28.4139 312.933 -30.9122 310.675C-29.4131 310.884 -27.9327 311.144 -26.4762 311.467C-25.0307 313.41 -23.6066 315.429 -22.2021 317.518ZM-16.5865 318.465C-18.2922 318.092 -20.0254 317.792 -21.7876 317.566C-23.1711 315.502 -24.5739 313.507 -25.9974 311.583C-24.2732 311.982 -22.5786 312.459 -20.9119 313.012C-19.4465 314.753 -18.005 316.572 -16.5865 318.465ZM-10.9582 319.979C-12.6497 319.43 -14.3714 318.957 -16.1226 318.561C-17.5068 316.704 -18.9134 314.918 -20.3428 313.203C-18.6442 313.786 -16.9745 314.445 -15.3347 315.184C-13.8492 316.706 -12.3913 318.307 -10.9582 319.979ZM-5.46185 322.073C-7.06889 321.373 -8.70357 320.742 -10.3653 320.183C-11.7333 318.571 -13.1244 317.027 -14.5384 315.551C-12.9293 316.306 -11.3488 317.138 -9.79394 318.04C-8.32476 319.313 -6.8813 320.66 -5.46185 322.073ZM-0.542234 324.483C-1.88873 323.751 -3.25577 323.071 -4.64277 322.441C-5.8662 321.201 -7.1092 320.014 -8.37064 318.877C-6.9485 319.747 -5.55074 320.684 -4.17506 321.676C-2.9453 322.564 -1.73513 323.502 -0.542234 324.483ZM2.28554 326.486C3.9978 327.536 5.6801 328.662 7.32592 329.879C15.3239 335.794 22.5615 343.636 29.1598 353.042C26.3819 351.69 23.6497 350.259 20.9516 348.778C15.2323 340.053 9.04144 332.529 2.28554 326.486ZM-4.03778 323.061C-2.4271 323.814 -0.845786 324.64 0.708645 325.536C7.85046 331.642 14.3692 339.389 20.3694 348.464C17.3823 346.812 14.4453 345.083 11.5518 343.293C6.70077 335.612 1.52465 328.805 -4.03778 323.061ZM-9.95349 320.665C-8.2132 321.268 -6.50248 321.949 -4.82306 322.709C0.805415 328.422 6.03895 335.224 10.9417 342.92C7.77079 340.944 4.65117 338.893 1.58762 336.774C-2.07785 330.879 -5.91535 325.478 -9.95349 320.665ZM-15.8318 318.954C-14.0383 319.374 -12.2784 319.879 -10.5473 320.458C-6.5357 325.191 -2.72239 330.502 0.922342 336.306C-2.43958 333.963 -5.7341 331.539 -8.97275 329.055C-11.2 325.501 -13.484 322.128 -15.8318 318.954ZM-21.5537 317.914C-19.7737 318.149 -18.0238 318.462 -16.3023 318.849C-14.0414 321.887 -11.8391 325.109 -9.69045 328.503C-13.233 325.768 -16.7094 322.965 -20.1145 320.104C-20.5916 319.365 -21.0722 318.636 -21.5537 317.914ZM-22.8716 317.759C-22.5704 317.794 -22.2689 317.827 -21.9685 317.865C-21.6332 318.366 -21.2993 318.872 -20.9666 319.379C-21.6035 318.841 -22.2394 318.301 -22.8716 317.759ZM-27.001 317.438C-25.8037 317.49 -24.6179 317.572 -23.4463 317.692C-22.4183 318.575 -21.3857 319.455 -20.3462 320.329C-14.4862 329.407 -8.96719 339.699 -3.67241 350.828C-7.28028 347.414 -10.809 343.91 -14.2668 340.344C-18.3976 332.197 -22.6261 324.507 -27.001 317.438ZM-31.9267 317.403C-30.3901 317.355 -28.8781 317.37 -27.3811 317.426C-23.137 324.269 -19.0311 331.701 -15.0181 339.568C-18.7503 335.698 -22.3999 331.759 -25.9755 327.788C-27.9441 324.228 -29.9261 320.761 -31.9267 317.403ZM409.852 120.312C408.573 120.143 407.297 119.973 406.017 119.805C408.505 119.936 410.99 120.073 413.473 120.214C412.267 120.243 411.06 120.277 409.852 120.312ZM417.684 121.346C415.741 121.087 413.795 120.832 411.85 120.575C413.716 120.526 415.581 120.482 417.444 120.443C419.333 120.555 421.221 120.67 423.106 120.789C421.301 120.968 419.494 121.153 417.684 121.346ZM425.496 122.39C423.342 122.1 421.19 121.811 419.034 121.524C421.055 121.312 423.072 121.11 425.087 120.916C427.198 121.05 429.307 121.188 431.414 121.331C429.444 121.673 427.472 122.025 425.496 122.39ZM433.321 123.447C431.054 123.139 428.786 122.832 426.515 122.527C428.601 122.146 430.682 121.778 432.761 121.421C435.022 121.576 437.283 121.736 439.541 121.899C437.469 122.409 435.403 122.903 433.321 123.447ZM441.218 124.519C438.859 124.195 436.492 123.877 434.128 123.556C436.288 122.994 438.428 122.502 440.579 121.975C442.831 122.14 445.08 122.308 447.326 122.481C445.296 123.139 443.257 123.829 441.218 124.519ZM449.001 125.595C446.647 125.27 444.296 124.942 441.937 124.618C444.011 123.92 446.09 123.208 448.154 122.544C450.457 122.722 452.756 122.905 455.052 123.092C453.047 123.888 451.019 124.757 449.001 125.595ZM456.707 126.66C454.353 126.332 451.987 126.008 449.628 125.682C451.688 124.83 453.752 123.963 455.8 123.153C458.153 123.346 460.504 123.542 462.85 123.743C460.805 124.707 458.766 125.649 456.707 126.66ZM464.514 127.759C462.103 127.42 459.7 127.078 457.284 126.74C459.365 125.72 461.427 124.767 463.494 123.798C465.852 124.001 468.206 124.209 470.557 124.421C468.547 125.516 466.538 126.611 464.514 127.759ZM472.354 128.866C469.917 128.52 467.474 128.176 465.031 127.833C467.076 126.675 469.106 125.573 471.134 124.473C473.506 124.687 475.875 124.906 478.24 125.129C476.285 126.35 474.321 127.601 472.354 128.866ZM480.141 129.978C477.71 129.63 475.279 129.282 472.841 128.936C474.826 127.662 476.805 126.41 478.777 125.179C481.175 125.406 483.569 125.637 485.959 125.873C484.026 127.217 482.089 128.579 480.141 129.978ZM487.94 131.102C485.495 130.749 483.048 130.396 480.596 130.044C482.557 128.638 484.507 127.271 486.452 125.922C488.856 126.159 491.258 126.401 493.654 126.648C491.757 128.107 489.854 129.585 487.94 131.102ZM495.755 132.234C493.299 131.876 490.833 131.52 488.37 131.164C490.293 129.64 492.206 128.158 494.114 126.695C496.528 126.943 498.94 127.196 501.345 127.454C499.489 129.02 497.627 130.61 495.755 132.234ZM503.56 133.38C501.096 133.018 498.638 132.655 496.166 132.294C498.047 130.665 499.917 129.071 501.781 127.501C504.199 127.76 506.614 128.023 509.024 128.291C507.21 129.961 505.388 131.658 503.56 133.38ZM511.351 134.524C508.896 134.16 506.42 133.801 503.957 133.438C505.792 131.712 507.621 130.01 509.441 128.337C511.869 128.607 514.292 128.881 516.709 129.16C514.932 130.918 513.146 132.7 511.351 134.524ZM519.172 135.694C516.692 135.323 514.224 134.95 511.735 134.581C513.534 132.756 515.323 130.966 517.104 129.206C519.542 129.486 521.974 129.771 524.402 130.06C522.666 131.909 520.923 133.787 519.172 135.694ZM526.963 136.858C524.497 136.488 522.015 136.119 519.541 135.749C521.296 133.838 523.044 131.958 524.783 130.106C527.221 130.397 529.654 130.692 532.081 130.991C530.382 132.917 528.679 134.864 526.963 136.858ZM534.784 138.044C532.298 137.666 529.817 137.288 527.321 136.912C529.04 134.915 530.747 132.965 532.448 131.036C534.89 131.337 537.327 131.642 539.758 131.951C538.108 133.952 536.449 135.989 534.784 138.044ZM542.592 139.232C540.112 138.852 537.624 138.475 535.134 138.097C536.802 136.038 538.463 134.002 540.117 131.997C542.567 132.309 545.01 132.625 547.449 132.945C545.838 135.011 544.22 137.105 542.592 139.232ZM550.388 140.428C547.908 140.046 545.423 139.665 542.932 139.284C544.562 137.153 546.183 135.06 547.797 132.991C550.245 133.312 552.69 133.637 555.127 133.966C553.555 136.091 551.978 138.235 550.388 140.428ZM558.202 141.637C555.712 141.251 553.222 140.864 550.721 140.479C552.313 138.283 553.892 136.138 555.466 134.011C557.916 134.342 560.359 134.678 562.798 135.017C561.275 137.188 559.74 139.404 558.202 141.637ZM822.996 187.648C754.933 174.489 661.797 157.717 558.531 141.688C560.07 139.455 561.605 137.234 563.128 135.063C575.365 136.764 587.445 138.557 599.341 140.425C686.769 154.158 764.323 171.968 822.996 187.648ZM830.191 189.044L829.892 188.985C773.453 164.494 697.865 138.823 610.353 125.85C598.143 124.039 585.701 122.477 573.047 121.199C574.613 119.051 576.17 116.932 577.719 114.848C590.924 115.882 603.877 117.335 616.552 119.156C702.262 131.474 775.414 160.488 830.191 189.044ZM831.748 189.347L831.272 189.255C776.364 160.526 702.834 131.235 616.596 118.842C603.979 117.029 591.087 115.58 577.943 114.545C579.505 112.445 581.06 110.366 582.604 108.331C684.848 113.829 770.239 151.469 831.748 189.347ZM833.28 189.646L832.642 189.522C771.09 151.495 685.452 113.583 582.841 108.023C584.418 105.945 585.992 103.881 587.55 101.874C689.557 104.59 773.168 146.605 833.28 189.646ZM834.771 189.937L834.044 189.795C773.902 146.601 690.102 104.337 587.802 101.555C589.388 99.5143 590.963 97.5175 592.532 95.5445C694.302 95.2636 776.086 141.655 834.771 189.937ZM836.225 190.22L835.427 190.065C776.72 141.633 694.798 94.9989 592.796 95.2091C594.393 93.2048 595.976 91.2498 597.553 89.3158C699.101 85.8095 778.999 136.613 836.225 190.22ZM837.687 190.506L836.813 190.335C779.562 136.597 699.559 85.5586 597.833 88.9708C599.434 87.0124 601.022 85.0972 602.603 83.2105C696.361 76.7395 770.11 123.557 824.764 177.312C829.197 181.673 833.504 186.079 837.687 190.506ZM839.118 190.788L838.223 190.611C833.941 186.073 829.531 181.556 824.986 177.086C770.332 123.331 696.606 76.5021 602.899 82.8556C604.501 80.9469 606.093 79.0788 607.675 77.2431C683.942 69.1349 745.891 101.113 795 144.957C811.061 159.296 825.749 174.902 839.118 190.788ZM840.537 191.068L839.616 190.886C826.17 174.886 811.386 159.161 795.212 144.721C746.11 100.885 684.193 68.8924 607.99 76.8769C609.596 75.0176 611.191 73.1967 612.777 71.4123C677.387 61.9718 730.919 84.8818 774.901 120.931C799.728 141.279 821.513 165.811 840.537 191.068ZM841.955 191.347L841.004 191.16C821.917 165.786 800.044 141.128 775.102 120.684C731.139 84.6507 677.652 61.7166 613.123 71.0246C614.721 69.2286 616.311 67.4691 617.89 65.7492C674.347 55.0909 721.714 71.9544 761.443 102.125C792.786 125.927 819.384 158 841.955 191.347ZM843.366 191.625L842.398 191.434C819.774 157.969 793.094 125.763 761.635 101.873C721.934 71.7233 674.623 54.8323 618.262 65.3454C619.869 63.5984 621.465 61.8883 623.051 60.22C673.611 48.3745 716.35 60.9663 752.649 86.7016C788.821 112.347 818.606 151.043 843.366 191.625ZM844.768 191.902L843.788 191.708C818.98 151.006 789.12 112.171 752.833 86.4428C716.573 60.7348 673.901 48.118 623.453 59.7997C625.048 58.126 626.633 56.4881 628.207 54.8918C674.422 41.8239 713.651 51.1845 747.207 73.5375C786.944 100.009 818.737 144.689 844.768 191.902ZM846.172 192.178L845.175 191.981C819.1 144.647 787.237 99.8219 747.382 73.2725C713.88 50.9553 674.737 41.5616 628.659 54.4362C630.255 52.8239 631.84 51.2484 633.414 49.7157C676.363 35.3769 712.877 42.1983 744.225 61.9253C786.576 88.5772 819.515 138.779 846.172 192.178ZM847.576 192.455L846.565 192.256C819.869 138.733 786.864 88.3831 744.395 61.6564C713.116 41.9733 676.709 35.1137 633.926 49.2205C635.493 47.6997 637.05 46.2153 638.596 44.7721C679.099 29.0405 713.515 33.7451 743.09 51.4089C787.325 77.8293 820.76 133.204 847.576 192.455ZM848.972 192.732L847.957 192.53C821.104 133.155 787.608 77.6284 743.252 51.1371C713.775 33.5318 679.509 28.756 639.224 44.1916C640.776 42.7505 642.318 41.3458 643.85 39.9828C682.482 22.7808 715.237 25.6771 743.36 41.6837C788.913 67.6095 822.344 127.893 848.972 192.732ZM850.372 193.011L849.346 192.806C822.683 127.842 789.193 67.4035 743.517 41.4073C715.52 25.4732 682.949 22.5003 644.588 39.3293C646.091 38.0002 647.584 36.7069 649.067 35.4516C686.316 16.608 717.779 17.8752 744.722 32.5399C791.145 57.8077 824.194 122.79 850.372 193.011ZM851.769 193.29L850.739 193.084C824.528 122.736 791.423 57.5975 744.874 32.2612C718.118 17.6986 686.924 16.3031 650.059 34.6149C651.494 33.4128 652.92 32.2466 654.336 31.112C690.547 10.5095 720.98 10.277 746.94 23.8322C793.878 48.3409 826.241 117.856 851.769 193.29ZM853.163 193.567L852.127 193.361C826.569 117.799 794.154 48.1275 747.087 23.5509C721.434 10.1566 691.437 10.156 655.839 29.9092C657.113 28.905 658.377 27.9412 659.637 26.9925C695.089 4.49186 724.705 2.83088 749.839 15.4564C797.005 39.1476 828.444 113.06 853.163 193.567ZM854.557 193.844L853.516 193.637C828.768 113.002 797.279 38.9307 749.982 15.1724C725.464 2.85718 696.701 4.08598 662.448 24.9024C698.502 -1.31402 728.269 -4.78215 753.286 7.33611C800.446 30.1804 830.771 108.379 854.557 193.844ZM853.609 193.938L854.641 194.144C854.836 194.848 855.032 195.551 855.227 196.256L854.23 195.969C854.023 195.292 853.816 194.615 853.609 193.938ZM852.23 193.664L853.255 193.868L853.866 195.864L852.876 195.582C852.661 194.942 852.446 194.303 852.23 193.664ZM850.854 193.39L851.871 193.592C852.083 194.22 852.293 194.848 852.505 195.477L851.522 195.197C851.3 194.595 851.078 193.992 850.854 193.39ZM849.473 193.115L850.488 193.317C850.708 193.907 850.925 194.498 851.144 195.09L850.17 194.813C849.938 194.246 849.705 193.681 849.473 193.115ZM848.097 192.841L849.098 193.041C849.326 193.595 849.555 194.149 849.782 194.703L848.81 194.427C848.572 193.899 848.335 193.37 848.097 192.841ZM846.722 192.569L847.715 192.765C847.948 193.281 848.179 193.798 848.411 194.314L847.457 194.045C847.213 193.553 846.967 193.062 846.722 192.569ZM845.35 192.299L846.328 192.492L847.044 193.93L846.102 193.665L845.35 192.299ZM843.983 192.03L844.943 192.22L845.672 193.545L844.742 193.284C844.489 192.865 844.237 192.448 843.983 192.03ZM842.618 191.762L843.561 191.947C843.806 192.35 844.051 192.754 844.294 193.158L843.384 192.902C843.129 192.522 842.875 192.141 842.618 191.762ZM841.256 191.493L842.177 191.674C842.423 192.039 842.668 192.405 842.913 192.77L842.029 192.524C841.772 192.18 841.515 191.837 841.256 191.493ZM839.9 191.226L840.789 191.401C841.036 191.73 841.283 192.057 841.529 192.386L840.671 192.148C840.414 191.84 840.157 191.533 839.9 191.226ZM838.552 190.96L839.404 191.128C839.648 191.418 839.889 191.708 840.132 191.999L839.316 191.772C839.062 191.501 838.806 191.231 838.552 190.96ZM837.193 190.694L838.016 190.854L838.726 191.609L837.934 191.389L837.193 190.694ZM835.872 190.435L836.607 190.579L837.274 191.206L836.563 191.011C836.333 190.819 836.103 190.628 835.872 190.435ZM834.596 190.187L835.216 190.308C835.418 190.473 835.616 190.641 835.815 190.807L835.243 190.65C835.03 190.496 834.811 190.341 834.596 190.187ZM833.323 189.939L833.832 190.038C834.003 190.16 834.178 190.283 834.35 190.405L833.87 190.274C833.688 190.162 833.503 190.05 833.323 189.939ZM832.134 189.707L832.429 189.764L832.768 189.972L832.498 189.898L832.134 189.707ZM495.868 132.555C498.345 132.916 500.81 133.28 503.279 133.643C457.742 176.582 407.307 237.807 351.329 321.898C219.724 519.595 142.174 548.338 88.1959 512.381C86.8323 511.472 85.4846 510.518 84.1502 509.528C82.0434 499.904 79.875 490.339 77.6201 480.911C134.01 516.404 213.666 492.026 345.154 306.443C400.345 228.544 450.405 172.014 495.868 132.555ZM488.048 131.422C490.519 131.78 492.993 132.135 495.456 132.495C450.025 171.966 400.014 228.461 344.895 306.258C213.331 491.95 133.778 516.117 77.514 480.464C75.1168 470.458 72.6205 460.609 69.9937 451.01C128.512 483.204 209.702 460.809 338.714 290.811C393.047 219.215 442.686 167.412 488.048 131.422ZM480.246 130.298C482.707 130.652 485.164 131.006 487.619 131.36C442.297 167.363 392.716 219.128 338.461 290.619C209.391 460.696 128.287 482.912 69.8775 450.584C67.0133 440.14 63.9906 430 60.7741 420.275C121.547 450.395 204.589 431.07 332.274 275.18C385.756 209.883 434.979 162.82 480.246 130.298ZM472.452 129.186C474.902 129.534 477.347 129.883 479.79 130.233C434.574 162.767 385.421 209.791 332.027 274.979C204.286 430.939 121.314 450.096 60.6333 419.85C56.9473 408.744 53.0031 398.192 48.7401 388.375C112.081 417.962 197.656 403.216 325.832 259.55C378.468 200.551 427.275 158.238 472.452 129.186ZM464.608 128.079C467.062 128.424 469.516 128.769 471.964 129.117C426.853 158.182 378.129 200.456 325.596 259.338C197.34 403.095 111.812 417.653 48.5431 387.925C42.9862 375.187 36.8849 363.703 30.1086 353.864C96.7917 385.826 186.619 379.002 319.391 243.92C371.156 191.253 419.539 153.659 464.608 128.079ZM-33 327.26C-30.7152 330.923 -28.4164 334.634 -26.0991 338.378C-21.7396 345.418 -17.3132 352.568 -12.7838 359.7L-12.6177 360.006C-5.8397 372.533 1.07114 385.306 8.27824 397.751C14.4418 410.571 20.745 423.365 27.3337 435.636C32.9861 448.621 38.7872 461.37 44.8713 473.442C50.1066 486.559 55.5021 499.271 61.1859 511.165C64.8719 521.15 68.6562 530.819 72.5942 540H72.9371C69.3983 531.755 65.983 523.114 62.6528 514.203C64.8767 518.762 67.1458 523.195 69.468 527.471C70.8064 531.696 72.1552 535.876 73.5196 540H73.8533C72.6437 536.345 71.4462 532.645 70.2575 528.91C72.3653 532.739 74.5161 536.442 76.716 540H77.0864C74.5842 535.962 72.1455 531.737 69.7618 527.349C67.4983 520.198 65.2665 512.916 63.0514 505.557C65.764 509.734 68.5433 513.735 71.398 517.527C73.3885 525.088 75.3808 532.596 77.3911 540H77.7198C75.7683 532.813 73.8335 525.528 71.9005 518.189C74.7039 521.878 77.5792 525.365 80.5351 528.625L81.2288 531.603C81.8816 534.408 82.533 537.208 83.1841 540H83.5105C82.8537 537.184 82.1967 534.36 81.5383 531.531L80.9738 529.105C83.8576 532.254 86.8169 535.188 89.8615 537.879L90.3031 540H90.6272L90.2578 538.223C90.949 538.828 91.6442 539.42 92.3448 540H92.8407C91.9368 539.257 91.04 538.494 90.1506 537.709C88.2251 528.467 86.2676 519.209 84.2543 510.002C85.4979 510.918 86.7522 511.801 88.0211 512.647C142.149 548.704 219.851 519.977 351.594 322.073C407.638 237.884 458.116 176.627 503.677 133.701C506.146 134.064 508.627 134.425 511.088 134.789C465.451 181.194 414.589 247.174 357.764 337.537C286.286 451.197 231.312 512.992 187.696 540H188.276C231.887 512.812 286.781 451.008 358.032 337.706C414.918 247.246 465.817 181.237 511.471 134.846C513.967 135.216 516.441 135.589 518.928 135.96C473.178 185.832 421.892 256.511 364.198 353.175C310.245 443.573 265.984 503.358 229.108 540H229.539C266.409 503.308 310.626 443.554 364.471 353.338C422.219 256.582 473.535 185.874 519.296 136.015C521.777 136.386 524.263 136.756 526.735 137.127C480.884 190.464 429.173 265.888 370.633 368.814C327.358 444.901 290.491 500.66 258.799 540H259.185C290.87 500.649 327.703 444.937 370.909 368.97C429.498 265.958 481.235 190.503 527.091 137.18C529.591 137.557 532.076 137.935 534.566 138.313C488.605 195.114 436.47 275.241 377.069 384.451C341.631 449.604 310.599 500.728 283.272 540H283.645C310.961 500.737 341.964 449.656 377.348 384.603C436.797 275.305 488.953 195.154 534.916 138.366C537.41 138.744 539.903 139.123 542.386 139.502C496.319 199.768 443.761 284.61 383.505 400.089C354.274 456.11 328.108 502.334 304.604 540H304.965C328.457 502.353 354.596 456.177 383.786 400.236C444.085 284.674 496.662 199.806 542.727 139.554C545.222 139.935 547.71 140.317 550.194 140.699C504.024 204.427 451.041 294.001 389.94 415.728C365.839 463.742 343.871 504.919 323.791 540H324.148C344.214 504.945 366.158 463.813 390.224 415.869C451.364 294.064 504.363 204.464 550.526 140.751C553.029 141.136 555.523 141.523 558.014 141.909C511.737 209.1 458.33 303.379 396.376 431.365C376.651 472.112 358.378 508.192 341.425 540H341.779C358.717 508.224 376.968 472.187 396.662 431.503C458.656 303.437 512.073 209.135 558.343 141.96C663.615 158.291 758.408 175.402 826.79 188.665C827.74 188.922 828.679 189.176 829.62 189.431C830.5 189.739 831.384 190.047 832.252 190.353C833.141 190.743 834.023 191.131 834.902 191.519C835.695 191.941 836.474 192.361 837.259 192.782C838.111 193.319 838.961 193.857 839.805 194.394C840.555 194.946 841.323 195.498 842.064 196.05C842.951 196.807 843.826 197.564 844.703 198.321C845.429 199.032 846.135 199.742 846.854 200.452C847.536 201.211 848.215 201.968 848.889 202.726C849.579 203.594 850.267 204.461 850.95 205.328C851.636 206.297 852.318 207.265 852.996 208.233C853.632 209.24 854.267 210.247 854.897 211.255C855.532 212.375 856.164 213.495 856.791 214.616C857.382 215.775 857.97 216.935 858.554 218.094C859.137 219.365 859.717 220.636 860.294 221.907C860.84 223.229 861.383 224.55 861.924 225.871C862.448 227.273 862.969 228.673 863.487 230.075C863.987 231.555 864.485 233.035 864.98 234.515C865.447 236.044 865.913 237.574 866.376 239.101C866.828 240.737 867.278 242.371 867.726 244.005C871.729 260.002 875.577 275.931 879.334 291.483C895.193 357.144 909.442 416.129 927 445.592V444.98C909.598 415.43 895.417 356.722 879.643 291.409C876.973 280.356 874.257 269.111 871.472 257.789C874.723 269.859 877.878 281.823 880.965 293.531C896.722 353.29 910.739 406.44 927 433.81V433.192C910.884 405.748 896.939 352.866 881.273 293.45C877.685 279.847 874.008 265.9 870.193 251.839C874.553 266.525 878.733 281.059 882.784 295.154C898.309 349.157 911.992 396.747 927 422.041V421.419C912.128 396.063 898.519 348.736 883.09 295.067C878.519 279.166 873.787 262.708 868.815 246.101C874.418 263.211 879.717 280.124 884.798 296.349C899.958 344.755 913.204 387.049 927 410.282V409.658C913.328 386.378 900.159 344.335 885.101 296.254C879.49 278.335 873.614 259.578 867.352 240.641C874.342 259.959 880.85 279.04 887.011 297.109C901.668 340.087 914.376 377.348 927 398.536V397.916C914.489 376.694 901.861 339.67 887.312 297.007C880.702 277.624 873.695 257.078 866.121 236.322L866.071 236.124C874.497 257.207 882.223 278.012 889.434 297.429C903.445 335.161 915.512 367.654 927 386.809V386.193C915.614 367.019 903.63 334.748 889.731 297.318C882.267 277.22 874.25 255.634 865.478 233.791L865.307 233.122C875.094 255.33 883.942 277.202 892.071 297.3C905.291 329.983 916.614 357.973 927 375.109V374.499C916.708 357.358 905.469 329.576 892.366 297.181C884.025 276.56 874.927 254.071 864.835 231.267L864.583 230.277C875.851 253.432 885.885 276.186 894.938 296.715C907.216 324.559 917.69 348.311 927 363.44V362.834C917.774 347.713 907.387 324.158 895.229 296.587C885.992 275.641 875.735 252.381 864.187 228.739L863.868 227.498C876.77 251.456 888.07 274.935 898.046 295.664C909.228 318.897 918.746 338.675 927 351.811V351.213C918.822 338.1 909.391 318.505 898.332 295.525C888.199 274.471 876.698 250.578 863.541 226.227C863.42 225.754 863.299 225.279 863.177 224.806C877.88 249.416 890.532 273.458 901.412 294.135C911.34 313.003 919.795 329.072 927 340.229V339.643C919.864 328.522 911.498 312.621 901.693 293.986C890.673 273.043 877.839 248.651 862.891 223.708L862.483 222.141C879.208 247.28 893.31 271.74 905.057 292.116C913.571 306.887 920.85 319.514 927 328.706V328.135C920.914 318.989 913.723 306.516 905.331 291.958C893.463 271.369 879.191 246.614 862.239 221.201C862.093 220.639 861.948 220.076 861.801 219.515C880.805 245.061 896.468 269.796 909.006 289.596C915.948 300.559 921.933 310.01 927 317.254V316.7C921.995 309.515 916.098 300.201 909.275 289.427C896.63 269.459 880.808 244.474 861.587 218.697C861.431 218.102 861.274 217.507 861.117 216.912C882.739 242.768 900.1 267.647 913.297 286.562C918.512 294.035 923.077 300.578 927 305.884V305.35C923.137 300.111 918.658 293.692 913.557 286.381C900.267 267.334 882.758 242.241 860.928 216.191C860.766 215.576 860.605 214.96 860.443 214.346C863.312 217.377 866.114 220.394 868.833 223.383C889.529 246.132 905.938 267.4 917.978 283.006C921.323 287.34 924.331 291.239 927 294.612V294.1C924.394 290.802 921.47 287.013 918.229 282.811C906.184 267.2 889.77 245.923 869.068 223.169C866.219 220.038 863.285 216.877 860.273 213.701C860.103 213.059 859.931 212.418 859.761 211.777C888.211 238.131 909.501 263.012 923.122 278.926C924.493 280.528 925.786 282.038 927 283.451V282.963C925.856 281.632 924.644 280.216 923.364 278.72C909.678 262.73 888.251 237.696 859.608 211.204C859.435 210.554 859.263 209.904 859.089 209.254C890.892 234.822 913.914 258.663 927 272.415V271.954C913.822 258.111 890.755 234.272 858.951 208.733C858.77 208.06 858.589 207.389 858.408 206.716C890.687 228.943 914.056 249.489 927 261.519V261.086C913.965 248.985 890.559 228.441 858.28 206.241C858.095 205.557 857.912 204.873 857.726 204.19C890.449 223.161 914.156 240.496 927 250.773V250.367C914.062 240.033 890.319 222.701 857.61 203.759C857.422 203.066 857.234 202.374 857.046 201.683C890.173 217.479 914.21 231.689 927 240.188V239.812C914.113 231.266 890.044 217.06 856.937 201.285C856.746 200.585 856.554 199.885 856.362 199.185C889.862 211.896 914.22 223.069 927 229.774V229.427C914.121 222.686 889.737 211.514 856.261 198.818C856.067 198.112 855.875 197.404 855.68 196.698C889.527 206.418 914.193 214.642 927 219.537V219.22C914.092 214.296 889.399 206.067 855.585 196.358C855.387 195.643 855.188 194.929 854.989 194.213C889.155 201.032 914.127 206.403 927 209.482V209.198C914.025 206.099 889.032 200.725 854.906 193.914C831.093 108.318 800.72 29.96 753.425 7.05003C727.684 -5.41844 696.936 -1.43788 659.527 26.7172C655.986 28.9643 652.385 31.4268 648.727 34.0927C645.145 36.2986 641.508 38.6958 637.815 41.2978C634.092 43.5141 630.319 45.903 626.484 48.517C622.792 50.6384 619.046 52.9468 615.254 55.4219C611.452 57.5168 607.602 59.7786 603.699 62.222C599.897 64.2222 596.047 66.3869 592.153 68.7028C588.134 70.7099 584.07 72.8672 579.954 75.2083C575.954 77.1001 571.909 79.1381 567.821 81.3321C563.626 83.1891 559.39 85.1823 555.106 87.3409C551.029 89.0234 546.917 90.8169 542.764 92.7501C538.567 94.337 534.327 96.057 530.055 97.8867C525.605 99.4039 521.108 101.077 516.583 102.837C512.048 104.214 507.481 105.691 502.877 107.287C498.596 108.42 494.289 109.634 489.954 110.934C485.245 111.964 480.509 113.073 475.74 114.288C471.146 115.074 466.532 115.921 461.888 116.858C457.014 117.444 452.118 118.094 447.198 118.811C442.283 119.132 437.348 119.503 432.394 119.929C427.427 119.957 422.444 120.023 417.448 120.125C412.322 119.821 407.184 119.541 402.036 119.284C286.683 104.268 168.238 92.4478 64.2191 88.9228C30.0497 87.7651 -2.56226 87.5026 -32.999 88.3148V88.6327C-2.56649 87.8202 30.0424 88.0825 64.2091 89.2402C167.078 92.7262 284.051 104.325 398.186 119.098C355.108 117.049 311.375 116.689 267.777 118.567C186.128 122.084 108.627 120.643 39.7311 119.361C14.2339 118.886 -10.0837 118.435 -32.999 118.264V118.581C-10.0862 118.752 14.2293 119.204 39.7261 119.679C108.627 120.96 186.135 122.402 267.791 118.884C312.722 116.948 357.798 117.389 402.15 119.607C404.08 119.859 406.006 120.114 407.935 120.367C364.123 121.701 319.303 126.024 274.192 134.204C156.182 155.605 50.9279 151.953 -33 147.512V147.83C50.94 152.272 156.209 155.922 274.247 134.517C320.017 126.217 365.488 121.89 409.909 120.628C412.068 120.912 414.226 121.196 416.383 121.482C372.263 126.262 326.8 135.324 280.609 149.845C155.98 189.023 49.7986 185.112 -33 175.864V176.185C49.823 185.433 156.033 189.34 280.703 150.148C327.334 135.489 373.221 126.4 417.733 121.66C419.999 121.961 422.263 122.263 424.526 122.566C380.198 130.807 334.197 144.617 287.029 165.486C155.232 223.798 48.4346 218.244 -33 203.079V203.402C48.4701 218.568 155.308 224.112 287.157 165.777C334.643 144.768 380.944 130.92 425.545 122.703C427.89 123.018 430.231 123.336 432.573 123.653C388.068 135.362 341.567 153.903 293.451 181.129C153.859 260.115 46.8268 251.183 -33 228.866V229.197C46.8721 251.515 153.956 260.425 293.608 181.405C341.958 154.047 388.679 135.452 433.379 123.762C435.775 124.087 438.176 124.409 440.568 124.736C395.903 139.915 348.924 163.184 299.877 196.771C151.731 298.222 44.9802 283.668 -33 252.837V253.18C45.0366 284.012 151.849 298.526 300.056 197.034C349.303 163.31 396.461 139.999 441.287 124.835C443.681 125.163 446.064 125.496 448.453 125.826C403.666 144.476 356.239 172.487 306.305 212.414C148.726 338.41 42.9117 315.365 -33 274.552V274.915C42.978 315.727 148.864 338.705 306.502 212.662C356.598 172.606 404.167 144.549 449.08 125.913C451.464 126.242 453.855 126.569 456.234 126.901C411.359 149.023 363.509 181.831 312.733 228.055C144.661 381.065 40.6746 345.754 -33 293.424V293.815C40.7498 346.146 144.823 381.347 312.948 228.291C363.856 181.944 411.823 149.088 456.796 126.979C459.233 127.319 461.659 127.663 464.091 128.006C419.1 153.599 370.815 191.148 319.164 243.697C186.221 378.955 96.3833 385.496 29.7348 353.317C23.0321 343.681 15.6691 335.653 7.51504 329.624C5.36234 328.032 3.15472 326.577 0.888742 325.272C-0.706969 323.908 -2.33033 322.616 -3.9892 321.419C-5.82165 320.097 -7.69672 318.887 -9.60943 317.779C-11.5156 316.128 -13.4656 314.599 -15.4618 313.197C-16.9803 312.131 -18.528 311.147 -20.1013 310.23C-22.3085 308.301 -24.5722 306.539 -26.8971 304.956C-28.0741 304.154 -29.2668 303.401 -30.4754 302.695C-31.3087 301.96 -32.1502 301.249 -32.9998 300.563V300.967C-32.6208 301.275 -32.2429 301.589 -31.867 301.907C-32.2429 301.699 -32.6206 301.496 -32.9998 301.297V301.648C-32.2122 302.065 -31.4314 302.502 -30.657 302.956C-29.1869 304.254 -27.7404 305.626 -26.3161 307.07C-27.8333 306.409 -29.3758 305.819 -30.9425 305.297C-31.6234 304.487 -32.309 303.693 -32.9998 302.916V303.396C-32.5021 303.959 -32.0076 304.531 -31.5147 305.112C-32.0076 304.954 -32.5021 304.803 -32.9998 304.659V304.99C-32.3706 305.173 -31.7449 305.368 -31.1236 305.574C-29.6481 307.333 -28.1941 309.167 -26.7619 311.079C-28.2672 310.756 -29.7936 310.49 -31.3444 310.287C-31.5944 310.06 -31.8444 309.833 -32.0934 309.605C-32.3944 309.165 -32.6972 308.728 -32.9998 308.294V309.21L-32.3263 309.824C-32.2393 309.952 -32.1519 310.076 -32.065 310.204C-32.376 310.168 -32.6872 310.132 -32.9998 310.1V310.416C-32.6099 310.456 -32.2209 310.5 -31.8336 310.547C-30.4003 312.664 -28.9843 314.852 -27.5833 317.103C-29.073 317.052 -30.5795 317.042 -32.1093 317.095C-32.406 316.599 -32.7024 316.106 -32.9998 315.614V316.227C-32.8218 316.522 -32.6444 316.818 -32.4672 317.114L-33 317.138V317.45C-32.7615 317.439 -32.5235 317.43 -32.2856 317.421C-30.4846 320.44 -28.6982 323.547 -26.9236 326.733C-28.9724 324.445 -30.9976 322.148 -33 319.848V320.332C-30.7743 322.886 -28.5203 325.437 -26.2358 327.974C-22.0382 335.569 -17.9029 343.591 -13.7843 351.881C-17.3791 347.232 -20.8982 342.534 -24.3544 337.832C-27.2389 332.636 -30.1162 327.55 -32.9998 322.62V323.25C-30.62 327.328 -28.2442 331.511 -25.8641 335.774C-28.2718 332.482 -30.6488 329.192 -32.9998 325.92V326.464C-30.2461 330.295 -27.4562 334.151 -24.623 338.004C-21.4357 343.747 -18.2387 349.625 -15.0161 355.575C-18.6782 349.76 -22.276 343.95 -25.8288 338.211C-28.2384 334.32 -30.6263 330.463 -32.9998 326.661V327.26H-33Z" fill="white"/>
</mask>
<g mask="url(#mask0_3144_6403)">
<path d="M926.999 548.705H-33V-5.41705H926.999V548.705Z" fill="white"/>
</g>
</g>
</g>
<defs>
<clipPath id="clip0_3144_6403">
<rect width="894" height="189" fill="white"/>
</clipPath>
</defs>
</svg>
