<svg width="258" height="250" viewBox="0 0 258 250" fill="none" xmlns="http://www.w3.org/2000/svg">
<g opacity="0.1">
<path d="M61.5547 57.9222C19.163 103.528 33.1692 177.007 89.319 203.956C135.017 225.843 189.919 206.304 211.966 160.375C236.402 109.326 208.867 48.1919 154.235 32.3239C121.683 22.8104 84.7 33.0498 61.5547 57.9222ZM87.1597 77.7428L97.0156 90.9133L92.638 93.5228C86.3209 97.2506 74.1679 103.569 73.083 103.603C70.5041 103.867 69.7612 83.4328 72.1526 75.6461C73.3662 71.6283 75.9866 65.7803 77.1082 64.6077C77.1794 64.5545 81.7257 70.4813 87.1597 77.7428ZM96.1828 54.776C103.902 54.1084 124.916 59.9284 125.802 63.0415C126.085 64.1621 118.678 72.3703 110.739 79.8665L107.641 82.8508L97.7852 69.6804L87.9293 56.5099L90.4375 55.8546C91.8251 55.4827 94.4398 54.9697 96.1828 54.776ZM57.9533 99.71C58.4294 103.463 58.9414 106.967 59.1187 107.501C59.296 108.034 57.9971 108.673 55.7736 109.115C53.8703 109.54 52.1811 109.36 52.1283 108.845C52.0231 107.368 55.9501 93.7681 56.662 93.2354C56.9468 93.0223 57.5483 95.9039 57.9533 99.71ZM124.897 44.6166C130.445 44.4625 136.883 44.7539 137.309 45.3234C137.948 46.1777 135.026 51.4741 133.977 51.2596C132.003 50.8485 120.592 45.3945 121.019 45.0748C121.304 44.8617 123.047 44.668 124.897 44.6166ZM164.029 53.4258C171.956 57.4889 181.889 64.8264 184.766 68.6707L186.258 70.6641L178.142 76.7374L170.097 82.7575L165.621 77.6666C161.572 73.1452 149.295 61.7861 146.683 60.0761C145.919 59.6485 146.543 57.5151 148.343 53.8358L151.124 48.2014L153.648 48.7553C154.999 49.0769 159.657 51.1448 164.029 53.4258ZM56.9508 122.561C60.0459 121.8 62.6607 121.287 62.9096 121.322C63.1586 121.358 64.8798 124.846 66.867 129.134C68.801 133.351 71.8357 139.187 73.6999 142.123C79.6294 151.679 79.8977 150.257 70.5004 157.289C63.0253 162.883 62.2068 163.273 61.6392 161.921C61.3733 161.121 60.1843 158.79 59.0306 156.654C56.5635 152.17 53.3015 142.617 52.2766 136.498C51.4105 131.482 50.7246 124.333 51.1517 124.013C51.2941 123.906 53.9268 123.269 56.9508 122.561ZM94.8996 107.379C97.6223 105.674 101.021 103.686 102.462 102.941L105.007 101.592L112.146 111.132L119.338 120.743L104.388 131.93L89.5086 143.065L87.0409 139.025C83.3131 132.708 77.5632 121.463 76.8367 119.008L76.1456 116.748L83.0134 113.608C86.821 111.869 92.1768 109.083 94.8996 107.379ZM141.085 72.4831C146.221 76.5255 153.913 83.9851 156.648 87.4914L159.205 90.9086L144.611 101.83L130.017 112.751L122.824 103.14L115.686 93.6008L117.769 91.4867C118.819 90.3675 122.433 86.8857 125.673 83.7949C128.913 80.704 132.812 76.5645 134.308 74.5566C135.857 72.6198 137.264 70.7896 137.549 70.5765C137.78 70.2922 139.362 71.2186 141.085 72.4831ZM88.2067 163.141C89.1128 163.907 91.5819 166.613 93.8732 169.229C96.1824 171.721 100.179 175.727 102.827 178.077C105.492 180.303 108.423 182.885 109.383 183.722C110.911 185.022 110.803 185.768 108.219 190.923L105.314 196.539L100.39 194.56C90.1338 190.352 81.4792 184.723 72.7029 176.409L70.3046 174.095L78.4916 167.968C86.4651 162.001 86.8031 161.859 88.2067 163.141ZM134.681 141.246L142.086 151.141L135.856 156.47C132.439 159.472 127.187 164.623 124.356 167.964L119.05 173.933L117.059 172.757C114.856 171.297 105.689 162.608 100.626 157.179L97.4998 153.743L112.379 142.609L127.329 131.421L134.681 141.246ZM171.28 107.638C173.517 111.073 176.623 116.856 178.255 120.521C181.786 128.207 182.677 126.874 168.78 133.831C163.496 136.564 157.766 139.741 156.057 141.02L152.925 143.364L145.466 133.397L138.008 123.43L152.673 112.455L167.41 101.427L171.28 107.638ZM196.007 83.6921C200.695 89.957 207.41 113.474 206.23 119.466C205.801 121.564 205.516 121.777 199.913 122.749C193.919 123.792 193.919 123.792 192.926 120.981C191.082 116.142 182.67 100.003 180.219 96.7285L177.875 93.5961L186.062 87.4695L194.249 81.3428L196.007 83.6921ZM159.88 174.919L169.47 187.734L167.584 188.479C163.705 189.826 155.489 189.977 149.071 188.672C141.176 187.028 129.907 181.912 130.887 180.401C132.597 177.789 141.872 168.516 145.877 165.408L150.237 162.034L159.88 174.919ZM171.772 147.029C174.387 145.627 178.551 143.622 180.864 142.558L185.17 140.446L185.965 145.071C187.132 151.527 186.978 162.749 185.657 167.513C184.674 171.247 181.376 178.712 180.451 179.405C180.237 179.565 175.78 173.905 170.506 166.857L160.916 154.042L163.977 151.752C165.615 150.526 169.156 148.432 171.772 147.029ZM130.016 196.157L137.34 199.561L131.133 199.875C127.683 200.013 123.504 199.92 121.779 199.545L118.685 198.972L120.36 196.164C121.233 194.511 122.124 193.178 122.337 193.019C122.497 192.788 125.964 194.303 130.016 196.157ZM204.861 136.039C205.233 136.982 201.198 151.774 200.629 151.755C200.452 151.666 199.744 148.198 199.073 144.035L197.871 136.494L201.216 135.768C203.048 135.397 204.737 135.576 204.861 136.039Z" fill="white"/>
</g>
</svg>
