<svg width="24" height="24" viewBox="0 0 24 24" fill="none" xmlns="http://www.w3.org/2000/svg">
<rect width="24" height="24" rx="2" fill="#0066B2" fill-opacity="0.08"/>
<path d="M5.84107 4.16641C5.65643 4.25555 5.43358 4.42109 5.35081 4.5357C4.98152 5.0196 5.00062 4.59301 5.00062 12.1634C5.00062 19.9885 4.96242 19.3709 5.48452 19.8676C5.96841 20.326 5.56092 20.3005 12.0044 20.3005C18.3969 20.3005 18.0467 20.3196 18.486 19.8994C18.607 19.7848 18.7598 19.581 18.8362 19.441C18.9763 19.1863 18.9763 19.1799 18.9954 13.9653C19.0081 10.3998 18.9954 8.66792 18.9445 8.50874C18.8935 8.3241 18.4606 7.87204 16.7797 6.24844C15.5254 5.0387 14.583 4.17915 14.443 4.11548C14.2201 4.0136 13.8508 4.00724 10.1834 4.00087H6.17216L5.84107 4.16641ZM13.4815 6.78327C13.5006 8.41324 13.5325 8.54058 14.01 8.95444C14.4302 9.33009 14.5448 9.34919 16.1812 9.34919H17.6711V14.0926V18.8361L17.5246 18.9316C17.3909 19.0207 16.7415 19.0271 11.9471 19.0144L6.51598 18.9953L6.39501 18.8425C6.2804 18.696 6.27403 18.4987 6.27403 12.1571C6.27403 6.34395 6.28677 5.60537 6.37591 5.47803L6.47141 5.33795H9.96692H13.4624L13.4815 6.78327ZM15.9201 8.06305C15.4108 8.07578 15.1306 8.05668 15.0096 7.99938L14.8377 7.91661L14.8186 7.05706L14.8059 6.1975L15.7291 7.12073L16.6523 8.04395L15.9201 8.06305Z" fill="#0066B2"/>
<path d="M11.5842 9.02859C11.3152 9.09584 11.119 9.24714 11.035 9.44328C10.9733 9.59458 10.9901 9.88037 11.1527 11.3878C11.2535 12.3573 11.3376 13.2259 11.3432 13.3099C11.3488 13.6686 11.87 13.8703 12.1838 13.6349C12.3183 13.5285 12.3239 13.4668 12.5256 11.5727C12.7217 9.71786 12.7273 9.61139 12.6377 9.42646C12.4864 9.10704 12.01 8.92772 11.5842 9.02859Z" fill="#0066B2"/>
<path d="M11.507 14.2065C11.4062 14.2738 11.2829 14.397 11.2436 14.4699C11.1316 14.6884 11.1988 15.0191 11.3949 15.2208C11.5462 15.3665 11.6135 15.3945 11.8489 15.3945C12.0842 15.3945 12.1515 15.3665 12.3028 15.2208C12.4989 15.0191 12.5661 14.6884 12.4541 14.4699C12.3532 14.285 12.0338 14.0776 11.8489 14.0776C11.7648 14.0776 11.6135 14.1337 11.507 14.2065Z" fill="#0066B2"/>
</svg>
