<svg width="52" height="53" viewBox="0 0 52 53" fill="none" xmlns="http://www.w3.org/2000/svg">
<path d="M26.0067 41.2569C22.1014 41.2569 18.2103 39.7691 15.2348 36.8079C9.29805 30.8712 9.29805 21.2008 15.2348 15.2641C18.1101 12.3887 21.944 10.8008 26.0067 10.8008C30.0694 10.8008 33.9033 12.3887 36.7787 15.2641C42.7154 21.2008 42.7154 30.8712 36.7787 36.8079C33.8031 39.7691 29.9121 41.2569 26.0067 41.2569ZM26.0067 13.5617C22.8166 13.5617 19.6265 14.7777 17.1946 17.2096C12.3308 22.0734 12.3308 29.97 17.1946 34.8338C22.0584 39.6976 29.955 39.6976 34.8188 34.8338C39.6826 29.97 39.6826 22.0734 34.8188 17.2096C32.3869 14.7777 29.1968 13.5617 26.0067 13.5617Z" fill="url(#paint0_linear_1511_11111)"/>
<path d="M29.984 52.0143H22.0303C21.2721 52.0143 20.6426 51.3992 20.6426 50.6267V46.8644C18.6685 46.3637 16.7945 45.5912 15.0492 44.5469L12.4028 47.2077C12.1453 47.4652 11.7876 47.6083 11.4157 47.6083C11.0437 47.6083 10.7004 47.4652 10.4286 47.2077L4.8066 41.5857C4.263 41.0421 4.263 40.1695 4.8066 39.6259L7.4674 36.9651C6.43741 35.2198 5.66493 33.3458 5.14993 31.386H1.38762C1.01568 31.386 0.672353 31.2429 0.400551 30.9854C0.143055 30.7279 0 30.3703 0 29.9984V22.0446C0 21.2721 0.615132 20.6569 1.38762 20.6569H5.14993C5.65062 18.6828 6.42311 16.8088 7.4531 15.0635L4.7923 12.4028C4.5348 12.1453 4.39175 11.7876 4.39175 11.4157C4.39175 11.0437 4.5348 10.7004 4.7923 10.4286L10.4143 4.8066C10.9579 4.263 11.8305 4.263 12.3741 4.8066L15.0349 7.4674C16.7802 6.43742 18.6542 5.66493 20.614 5.14993V1.38762C20.614 1.01568 20.7571 0.672353 21.0146 0.400551C21.2721 0.143055 21.6297 0 22.0016 0H29.9554C30.7279 0 31.3431 0.615132 31.3431 1.38762V5.14993C33.3172 5.65062 35.1912 6.42311 36.9365 7.45309L39.5973 4.7923C40.1122 4.2773 41.0421 4.2773 41.5571 4.7923L47.1791 10.4143C47.7227 10.9579 47.7227 11.8305 47.1791 12.3741L44.5326 15.0206C45.5626 16.7659 46.3494 18.6399 46.8501 20.614H50.6124C50.9843 20.614 51.3276 20.7571 51.5995 21.0146C51.8569 21.2721 52 21.6297 52 22.0017V29.9554C52 30.7279 51.3849 31.3431 50.6124 31.3431H46.8644C46.3637 33.3172 45.5912 35.1912 44.5612 36.9365L47.2077 39.5829C47.4652 39.8404 47.6083 40.1981 47.6083 40.57C47.6083 40.942 47.4652 41.2853 47.2077 41.5571L41.5857 47.1791C41.0421 47.7227 40.1695 47.7227 39.6259 47.1791L36.9794 44.5326C35.2341 45.5626 33.3601 46.3351 31.386 46.8501V50.6124C31.386 50.9843 31.2429 51.3276 30.9854 51.5995C30.7136 51.8713 30.356 52.0143 29.984 52.0143ZM23.4179 49.2391H28.5964V45.7629C28.5964 45.1048 29.0685 44.5326 29.7122 44.4039C32.1155 43.9175 34.3615 42.9876 36.3928 41.6429C36.9365 41.271 37.6803 41.3425 38.1381 41.8146L40.5986 44.2608L44.2608 40.5986L41.8003 38.1524C41.3282 37.6803 41.2567 36.9508 41.6286 36.4072C42.9733 34.3758 43.9032 32.1298 44.3895 29.7265C44.5183 29.0828 45.0905 28.6107 45.7486 28.6107H49.2248V23.4322H45.7486C45.0905 23.4322 44.5183 22.9601 44.3895 22.3164C43.9032 19.9131 42.9733 17.6671 41.6286 15.6358C41.2567 15.0922 41.3282 14.3483 41.8003 13.8905L44.2465 11.43L40.5843 7.76781L38.1238 10.2283C37.6517 10.7004 36.9221 10.7719 36.3785 10.4C34.3472 9.0553 32.1012 8.12545 29.6979 7.63907C29.0542 7.51032 28.5821 6.9381 28.5821 6.28005V2.80385H23.4036V6.28005C23.4036 6.9381 22.9315 7.51032 22.2878 7.63907C19.8845 8.12545 17.6385 9.0553 15.6215 10.4C15.0779 10.7719 14.334 10.7004 13.8762 10.2283L11.4157 7.76781L7.75351 11.43L10.214 13.8905C10.6861 14.3626 10.7576 15.0922 10.3857 15.6358C9.04099 17.6671 8.11114 19.9131 7.62476 22.3164C7.49601 22.9601 6.9238 23.4322 6.26575 23.4322H2.78955V28.6107H6.26575C6.9238 28.6107 7.49601 29.0828 7.62476 29.7265C8.11114 32.1298 9.04099 34.3758 10.3857 36.4072C10.7576 36.9508 10.6861 37.6946 10.214 38.1524L7.75351 40.6129L11.4157 44.2751L13.8762 41.8146C14.3483 41.3425 15.0779 41.271 15.6215 41.6429C17.6528 43.0019 19.8988 43.9175 22.3021 44.4039C22.9458 44.5326 23.4179 45.1048 23.4179 45.7629V49.2391Z" fill="url(#paint1_linear_1511_11111)"/>
<path d="M19.3115 31.2148C18.539 31.2148 17.9238 30.5997 17.9238 29.8272V27.7958C17.9238 27.0233 18.539 26.4082 19.3115 26.4082C20.0839 26.4082 20.6991 27.0233 20.6991 27.7958V29.8272C20.6991 30.5854 20.0696 31.2148 19.3115 31.2148Z" fill="url(#paint2_linear_1511_11111)"/>
<path d="M23.7734 31.2136C23.0009 31.2136 22.3857 30.5985 22.3857 29.826V25.2197C22.3857 24.4472 23.0009 23.832 23.7734 23.832C24.5459 23.832 25.161 24.4472 25.161 25.2197V29.826C25.161 30.5842 24.5315 31.2136 23.7734 31.2136Z" fill="url(#paint3_linear_1511_11111)"/>
<path d="M28.2245 31.2137C27.452 31.2137 26.8369 30.5986 26.8369 29.8261V23.1884C26.8369 22.4159 27.452 21.8008 28.2245 21.8008C28.997 21.8008 29.6122 22.4159 29.6122 23.1884V29.8261C29.6122 30.5843 28.997 31.2137 28.2245 31.2137Z" fill="url(#paint4_linear_1511_11111)"/>
<path d="M32.6865 31.2132C31.914 31.2132 31.2988 30.5981 31.2988 29.8256V21.2138C31.2988 20.4413 31.914 19.8262 32.6865 19.8262C33.4589 19.8262 34.0741 20.4413 34.0741 21.2138V29.8256C34.0741 30.5838 33.4589 31.2132 32.6865 31.2132Z" fill="url(#paint5_linear_1511_11111)"/>
<defs>
<linearGradient id="paint0_linear_1511_11111" x1="10.7822" y1="12.1604" x2="44.0071" y2="15.7566" gradientUnits="userSpaceOnUse">
<stop stop-color="#0066B2"/>
<stop offset="1" stop-color="#00AEEF"/>
</linearGradient>
<linearGradient id="paint1_linear_1511_11111" x1="-7.42541e-08" y1="2.32207" x2="56.7407" y2="8.46331" gradientUnits="userSpaceOnUse">
<stop stop-color="#0066B2"/>
<stop offset="1" stop-color="#00AEEF"/>
</linearGradient>
<linearGradient id="paint2_linear_1511_11111" x1="17.9238" y1="26.6228" x2="20.9756" y2="26.8135" gradientUnits="userSpaceOnUse">
<stop stop-color="#0066B2"/>
<stop offset="1" stop-color="#00AEEF"/>
</linearGradient>
<linearGradient id="paint3_linear_1511_11111" x1="22.3857" y1="24.1616" x2="25.4444" y2="24.2861" gradientUnits="userSpaceOnUse">
<stop stop-color="#0066B2"/>
<stop offset="1" stop-color="#00AEEF"/>
</linearGradient>
<linearGradient id="paint4_linear_1511_11111" x1="26.8369" y1="22.221" x2="29.8975" y2="22.3187" gradientUnits="userSpaceOnUse">
<stop stop-color="#0066B2"/>
<stop offset="1" stop-color="#00AEEF"/>
</linearGradient>
<linearGradient id="paint5_linear_1511_11111" x1="31.2988" y1="20.3345" x2="34.3604" y2="20.4153" gradientUnits="userSpaceOnUse">
<stop stop-color="#0066B2"/>
<stop offset="1" stop-color="#00AEEF"/>
</linearGradient>
</defs>
</svg>
