<svg width="40" height="40" viewBox="0 0 40 40" fill="none" xmlns="http://www.w3.org/2000/svg">
<path fill-rule="evenodd" clip-rule="evenodd" d="M7.87602 3.33398H31.2927C32.0343 3.33398 32.6527 3.33398 33.1593 3.36732C33.6877 3.40398 34.1877 3.48232 34.671 3.68398C35.2273 3.91413 35.7327 4.25161 36.1585 4.67713C36.5843 5.10265 36.9222 5.60789 37.1527 6.16398C37.3527 6.64732 37.431 7.14732 37.466 7.67565C37.501 8.18232 37.501 8.80065 37.501 9.54232V9.62565C37.501 10.3673 37.501 10.9857 37.4677 11.4923C37.4461 12.0102 37.3391 12.521 37.151 13.004C36.9043 13.6014 36.5339 14.1398 36.0643 14.584C36.5293 15.024 36.9027 15.5607 37.1527 16.164C37.3527 16.6473 37.431 17.1473 37.466 17.6756C37.501 18.1823 37.501 18.8007 37.501 19.5423V19.6257C37.501 20.3673 37.501 20.9857 37.4677 21.4923C37.4461 22.0102 37.3391 22.521 37.151 23.004C36.9043 23.6014 36.5339 24.1398 36.0643 24.584C36.5293 25.024 36.9027 25.5606 37.1527 26.164C37.3527 26.6473 37.431 27.1473 37.466 27.6756C37.501 28.1823 37.501 28.8007 37.501 29.5423V29.6257C37.501 30.3673 37.501 30.9857 37.4677 31.4923C37.4461 32.0102 37.3391 32.521 37.151 33.004C36.9209 33.5602 36.5834 34.0657 36.1579 34.4915C35.7323 34.9173 35.2271 35.2551 34.671 35.4856C34.1877 35.6856 33.6877 35.764 33.1593 35.799C32.6527 35.834 32.0343 35.834 31.2927 35.834H7.87602C7.13435 35.834 6.51602 35.834 6.00935 35.8006C5.49145 35.7791 4.98068 35.6721 4.49768 35.484C3.94143 35.2538 3.43597 34.9164 3.01016 34.4908C2.58435 34.0653 2.24654 33.5601 2.01602 33.004C1.81602 32.5207 1.73768 32.0207 1.70268 31.4923C1.66768 30.9857 1.66768 30.3673 1.66768 29.6257V29.5423C1.66768 28.8007 1.66768 28.1823 1.70102 27.6756C1.7231 27.1578 1.83008 26.6471 2.01768 26.164C2.26444 25.5666 2.63477 25.0281 3.10435 24.584C2.63357 24.1402 2.26209 23.6017 2.01435 23.004C1.81435 22.5207 1.73602 22.0207 1.70102 21.4923C1.66602 20.9857 1.66602 20.3673 1.66602 19.6257V19.5423C1.66602 18.8007 1.66602 18.1823 1.69935 17.6756C1.73602 17.1456 1.81602 16.6473 2.01602 16.164C2.26327 15.5664 2.63417 15.028 3.10435 14.584C2.63357 14.1402 2.26209 13.6017 2.01435 13.004C1.81435 12.5207 1.73602 12.0207 1.70102 11.4923C1.66602 10.9857 1.66602 10.3673 1.66602 9.62565V9.54232C1.66602 8.80065 1.66602 8.18232 1.69935 7.67565C1.72143 7.15782 1.82841 6.64714 2.01602 6.16398C2.24616 5.60773 2.58364 5.10227 3.00916 4.67646C3.43468 4.25065 3.93992 3.91284 4.49602 3.68232C4.97935 3.48232 5.47935 3.40398 6.00768 3.36898C6.51435 3.33398 7.13435 3.33398 7.87602 3.33398ZM7.91602 13.334C7.12268 13.334 6.58935 13.334 6.17768 13.3057C5.77602 13.2773 5.58102 13.229 5.45268 13.1757C5.19969 13.0709 4.96981 12.9174 4.77621 12.7238C4.5826 12.5302 4.42905 12.3003 4.32435 12.0473C4.27102 11.919 4.22268 11.724 4.19435 11.3223C4.16777 10.7433 4.15888 10.1636 4.16768 9.58398C4.16768 8.79065 4.16768 8.25732 4.19602 7.84565C4.22435 7.44398 4.27268 7.24898 4.32602 7.12065C4.53768 6.60898 4.94268 6.20398 5.45435 5.99232C5.58268 5.93898 5.77768 5.89065 6.17935 5.86232C6.75837 5.83519 7.33808 5.82574 7.91768 5.83398H31.251C32.0443 5.83398 32.5777 5.83398 32.9893 5.86232C33.391 5.89065 33.586 5.93898 33.7143 5.99232C34.226 6.20398 34.631 6.60898 34.8427 7.12065C34.896 7.24898 34.9443 7.44398 34.9727 7.84565C35.001 8.25732 35.001 8.79065 35.001 9.58398C35.001 10.3773 35.001 10.9107 34.9727 11.3223C34.9443 11.724 34.896 11.919 34.8427 12.0473C34.738 12.3003 34.5844 12.5302 34.3908 12.7238C34.1972 12.9174 33.9673 13.0709 33.7143 13.1757C33.586 13.229 33.391 13.2773 32.9893 13.3057C32.5777 13.334 32.0443 13.334 31.251 13.334H7.91602ZM7.91602 15.834C7.12268 15.834 6.58935 15.834 6.17768 15.8623C5.77602 15.8907 5.58102 15.939 5.45268 15.9923C5.19969 16.097 4.96981 16.2506 4.77621 16.4442C4.5826 16.6378 4.42905 16.8677 4.32435 17.1207C4.27102 17.249 4.22268 17.444 4.19435 17.8457C4.16602 18.2573 4.16602 18.7907 4.16602 19.584C4.16602 20.3773 4.16602 20.9107 4.19435 21.3223C4.22268 21.724 4.27102 21.919 4.32435 22.0473C4.53602 22.559 4.94102 22.964 5.45268 23.1756C5.58102 23.229 5.77602 23.2773 6.17768 23.3057C6.58935 23.334 7.12268 23.334 7.91602 23.334H31.2493C32.0427 23.334 32.576 23.334 32.9877 23.3057C33.3893 23.2773 33.5843 23.229 33.7127 23.1756C34.2243 22.964 34.6293 22.559 34.841 22.0473C34.8943 21.919 34.9427 21.724 34.971 21.3223C34.9993 20.9107 34.9993 20.3773 34.9993 19.584C34.9993 18.7907 34.9993 18.2573 34.971 17.8457C34.9427 17.444 34.8943 17.249 34.841 17.1207C34.7363 16.8677 34.5828 16.6378 34.3892 16.4442C34.1955 16.2506 33.9657 16.097 33.7127 15.9923C33.5843 15.939 33.3893 15.8907 32.9877 15.8623C32.4092 15.8352 31.8301 15.8258 31.251 15.834H7.91602ZM7.91602 25.834C7.12268 25.834 6.58935 25.834 6.17768 25.8623C5.77602 25.8907 5.58102 25.939 5.45268 25.9923C5.19969 26.097 4.96981 26.2506 4.77621 26.4442C4.5826 26.6378 4.42905 26.8677 4.32435 27.1206C4.27102 27.249 4.22268 27.444 4.19435 27.8457C4.16602 28.2573 4.16602 28.7907 4.16602 29.584C4.16602 30.3773 4.16602 30.9106 4.19435 31.3223C4.22268 31.724 4.27102 31.919 4.32435 32.0473C4.53602 32.559 4.94102 32.964 5.45268 33.1757C5.58102 33.229 5.77602 33.2773 6.17768 33.3057C6.58935 33.334 7.12268 33.334 7.91602 33.334H31.2493C32.0427 33.334 32.576 33.334 32.9877 33.3057C33.3893 33.2773 33.5843 33.229 33.7127 33.1757C34.2243 32.964 34.6293 32.559 34.841 32.0473C34.8943 31.919 34.9427 31.724 34.971 31.3223C34.9993 30.9106 34.9993 30.3773 34.9993 29.584C34.9993 28.7907 34.9993 28.2573 34.971 27.8457C34.9427 27.444 34.8943 27.249 34.841 27.1206C34.7363 26.8677 34.5828 26.6378 34.3892 26.4442C34.1955 26.2506 33.9657 26.097 33.7127 25.9923C33.5843 25.939 33.3893 25.8907 32.9877 25.8623C32.4092 25.8352 31.8301 25.8258 31.251 25.834H7.91602Z" fill="white"/>
<path d="M9.58333 19.5846C9.58333 20.0267 9.40774 20.4506 9.09518 20.7631C8.78262 21.0757 8.35869 21.2513 7.91667 21.2513C7.47464 21.2513 7.05072 21.0757 6.73816 20.7631C6.4256 20.4506 6.25 20.0267 6.25 19.5846C6.25 19.1426 6.4256 18.7187 6.73816 18.4061C7.05072 18.0936 7.47464 17.918 7.91667 17.918C8.35869 17.918 8.78262 18.0936 9.09518 18.4061C9.40774 18.7187 9.58333 19.1426 9.58333 19.5846ZM9.58333 9.58464C9.58333 10.0267 9.40774 10.4506 9.09518 10.7631C8.78262 11.0757 8.35869 11.2513 7.91667 11.2513C7.47464 11.2513 7.05072 11.0757 6.73816 10.7631C6.4256 10.4506 6.25 10.0267 6.25 9.58464C6.25 9.14261 6.4256 8.71869 6.73816 8.40612C7.05072 8.09356 7.47464 7.91797 7.91667 7.91797C8.35869 7.91797 8.78262 8.09356 9.09518 8.40612C9.40774 8.71869 9.58333 9.14261 9.58333 9.58464ZM9.58333 29.5846C9.58333 30.0267 9.40774 30.4506 9.09518 30.7631C8.78262 31.0757 8.35869 31.2513 7.91667 31.2513C7.47464 31.2513 7.05072 31.0757 6.73816 30.7631C6.4256 30.4506 6.25 30.0267 6.25 29.5846C6.25 29.1426 6.4256 28.7187 6.73816 28.4061C7.05072 28.0936 7.47464 27.918 7.91667 27.918C8.35869 27.918 8.78262 28.0936 9.09518 28.4061C9.40774 28.7187 9.58333 29.1426 9.58333 29.5846Z" fill="white"/>
</svg>
