<svg width="80" height="80" viewBox="0 0 80 80" fill="none" xmlns="http://www.w3.org/2000/svg">
<path d="M33.4124 0.239012C31.6981 0.724179 29.6927 2.79423 29.2076 4.57318L28.8194 5.99634L24.9381 6.09337L21.0244 6.1904V10.8804V15.5703H35.4177H49.811V10.8804V6.1904L45.865 6.09337C42.5012 6.02868 41.8866 5.93165 41.8866 5.51117C41.8866 5.22007 41.4985 4.24973 41.0133 3.37643C39.5578 0.724179 36.3881 -0.569601 33.4124 0.239012ZM37.4554 3.76456C38.6845 4.7349 39.1373 6.35213 38.5551 7.74294C37.9406 9.19844 36.8732 9.91002 35.256 9.91002C32.6038 9.87768 31.0189 7.12839 32.3127 4.76724C33.2506 3.11767 35.9352 2.56782 37.4554 3.76456Z" fill="url(#paint0_linear_4513_6409)"/>
<path d="M10.998 9.71541C9.73661 10.2653 8.44283 11.4944 7.69891 12.8528C7.14905 13.8878 7.11671 15.3757 7.01967 39.7635C6.95498 57.2942 7.05202 65.9949 7.27843 66.8682C7.73125 68.4854 9.34848 70.329 10.998 71.073C12.1625 71.6228 13.3915 71.6875 24.6151 71.6875H36.9384L36.4855 70.135C36.2268 69.294 35.9357 68.4207 35.871 68.1943C35.774 67.9032 33.154 67.8062 24.0976 67.8062H12.4212L11.6449 66.9975L10.8363 66.2213V40.5074V14.7935L11.6126 13.8878C12.2918 13.0792 12.6153 12.9822 14.847 12.8852L17.3052 12.7558V11.0092V9.26258H14.653C13.1328 9.29493 11.5479 9.489 10.998 9.71541Z" fill="url(#paint1_linear_4513_6409)"/>
<path d="M53.5303 11.0098V12.7564L55.9238 12.8858C57.9291 12.9828 58.479 13.1122 59.1582 13.7591L59.9992 14.5354V28.864V43.1603L61.4223 43.516C62.1986 43.7101 63.0719 43.9689 63.363 44.0659C63.8805 44.26 63.9129 43.1279 63.8158 28.8963L63.7188 13.5327L62.7485 12.1419C61.2606 10.0395 59.514 9.26319 56.2149 9.26319H53.5303V11.0098Z" fill="url(#paint2_linear_4513_6409)"/>
<path d="M19.6335 25.9527C19.1483 26.2762 18.9219 26.7614 18.9219 27.5376C18.9219 29.446 20.6685 30.481 22.124 29.4136C24.5175 27.6347 22.0916 24.2385 19.6335 25.9527Z" fill="url(#paint3_linear_4513_6409)"/>
<path d="M26.2328 26.4699C25.5536 27.4402 25.5859 28.2165 26.3622 28.9928C26.9767 29.6073 27.4296 29.6396 38.9119 29.6396C50.0707 29.6396 50.8793 29.6073 51.3645 29.0574C52.0114 28.3459 52.0761 26.6963 51.5262 26.1464C51.2351 25.8553 48.0007 25.7583 38.9442 25.7583H26.718L26.2328 26.4699Z" fill="url(#paint4_linear_4513_6409)"/>
<path d="M19.6339 38.2437C18.6959 38.8905 18.6636 40.7018 19.6016 41.6398C20.1191 42.1573 20.5072 42.2867 21.3159 42.125C22.5126 41.8662 23.1271 41.1547 23.1271 39.9256C23.1271 38.1143 21.1865 37.1439 19.6339 38.2437Z" fill="url(#paint5_linear_4513_6409)"/>
<path d="M26.2328 38.7609C25.5536 39.7312 25.5859 40.5075 26.3622 41.2838C26.9767 41.8983 27.4296 41.9307 38.9119 41.9307C50.0707 41.9307 50.8793 41.8983 51.3645 41.3485C52.0437 40.6045 52.0761 39.2137 51.3968 38.5668C50.9764 38.114 49.3591 38.0493 38.8148 38.0493H26.718L26.2328 38.7609Z" fill="url(#paint6_linear_4513_6409)"/>
<path d="M53.3696 47.7529C50.9761 48.2705 48.3562 49.4025 46.8036 50.6316C43.2781 53.4456 41.2727 56.5183 40.4318 60.529C39.8496 63.343 39.8496 64.184 40.4318 66.9979C41.111 70.2647 42.5665 72.9493 44.8306 75.2134C54.9545 85.3373 72.2588 78.3509 72.3882 64.0869C72.4528 58.1032 70.027 53.5103 65.1106 50.2111C62.1026 48.1411 56.7011 47.009 53.3696 47.7529ZM58.6417 58.8148L58.7388 61.3053L61.2293 61.4023L63.7198 61.4994V63.7635V66.0276L61.2293 66.1246L58.7388 66.2217L58.6417 68.7122L58.5447 71.2027H56.2806H54.0165L53.9194 68.7122L53.8224 66.2217L51.3319 66.1246L48.8413 66.0276V63.7635V61.4994L51.3642 61.4023L53.8547 61.3053V58.9441C53.8547 57.6504 53.9518 56.486 54.0812 56.3566C54.2105 56.2272 55.2779 56.1625 56.4423 56.2272L58.5447 56.3242L58.6417 58.8148Z" fill="url(#paint7_linear_4513_6409)"/>
<path d="M19.5687 50.664C18.663 51.5696 18.6954 53.3809 19.6334 54.0278C20.636 54.7394 21.7034 54.6747 22.4797 53.8984C23.8058 52.5723 22.8678 50.0171 21.0242 50.0171C20.5714 50.0171 19.9245 50.3082 19.5687 50.664Z" fill="url(#paint8_linear_4513_6409)"/>
<path d="M26.3622 50.9872C25.5859 51.7635 25.5536 52.5398 26.2328 53.5101C26.718 54.1893 26.912 54.2217 32.1519 54.2217H37.5534L38.9119 52.281L40.238 50.3403H33.6074C27.4296 50.3403 26.9767 50.3727 26.3622 50.9872Z" fill="url(#paint9_linear_4513_6409)"/>
<defs>
<linearGradient id="paint0_linear_4513_6409" x1="21.0244" y1="14.8752" x2="51.5792" y2="8.75934" gradientUnits="userSpaceOnUse">
<stop stop-color="#0066B2"/>
<stop offset="1" stop-color="#00AEEF"/>
</linearGradient>
<linearGradient id="paint1_linear_4513_6409" x1="7" y1="68.9007" x2="39.9616" y2="67.1892" gradientUnits="userSpaceOnUse">
<stop stop-color="#0066B2"/>
<stop offset="1" stop-color="#00AEEF"/>
</linearGradient>
<linearGradient id="paint2_linear_4513_6409" x1="53.5303" y1="42.5295" x2="64.9211" y2="42.1637" gradientUnits="userSpaceOnUse">
<stop stop-color="#0066B2"/>
<stop offset="1" stop-color="#00AEEF"/>
</linearGradient>
<linearGradient id="paint3_linear_4513_6409" x1="18.9219" y1="29.6481" x2="23.4928" y2="29.1731" gradientUnits="userSpaceOnUse">
<stop stop-color="#0066B2"/>
<stop offset="1" stop-color="#00AEEF"/>
</linearGradient>
<linearGradient id="paint4_linear_4513_6409" x1="25.75" y1="29.4664" x2="44.5927" y2="15.7233" gradientUnits="userSpaceOnUse">
<stop stop-color="#0066B2"/>
<stop offset="1" stop-color="#00AEEF"/>
</linearGradient>
<linearGradient id="paint5_linear_4513_6409" x1="18.9141" y1="41.9935" x2="23.5159" y2="41.5177" gradientUnits="userSpaceOnUse">
<stop stop-color="#0066B2"/>
<stop offset="1" stop-color="#00AEEF"/>
</linearGradient>
<linearGradient id="paint6_linear_4513_6409" x1="25.75" y1="41.7574" x2="44.591" y2="28.0197" gradientUnits="userSpaceOnUse">
<stop stop-color="#0066B2"/>
<stop offset="1" stop-color="#00AEEF"/>
</linearGradient>
<linearGradient id="paint7_linear_4513_6409" x1="39.9951" y1="78.5502" x2="75.3445" y2="74.7328" gradientUnits="userSpaceOnUse">
<stop stop-color="#0066B2"/>
<stop offset="1" stop-color="#00AEEF"/>
</linearGradient>
<linearGradient id="paint8_linear_4513_6409" x1="18.9092" y1="54.3223" x2="23.4912" y2="53.8607" gradientUnits="userSpaceOnUse">
<stop stop-color="#0066B2"/>
<stop offset="1" stop-color="#00AEEF"/>
</linearGradient>
<linearGradient id="paint9_linear_4513_6409" x1="25.75" y1="54.0484" x2="39.4987" y2="48.4923" gradientUnits="userSpaceOnUse">
<stop stop-color="#0066B2"/>
<stop offset="1" stop-color="#00AEEF"/>
</linearGradient>
</defs>
</svg>
