<svg width="61" height="61" viewBox="0 0 61 61" fill="none" xmlns="http://www.w3.org/2000/svg">
<path d="M0.802612 30.5935L22.568 52.3588L44.3333 30.5935L22.568 8.82812L0.802612 30.5935ZM42.9241 30.5935L22.568 50.9496L2.21197 30.5935L22.5681 10.2374L42.9241 30.5935Z" fill="white"/>
<path d="M25.6192 27.3963L40.702 12.3619L58.9345 30.5943L40.7019 48.8267L33.4351 41.5113L32.804 42.1424L40.702 50.0888L60.1966 30.5942L40.7019 11.0996L24.988 26.765C24.8103 26.9427 24.8143 27.2321 24.9968 27.4047C25.1724 27.5709 25.4483 27.5671 25.6192 27.3963Z" fill="white"/>
<path d="M22.5674 28.748C21.6325 28.748 20.8749 29.5059 20.8749 30.4406C20.8749 31.3753 21.6327 32.1331 22.5674 32.1331C23.5022 32.1331 24.2599 31.3753 24.2599 30.4406C24.2599 29.5059 23.5022 28.748 22.5674 28.748ZM22.5674 31.4562C22.0066 31.4562 21.5519 31.0015 21.5519 30.4407C21.5519 29.8799 22.0066 29.4252 22.5674 29.4252C23.1282 29.4252 23.5829 29.8799 23.5829 30.4407C23.5829 31.0015 23.1284 31.4562 22.5674 31.4562Z" fill="white"/>
</svg>
