<svg width="40" height="40" viewBox="0 0 40 40" fill="none" xmlns="http://www.w3.org/2000/svg">
<path d="M18.4237 3.32213C16.8165 3.56939 15.745 3.96089 12.9633 5.34145C9.41919 7.1135 8.10045 7.505 5.71024 7.505H4V8.78253C4 11.0903 4.3915 14.9641 4.86542 17.3955L5.31874 19.7651L5.46297 18.3228C5.60721 16.7362 6.01932 15.6029 6.78171 14.5932C7.04958 14.2429 7.25563 13.9132 7.21442 13.872C7.17321 13.8308 7.07019 13.0272 7.00837 12.1206L6.86413 10.431L8.18287 10.2043C10.0992 9.87461 11.4179 9.38008 14.3645 7.85529C19.0625 5.42387 20.8963 5.42387 25.5943 7.85529C28.5409 9.38008 29.839 9.87461 31.7553 10.2043L33.0947 10.431L32.9504 12.1206C32.7444 14.7993 32.0026 18.8173 31.4874 20.1772C31.3844 20.4451 31.6111 20.4863 32.9092 20.4863H34.434L34.8873 18.364C35.4849 15.4174 35.6909 13.8308 35.8558 10.431L36 7.505H34.2692C31.8377 7.505 30.519 7.1135 26.9749 5.34145C23.2041 3.44576 20.9581 2.93063 18.4237 3.32213Z" fill="white"/>
<path d="M10.2639 15.3133C8.86279 16.1787 8.1416 17.7859 8.5331 19.2489C8.9246 20.7119 10.3052 21.9276 11.5827 21.9276C11.8918 21.9276 12.2627 22.0306 12.4069 22.1748C12.7572 22.5251 12.716 23.3081 12.3245 23.4524C11.9124 23.6172 11.2118 23.4112 11.2118 23.1433C11.2118 23.0403 10.573 22.9578 9.76942 22.9578H8.34766L8.45068 23.6172C8.61552 24.4826 9.11005 25.2038 9.97547 25.7808C11.0263 26.5019 12.9426 26.4401 14.0347 25.6571C16.6516 23.7614 15.745 19.867 12.5511 19.2695C11.253 19.0222 10.7585 18.2598 11.6033 17.8065C12.036 17.6005 12.6542 17.7241 12.6542 18.0332C12.6542 18.1362 13.3135 18.2186 14.0965 18.2186C15.4359 18.2186 15.5389 18.1774 15.5389 17.7859C15.5389 17.0441 14.7147 15.8078 13.8905 15.3545C12.8808 14.7981 11.15 14.7775 10.2639 15.3133Z" fill="white"/>
<path d="M18.8153 15.3953C17.682 16.1577 17.1875 17.0643 17.1875 18.4243C17.1875 19.3103 17.3111 19.7636 17.6614 20.2993C18.2796 21.2266 19.3717 21.9272 20.1959 21.9272C21.2261 21.9272 21.8649 22.7308 21.2673 23.3283C20.9377 23.658 20.3813 23.6374 20.0722 23.2665C19.8868 23.0605 19.4129 22.9574 18.5062 22.9574C17.2081 22.9574 17.1875 22.9574 17.1875 23.5138C17.1875 24.2968 17.8675 25.3476 18.6711 25.8422C19.6601 26.4397 21.6382 26.4191 22.5655 25.7803C23.6988 25.018 24.1933 24.1113 24.1933 22.7514C24.1933 21.8653 24.0697 21.412 23.7194 20.8763C23.1012 19.9491 22.0091 19.2485 21.1849 19.2485C20.5462 19.2485 19.8662 18.8158 19.8662 18.4243C19.8662 18.1564 20.4843 17.6001 20.7728 17.6001C20.9377 17.6001 21.1643 17.7443 21.3086 17.9091C21.494 18.1358 21.9679 18.2182 22.9158 18.2182H24.2551L24.1315 17.497C23.8636 15.8898 22.5655 14.9214 20.6286 14.9214C19.8044 14.9214 19.3304 15.045 18.8153 15.3953Z" fill="white"/>
<path d="M25.8418 20.5894V26.2559H28.7265H31.6113V24.9165V23.5772H30.1689H28.7265V19.2501V14.923H27.2842H25.8418V20.5894Z" fill="white"/>
<path d="M9.5625 29.0573C9.5625 29.6755 13.086 33.5699 15.0847 35.1565C16.5889 36.3722 19.3706 38 19.927 38C20.5245 38 22.5438 36.8873 24.2953 35.5892C26.0055 34.3323 29.1581 31.1178 29.8175 29.9845L30.1884 29.3458H28.5194H26.8503L25.1607 31.056C23.5329 32.6838 20.5451 34.9092 19.9682 34.9092C19.3912 34.9092 16.4653 32.725 14.8581 31.0972L13.1684 29.4076L11.7261 29.284C10.9431 29.2222 10.1188 29.0985 9.9334 29.0367C9.72734 28.9543 9.5625 28.9543 9.5625 29.0573Z" fill="white"/>
</svg>
