<svg width="16" height="16" viewBox="0 0 16 16" fill="none" xmlns="http://www.w3.org/2000/svg">
<path d="M14.5492 6.0003L14.5624 6.03773L14.6112 6.19944L14.6521 6.34458L14.6695 6.41087L14.6981 6.53087C15.0686 8.20305 14.7981 9.9534 13.9401 11.4357C13.0839 12.9226 11.6999 14.0332 10.063 14.5472L9.94753 14.5814L9.80582 14.618L9.60096 14.6666C9.5286 14.6831 9.45362 14.6844 9.3807 14.6706C9.30778 14.6569 9.23848 14.6282 9.17714 14.5864C9.1158 14.5446 9.06373 14.4907 9.02417 14.4279C8.98462 14.3651 8.95843 14.2948 8.94725 14.2214C8.92427 14.0709 8.95868 13.9171 9.04366 13.7907C9.12864 13.6643 9.25799 13.5744 9.4061 13.5389L9.57096 13.4974C9.67382 13.4706 9.76239 13.4443 9.83639 13.4194C11.151 12.9755 12.2583 12.0669 12.9504 10.8643C13.6464 9.66249 13.8793 8.24779 13.6052 6.8863L13.5855 6.79687L13.5592 6.69258L13.5264 6.57315L13.487 6.43887C13.4428 6.29238 13.4553 6.13465 13.522 5.99695C13.5887 5.85925 13.7047 5.75163 13.847 5.69544C13.9131 5.66931 13.9837 5.65648 14.0548 5.65766C14.1259 5.65884 14.1961 5.67403 14.2613 5.70234C14.3265 5.73065 14.3855 5.77154 14.4349 5.82266C14.4843 5.87379 14.5232 5.93415 14.5492 6.0003ZM2.10982 5.69115C2.2613 5.73941 2.38785 5.84512 2.4623 5.98559C2.53676 6.12607 2.5532 6.29013 2.5081 6.44258C2.45667 6.61573 2.41953 6.75973 2.39667 6.87487C2.12382 8.23528 2.35699 9.6485 3.05239 10.8492C3.74511 12.0528 4.85376 12.9619 6.16982 13.4054L6.25725 13.4332L6.30696 13.4474L6.41839 13.4777L6.61667 13.5266C6.76564 13.5616 6.896 13.6513 6.98189 13.778C7.06779 13.9046 7.10294 14.0589 7.08039 14.2103C7.05922 14.3522 6.98256 14.4799 6.86726 14.5653C6.75196 14.6507 6.60746 14.6868 6.46553 14.6657L6.4261 14.6586L6.26153 14.62L6.11582 14.5829L5.98839 14.5472L5.93125 14.53C4.29775 14.0146 2.9172 12.9048 2.06267 11.4203C1.20304 9.93538 0.933091 8.18156 1.30639 6.50687L1.32839 6.41544L1.35696 6.3083L1.41239 6.1183L1.4341 6.04687C1.45509 5.97912 1.48921 5.91617 1.53453 5.86161C1.57985 5.80706 1.63547 5.76196 1.69822 5.7289C1.76097 5.69584 1.82961 5.67547 1.90023 5.66894C1.97086 5.66242 2.04207 5.67015 2.10982 5.69115ZM8.01439 3.4283C10.5392 3.4283 12.5858 5.47487 12.5858 7.99973C12.5858 10.5246 10.5392 12.5712 8.01439 12.5712C5.48982 12.5712 3.44296 10.5246 3.44296 7.99973C3.44296 5.47487 5.48982 3.4283 8.01439 3.4283ZM8.01439 4.57115C6.12096 4.57115 4.58582 6.1063 4.58582 7.99973C4.58582 9.89316 6.12096 11.4283 8.01439 11.4283C9.9081 11.4283 11.443 9.89316 11.443 7.99973C11.443 6.1063 9.9081 4.57115 8.01439 4.57115ZM8.01439 1.14258C9.73022 1.14053 11.3841 1.78365 12.6478 2.9443L12.7161 3.00915L12.7947 3.08744L12.8832 3.17944L12.9821 3.28487C13.0325 3.33929 13.0712 3.40352 13.0957 3.47355C13.1202 3.54359 13.13 3.61792 13.1245 3.69191C13.119 3.7659 13.0984 3.83797 13.0638 3.90361C13.0292 3.96925 12.9815 4.02707 12.9235 4.07344C12.8046 4.16872 12.6542 4.21585 12.5022 4.20548C12.3501 4.19511 12.2076 4.12799 12.1027 4.01744C12.0407 3.95173 11.983 3.89315 11.9298 3.84115L11.8298 3.74573L11.7841 3.70487C10.7424 2.78831 9.40191 2.28357 8.01439 2.28544C6.62559 2.28353 5.28394 2.78914 4.24182 3.70715L4.20925 3.7363L4.13696 3.80487L4.05496 3.8863L3.91353 4.03344C3.69639 4.26458 3.3381 4.29058 3.08982 4.09344C3.03413 4.04924 2.98771 3.99449 2.95319 3.93234C2.91868 3.87019 2.89674 3.80184 2.88865 3.73121C2.88056 3.66058 2.88646 3.58904 2.90603 3.52069C2.92559 3.45235 2.95843 3.38852 3.00267 3.33287L3.02839 3.30258L3.1441 3.17944L3.24925 3.07144C3.29925 3.02144 3.34525 2.97715 3.38753 2.93858C4.65038 1.78164 6.30141 1.14072 8.0141 1.14258" fill="#273240"/>
</svg>
