<svg width="16" height="16" viewBox="0 0 16 16" fill="none" xmlns="http://www.w3.org/2000/svg">
<g clip-path="url(#clip0_4057_3104)">
<path d="M6.2069 0.105747C5.88046 0.275862 5.81609 0.455173 5.81609 1.18161C5.81609 1.53103 5.7977 1.8069 5.77011 1.82529C5.74713 1.84828 5.6046 1.91264 5.45747 1.97241L5.1908 2.07816L4.76322 1.65977C4.18851 1.09885 3.95402 1.0069 3.56782 1.1954C3.31034 1.31954 1.26897 3.36552 1.17701 3.5954C1.01149 3.98621 1.09425 4.17931 1.66897 4.76782L2.07816 5.1908L1.97241 5.45747C1.91264 5.6046 1.84828 5.74253 1.82529 5.77011C1.8069 5.7977 1.53103 5.81609 1.18161 5.81609C0.455172 5.81609 0.275862 5.88046 0.105747 6.2069C0 6.4046 0 6.42759 0 8C0 9.57241 0 9.5954 0.105747 9.7931C0.275862 10.1195 0.455172 10.1839 1.18161 10.1839C1.53103 10.1839 1.8069 10.2023 1.82529 10.2299C1.84828 10.2529 1.91264 10.3954 1.97241 10.5425L2.07816 10.8092L1.66897 11.2322C1.08046 11.8345 1.0023 12.0368 1.1954 12.4322C1.31954 12.6897 3.36552 14.731 3.5954 14.823C3.97701 14.9839 4.2023 14.8874 4.76322 14.3402L5.1908 13.9218L5.45747 14.0276C5.6046 14.0874 5.74253 14.1517 5.77011 14.1701C5.7931 14.1931 5.81149 14.4828 5.81609 14.8184C5.81609 15.5448 5.88046 15.7241 6.2069 15.8943C6.4046 16 6.42759 16 8 16C9.57241 16 9.5954 16 9.7931 15.8943C10.1195 15.7241 10.1839 15.5448 10.1839 14.8184C10.1885 14.4828 10.2069 14.1931 10.2299 14.1701C10.2575 14.1517 10.3954 14.0874 10.5425 14.0276L10.8092 13.9218L11.2368 14.3402C11.7977 14.8874 12.023 14.9839 12.4046 14.823C12.6345 14.731 14.6805 12.6897 14.8046 12.4322C14.9931 12.046 14.9011 11.8115 14.3402 11.2368L13.9218 10.8092L14.0276 10.5425C14.0874 10.3954 14.1517 10.2575 14.1701 10.2299C14.1931 10.2069 14.4828 10.1885 14.8184 10.1839C15.5448 10.1839 15.7241 10.1195 15.8943 9.7931C16 9.5954 16 9.57241 16 8C16 6.42759 16 6.4046 15.8943 6.2069C15.7241 5.88046 15.5448 5.81609 14.8184 5.81609C14.4828 5.81149 14.1931 5.7931 14.1701 5.77011C14.1517 5.74253 14.0874 5.6046 14.0276 5.45747L13.9218 5.1908L14.331 4.76782C14.9057 4.17931 14.9885 3.98621 14.823 3.5954C14.731 3.36552 12.6897 1.31954 12.4322 1.1954C12.0368 1.0023 11.8345 1.08046 11.2322 1.66897L10.8092 2.07816L10.5425 1.97241C10.3954 1.91264 10.2575 1.84828 10.2299 1.82529C10.2023 1.8069 10.1839 1.53103 10.1839 1.18161C10.1839 0.455173 10.1195 0.275862 9.7931 0.105747C9.5954 0 9.57241 0 8 0C6.42759 0 6.4046 0 6.2069 0.105747ZM8.73563 2.0046C8.73563 2.8046 8.81379 2.91954 9.50805 3.14483C9.71954 3.21379 10.1103 3.37471 10.3724 3.50345C10.8046 3.71494 10.8644 3.73333 11.0621 3.70115C11.2552 3.67356 11.3241 3.62759 11.6966 3.26437L12.1149 2.85517L12.6299 3.36552L13.1448 3.88046L12.7356 4.30345C12.377 4.67586 12.3264 4.74942 12.2989 4.93793C12.2667 5.13103 12.2851 5.1908 12.4966 5.62299C12.6207 5.88046 12.7816 6.26667 12.8506 6.48276C13.0805 7.18621 13.1954 7.26437 13.9954 7.26437H14.5287V8V8.73563H13.9954C13.1908 8.73563 13.0805 8.81379 12.8506 9.51724C12.7816 9.73333 12.6253 10.1195 12.4966 10.377C12.2851 10.8092 12.2667 10.869 12.2989 11.0621C12.3264 11.2552 12.377 11.3241 12.7356 11.6966L13.1448 12.1149L12.6345 12.6299L12.1195 13.1448L11.6966 12.7356C11.3241 12.377 11.2506 12.3264 11.0621 12.2989C10.869 12.2667 10.8092 12.2851 10.377 12.4966C10.1195 12.6253 9.73333 12.7816 9.51724 12.8506C8.81379 13.0805 8.73563 13.1908 8.73563 13.9954V14.5287H8H7.26437V13.9954C7.26437 13.1954 7.18621 13.0805 6.48276 12.8506C6.26667 12.7816 5.88046 12.6207 5.62299 12.4966C5.1908 12.2851 5.13103 12.2667 4.93793 12.2989C4.74943 12.3264 4.67586 12.377 4.30345 12.7356L3.88046 13.1448L3.36552 12.6299L2.85517 12.1149L3.26437 11.6966C3.62759 11.3241 3.67356 11.2552 3.70115 11.0621C3.73333 10.8644 3.71494 10.8046 3.50345 10.3724C3.37471 10.1103 3.21379 9.71954 3.14483 9.50805C2.91954 8.81379 2.8046 8.73563 2.0046 8.73563H1.47126V8V7.26437H2.0046C2.8046 7.26437 2.91954 7.18621 3.14943 6.48276C3.21839 6.26667 3.37931 5.88046 3.50805 5.62299C3.71494 5.1954 3.73333 5.13563 3.70115 4.93793C3.67356 4.74483 3.62759 4.67586 3.26437 4.30345L2.85517 3.88506L3.36552 3.37012L3.88046 2.85517L4.30345 3.26437C4.67586 3.62299 4.74943 3.67356 4.93793 3.70115C5.13563 3.73333 5.1954 3.71494 5.62299 3.50805C5.88046 3.37931 6.26667 3.21839 6.48276 3.14943C7.18621 2.91954 7.26437 2.8046 7.26437 2.0046V1.47126H8H8.73563V2.0046Z" fill="#273240"/>
<path d="M9.26442 6.27202C9.19086 6.30881 8.73568 6.7318 8.25293 7.21455L7.38396 8.08812L7.08051 7.79846C6.86902 7.59157 6.71729 7.48582 6.58396 7.45363C6.05522 7.30651 5.56787 7.80306 5.7058 8.34559C5.74258 8.49271 5.88051 8.65363 6.38166 9.15938C7.06212 9.83524 7.15408 9.88582 7.52649 9.81685C7.67821 9.78927 7.87591 9.61455 8.95178 8.54329C10.0368 7.45823 10.2069 7.27432 10.2483 7.10421C10.3311 6.76858 10.1932 6.45593 9.88511 6.29961C9.67821 6.19386 9.46212 6.18467 9.26442 6.27202Z" fill="#273240"/>
</g>
<defs>
<clipPath id="clip0_4057_3104">
<rect width="16" height="16" fill="white"/>
</clipPath>
</defs>
</svg>
