<svg width="40" height="40" viewBox="0 0 40 40" fill="none" xmlns="http://www.w3.org/2000/svg">
<path d="M17.7201 4.37167C10.2302 5.48886 4.53401 11.6413 4.03835 19.1549C3.84953 22.0502 4.35305 24.5993 5.65907 27.3057L6.17047 28.3757L5.15555 32.16C4.58121 34.3 4.1721 35.9522 4.2193 35.9522C4.26651 35.9522 5.97378 35.5116 8.01149 34.9609L11.7171 33.9696L12.9287 34.5675C14.3056 35.2441 15.4542 35.6375 16.8153 35.9129C20.2771 36.6131 23.786 36.1647 26.9646 34.6147C28.6797 33.7808 29.7576 33.0333 31.0793 31.7431C34.5489 28.3993 36.2719 23.9305 35.9651 19.1549C35.4694 11.5941 29.7654 5.47313 22.1968 4.37167C21.1504 4.21431 18.7586 4.21431 17.7201 4.37167ZM21.709 8.46282C26.6105 9.18664 30.5128 12.8136 31.6064 17.66C31.8975 18.9189 31.9605 20.6419 31.7717 21.9243C31.394 24.5049 30.2611 26.7235 28.3886 28.596C26.6498 30.3269 24.8088 31.3418 22.4328 31.8768C21.7247 32.0342 21.4022 32.0578 20.0017 32.0578C18.6013 32.0578 18.2787 32.0342 17.5706 31.8768C16.477 31.6329 15.5723 31.3025 14.5652 30.7911C14.1089 30.5551 13.684 30.3662 13.6211 30.3662C13.5582 30.3662 12.3465 30.6888 10.9146 31.0743C9.4906 31.4598 8.31046 31.7588 8.29472 31.7431C8.27899 31.7273 8.59369 30.4921 8.99494 28.9973L9.71876 26.2751L9.27817 25.3546C8.4206 23.545 8.07443 21.885 8.13737 19.8236C8.18458 18.3996 8.42847 17.1801 8.90053 15.9606C10.9225 10.7759 16.2646 7.65246 21.709 8.46282Z" fill="white"/>
<path d="M19.5702 12.1679C18.87 12.3252 18.3901 12.6793 18.0911 13.2457C17.8551 13.6942 17.8551 14.5439 18.0911 14.9845C18.8306 16.3692 20.7582 16.4006 21.5528 15.0474C21.7338 14.7406 21.7653 14.5832 21.7653 14.1269C21.7731 13.4896 21.6079 13.112 21.1673 12.6871C20.7739 12.3016 20.0186 12.0577 19.5702 12.1679Z" fill="white"/>
<path d="M16.516 17.1246C16.4845 17.1482 16.4609 17.3606 16.4609 17.5809V17.9901L17.0274 18.0451C17.6804 18.1081 18.0738 18.2733 18.302 18.588C18.4593 18.8004 18.4672 18.9184 18.4908 22.0576C18.5144 25.5666 18.4908 25.7711 18.1053 26.0543C17.9637 26.1645 17.7198 26.2196 17.1848 26.251L16.4609 26.2982V26.7546V27.2188H20.1587H23.8565V26.7546V26.2982L23.1956 26.251C22.6606 26.2117 22.1807 26.0858 22.0312 25.9363C22.0155 25.9285 21.9919 23.938 21.9683 21.5147L21.9289 17.1089L19.2461 17.0853C17.7748 17.0774 16.5475 17.0931 16.516 17.1246Z" fill="white"/>
</svg>
