<svg width="16" height="18" viewBox="0 0 16 18" fill="none" xmlns="http://www.w3.org/2000/svg">
<path d="M14.1624 2.41352C14.1301 1.93938 13.9189 1.4952 13.5716 1.17079C13.2244 0.846392 12.7668 0.665972 12.2916 0.666016H2.70825L2.57992 0.670182C2.10578 0.70271 1.66169 0.914072 1.33744 1.26153C1.01319 1.60898 0.832983 2.0666 0.833252 2.54185V15.4568L0.837419 15.5852C0.869735 16.0593 1.08089 16.5035 1.42819 16.8279C1.77549 17.1523 2.23301 17.3327 2.70825 17.3327H9.01492L7.76492 16.0827H2.70825L2.62325 16.0768C2.47362 16.0563 2.3365 15.9823 2.23723 15.8685C2.13795 15.7546 2.08326 15.6087 2.08325 15.4577V2.54185L2.08909 2.45685C2.10963 2.30722 2.18365 2.17009 2.29748 2.07082C2.4113 1.97155 2.55722 1.91686 2.70825 1.91685H12.2916L12.3766 1.92268C12.5262 1.94322 12.6633 2.01725 12.7626 2.13107C12.8619 2.2449 12.9166 2.39082 12.9166 2.54185V12.181L13.8824 11.2152C13.9708 11.1268 14.0658 11.0485 14.1658 10.9818V2.54102L14.1624 2.41352ZM11.0733 17.3318C11.0522 17.333 11.031 17.333 11.0099 17.3318C10.8551 17.3241 10.7087 17.259 10.5991 17.1493L8.51575 15.0643C8.39862 14.947 8.3329 14.7879 8.33305 14.6221C8.33321 14.4563 8.39923 14.2973 8.51659 14.1802C8.63394 14.063 8.79303 13.9973 8.95884 13.9975C9.12465 13.9976 9.28362 14.0637 9.40075 14.181L11.0416 15.8235L14.7666 12.0985C14.8243 12.0388 14.8933 11.9913 14.9695 11.9585C15.0458 11.9258 15.1278 11.9086 15.2108 11.9079C15.2938 11.9073 15.3761 11.9231 15.4529 11.9546C15.5297 11.986 15.5994 12.0325 15.6581 12.0912C15.7167 12.1499 15.7631 12.2197 15.7945 12.2965C15.8259 12.3734 15.8417 12.4557 15.8409 12.5386C15.8401 12.6216 15.8229 12.7036 15.7901 12.7799C15.7573 12.8561 15.7096 12.9251 15.6499 12.9827L11.4833 17.1493C11.3739 17.2588 11.2278 17.3239 11.0733 17.3318ZM9.03325 12.7493C8.98272 12.7474 8.93212 12.7474 8.88159 12.7493H6.87075C6.70499 12.7493 6.54602 12.6835 6.42881 12.5663C6.3116 12.4491 6.24575 12.2901 6.24575 12.1243C6.24575 11.9586 6.3116 11.7996 6.42881 11.6824C6.54602 11.5652 6.70499 11.4993 6.87075 11.4993H11.0408C11.2065 11.4993 11.3655 11.5652 11.4827 11.6824C11.5999 11.7996 11.6658 11.9586 11.6658 12.1243C11.6658 12.2901 11.5999 12.4491 11.4827 12.5663C11.3655 12.6835 11.2065 12.7493 11.0408 12.7493H9.03325ZM4.99992 5.45935C4.99992 5.68036 4.91212 5.89232 4.75584 6.0486C4.59956 6.20488 4.3876 6.29268 4.16659 6.29268C3.94557 6.29268 3.73361 6.20488 3.57733 6.0486C3.42105 5.89232 3.33325 5.68036 3.33325 5.45935C3.33325 5.23834 3.42105 5.02637 3.57733 4.87009C3.73361 4.71381 3.94557 4.62602 4.16659 4.62602C4.3876 4.62602 4.59956 4.71381 4.75584 4.87009C4.91212 5.02637 4.99992 5.23834 4.99992 5.45935ZM6.24659 5.45768C6.24659 5.29192 6.31243 5.13295 6.42964 5.01574C6.54685 4.89853 6.70583 4.83268 6.87159 4.83268H11.0416C11.2073 4.83268 11.3663 4.89853 11.4835 5.01574C11.6007 5.13295 11.6666 5.29192 11.6666 5.45768C11.6666 5.62344 11.6007 5.78241 11.4835 5.89962C11.3663 6.01683 11.2073 6.08268 11.0416 6.08268H6.87159C6.70583 6.08268 6.54685 6.01683 6.42964 5.89962C6.31243 5.78241 6.24659 5.62344 6.24659 5.45768ZM6.87159 8.16602C6.70583 8.16602 6.54685 8.23186 6.42964 8.34907C6.31243 8.46628 6.24659 8.62526 6.24659 8.79102C6.24659 8.95678 6.31243 9.11575 6.42964 9.23296C6.54685 9.35017 6.70583 9.41602 6.87159 9.41602H11.0416C11.1237 9.41602 11.2049 9.39985 11.2808 9.36844C11.3566 9.33703 11.4255 9.29099 11.4835 9.23296C11.5416 9.17492 11.5876 9.10602 11.619 9.03019C11.6504 8.95436 11.6666 8.87309 11.6666 8.79102C11.6666 8.70894 11.6504 8.62767 11.619 8.55184C11.5876 8.47601 11.5416 8.40711 11.4835 8.34907C11.4255 8.29104 11.3566 8.245 11.2808 8.21359C11.2049 8.18218 11.1237 8.16602 11.0416 8.16602H6.87159ZM4.16659 9.62435C4.3876 9.62435 4.59956 9.53655 4.75584 9.38027C4.91212 9.22399 4.99992 9.01203 4.99992 8.79102C4.99992 8.57 4.91212 8.35804 4.75584 8.20176C4.59956 8.04548 4.3876 7.95768 4.16659 7.95768C3.94557 7.95768 3.73361 8.04548 3.57733 8.20176C3.42105 8.35804 3.33325 8.57 3.33325 8.79102C3.33325 9.01203 3.42105 9.22399 3.57733 9.38027C3.73361 9.53655 3.94557 9.62435 4.16659 9.62435ZM4.99992 12.1227C4.99992 12.3437 4.91212 12.5557 4.75584 12.7119C4.59956 12.8682 4.3876 12.956 4.16659 12.956C3.94557 12.956 3.73361 12.8682 3.57733 12.7119C3.42105 12.5557 3.33325 12.3437 3.33325 12.1227C3.33325 11.9017 3.42105 11.6897 3.57733 11.5334C3.73361 11.3771 3.94557 11.2893 4.16659 11.2893C4.3876 11.2893 4.59956 11.3771 4.75584 11.5334C4.91212 11.6897 4.99992 11.9017 4.99992 12.1227Z" fill="#273240"/>
</svg>
