<svg width="24" height="24" viewBox="0 0 24 24" fill="none" xmlns="http://www.w3.org/2000/svg">
<rect width="24" height="24" rx="2" fill="#0066B2" fill-opacity="0.08"/>
<path d="M10.3062 4.1238C9.96127 4.30887 9.79302 4.64537 9.74255 5.23424C9.70048 5.73898 9.68366 5.78105 9.4397 5.882C9.18733 5.99136 9.16209 5.98294 8.834 5.67169C8.44703 5.29313 8.05165 5.15012 7.62262 5.22583C7.21882 5.30154 5.31761 7.17751 5.22508 7.58972C5.13254 8.01875 5.25873 8.37207 5.6457 8.78428C5.99061 9.15443 5.99902 9.17966 5.88966 9.43204C5.78871 9.676 5.74665 9.69282 5.2419 9.73488C4.64462 9.78536 4.30812 9.95361 4.12305 10.3153C3.96322 10.635 3.9548 13.3606 4.12305 13.6551C4.31654 14.0084 4.67827 14.1766 5.23349 14.1766C5.69617 14.1766 5.75506 14.1935 5.83918 14.3869C5.9822 14.6982 5.96537 14.7992 5.72141 15.0263C5.36809 15.346 5.15778 15.8928 5.22508 16.305C5.27555 16.5994 5.42698 16.7929 6.18409 17.5668C7.50484 18.9297 8.00118 19.0811 8.80035 18.3408C9.1705 17.9959 9.18733 17.9875 9.45652 18.0968C9.7089 18.2062 9.72572 18.2398 9.72572 18.6352C9.72572 19.1989 9.90238 19.6026 10.2473 19.813C10.5081 19.9728 10.6343 19.9812 12.056 19.9644L13.5954 19.9391L13.8646 19.6699C14.1002 19.4344 14.1338 19.3334 14.1759 18.8035C14.2264 18.223 14.2348 18.1978 14.4871 18.0884C14.7395 17.9875 14.7732 17.9875 14.9919 18.2314C15.3452 18.5932 15.6312 18.7193 16.1276 18.7193H16.565L17.524 17.7687C18.5756 16.7424 18.727 16.5237 18.727 16.0694C18.727 15.6993 18.6261 15.489 18.2559 15.0936C17.9951 14.8244 17.9783 14.7739 18.054 14.5384C18.1466 14.2944 18.1718 14.2776 18.6849 14.2439C19.3075 14.2019 19.6103 14.0336 19.8374 13.5794C20.0393 13.1924 20.0562 10.6855 19.8711 10.3153C19.686 9.95361 19.3495 9.78536 18.7522 9.73488C18.2475 9.69282 18.2054 9.676 18.1045 9.43204C17.9951 9.17966 18.0035 9.15443 18.3484 8.78428C19.0972 7.97669 18.9794 7.55607 17.6502 6.24373C16.3463 4.97345 16.0098 4.88933 15.2106 5.62962C14.8321 5.98294 14.8068 5.99136 14.5544 5.882C14.3105 5.78105 14.2937 5.73898 14.2516 5.23424C14.2011 4.63696 14.0329 4.30046 13.6711 4.11539C13.3346 3.94714 10.6258 3.94714 10.3062 4.1238ZM12.9224 5.86517C12.9309 6.25214 12.9729 6.53816 13.0402 6.6307C13.1075 6.71482 13.4188 6.87466 13.73 6.99243C14.0497 7.1018 14.3862 7.25322 14.4956 7.32052C14.8741 7.57289 15.2022 7.48035 15.6565 7.02608L16.0687 6.60546L16.7249 7.25322L17.3726 7.90098L16.952 8.34683C16.5818 8.74222 16.5314 8.83475 16.565 9.0703C16.6239 9.45727 17.2044 10.8369 17.3642 10.9547C17.4399 11.022 17.7512 11.064 18.1129 11.064H18.727V12.9148H18.1213C17.7343 12.9232 17.4483 12.9653 17.3558 13.0325C17.2717 13.0998 17.1118 13.4111 16.994 13.7224C16.8847 14.042 16.7333 14.3785 16.666 14.4879C16.4136 14.8665 16.5061 15.1945 16.9604 15.6488L17.381 16.061L16.7333 16.7172L16.0855 17.3649L15.6481 16.9527C15.1349 16.4648 14.9582 16.4396 14.3694 16.734C14.1507 16.8434 13.7721 16.9948 13.5281 17.0705C13.2842 17.1546 13.0486 17.2892 13.0066 17.3734C12.9561 17.4575 12.9224 17.794 12.9224 18.1221V18.7193H11.0717V18.1389C11.0717 17.4407 10.9203 17.2051 10.3819 17.0453C10.18 16.9864 9.84349 16.8434 9.62477 16.734C9.0359 16.4312 8.85924 16.4648 8.32926 16.9696L7.86658 17.407L7.22723 16.7592L6.57948 16.1199L7.01692 15.6572C7.52167 15.1272 7.55532 14.9506 7.25247 14.3617C7.14311 14.143 7.0001 13.8065 6.94121 13.6046C6.78138 13.0662 6.54583 12.9148 5.8476 12.9148H5.26714V11.064H5.81395C6.47853 11.064 6.73931 10.9547 6.8655 10.6098C6.91597 10.4668 7.07581 10.0798 7.21041 9.76012C7.34501 9.43204 7.45437 9.08713 7.45437 8.97776C7.45437 8.85999 7.28612 8.59921 7.01692 8.3216L6.57948 7.85891L7.22723 7.21957L7.86658 6.57181L8.32926 7.00926C8.85924 7.514 9.0359 7.54765 9.62477 7.24481C9.84349 7.13545 10.18 6.99243 10.3819 6.93355C10.9203 6.77371 11.0717 6.53816 11.0717 5.83993V5.25948H12.9224V5.86517Z" fill="#0066B2"/>
<path d="M11.6667 8.03717C11.3135 8.12545 11.056 8.32408 10.9457 8.58156C10.8648 8.78019 10.8868 9.15538 11.1002 11.1343C11.2326 12.407 11.343 13.5473 11.3503 13.6576C11.3577 14.1285 12.0418 14.3933 12.4538 14.0843C12.6304 13.9445 12.6377 13.8636 12.9026 11.3771C13.16 8.94204 13.1674 8.80226 13.0497 8.55949C12.8511 8.14016 12.2258 7.90475 11.6667 8.03717Z" fill="#0066B2"/>
<path d="M11.5635 14.8351C11.431 14.9234 11.2692 15.0852 11.2177 15.1808C11.0706 15.4677 11.1589 15.9018 11.4163 16.1666C11.615 16.3579 11.7032 16.3947 12.0122 16.3947C12.3212 16.3947 12.4095 16.3579 12.6081 16.1666C12.8656 15.9018 12.9539 15.4677 12.8067 15.1808C12.6743 14.9381 12.255 14.6659 12.0122 14.6659C11.9019 14.6659 11.7032 14.7394 11.5635 14.8351Z" fill="#0066B2"/>
</svg>
