<svg width="52" height="47" viewBox="0 0 52 47" fill="none" xmlns="http://www.w3.org/2000/svg">
<path d="M5.2 40.3H9.40847L13.1542 46.8L24.4356 40.3H46.8C49.6644 40.3 52 37.9644 52 35.1V5.2C52 2.33559 49.6644 0 46.8 0H5.2C2.33559 0 0 2.33559 0 5.2V35.1C0 37.9644 2.33559 40.3 5.2 40.3ZM3.9 3.9H48.1V36.4H23.4881L14.4542 41.6L11.4576 36.4H3.9V3.9ZM42.9 27.939C42.9 26.8593 42.0186 25.978 40.939 25.978H11.039C9.95932 25.978 9.07796 26.8593 9.07796 27.939C9.07796 29.0186 9.95932 29.9 11.039 29.9H40.939C42.0186 29.9 42.9 29.0186 42.9 27.939ZM11.039 22.1H40.939C42.0186 22.1 42.9 21.2186 42.9 20.139C42.9 19.0593 42.0186 18.178 40.939 18.178H11.039C9.95932 18.178 9.07796 19.0593 9.07796 20.139C9.1 21.2186 9.98136 22.1 11.039 22.1ZM21.439 14.3H40.939C42.0186 14.3 42.9 13.4186 42.9 12.361C42.9 11.2814 42.0186 10.4 40.939 10.4H21.439C20.3593 10.4 19.478 11.2814 19.478 12.361C19.5 13.4186 20.3814 14.3 21.439 14.3Z" fill="url(#paint0_linear_1912_3392)"/>
<defs>
<linearGradient id="paint0_linear_1912_3392" x1="52" y1="2.08929" x2="-4.58655" y2="8.89622" gradientUnits="userSpaceOnUse">
<stop stop-color="#0066B2"/>
<stop offset="1" stop-color="#00AEEF"/>
</linearGradient>
</defs>
</svg>
