<svg width="16" height="16" viewBox="0 0 16 16" fill="none" xmlns="http://www.w3.org/2000/svg">
<path fill-rule="evenodd" clip-rule="evenodd" d="M14.0961 3.6481L14.4252 4.8761C14.469 5.03998 14.4664 5.21283 14.4176 5.37531C14.3688 5.53778 14.2758 5.68348 14.1489 5.7961L14.1046 5.83324C13.8866 6.00336 13.7225 6.23311 13.6325 6.49462C13.5424 6.75613 13.5302 7.03816 13.5973 7.30648C13.6644 7.5748 13.8079 7.81788 14.0105 8.00622C14.213 8.19457 14.4659 8.32008 14.7384 8.36753L14.8001 8.37696C14.9727 8.39943 15.1348 8.47266 15.2658 8.58736C15.3968 8.70206 15.4907 8.85307 15.5358 9.02124L15.8709 10.2715C15.9098 10.4165 15.9198 10.5677 15.9002 10.7166C15.8806 10.8654 15.832 11.0089 15.7569 11.1389C15.6819 11.2689 15.582 11.3829 15.4629 11.4742C15.3438 11.5656 15.2079 11.6327 15.0629 11.6715L3.4715 14.7772C3.17874 14.8556 2.86684 14.8145 2.60441 14.6629C2.34197 14.5113 2.15049 14.2617 2.07207 13.969L1.75693 12.7927C1.70997 12.6176 1.71168 12.4331 1.76187 12.2589C1.81207 12.0847 1.90885 11.9276 2.04179 11.8044L2.08836 11.7644C2.30188 11.5902 2.46047 11.358 2.54503 11.0957C2.62959 10.8334 2.6365 10.5523 2.56494 10.2862C2.49338 10.0201 2.34639 9.78032 2.14169 9.59583C1.93699 9.41135 1.68331 9.28999 1.41121 9.24639C1.22303 9.21603 1.04763 9.13191 0.906152 9.00417C0.764671 8.87643 0.663139 8.7105 0.613786 8.52639L0.297214 7.34553C0.258377 7.20053 0.248485 7.0493 0.268103 6.90048C0.287721 6.75166 0.336465 6.60816 0.411551 6.47818C0.486637 6.3482 0.586594 6.23428 0.705712 6.14294C0.82483 6.05159 0.960776 5.98461 1.10579 5.94581L12.6964 2.8401C12.8413 2.80121 12.9926 2.79126 13.1414 2.81082C13.2902 2.83038 13.4337 2.87907 13.5637 2.9541C13.6937 3.02913 13.8077 3.12904 13.8991 3.24812C13.9905 3.3672 14.0575 3.50311 14.0964 3.6481M12.9064 3.82153L1.41464 6.90067C1.25607 6.94324 1.16179 7.10639 1.20436 7.26496L1.43036 8.10867C1.91911 8.20708 2.37066 8.44003 2.73412 8.78128C3.09758 9.12254 3.35851 9.55852 3.4875 10.0401C3.61664 10.5217 3.60869 11.0297 3.46457 11.507C3.32044 11.9843 3.04587 12.4119 2.67179 12.7415L2.89779 13.5852C2.94064 13.7438 3.1035 13.8381 3.26207 13.7955L14.7535 10.7164C14.9121 10.6738 15.0064 10.5107 14.9638 10.3521L14.7381 9.50867C14.2493 9.41021 13.7977 9.17721 13.4343 8.83591C13.0708 8.49461 12.8099 8.05858 12.6809 7.57696C12.5518 7.09541 12.5597 6.58736 12.7037 6.11006C12.8478 5.63276 13.1223 5.20518 13.4964 4.87553L13.2704 4.03182C13.2499 3.95562 13.2001 3.89066 13.1318 3.85123C13.0634 3.81179 12.9825 3.80111 12.9064 3.82153ZM12.5395 9.98124C12.5686 10.09 12.576 10.2034 12.5613 10.315C12.5466 10.4266 12.5101 10.5342 12.4538 10.6317C12.3975 10.7291 12.3225 10.8146 12.2332 10.8831C12.1439 10.9516 12.0419 11.0018 11.9332 11.031C11.8245 11.0601 11.7111 11.0675 11.5995 11.0528C11.4879 11.0381 11.3803 11.0015 11.2828 10.9452C11.1853 10.8889 11.0999 10.814 11.0314 10.7247C10.9629 10.6353 10.9126 10.5334 10.8835 10.4247C10.8247 10.2051 10.8555 9.97111 10.9692 9.77425C11.0829 9.57739 11.2702 9.43376 11.4898 9.37496C11.7094 9.31616 11.9433 9.347 12.1402 9.4607C12.3371 9.5744 12.4807 9.76164 12.5395 9.98124ZM11.9481 7.77324C12.0069 7.99284 11.9761 8.22682 11.8624 8.42371C11.7488 8.62059 11.5615 8.76426 11.3419 8.8231C11.1223 8.88194 10.8883 8.85114 10.6915 8.73746C10.4946 8.62379 10.3509 8.43656 10.2921 8.21696C10.2366 7.99851 10.2694 7.767 10.3833 7.57254C10.4973 7.37809 10.6833 7.23635 10.901 7.17801C11.1187 7.11967 11.3506 7.14942 11.5465 7.26082C11.7424 7.37223 11.8869 7.55632 11.9481 7.77324ZM11.3561 5.56553C11.3852 5.67426 11.3926 5.78767 11.3779 5.89928C11.3632 6.01089 11.3267 6.11851 11.2704 6.21599C11.2141 6.31348 11.1392 6.39893 11.0499 6.46746C10.9606 6.53599 10.8587 6.58625 10.7499 6.61539C10.6412 6.64452 10.5278 6.65195 10.4162 6.63726C10.3046 6.62257 10.197 6.58603 10.0995 6.52975C10.002 6.47346 9.91653 6.39853 9.848 6.30922C9.77947 6.21991 9.72921 6.11798 9.70007 6.00924C9.64123 5.78964 9.67204 5.55567 9.78571 5.35878C9.89938 5.16189 10.0866 5.01823 10.3062 4.95939C10.5258 4.90055 10.7598 4.93135 10.9567 5.04503C11.1536 5.1587 11.2972 5.34593 11.3561 5.56553ZM8.39521 1.81353L9.12436 2.85467C9.13493 2.8701 9.14521 2.88581 9.15493 2.90153L2.17921 4.77067L6.8035 1.53267C7.05179 1.35892 7.35893 1.2909 7.65737 1.34357C7.95581 1.39624 8.22139 1.56528 8.39521 1.81353Z" fill="#273240"/>
</svg>
