<svg width="16" height="16" viewBox="0 0 16 16" fill="none" xmlns="http://www.w3.org/2000/svg">
<g clip-path="url(#clip0_4296_3042)">
<path d="M0.906137 0.0598507C0.487387 0.194226 0.156137 0.541101 0.0467623 0.966101C-0.0376127 1.28485 0.00613732 1.65673 0.159262 1.92548C0.253012 2.08798 0.487387 2.33173 0.640512 2.41923C0.862387 2.55048 1.07489 2.58798 1.81239 2.62548C4.10301 2.73485 6.06551 3.36923 7.95301 4.60985C10.4811 6.27235 12.3186 8.86923 13.0436 11.7974C13.2624 12.6849 13.4061 13.7942 13.4061 14.6099C13.4061 14.7505 13.428 14.9411 13.453 15.0349C13.6624 15.8474 14.5718 16.238 15.3374 15.8474C15.5405 15.7442 15.7718 15.4942 15.8843 15.2599C15.9811 15.0536 15.9843 15.0349 15.9936 14.5474C16.0093 13.7974 15.9311 12.913 15.7624 12.0005C15.178 8.82235 13.4968 5.85673 11.0468 3.6911C9.03114 1.90985 6.58114 0.716101 3.95301 0.234851C2.75614 0.0161009 1.29989 -0.0682735 0.906137 0.0598507Z" fill="#273240"/>
<path d="M1.0344 4.78438C0.653146 4.85938 0.293771 5.1375 0.115646 5.49688C0.031271 5.66563 0.015646 5.74063 0.006271 5.98438C-0.003104 6.20313 0.006271 6.31563 0.046896 6.44063C0.162521 6.79375 0.409396 7.07813 0.737521 7.2375C0.909396 7.32188 1.0094 7.33438 1.94377 7.40625C3.65315 7.53438 5.34377 8.34375 6.56252 9.6125C7.75315 10.85 8.47815 12.4625 8.59377 14.1188C8.65315 14.9688 8.6719 15.0781 8.77502 15.2906C8.90002 15.5406 9.1219 15.7531 9.40002 15.8844C9.59377 15.9781 9.6344 15.9844 9.93752 15.9844C10.2406 15.9844 10.2813 15.9781 10.4781 15.8844C10.8781 15.6938 11.15 15.3313 11.2188 14.8969C11.2563 14.65 11.2156 13.8063 11.1375 13.2844C10.6594 10.0281 8.63752 7.24063 5.70315 5.79688C4.8969 5.4 4.25315 5.16875 3.43752 4.99063C2.57502 4.8 1.45002 4.70313 1.0344 4.78438Z" fill="#273240"/>
<path d="M2.30327 10.8129C1.16264 10.9504 0.259518 11.816 0.0595181 12.9535C-0.0029819 13.3129 0.0376431 13.8379 0.153268 14.1879C0.453268 15.0879 1.18452 15.7442 2.09077 15.9254C2.45327 15.9973 3.05014 15.9723 3.35952 15.8754C3.83764 15.7223 4.17514 15.5129 4.50952 15.1567C5.13764 14.4942 5.36264 13.5504 5.10639 12.6692C4.80014 11.6067 3.88452 10.8723 2.78139 10.8035C2.63452 10.7942 2.41889 10.8004 2.30327 10.8129Z" fill="#273240"/>
</g>
<defs>
<clipPath id="clip0_4296_3042">
<rect width="16" height="16" fill="white"/>
</clipPath>
</defs>
</svg>
