<svg width="14" height="14" viewBox="0 0 14 14" fill="none" xmlns="http://www.w3.org/2000/svg">
<g opacity="0.7">
<path d="M2.14021 6.25974C1.96524 6.08471 1.86694 5.84736 1.86694 5.59987C1.86694 5.35238 1.96524 5.11503 2.14021 4.94L6.34021 0.740004C6.51524 0.56503 6.75259 0.466736 7.00008 0.466736C7.24756 0.466736 7.48492 0.56503 7.65994 0.740004L11.8599 4.94C12.03 5.11603 12.124 5.35179 12.1219 5.59651C12.1198 5.84123 12.0216 6.07532 11.8486 6.24837C11.6755 6.42141 11.4414 6.51957 11.1967 6.5217C10.952 6.52383 10.7162 6.42975 10.5402 6.25974L7.93341 3.7332L7.93341 12.5999C7.93341 12.8474 7.83508 13.0848 7.66004 13.2598C7.48501 13.4349 7.24761 13.5332 7.00008 13.5332C6.75254 13.5332 6.51515 13.4349 6.34011 13.2598C6.16508 13.0848 6.06674 12.8474 6.06674 12.5999L6.06674 3.7332L3.45994 6.25974C3.28492 6.43471 3.04756 6.533 2.80008 6.533C2.55259 6.533 2.31524 6.43471 2.14021 6.25974Z" fill="#273240"/>
</g>
</svg>
