<svg width="16" height="16" viewBox="0 0 16 16" fill="none" xmlns="http://www.w3.org/2000/svg">
<path d="M9.33333 13.6V9.73333C9.33333 9.62725 9.37548 9.52551 9.45049 9.45049C9.52551 9.37548 9.62725 9.33333 9.73333 9.33333H13.6C13.7061 9.33333 13.8078 9.37548 13.8828 9.45049C13.9579 9.52551 14 9.62725 14 9.73333V13.6C14 13.7061 13.9579 13.8078 13.8828 13.8828C13.8078 13.9579 13.7061 14 13.6 14H9.73333C9.62725 14 9.52551 13.9579 9.45049 13.8828C9.37548 13.8078 9.33333 13.7061 9.33333 13.6ZM2 13.6V9.73333C2 9.62725 2.04214 9.52551 2.11716 9.45049C2.19217 9.37548 2.29391 9.33333 2.4 9.33333H6.26667C6.37275 9.33333 6.4745 9.37548 6.54951 9.45049C6.62452 9.52551 6.66667 9.62725 6.66667 9.73333V13.6C6.66667 13.7061 6.62452 13.8078 6.54951 13.8828C6.4745 13.9579 6.37275 14 6.26667 14H2.4C2.29391 14 2.19217 13.9579 2.11716 13.8828C2.04214 13.8078 2 13.7061 2 13.6ZM9.33333 6.26667V2.4C9.33333 2.29391 9.37548 2.19217 9.45049 2.11716C9.52551 2.04214 9.62725 2 9.73333 2H13.6C13.7061 2 13.8078 2.04214 13.8828 2.11716C13.9579 2.19217 14 2.29391 14 2.4V6.26667C14 6.37275 13.9579 6.4745 13.8828 6.54951C13.8078 6.62452 13.7061 6.66667 13.6 6.66667H9.73333C9.62725 6.66667 9.52551 6.62452 9.45049 6.54951C9.37548 6.4745 9.33333 6.37275 9.33333 6.26667ZM2 6.26667V2.4C2 2.29391 2.04214 2.19217 2.11716 2.11716C2.19217 2.04214 2.29391 2 2.4 2H6.26667C6.37275 2 6.4745 2.04214 6.54951 2.11716C6.62452 2.19217 6.66667 2.29391 6.66667 2.4V6.26667C6.66667 6.37275 6.62452 6.4745 6.54951 6.54951C6.4745 6.62452 6.37275 6.66667 6.26667 6.66667H2.4C2.29391 6.66667 2.19217 6.62452 2.11716 6.54951C2.04214 6.4745 2 6.37275 2 6.26667Z" stroke="#273240" stroke-width="1.5"/>
</svg>
