<svg width="16" height="13" viewBox="0 0 16 13" fill="none" xmlns="http://www.w3.org/2000/svg">
<path d="M6.6965 0.62171C6.02687 0.882451 4.57502 1.44541 3.46687 1.87208C2.35872 2.29875 1.30391 2.70764 1.12613 2.77875L0.800204 2.90319L0.782426 3.30023L0.764648 3.69727H8.0002H15.2358L15.218 3.30023L15.2002 2.90319L14.7261 2.71949C11.8698 1.59356 8.05354 0.14171 7.9765 0.147636C7.94094 0.147636 7.36613 0.360969 6.6965 0.62171ZM8.2965 1.5343C8.82391 1.8069 8.6165 2.6306 8.01798 2.6306C7.53798 2.62467 7.26539 2.1506 7.50835 1.74171C7.67428 1.45134 7.98243 1.3743 8.2965 1.5343Z" fill="white"/>
<path d="M0.355469 4.55551V5.17773H7.99991H15.6444V4.55551V3.93329H7.99991H0.355469V4.55551Z" fill="white"/>
<path d="M1.18561 5.6524V5.88944H1.42265H1.65969V8.73388V11.5783H1.41672H1.17969L1.19747 11.8272L1.21524 12.082H2.51895C3.23598 12.082 3.85821 12.0761 3.89969 12.0643C3.94117 12.0465 3.9708 11.9398 3.9708 11.8094V11.5783H3.70413H3.43747L3.44932 8.74573L3.46709 5.91907L3.72191 5.90129C3.9708 5.88351 3.9708 5.88351 3.9708 5.64648V5.41536H2.57821H1.18561V5.6524Z" fill="white"/>
<path d="M4.79987 5.64648C4.79987 5.88351 4.79987 5.88351 5.05469 5.90129L5.30357 5.91907L5.32135 8.74573L5.3332 11.5783H5.06654H4.79395L4.81172 11.8272L4.8295 12.082L6.19246 12.0702L7.55543 12.0583L7.5732 11.8154L7.59098 11.5783H7.35395H7.11098V8.73388V5.88944H7.34802H7.58506V5.6524V5.41536H6.19246H4.79987V5.64648Z" fill="white"/>
<path d="M8.47394 5.6524V5.88944H8.71098H8.94802V8.72796V11.5724L8.69913 11.5902C8.44431 11.608 8.38505 11.6968 8.45024 11.9635C8.47987 12.0761 8.52727 12.082 9.82505 12.082H11.1643L11.1999 11.9339C11.2651 11.6672 11.2058 11.5783 10.9569 11.5783H10.7258V8.73388V5.88944H10.9628H11.1999V5.6524V5.41536H9.8369H8.47394V5.6524Z" fill="white"/>
<path d="M12.0889 5.652V5.88904H12.326H12.563V8.73348V11.5779H12.32H12.083L12.1008 11.8268L12.1186 12.0757L13.4045 12.0935C14.1156 12.0994 14.7319 12.0935 14.7852 12.0757C14.8445 12.052 14.8741 11.9631 14.8741 11.815C14.8741 11.5898 14.8741 11.5839 14.6252 11.5661L14.3704 11.5483V8.73348V5.91867L14.6252 5.90089C14.8741 5.88311 14.8741 5.88311 14.8741 5.64607V5.41496H13.4815H12.0889V5.652Z" fill="white"/>
<path d="M0 12.6741V13H8H16V12.6741V12.3481H8H0V12.6741Z" fill="white"/>
</svg>
