<svg width="21" height="17" viewBox="0 0 21 17" fill="none" xmlns="http://www.w3.org/2000/svg">
<path fill-rule="evenodd" clip-rule="evenodd" d="M10.012 0.5C10.8671 0.5 11.7442 0.522003 12.5943 0.558007L13.5984 0.606013L14.5596 0.66302L15.4597 0.724028L16.2818 0.788036C17.1739 0.856322 18.0134 1.23704 18.6526 1.86321C19.2917 2.48938 19.6896 3.32089 19.7762 4.21146L19.8162 4.63651L19.8912 5.54663C19.9612 6.48975 20.0132 7.51787 20.0132 8.501C20.0132 9.48412 19.9612 10.5122 19.8912 11.4554L19.8162 12.3655C19.8032 12.5115 19.7902 12.6525 19.7762 12.7905C19.6896 13.6813 19.2916 14.5129 18.6522 15.1391C18.0128 15.7653 17.1731 16.1459 16.2808 16.214L15.4607 16.277L14.5606 16.339L13.5984 16.396L12.5943 16.444C11.734 16.4814 10.8731 16.5007 10.012 16.502C9.1509 16.5007 8.28994 16.4814 7.42967 16.444L6.42554 16.396L5.46442 16.339L4.56431 16.277L3.74221 16.214C2.85005 16.1457 2.01054 15.765 1.37138 15.1388C0.732226 14.5126 0.334357 13.6811 0.247772 12.7905L0.207767 12.3655L0.132757 11.4554C0.0562854 10.4724 0.0155868 9.48694 0.0107422 8.501C0.0107422 7.51787 0.0627486 6.48975 0.132757 5.54663L0.207767 4.63651C0.220768 4.4905 0.23377 4.34948 0.247772 4.21146C0.334323 3.32105 0.732049 2.48966 1.371 1.86351C2.00996 1.23736 2.84922 0.856547 3.74121 0.788036L4.56231 0.724028L5.46242 0.66302L6.42454 0.606013L7.42867 0.558007C8.28927 0.520636 9.15057 0.501295 10.012 0.5ZM8.01174 6.07569V10.9263C8.01174 11.3884 8.5118 11.6764 8.91185 11.4464L13.1124 9.02106C13.2038 8.96844 13.2797 8.89267 13.3325 8.80137C13.3853 8.71006 13.4131 8.60646 13.4131 8.501C13.4131 8.39553 13.3853 8.29193 13.3325 8.20062C13.2797 8.10932 13.2038 8.03355 13.1124 7.98093L8.91185 5.55663C8.8206 5.50394 8.71708 5.47622 8.61172 5.47623C8.50635 5.47625 8.40284 5.50401 8.31161 5.55673C8.22038 5.60944 8.14463 5.68525 8.09199 5.77652C8.03935 5.8678 8.01167 5.97133 8.01174 6.07669V6.07569Z" fill="#0066B2"/>
</svg>
