<svg width="20" height="20" viewBox="0 0 20 20" fill="none" xmlns="http://www.w3.org/2000/svg">
<path d="M8.54134 3.54232C8.7071 3.54232 8.86607 3.60817 8.98328 3.72538C9.10049 3.84259 9.16634 4.00156 9.16634 4.16732V10.834H15.833C15.984 10.834 16.13 10.8887 16.2438 10.988C16.3576 11.0872 16.4316 11.2244 16.4522 11.374L16.458 11.459C16.458 15.6007 13.0997 18.5423 8.95801 18.5423C6.96888 18.5423 5.06123 17.7521 3.65471 16.3456C2.24818 14.9391 1.45801 13.0314 1.45801 11.0423C1.45801 6.90065 4.39967 3.54232 8.54134 3.54232ZM7.91634 4.82315L7.74218 4.84315C4.66717 5.23482 2.70801 7.86149 2.70801 11.0423C2.70801 12.6999 3.36649 14.2896 4.53859 15.4617C5.71069 16.6338 7.30041 17.2923 8.95801 17.2923C12.1388 17.2923 14.7647 15.3323 15.158 12.2582L15.1763 12.084H8.54134C8.39031 12.084 8.24439 12.0293 8.13057 11.93C8.01674 11.8307 7.94272 11.6936 7.92217 11.544L7.91634 11.459V4.82315ZM11.0413 1.45898C13.0305 1.45898 14.9381 2.24916 16.3446 3.65568C17.7512 5.06221 18.5413 6.96986 18.5413 8.95898C18.5413 9.12475 18.4755 9.28372 18.3583 9.40093C18.2411 9.51814 18.0821 9.58398 17.9163 9.58398H11.0413C10.8756 9.58398 10.7166 9.51814 10.5994 9.40093C10.4822 9.28372 10.4163 9.12475 10.4163 8.95898V2.08398C10.4163 1.91822 10.4822 1.75925 10.5994 1.64204C10.7166 1.52483 10.8756 1.45898 11.0413 1.45898ZM11.6663 2.73982V8.33398H17.2597L17.2405 8.15982C17.0634 6.78964 16.4375 5.51669 15.4606 4.53977C14.4836 3.56285 13.2107 2.93695 11.8405 2.75982L11.6663 2.73982Z" fill="#00AEEF"/>
</svg>
