<svg width="18" height="18" viewBox="0 0 18 18" fill="none" xmlns="http://www.w3.org/2000/svg">
<path d="M7.54134 2.54232C7.7071 2.54232 7.86607 2.60817 7.98328 2.72538C8.10049 2.84259 8.16634 3.00156 8.16634 3.16732V9.83398H14.833C14.984 9.83399 15.13 9.88869 15.2438 9.98796C15.3576 10.0872 15.4316 10.2244 15.4522 10.374L15.458 10.459C15.458 14.6007 12.0997 17.5423 7.95801 17.5423C5.96888 17.5423 4.06123 16.7521 2.65471 15.3456C1.24818 13.9391 0.458008 12.0314 0.458008 10.0423C0.458008 5.90065 3.39967 2.54232 7.54134 2.54232ZM6.91634 3.82315L6.74218 3.84315C3.66717 4.23482 1.70801 6.86149 1.70801 10.0423C1.70801 11.6999 2.36649 13.2896 3.53859 14.4617C4.71069 15.6338 6.30041 16.2923 7.95801 16.2923C11.1388 16.2923 13.7647 14.3323 14.158 11.2582L14.1763 11.084H7.54134C7.39031 11.084 7.24439 11.0293 7.13057 10.93C7.01674 10.8307 6.94272 10.6936 6.92217 10.544L6.91634 10.459V3.82315ZM10.0413 0.458984C12.0305 0.458984 13.9381 1.24916 15.3446 2.65568C16.7512 4.06221 17.5413 5.96986 17.5413 7.95898C17.5413 8.12475 17.4755 8.28372 17.3583 8.40093C17.2411 8.51814 17.0821 8.58398 16.9163 8.58398H10.0413C9.87558 8.58398 9.71661 8.51814 9.5994 8.40093C9.48219 8.28372 9.41634 8.12475 9.41634 7.95898V1.08398C9.41634 0.918224 9.48219 0.759253 9.5994 0.642043C9.71661 0.524832 9.87558 0.458984 10.0413 0.458984ZM10.6663 1.73982V7.33398H16.2597L16.2405 7.15982C16.0634 5.78964 15.4375 4.51669 14.4606 3.53977C13.4836 2.56285 12.2107 1.93695 10.8405 1.75982L10.6663 1.73982Z" fill="#273240"/>
</svg>
